<svg width="664" height="344" viewBox="0 0 664 344" fill="none" xmlns="http://www.w3.org/2000/svg">
<path d="M5 17.5L19 3.5" stroke="#292D32" stroke-width="1.5" stroke-miterlimit="10" stroke-linecap="round" stroke-linejoin="round"/>
<path d="M5 7.22998V17.5H15.27" stroke="#292D32" stroke-width="1.5" stroke-miterlimit="10" stroke-linecap="round" stroke-linejoin="round"/>
<path d="M3.5 22H20.5" stroke="#292D32" stroke-width="1.5" stroke-miterlimit="10" stroke-linecap="round" stroke-linejoin="round"/>
<path d="M67.5 22H84.5" stroke="#292D32" stroke-width="1.5" stroke-miterlimit="10" stroke-linecap="round" stroke-linejoin="round"/>
<path d="M69 3.5L83 17.5" stroke="#292D32" stroke-width="1.5" stroke-miterlimit="10" stroke-linecap="round" stroke-linejoin="round"/>
<path d="M69 13.77V3.5H79.27" stroke="#292D32" stroke-width="1.5" stroke-miterlimit="10" stroke-linecap="round" stroke-linejoin="round"/>
<path d="M145.28 10.45L149 6.72998L145.28 3.01001" stroke="#292D32" stroke-width="1.5" stroke-linecap="round" stroke-linejoin="round"/>
<path d="M131 6.72998H149" stroke="#292D32" stroke-width="1.5" stroke-linecap="round" stroke-linejoin="round"/>
<path d="M134.72 13.55L131 17.2701L134.72 20.9901" stroke="#292D32" stroke-width="1.5" stroke-linecap="round" stroke-linejoin="round"/>
<path d="M149 17.27H131" stroke="#292D32" stroke-width="1.5" stroke-linecap="round" stroke-linejoin="round"/>
<path d="M202.45 6.71997L198.73 3L195.01 6.71997" stroke="#292D32" stroke-width="1.5" stroke-linecap="round" stroke-linejoin="round"/>
<path d="M198.729 21V3" stroke="#292D32" stroke-width="1.5" stroke-linecap="round" stroke-linejoin="round"/>
<path d="M205.55 17.28L209.27 21L212.99 17.28" stroke="#292D32" stroke-width="1.5" stroke-linecap="round" stroke-linejoin="round"/>
<path d="M209.27 3V21" stroke="#292D32" stroke-width="1.5" stroke-linecap="round" stroke-linejoin="round"/>
<path d="M201 214H207C212 214 214 212 214 207V201C214 196 212 194 207 194H201C196 194 194 196 194 201V207C194 212 196 214 201 214Z" stroke="#292D32" stroke-width="1.5" stroke-linecap="round" stroke-linejoin="round"/>
<path d="M209.149 205.82L206.109 208.86" stroke="#292D32" stroke-width="1.5" stroke-miterlimit="10" stroke-linecap="round" stroke-linejoin="round"/>
<path d="M198.85 205.82H209.15" stroke="#292D32" stroke-width="1.5" stroke-miterlimit="10" stroke-linecap="round" stroke-linejoin="round"/>
<path d="M198.85 202.18L201.89 199.14" stroke="#292D32" stroke-width="1.5" stroke-miterlimit="10" stroke-linecap="round" stroke-linejoin="round"/>
<path d="M209.15 202.18H198.85" stroke="#292D32" stroke-width="1.5" stroke-miterlimit="10" stroke-linecap="round" stroke-linejoin="round"/>
<path d="M265 214H271C276 214 278 212 278 207V201C278 196 276 194 271 194H265C260 194 258 196 258 201V207C258 212 260 214 265 214Z" stroke="#292D32" stroke-width="1.5" stroke-linecap="round" stroke-linejoin="round"/>
<path d="M266.18 209.15L263.14 206.11" stroke="#292D32" stroke-width="1.5" stroke-miterlimit="10" stroke-linecap="round" stroke-linejoin="round"/>
<path d="M266.18 198.85V209.15" stroke="#292D32" stroke-width="1.5" stroke-miterlimit="10" stroke-linecap="round" stroke-linejoin="round"/>
<path d="M269.82 198.85L272.86 201.89" stroke="#292D32" stroke-width="1.5" stroke-miterlimit="10" stroke-linecap="round" stroke-linejoin="round"/>
<path d="M269.82 209.15V198.85" stroke="#292D32" stroke-width="1.5" stroke-miterlimit="10" stroke-linecap="round" stroke-linejoin="round"/>
<path d="M329 214H335C340 214 342 212 342 207V201C342 196 340 194 335 194H329C324 194 322 196 322 201V207C322 212 324 214 329 214Z" stroke="#292D32" stroke-width="1.5" stroke-linecap="round" stroke-linejoin="round"/>
<path d="M329 207.38H333.92C335.62 207.38 337 206 337 204.3C337 202.6 335.62 201.22 333.92 201.22H327.15" stroke="#292D32" stroke-width="1.5" stroke-miterlimit="10" stroke-linecap="round" stroke-linejoin="round"/>
<path d="M328.57 202.77L327 201.19L328.57 199.62" stroke="#292D32" stroke-width="1.5" stroke-linecap="round" stroke-linejoin="round"/>
<path d="M649 214H655C660 214 662 212 662 207V201C662 196 660 194 655 194H649C644 194 642 196 642 201V207C642 212 644 214 649 214Z" stroke="#292D32" stroke-width="1.5" stroke-linecap="round" stroke-linejoin="round"/>
<path d="M649 203.51L652 206.51L655 203.51" stroke="#292D32" stroke-width="1.5" stroke-linecap="round" stroke-linejoin="round"/>
<path d="M652 206.51V198.51" stroke="#292D32" stroke-width="1.5" stroke-linecap="round" stroke-linejoin="round"/>
<path d="M646 208.51C649.89 209.81 654.11 209.81 658 208.51" stroke="#292D32" stroke-width="1.5" stroke-linecap="round" stroke-linejoin="round"/>
<path d="M393 214H399C404 214 406 212 406 207V201C406 196 404 194 399 194H393C388 194 386 196 386 201V207C386 212 388 214 393 214Z" stroke="#292D32" stroke-width="1.5" stroke-linecap="round" stroke-linejoin="round"/>
<path d="M399 207.38H394.08C392.38 207.38 391 206 391 204.3C391 202.6 392.38 201.22 394.08 201.22H400.85" stroke="#292D32" stroke-width="1.5" stroke-miterlimit="10" stroke-linecap="round" stroke-linejoin="round"/>
<path d="M399.43 202.77L401 201.19L399.43 199.62" stroke="#292D32" stroke-width="1.5" stroke-linecap="round" stroke-linejoin="round"/>
<path d="M521 214H527C532 214 534 212 534 207V201C534 196 532 194 527 194H521C516 194 514 196 514 201V207C514 212 516 214 521 214Z" stroke="#292D32" stroke-width="1.5" stroke-linecap="round" stroke-linejoin="round"/>
<path d="M525.67 199.51C525.17 199.36 524.62 199.26 524 199.26C521.24 199.26 519 201.5 519 204.26C519 207.02 521.24 209.26 524 209.26C526.76 209.26 529 207.02 529 204.26C529 203.23 528.69 202.28 528.16 201.48" stroke="#292D32" stroke-width="1.5" stroke-linecap="round" stroke-linejoin="round"/>
<path d="M526.38 199.65L524.72 197.74" stroke="#292D32" stroke-width="1.5" stroke-linecap="round" stroke-linejoin="round"/>
<path d="M526.38 199.65L524.44 201.07" stroke="#292D32" stroke-width="1.5" stroke-linecap="round" stroke-linejoin="round"/>
<path d="M586.33 199.51C586.83 199.36 587.38 199.26 588 199.26C590.76 199.26 593 201.5 593 204.26C593 207.02 590.76 209.26 588 209.26C585.24 209.26 583 207.02 583 204.26C583 203.23 583.31 202.28 583.84 201.48" stroke="#292D32" stroke-width="1.5" stroke-linecap="round" stroke-linejoin="round"/>
<path d="M585.62 199.65L587.28 197.74" stroke="#292D32" stroke-width="1.5" stroke-linecap="round" stroke-linejoin="round"/>
<path d="M585.62 199.65L587.56 201.07" stroke="#292D32" stroke-width="1.5" stroke-linecap="round" stroke-linejoin="round"/>
<path d="M585 214H591C596 214 598 212 598 207V201C598 196 596 194 591 194H585C580 194 578 196 578 201V207C578 212 580 214 585 214Z" stroke="#292D32" stroke-width="1.5" stroke-linecap="round" stroke-linejoin="round"/>
<path d="M457 214H463C468 214 470 212 470 207V201C470 196 468 194 463 194H457C452 194 450 196 450 201V207C450 212 452 214 457 214Z" stroke="#292D32" stroke-width="1.5" stroke-linecap="round" stroke-linejoin="round"/>
<path d="M465.5 204C465.5 207.04 463.04 209.5 460 209.5C456.96 209.5 455.11 206.44 455.11 206.44M455.11 206.44H457.59M455.11 206.44V209.19M454.5 204C454.5 200.96 456.94 198.5 460 198.5C463.67 198.5 465.5 201.56 465.5 201.56M465.5 201.56V198.81M465.5 201.56H463.06" stroke="#292D32" stroke-width="1.5" stroke-linecap="round" stroke-linejoin="round"/>
<path d="M9 278H15C20 278 22 276 22 271V265C22 260 20 258 15 258H9C4 258 2 260 2 265V271C2 276 4 278 9 278Z" stroke="#292D32" stroke-width="1.5" stroke-linecap="round" stroke-linejoin="round"/>
<path d="M9 265.51L12 262.51L15 265.51" stroke="#292D32" stroke-width="1.5" stroke-linecap="round" stroke-linejoin="round"/>
<path d="M12 262.51V270.51" stroke="#292D32" stroke-width="1.5" stroke-linecap="round" stroke-linejoin="round"/>
<path d="M6 272.51C9.89 273.81 14.11 273.81 18 272.51" stroke="#292D32" stroke-width="1.5" stroke-linecap="round" stroke-linejoin="round"/>
<path d="M73 278H79C84 278 86 276 86 271V265C86 260 84 258 79 258H73C68 258 66 260 66 265V271C66 276 68 278 73 278Z" stroke="#292D32" stroke-width="1.5" stroke-linecap="round" stroke-linejoin="round"/>
<path d="M74.5898 263.68H78.8298V267.93" stroke="#292D32" stroke-width="1.5" stroke-linecap="round" stroke-linejoin="round"/>
<path d="M78.8299 263.68L73.1699 269.34" stroke="#292D32" stroke-width="1.5" stroke-linecap="round" stroke-linejoin="round"/>
<path d="M70 272.51C73.89 273.81 78.11 273.81 82 272.51" stroke="#292D32" stroke-width="1.5" stroke-linecap="round" stroke-linejoin="round"/>
<path d="M137 278H143C148 278 150 276 150 271V265C150 260 148 258 143 258H137C132 258 130 260 130 265V271C130 276 132 278 137 278Z" stroke="#292D32" stroke-width="1.5" stroke-linecap="round" stroke-linejoin="round"/>
<path d="M138.59 269.34H142.83V265.1" stroke="#292D32" stroke-width="1.5" stroke-linecap="round" stroke-linejoin="round"/>
<path d="M142.83 269.34L137.17 263.68" stroke="#292D32" stroke-width="1.5" stroke-linecap="round" stroke-linejoin="round"/>
<path d="M134 272.51C137.89 273.81 142.11 273.81 146 272.51" stroke="#292D32" stroke-width="1.5" stroke-linecap="round" stroke-linejoin="round"/>
<path d="M333.82 326.85L336.86 329.89" stroke="#292D32" stroke-width="1.5" stroke-miterlimit="10" stroke-linecap="round" stroke-linejoin="round"/>
<path d="M333.82 337.15V326.85" stroke="#292D32" stroke-width="1.5" stroke-miterlimit="10" stroke-linecap="round" stroke-linejoin="round"/>
<path d="M330.18 337.15L327.14 334.11" stroke="#292D32" stroke-width="1.5" stroke-miterlimit="10" stroke-linecap="round" stroke-linejoin="round"/>
<path d="M330.18 326.85V337.15" stroke="#292D32" stroke-width="1.5" stroke-miterlimit="10" stroke-linecap="round" stroke-linejoin="round"/>
<path d="M332 342C337.523 342 342 337.523 342 332C342 326.477 337.523 322 332 322C326.477 322 322 326.477 322 332C322 337.523 326.477 342 332 342Z" stroke="#292D32" stroke-width="1.5" stroke-linecap="round" stroke-linejoin="round"/>
<path d="M401.149 333.82L398.109 336.86" stroke="#292D32" stroke-width="1.5" stroke-miterlimit="10" stroke-linecap="round" stroke-linejoin="round"/>
<path d="M390.85 333.82H401.15" stroke="#292D32" stroke-width="1.5" stroke-miterlimit="10" stroke-linecap="round" stroke-linejoin="round"/>
<path d="M390.85 330.18L393.89 327.14" stroke="#292D32" stroke-width="1.5" stroke-miterlimit="10" stroke-linecap="round" stroke-linejoin="round"/>
<path d="M401.15 330.18H390.85" stroke="#292D32" stroke-width="1.5" stroke-miterlimit="10" stroke-linecap="round" stroke-linejoin="round"/>
<path d="M396 342C401.523 342 406 337.523 406 332C406 326.477 401.523 322 396 322C390.477 322 386 326.477 386 332C386 337.523 390.477 342 396 342Z" stroke="#292D32" stroke-width="1.5" stroke-linecap="round" stroke-linejoin="round"/>
<path d="M451.58 325.16H465.42C467.08 325.16 468.42 326.5 468.42 328.16V331.48" stroke="#292D32" stroke-width="1.5" stroke-miterlimit="10" stroke-linecap="round" stroke-linejoin="round"/>
<path d="M454.74 322L451.58 325.16L454.74 328.32" stroke="#292D32" stroke-width="1.5" stroke-miterlimit="10" stroke-linecap="round" stroke-linejoin="round"/>
<path d="M468.42 338.84H454.58C452.92 338.84 451.58 337.5 451.58 335.84V332.52" stroke="#292D32" stroke-width="1.5" stroke-miterlimit="10" stroke-linecap="round" stroke-linejoin="round"/>
<path d="M465.26 342L468.42 338.84L465.26 335.68" stroke="#292D32" stroke-width="1.5" stroke-miterlimit="10" stroke-linecap="round" stroke-linejoin="round"/>
<path d="M519.5 328.34H526.9C527.79 328.34 528.5 329.06 528.5 329.94V331.71" stroke="#292D32" stroke-width="1.5" stroke-miterlimit="10" stroke-linecap="round" stroke-linejoin="round"/>
<path d="M521.19 326.66L519.5 328.34L521.19 330.03" stroke="#292D32" stroke-width="1.5" stroke-miterlimit="10" stroke-linecap="round" stroke-linejoin="round"/>
<path d="M528.5 335.66H521.1C520.21 335.66 519.5 334.94 519.5 334.06V332.29" stroke="#292D32" stroke-width="1.5" stroke-miterlimit="10" stroke-linecap="round" stroke-linejoin="round"/>
<path d="M526.81 337.34L528.5 335.66L526.81 333.97" stroke="#292D32" stroke-width="1.5" stroke-miterlimit="10" stroke-linecap="round" stroke-linejoin="round"/>
<path d="M524 342C529.523 342 534 337.523 534 332C534 326.477 529.523 322 524 322C518.477 322 514 326.477 514 332C514 337.523 518.477 342 524 342Z" stroke="#292D32" stroke-width="1.5" stroke-miterlimit="10" stroke-linecap="round" stroke-linejoin="round"/>
<path d="M588 342C593.523 342 598 337.523 598 332C598 326.477 593.523 322 588 322C582.477 322 578 326.477 578 332C578 337.523 582.477 342 588 342Z" stroke="#292D32" stroke-width="1.5" stroke-linecap="round" stroke-linejoin="round"/>
<path d="M584.01 334.51C584.19 334.81 584.41 335.09 584.66 335.34C586.5 337.18 589.49 337.18 591.34 335.34C592.09 334.59 592.52 333.64 592.66 332.67" stroke="#292D32" stroke-width="1.5" stroke-linecap="round" stroke-linejoin="round"/>
<path d="M583.34 331.33C583.48 330.35 583.91 329.41 584.66 328.66C586.5 326.82 589.49 326.82 591.34 328.66C591.6 328.92 591.81 329.2 591.99 329.49" stroke="#292D32" stroke-width="1.5" stroke-linecap="round" stroke-linejoin="round"/>
<path d="M583.82 337.18V334.51H586.49" stroke="#292D32" stroke-width="1.5" stroke-linecap="round" stroke-linejoin="round"/>
<path d="M592.18 326.82V329.49H589.51" stroke="#292D32" stroke-width="1.5" stroke-linecap="round" stroke-linejoin="round"/>
<path d="M329 22H335C340 22 342 20 342 15V9C342 4 340 2 335 2H329C324 2 322 4 322 9V15C322 20 324 22 329 22Z" stroke="#292D32" stroke-width="1.5" stroke-linecap="round" stroke-linejoin="round"/>
<path d="M328.47 10.64L332 14.16L335.53 10.64" stroke="#292D32" stroke-width="1.5" stroke-linecap="round" stroke-linejoin="round"/>
<path d="M585.57 5.93005L579.5 12.0001L585.57 18.0701" stroke="#292D32" stroke-width="1.5" stroke-miterlimit="10" stroke-linecap="round" stroke-linejoin="round"/>
<path d="M596.5 12H579.67" stroke="#292D32" stroke-width="1.5" stroke-miterlimit="10" stroke-linecap="round" stroke-linejoin="round"/>
<path d="M265 22H271C276 22 278 20 278 15V9C278 4 276 2 271 2H265C260 2 258 4 258 9V15C258 20 260 22 265 22Z" stroke="#292D32" stroke-width="1.5" stroke-linecap="round" stroke-linejoin="round"/>
<path d="M264.47 13.4599L268 9.93994L271.53 13.4599" stroke="#292D32" stroke-width="1.5" stroke-linecap="round" stroke-linejoin="round"/>
<path d="M393 22H399C404 22 406 20 406 15V9C406 4 404 2 399 2H393C388 2 386 4 386 9V15C386 20 388 22 393 22Z" stroke="#292D32" stroke-width="1.5" stroke-linecap="round" stroke-linejoin="round"/>
<path d="M397.26 15.53L393.74 12L397.26 8.46997" stroke="#292D32" stroke-width="1.5" stroke-linecap="round" stroke-linejoin="round"/>
<path d="M457 22H463C468 22 470 20 470 15V9C470 4 468 2 463 2H457C452 2 450 4 450 9V15C450 20 452 22 457 22Z" stroke="#292D32" stroke-width="1.5" stroke-linecap="round" stroke-linejoin="round"/>
<path d="M458.74 15.53L462.26 12L458.74 8.46997" stroke="#292D32" stroke-width="1.5" stroke-linecap="round" stroke-linejoin="round"/>
<path d="M526.43 5.93005L532.5 12.0001L526.43 18.0701" stroke="#292D32" stroke-width="1.5" stroke-miterlimit="10" stroke-linecap="round" stroke-linejoin="round"/>
<path d="M515.5 12H532.33" stroke="#292D32" stroke-width="1.5" stroke-miterlimit="10" stroke-linecap="round" stroke-linejoin="round"/>
<path d="M658.07 9.57L652 3.5L645.93 9.57" stroke="#292D32" stroke-width="1.5" stroke-miterlimit="10" stroke-linecap="round" stroke-linejoin="round"/>
<path d="M652 20.5V3.67004" stroke="#292D32" stroke-width="1.5" stroke-miterlimit="10" stroke-linecap="round" stroke-linejoin="round"/>
<path d="M332 86C337.523 86 342 81.5228 342 76C342 70.4772 337.523 66 332 66C326.477 66 322 70.4772 322 76C322 81.5228 326.477 86 332 86Z" stroke="#292D32" stroke-width="1.5" stroke-miterlimit="10" stroke-linecap="round" stroke-linejoin="round"/>
<path d="M333.26 79.53L329.74 76L333.26 72.47" stroke="#292D32" stroke-width="1.5" stroke-linecap="round" stroke-linejoin="round"/>
<path d="M396 86C401.523 86 406 81.5228 406 76C406 70.4772 401.523 66 396 66C390.477 66 386 70.4772 386 76C386 81.5228 390.477 86 396 86Z" stroke="#292D32" stroke-width="1.5" stroke-miterlimit="10" stroke-linecap="round" stroke-linejoin="round"/>
<path d="M394.74 79.53L398.26 76L394.74 72.47" stroke="#292D32" stroke-width="1.5" stroke-linecap="round" stroke-linejoin="round"/>
<path d="M460 86C465.523 86 470 81.5228 470 76C470 70.4772 465.523 66 460 66C454.477 66 450 70.4772 450 76C450 81.5228 454.477 86 460 86Z" stroke="#292D32" stroke-width="1.5" stroke-miterlimit="10" stroke-linecap="round" stroke-linejoin="round"/>
<path d="M456.47 74.74L460 78.26L463.53 74.74" stroke="#292D32" stroke-width="1.5" stroke-linecap="round" stroke-linejoin="round"/>
<path d="M524 86C529.523 86 534 81.5228 534 76C534 70.4772 529.523 66 524 66C518.477 66 514 70.4772 514 76C514 81.5228 518.477 86 524 86Z" stroke="#292D32" stroke-width="1.5" stroke-miterlimit="10" stroke-linecap="round" stroke-linejoin="round"/>
<path d="M520.47 77.26L524 73.74L527.53 77.26" stroke="#292D32" stroke-width="1.5" stroke-linecap="round" stroke-linejoin="round"/>
<path d="M147.92 72.95L141.4 79.47C140.63 80.24 139.37 80.24 138.6 79.47L132.08 72.95" stroke="#292D32" stroke-width="1.5" stroke-miterlimit="10" stroke-linecap="round" stroke-linejoin="round"/>
<path d="M18.0702 78.4301L12.0002 84.5001L5.93018 78.4301" stroke="#292D32" stroke-width="1.5" stroke-miterlimit="10" stroke-linecap="round" stroke-linejoin="round"/>
<path d="M12 67.5V84.33" stroke="#292D32" stroke-width="1.5" stroke-miterlimit="10" stroke-linecap="round" stroke-linejoin="round"/>
<path d="M83.9201 79.05L77.4001 72.53C76.6301 71.76 75.3701 71.76 74.6001 72.53L68.0801 79.05" stroke="#292D32" stroke-width="1.5" stroke-miterlimit="10" stroke-linecap="round" stroke-linejoin="round"/>
<path d="M200.91 83.92L207.43 77.4C208.2 76.63 208.2 75.37 207.43 74.6L200.91 68.08" stroke="#292D32" stroke-width="1.5" stroke-miterlimit="10" stroke-linecap="round" stroke-linejoin="round"/>
<path d="M585.01 84.5L579.99 79.49" stroke="#292D32" stroke-width="1.5" stroke-miterlimit="10" stroke-linecap="round" stroke-linejoin="round"/>
<path d="M585.01 67.5V84.5" stroke="#292D32" stroke-width="1.5" stroke-miterlimit="10" stroke-linecap="round" stroke-linejoin="round"/>
<path d="M590.99 67.5L596.01 72.51" stroke="#292D32" stroke-width="1.5" stroke-miterlimit="10" stroke-linecap="round" stroke-linejoin="round"/>
<path d="M590.99 84.5V67.5" stroke="#292D32" stroke-width="1.5" stroke-miterlimit="10" stroke-linecap="round" stroke-linejoin="round"/>
<path d="M588 150C593.523 150 598 145.523 598 140C598 134.477 593.523 130 588 130C582.477 130 578 134.477 578 140C578 145.523 582.477 150 588 150Z" stroke="#292D32" stroke-width="1.5" stroke-linecap="round" stroke-linejoin="round"/>
<path d="M588 143.5V137.5" stroke="#292D32" stroke-width="1.5" stroke-linecap="round" stroke-linejoin="round"/>
<path d="M585 139.5L588 136.5L591 139.5" stroke="#292D32" stroke-width="1.5" stroke-linecap="round" stroke-linejoin="round"/>
<path d="M271 83.92L264.48 77.4C263.71 76.63 263.71 75.37 264.48 74.6L271 68.08" stroke="#292D32" stroke-width="1.5" stroke-miterlimit="10" stroke-linecap="round" stroke-linejoin="round"/>
<path d="M7.12988 146.31H15.1299C17.8899 146.31 20.1299 144.07 20.1299 141.31C20.1299 138.55 17.8899 136.31 15.1299 136.31H4.12988" stroke="#292D32" stroke-width="1.5" stroke-miterlimit="10" stroke-linecap="round" stroke-linejoin="round"/>
<path d="M6.43012 138.81L3.87012 136.25L6.43012 133.69" stroke="#292D32" stroke-width="1.5" stroke-linecap="round" stroke-linejoin="round"/>
<path d="M660.5 78.99L655.49 84.01" stroke="#292D32" stroke-width="1.5" stroke-miterlimit="10" stroke-linecap="round" stroke-linejoin="round"/>
<path d="M643.5 78.99H660.5" stroke="#292D32" stroke-width="1.5" stroke-miterlimit="10" stroke-linecap="round" stroke-linejoin="round"/>
<path d="M643.5 73.01L648.51 67.99" stroke="#292D32" stroke-width="1.5" stroke-miterlimit="10" stroke-linecap="round" stroke-linejoin="round"/>
<path d="M660.5 73.01H643.5" stroke="#292D32" stroke-width="1.5" stroke-miterlimit="10" stroke-linecap="round" stroke-linejoin="round"/>
<path d="M80.8701 146.31H72.8701C70.1101 146.31 67.8701 144.07 67.8701 141.31C67.8701 138.55 70.1101 136.31 72.8701 136.31H83.8701" stroke="#292D32" stroke-width="1.5" stroke-miterlimit="10" stroke-linecap="round" stroke-linejoin="round"/>
<path d="M81.5698 138.81L84.1298 136.25L81.5698 133.69" stroke="#292D32" stroke-width="1.5" stroke-linecap="round" stroke-linejoin="round"/>
<path d="M12 214C17.5228 214 22 209.523 22 204C22 198.477 17.5228 194 12 194C6.47715 194 2 198.477 2 204C2 209.523 6.47715 214 12 214Z" stroke="#292D32" stroke-width="1.5" stroke-linecap="round" stroke-linejoin="round"/>
<path d="M15.5 204H9.5" stroke="#292D32" stroke-width="1.5" stroke-linecap="round" stroke-linejoin="round"/>
<path d="M11.5 201L8.5 204L11.5 207" stroke="#292D32" stroke-width="1.5" stroke-linecap="round" stroke-linejoin="round"/>
<path d="M652 150C657.523 150 662 145.523 662 140C662 134.477 657.523 130 652 130C646.477 130 642 134.477 642 140C642 145.523 646.477 150 652 150Z" stroke="#292D32" stroke-width="1.5" stroke-linecap="round" stroke-linejoin="round"/>
<path d="M648.5 140H654.5" stroke="#292D32" stroke-width="1.5" stroke-linecap="round" stroke-linejoin="round"/>
<path d="M652.5 143L655.5 140L652.5 137" stroke="#292D32" stroke-width="1.5" stroke-linecap="round" stroke-linejoin="round"/>
<path d="M76 214C81.5228 214 86 209.523 86 204C86 198.477 81.5228 194 76 194C70.4772 194 66 198.477 66 204C66 209.523 70.4772 214 76 214Z" stroke="#292D32" stroke-width="1.5" stroke-linecap="round" stroke-linejoin="round"/>
<path d="M76 200.5V206.5" stroke="#292D32" stroke-width="1.5" stroke-linecap="round" stroke-linejoin="round"/>
<path d="M73 204.5L76 207.5L79 204.5" stroke="#292D32" stroke-width="1.5" stroke-linecap="round" stroke-linejoin="round"/>
<path d="M137.11 133.08C137.98 132.82 138.94 132.65 140 132.65C144.79 132.65 148.67 136.53 148.67 141.32C148.67 146.11 144.79 149.99 140 149.99C135.21 149.99 131.33 146.11 131.33 141.32C131.33 139.54 131.87 137.88 132.79 136.5" stroke="#292D32" stroke-width="1.5" stroke-linecap="round" stroke-linejoin="round"/>
<path d="M135.87 133.32L138.76 130" stroke="#292D32" stroke-width="1.5" stroke-linecap="round" stroke-linejoin="round"/>
<path d="M135.87 133.32L139.24 135.78" stroke="#292D32" stroke-width="1.5" stroke-linecap="round" stroke-linejoin="round"/>
<path d="M528.44 264.9C532.04 265.21 533.51 267.06 533.51 271.11V271.24C533.51 275.71 531.72 277.5 527.25 277.5H520.74C516.27 277.5 514.48 275.71 514.48 271.24V271.11C514.48 267.09 515.93 265.24 519.47 264.91" stroke="#292D32" stroke-width="1.5" stroke-linecap="round" stroke-linejoin="round"/>
<path d="M524 258V270.88" stroke="#292D32" stroke-width="1.5" stroke-linecap="round" stroke-linejoin="round"/>
<path d="M527.35 268.65L524 272L520.65 268.65" stroke="#292D32" stroke-width="1.5" stroke-linecap="round" stroke-linejoin="round"/>
<path d="M206.89 133.08C206.02 132.82 205.06 132.65 204 132.65C199.21 132.65 195.33 136.53 195.33 141.32C195.33 146.12 199.21 150 204 150C208.79 150 212.67 146.12 212.67 141.33C212.67 139.55 212.13 137.89 211.21 136.51" stroke="#292D32" stroke-width="1.5" stroke-linecap="round" stroke-linejoin="round"/>
<path d="M208.13 133.32L205.24 130" stroke="#292D32" stroke-width="1.5" stroke-linecap="round" stroke-linejoin="round"/>
<path d="M208.13 133.32L204.76 135.78" stroke="#292D32" stroke-width="1.5" stroke-linecap="round" stroke-linejoin="round"/>
<path d="M140.005 213.984C145.516 213.984 149.984 209.516 149.984 204.005C149.984 198.494 145.516 194.026 140.005 194.026C134.494 194.026 130.026 198.494 130.026 204.005C130.026 209.516 134.494 213.984 140.005 213.984Z" stroke="#292D32" stroke-width="1.5" stroke-linecap="round" stroke-linejoin="round"/>
<path d="M134.137 196.022L142.3 204.205L142.32 199.664" stroke="#292D32" stroke-width="1.5" stroke-linecap="round" stroke-linejoin="round"/>
<path d="M145.863 211.978L137.7 203.805L137.68 208.336" stroke="#292D32" stroke-width="1.5" stroke-linecap="round" stroke-linejoin="round"/>
<path d="M464.44 264.9C468.04 265.21 469.51 267.06 469.51 271.11V271.24C469.51 275.71 467.72 277.5 463.25 277.5H456.74C452.27 277.5 450.48 275.71 450.48 271.24V271.11C450.48 267.09 451.93 265.24 455.47 264.91" stroke="#292D32" stroke-width="1.5" stroke-linecap="round" stroke-linejoin="round"/>
<path d="M460 271V259.62" stroke="#292D32" stroke-width="1.5" stroke-linecap="round" stroke-linejoin="round"/>
<path d="M463.35 261.85L460 258.5L456.65 261.85" stroke="#292D32" stroke-width="1.5" stroke-linecap="round" stroke-linejoin="round"/>
<path d="M460 146H457.33C454.02 146 452.66 143.65 454.32 140.78L455.66 138.47L457 136.16C458.66 133.29 461.37 133.29 463.03 136.16L464.37 138.47L465.71 140.78C467.37 143.65 466.01 146 462.7 146H460Z" stroke="#292D32" stroke-width="1.5" stroke-miterlimit="10" stroke-linecap="round" stroke-linejoin="round"/>
<path d="M393.32 262.5L395.88 259.94L398.44 262.5" stroke="#292D32" stroke-width="1.5" stroke-miterlimit="10" stroke-linecap="round" stroke-linejoin="round"/>
<path d="M395.88 270.18V260.01" stroke="#292D32" stroke-width="1.5" stroke-miterlimit="10" stroke-linecap="round" stroke-linejoin="round"/>
<path d="M388 268C388 272.42 391 276 396 276C401 276 404 272.42 404 268" stroke="#292D32" stroke-width="1.5" stroke-miterlimit="10" stroke-linecap="round" stroke-linejoin="round"/>
<path d="M584.9 263.56C585.21 259.96 587.06 258.49 591.11 258.49H591.24C595.71 258.49 597.5 260.28 597.5 264.75V271.27C597.5 275.74 595.71 277.53 591.24 277.53H591.11C587.09 277.53 585.24 276.08 584.91 272.54" stroke="#292D32" stroke-width="1.5" stroke-linecap="round" stroke-linejoin="round"/>
<path d="M578 268H590.88" stroke="#292D32" stroke-width="1.5" stroke-linecap="round" stroke-linejoin="round"/>
<path d="M588.65 264.65L592 268L588.65 271.35" stroke="#292D32" stroke-width="1.5" stroke-linecap="round" stroke-linejoin="round"/>
<path d="M338 140V142.67C338 145.98 335.65 147.34 332.78 145.68L330.47 144.34L328.16 143C325.29 141.34 325.29 138.63 328.16 136.97L330.47 135.63L332.78 134.29C335.65 132.66 338 134.01 338 137.33V140Z" stroke="#292D32" stroke-width="1.5" stroke-miterlimit="10" stroke-linecap="round" stroke-linejoin="round"/>
<path d="M648.9 263.56C649.21 259.96 651.06 258.49 655.11 258.49H655.24C659.71 258.49 661.5 260.28 661.5 264.75V271.27C661.5 275.74 659.71 277.53 655.24 277.53H655.11C651.09 277.53 649.24 276.08 648.91 272.54" stroke="#292D32" stroke-width="1.5" stroke-linecap="round" stroke-linejoin="round"/>
<path d="M655 268H643.62" stroke="#292D32" stroke-width="1.5" stroke-linecap="round" stroke-linejoin="round"/>
<path d="M645.85 264.65L642.5 268L645.85 271.35" stroke="#292D32" stroke-width="1.5" stroke-linecap="round" stroke-linejoin="round"/>
<path d="M524 134H526.67C529.98 134 531.34 136.35 529.68 139.22L528.34 141.53L527 143.84C525.34 146.71 522.63 146.71 520.97 143.84L519.63 141.53L518.29 139.22C516.66 136.35 518.01 134 521.33 134H524Z" stroke="#292D32" stroke-width="1.5" stroke-miterlimit="10" stroke-linecap="round" stroke-linejoin="round"/>
<path d="M203.68 270.62L206.24 268.06L203.68 265.5" stroke="#292D32" stroke-width="1.5" stroke-miterlimit="10" stroke-linecap="round" stroke-linejoin="round"/>
<path d="M196 268.06H206.17" stroke="#292D32" stroke-width="1.5" stroke-miterlimit="10" stroke-linecap="round" stroke-linejoin="round"/>
<path d="M204 260C208.42 260 212 263 212 268C212 273 208.42 276 204 276" stroke="#292D32" stroke-width="1.5" stroke-miterlimit="10" stroke-linecap="round" stroke-linejoin="round"/>
<path d="M76 322C70.48 322 66 326.48 66 332C66 337.52 70.48 342 76 342C81.52 342 86 337.52 86 332" stroke="#292D32" stroke-width="1.5" stroke-miterlimit="10" stroke-linecap="round" stroke-linejoin="round"/>
<path d="M85.9998 322L77.7998 330.2" stroke="#292D32" stroke-width="1.5" stroke-linecap="round" stroke-linejoin="round"/>
<path d="M77 326.17V331H81.83" stroke="#292D32" stroke-width="1.5" stroke-linecap="round" stroke-linejoin="round"/>
<path d="M205 331L213.2 322.8" stroke="#292D32" stroke-width="1.5" stroke-linecap="round" stroke-linejoin="round"/>
<path d="M214 326.8V322H209.2" stroke="#292D32" stroke-width="1.5" stroke-linecap="round" stroke-linejoin="round"/>
<path d="M203 322H201C196 322 194 324 194 329V335C194 340 196 342 201 342H207C212 342 214 340 214 335V333" stroke="#292D32" stroke-width="1.5" stroke-linecap="round" stroke-linejoin="round"/>
<path d="M273.44 270.62L276 268.06L273.44 265.5" stroke="#292D32" stroke-width="1.5" stroke-miterlimit="10" stroke-linecap="round" stroke-linejoin="round"/>
<path d="M265.76 268.06H275.93" stroke="#292D32" stroke-width="1.5" stroke-miterlimit="10" stroke-linecap="round" stroke-linejoin="round"/>
<path d="M267.76 276C263.34 276 259.76 273 259.76 268C259.76 263 263.34 260 267.76 260" stroke="#292D32" stroke-width="1.5" stroke-miterlimit="10" stroke-linecap="round" stroke-linejoin="round"/>
<path d="M150 322L141.8 330.2" stroke="#292D32" stroke-width="1.5" stroke-linecap="round" stroke-linejoin="round"/>
<path d="M141 326.17V331H145.83" stroke="#292D32" stroke-width="1.5" stroke-linecap="round" stroke-linejoin="round"/>
<path d="M139 322H137C132 322 130 324 130 329V335C130 340 132 342 137 342H143C148 342 150 340 150 335V333" stroke="#292D32" stroke-width="1.5" stroke-linecap="round" stroke-linejoin="round"/>
<path d="M390 140V137.33C390 134.02 392.35 132.66 395.22 134.32L397.53 135.66L399.84 137C402.71 138.66 402.71 141.37 399.84 143.03L397.53 144.37L395.22 145.71C392.35 147.34 390 145.99 390 142.67V140Z" stroke="#292D32" stroke-width="1.5" stroke-miterlimit="10" stroke-linecap="round" stroke-linejoin="round"/>
<path d="M329.32 267.68L331.88 270.24L334.44 267.68" stroke="#292D32" stroke-width="1.5" stroke-miterlimit="10" stroke-linecap="round" stroke-linejoin="round"/>
<path d="M331.88 260V270.17" stroke="#292D32" stroke-width="1.5" stroke-miterlimit="10" stroke-linecap="round" stroke-linejoin="round"/>
<path d="M340 268.18C340 272.6 337 276.18 332 276.18C327 276.18 324 272.6 324 268.18" stroke="#292D32" stroke-width="1.5" stroke-miterlimit="10" stroke-linecap="round" stroke-linejoin="round"/>
<path d="M270.55 341.67C274.84 340.54 278 336.64 278 332C278 326.48 273.56 322 268 322C261.33 322 258 327.56 258 327.56M258 327.56V323M258 327.56H260.01H262.44" stroke="#292D32" stroke-width="1.5" stroke-linecap="round" stroke-linejoin="round"/>
<path d="M258 332C258 337.52 262.48 342 268 342" stroke="#292D32" stroke-width="1.5" stroke-linecap="round" stroke-linejoin="round" stroke-dasharray="3 3"/>
<path d="M278 140C278 145.52 273.52 150 268 150C262.48 150 259.11 144.44 259.11 144.44M259.11 144.44H263.63M259.11 144.44V149.44M258 140C258 134.48 262.44 130 268 130C274.67 130 278 135.56 278 135.56M278 135.56V130.56M278 135.56H273.56" stroke="#292D32" stroke-width="1.5" stroke-linecap="round" stroke-linejoin="round"/>
<path d="M12 322C6.48 322 2 326.48 2 332C2 337.52 6.48 342 12 342C17.52 342 22 337.52 22 332" stroke="#292D32" stroke-width="1.5" stroke-miterlimit="10" stroke-linecap="round" stroke-linejoin="round"/>
<path d="M13 331L21.2 322.8" stroke="#292D32" stroke-width="1.5" stroke-linecap="round" stroke-linejoin="round"/>
<path d="M21.9999 326.83V322H17.1699" stroke="#292D32" stroke-width="1.5" stroke-linecap="round" stroke-linejoin="round"/>
</svg>
