<svg width="664" height="88" viewBox="0 0 664 88" fill="none" xmlns="http://www.w3.org/2000/svg">
<path d="M194 66V83C194 84.66 195.34 86 197 86H214" stroke="#292D32" stroke-width="1.5" stroke-miterlimit="10" stroke-linecap="round" stroke-linejoin="round"/>
<path d="M197 81L201.59 75.64C202.35 74.76 203.7 74.7 204.52 75.53L205.47 76.48C206.29 77.3 207.64 77.25 208.4 76.37L213 71" stroke="#292D32" stroke-width="1.5" stroke-miterlimit="10" stroke-linecap="round" stroke-linejoin="round"/>
<path d="M261.9 81H274.09C275.99 81 276.99 80 276.99 78.1V66H258.99V78.1C259 80 260 81 261.9 81Z" stroke="#292D32" stroke-width="1.5" stroke-miterlimit="10" stroke-linecap="round" stroke-linejoin="round"/>
<path d="M258 66H278" stroke="#292D32" stroke-width="1.5" stroke-miterlimit="10" stroke-linecap="round" stroke-linejoin="round"/>
<path d="M264 86L268 84V81" stroke="#292D32" stroke-width="1.5" stroke-miterlimit="10" stroke-linecap="round" stroke-linejoin="round"/>
<path d="M272 86L268 84" stroke="#292D32" stroke-width="1.5" stroke-miterlimit="10" stroke-linecap="round" stroke-linejoin="round"/>
<path d="M263.5 75L266.65 72.37C266.9 72.16 267.23 72.22 267.4 72.5L268.6 74.5C268.77 74.78 269.1 74.83 269.35 74.63L272.5 72" stroke="#292D32" stroke-width="1.5" stroke-miterlimit="10" stroke-linecap="round" stroke-linejoin="round"/>
<path d="M323 86H341" stroke="#292D32" stroke-width="1.5" stroke-linecap="round" stroke-linejoin="round"/>
<path d="M325.6 72.3799H324C323.45 72.3799 323 72.8299 323 73.3799V81.9999C323 82.5499 323.45 82.9999 324 82.9999H325.6C326.15 82.9999 326.6 82.5499 326.6 81.9999V73.3799C326.6 72.8299 326.15 72.3799 325.6 72.3799Z" stroke="#292D32" stroke-width="1.5" stroke-linecap="round" stroke-linejoin="round"/>
<path d="M332.8 69.1899H331.2C330.65 69.1899 330.2 69.6399 330.2 70.1899V81.9999C330.2 82.5499 330.65 82.9999 331.2 82.9999H332.8C333.35 82.9999 333.8 82.5499 333.8 81.9999V70.1899C333.8 69.6399 333.35 69.1899 332.8 69.1899Z" stroke="#292D32" stroke-width="1.5" stroke-linecap="round" stroke-linejoin="round"/>
<path d="M340 66H338.4C337.85 66 337.4 66.45 337.4 67V82C337.4 82.55 337.85 83 338.4 83H340C340.55 83 341 82.55 341 82V67C341 66.45 340.55 66 340 66Z" stroke="#292D32" stroke-width="1.5" stroke-linecap="round" stroke-linejoin="round"/>
<path d="M534 77V73C534 68 532 66 527 66H521C516 66 514 68 514 73V79C514 84 516 86 521 86H525" stroke="#292D32" stroke-width="1.5" stroke-linecap="round" stroke-linejoin="round"/>
<path d="M519.33 78.49L521.71 75.4C522.05 74.96 522.68 74.88 523.12 75.22L524.95 76.66C525.39 77 526.02 76.92 526.36 76.49L528.67 73.51" stroke="#292D32" stroke-width="1.5" stroke-linecap="round" stroke-linejoin="round"/>
<path d="M531.48 79.8199L531.76 80.3899C531.9 80.6699 532.25 80.9299 532.56 80.9899L532.94 81.0499C534.08 81.2399 534.35 82.0799 533.53 82.9099L533.18 83.2599C532.95 83.4999 532.82 83.9599 532.89 84.2799L532.94 84.4899C533.25 85.8699 532.52 86.3999 531.32 85.6799L531.06 85.5299C530.75 85.3499 530.25 85.3499 529.94 85.5299L529.68 85.6799C528.47 86.4099 527.74 85.8699 528.06 84.4899L528.11 84.2799C528.18 83.9599 528.05 83.4999 527.82 83.2599L527.47 82.9099C526.65 82.0799 526.92 81.2399 528.06 81.0499L528.44 80.9899C528.74 80.9399 529.1 80.6699 529.24 80.3899L529.52 79.8199C530.06 78.7299 530.94 78.7299 531.48 79.8199Z" stroke="#292D32" stroke-width="1.5" stroke-linecap="round" stroke-linejoin="round"/>
<path d="M22 13V9C22 4 20 2 15 2H9C4 2 2 4 2 9V15C2 20 4 22 9 22H13" stroke="#292D32" stroke-width="1.5" stroke-linecap="round" stroke-linejoin="round"/>
<path d="M22 13V9C22 4 20 2 15 2H9C4 2 2 4 2 9V15C2 20 4 22 9 22H13" stroke="#292D32" stroke-width="1.5" stroke-linecap="round" stroke-linejoin="round"/>
<path d="M22 13V9C22 4 20 2 15 2H9C4 2 2 4 2 9V15C2 20 4 22 9 22H13" stroke="#292D32" stroke-width="1.5" stroke-linecap="round" stroke-linejoin="round"/>
<path d="M16 19.43L17.58 21L21 17" stroke="#292D32" stroke-width="1.5" stroke-linecap="round" stroke-linejoin="round"/>
<path d="M7 10.5V13.5" stroke="#292D32" stroke-width="1.5" stroke-linecap="round" stroke-linejoin="round"/>
<path d="M12 10.5V13.5" stroke="#292D32" stroke-width="1.5" stroke-linecap="round" stroke-linejoin="round"/>
<path d="M17 10.5V13.5" stroke="#292D32" stroke-width="1.5" stroke-linecap="round" stroke-linejoin="round"/>
<path d="M392.97 86H398.97C403.97 86 405.97 84 405.97 79V73C405.97 68 403.97 66 398.97 66H392.97C387.97 66 385.97 68 385.97 73V79C385.97 84 387.97 86 392.97 86Z" stroke="#292D32" stroke-width="1.5" stroke-linecap="round" stroke-linejoin="round"/>
<path d="M385.97 76.7001L391.97 76.6801C392.72 76.6801 393.56 77.2501 393.84 77.9501L394.98 80.8301C395.24 81.4801 395.65 81.4801 395.91 80.8301L398.2 75.0201C398.42 74.4601 398.83 74.4401 399.11 74.9701L400.15 76.9401C400.46 77.5301 401.26 78.0101 401.92 78.0101H405.98" stroke="#292D32" stroke-width="1.5" stroke-linecap="round" stroke-linejoin="round"/>
<path d="M81.23 20.77L84.77 17.23" stroke="#292D32" stroke-width="1.5" stroke-linecap="round" stroke-linejoin="round"/>
<path d="M84.77 20.77L81.23 17.23" stroke="#292D32" stroke-width="1.5" stroke-linecap="round" stroke-linejoin="round"/>
<path d="M71 10.5V13.5" stroke="#292D32" stroke-width="1.5" stroke-linecap="round" stroke-linejoin="round"/>
<path d="M76 10.5V13.5" stroke="#292D32" stroke-width="1.5" stroke-linecap="round" stroke-linejoin="round"/>
<path d="M81 10.5V13.5" stroke="#292D32" stroke-width="1.5" stroke-linecap="round" stroke-linejoin="round"/>
<path d="M86 13V9C86 4 84 2 79 2H73C68 2 66 4 66 9V15C66 20 68 22 73 22H77" stroke="#292D32" stroke-width="1.5" stroke-linecap="round" stroke-linejoin="round"/>
<path d="M265 22H271C276 22 278 20 278 15V9C278 4 276 2 271 2H265C260 2 258 4 258 9V15C258 20 260 22 265 22Z" stroke="#292D32" stroke-width="1.5" stroke-linecap="round" stroke-linejoin="round"/>
<path d="M263.33 14.49L265.71 11.4C266.05 10.96 266.68 10.88 267.12 11.22L268.95 12.66C269.39 13 270.02 12.92 270.36 12.49L272.67 9.51001" stroke="#292D32" stroke-width="1.5" stroke-linecap="round" stroke-linejoin="round"/>
<path d="M137 22H143C148 22 150 20 150 15V9C150 4 148 2 143 2H137C132 2 130 4 130 9V15C130 20 132 22 137 22Z" stroke="#292D32" stroke-width="1.5" stroke-linecap="round" stroke-linejoin="round"/>
<path d="M143.5 18.5C144.6 18.5 145.5 17.6 145.5 16.5V7.5C145.5 6.4 144.6 5.5 143.5 5.5C142.4 5.5 141.5 6.4 141.5 7.5V16.5C141.5 17.6 142.39 18.5 143.5 18.5Z" stroke="#292D32" stroke-width="1.5" stroke-linecap="round" stroke-linejoin="round"/>
<path d="M136.5 18.5C137.6 18.5 138.5 17.6 138.5 16.5V13C138.5 11.9 137.6 11 136.5 11C135.4 11 134.5 11.9 134.5 13V16.5C134.5 17.6 135.39 18.5 136.5 18.5Z" stroke="#292D32" stroke-width="1.5" stroke-linecap="round" stroke-linejoin="round"/>
<path d="M210.32 11.9999C212.92 11.9999 214 10.9999 213.04 7.71994C212.39 5.50994 210.49 3.60994 208.28 2.95994C205 1.99994 204 3.07994 204 5.67994V8.55994C204 10.9999 205 11.9999 207 11.9999H210.32Z" stroke="#292D32" stroke-width="1.5" stroke-linecap="round" stroke-linejoin="round"/>
<path d="M212 14.7C211.07 19.33 206.63 22.69 201.58 21.87C197.79 21.26 194.74 18.21 194.12 14.42C193.31 9.39001 196.65 4.95001 201.26 4.01001" stroke="#292D32" stroke-width="1.5" stroke-linecap="round" stroke-linejoin="round"/>
<path d="M329.02 2.83992L323.63 7.03992C322.73 7.73992 322 9.22992 322 10.3599V17.7699C322 20.0899 323.89 21.9899 326.21 21.9899H337.79C340.11 21.9899 342 20.0899 342 17.7799V10.4999C342 9.28992 341.19 7.73992 340.2 7.04992L334.02 2.71992C332.62 1.73992 330.37 1.78992 329.02 2.83992Z" stroke="#292D32" stroke-width="1.5" stroke-linecap="round" stroke-linejoin="round"/>
<path d="M336.5 11.5L332.3 15.7L330.7 13.3L327.5 16.5" stroke="#292D32" stroke-width="1.5" stroke-linecap="round" stroke-linejoin="round"/>
<path d="M334.5 11.5H336.5V13.5" stroke="#292D32" stroke-width="1.5" stroke-linecap="round" stroke-linejoin="round"/>
<path d="M450 86H470" stroke="#292D32" stroke-width="1.5" stroke-miterlimit="10" stroke-linecap="round" stroke-linejoin="round"/>
<path d="M457.75 68V86H462.25V68C462.25 66.9 461.8 66 460.45 66H459.55C458.2 66 457.75 66.9 457.75 68Z" stroke="#292D32" stroke-width="1.5" stroke-linecap="round" stroke-linejoin="round"/>
<path d="M451 74V86H455V74C455 72.9 454.6 72 453.4 72H452.6C451.4 72 451 72.9 451 74Z" stroke="#292D32" stroke-width="1.5" stroke-linecap="round" stroke-linejoin="round"/>
<path d="M465 79V86H469V79C469 77.9 468.6 77 467.4 77H466.6C465.4 77 465 77.9 465 79Z" stroke="#292D32" stroke-width="1.5" stroke-linecap="round" stroke-linejoin="round"/>
<path d="M393.02 2.83992L387.63 7.03992C386.73 7.73992 386 9.22992 386 10.3599V17.7699C386 20.0899 387.89 21.9899 390.21 21.9899H401.79C404.11 21.9899 406 20.0899 406 17.7799V10.4999C406 9.28992 405.19 7.73992 404.2 7.04992L398.02 2.71992C396.62 1.73992 394.37 1.78992 393.02 2.83992Z" stroke="#292D32" stroke-width="1.5" stroke-linecap="round" stroke-linejoin="round"/>
<path d="M400.5 16.5L396.3 12.3L394.7 14.7L391.5 11.5" stroke="#292D32" stroke-width="1.5" stroke-linecap="round" stroke-linejoin="round"/>
<path d="M398.5 16.5H400.5V14.5" stroke="#292D32" stroke-width="1.5" stroke-linecap="round" stroke-linejoin="round"/>
<path d="M528.5 9.5L524.3 13.7L522.7 11.3L519.5 14.5" stroke="#292D32" stroke-width="1.5" stroke-linecap="round" stroke-linejoin="round"/>
<path d="M526.5 9.5H528.5V11.5" stroke="#292D32" stroke-width="1.5" stroke-linecap="round" stroke-linejoin="round"/>
<path d="M521 22H527C532 22 534 20 534 15V9C534 4 532 2 527 2H521C516 2 514 4 514 9V15C514 20 516 22 521 22Z" stroke="#292D32" stroke-width="1.5" stroke-linecap="round" stroke-linejoin="round"/>
<path d="M457.02 2.83992L451.63 7.03992C450.73 7.73992 450 9.22992 450 10.3599V17.7699C450 20.0899 451.89 21.9899 454.21 21.9899H465.79C468.11 21.9899 470 20.0899 470 17.7799V10.4999C470 9.28992 469.19 7.73992 468.2 7.04992L462.02 2.71992C460.62 1.73992 458.37 1.78992 457.02 2.83992Z" stroke="#292D32" stroke-width="1.5" stroke-linecap="round" stroke-linejoin="round"/>
<path d="M458.5 18H461.5C463.15 18 464.5 16.65 464.5 15V12C464.5 10.35 463.15 9 461.5 9H458.5C456.85 9 455.5 10.35 455.5 12V15C455.5 16.65 456.85 18 458.5 18Z" stroke="#292D32" stroke-width="1.5" stroke-linecap="round" stroke-linejoin="round"/>
<path d="M460 9V18" stroke="#292D32" stroke-width="1.5" stroke-linecap="round" stroke-linejoin="round"/>
<path d="M455.5 13.5H464.5" stroke="#292D32" stroke-width="1.5" stroke-linecap="round" stroke-linejoin="round"/>
<path d="M592.5 14.5L588.3 10.3L586.7 12.7L583.5 9.5" stroke="#292D32" stroke-width="1.5" stroke-linecap="round" stroke-linejoin="round"/>
<path d="M590.5 14.5H592.5V12.5" stroke="#292D32" stroke-width="1.5" stroke-linecap="round" stroke-linejoin="round"/>
<path d="M585 22H591C596 22 598 20 598 15V9C598 4 596 2 591 2H585C580 2 578 4 578 9V15C578 20 580 22 585 22Z" stroke="#292D32" stroke-width="1.5" stroke-linecap="round" stroke-linejoin="round"/>
<path d="M649 22H655C660 22 662 20 662 15V9C662 4 660 2 655 2H649C644 2 642 4 642 9V15C642 20 644 22 649 22Z" stroke="#292D32" stroke-width="1.5" stroke-linecap="round" stroke-linejoin="round"/>
<path d="M650 17H654C655.65 17 657 15.65 657 14V10C657 8.35 655.65 7 654 7H650C648.35 7 647 8.35 647 10V14C647 15.65 648.35 17 650 17Z" stroke="#292D32" stroke-width="1.5" stroke-linecap="round" stroke-linejoin="round"/>
<path d="M652 7V17" stroke="#292D32" stroke-width="1.5" stroke-linecap="round" stroke-linejoin="round"/>
<path d="M647 12H657" stroke="#292D32" stroke-width="1.5" stroke-linecap="round" stroke-linejoin="round"/>
<path d="M7 74.74V77.94" stroke="#292D32" stroke-width="1.5" stroke-linecap="round" stroke-linejoin="round"/>
<path d="M12 73V79.68" stroke="#292D32" stroke-width="1.5" stroke-linecap="round" stroke-linejoin="round"/>
<path d="M17 74.74V77.94" stroke="#292D32" stroke-width="1.5" stroke-linecap="round" stroke-linejoin="round"/>
<path d="M9 86H15C20 86 22 84 22 79V73C22 68 20 66 15 66H9C4 66 2 68 2 73V79C2 84 4 86 9 86Z" stroke="#292D32" stroke-width="1.5" stroke-linecap="round" stroke-linejoin="round"/>
<path d="M81 85H71C67 85 66 84 66 80V72C66 68 67 67 71 67H81C85 67 86 68 86 72V80C86 84 85 85 81 85Z" stroke="#292D32" stroke-width="1.5" stroke-linecap="round" stroke-linejoin="round"/>
<path d="M78 72H83" stroke="#292D32" stroke-width="1.5" stroke-linecap="round" stroke-linejoin="round"/>
<path d="M79 76H83" stroke="#292D32" stroke-width="1.5" stroke-linecap="round" stroke-linejoin="round"/>
<path d="M81 80H83" stroke="#292D32" stroke-width="1.5" stroke-linecap="round" stroke-linejoin="round"/>
<path d="M72.4999 75.2899C73.4996 75.2899 74.3099 74.4796 74.3099 73.4799C74.3099 72.4803 73.4996 71.6699 72.4999 71.6699C71.5003 71.6699 70.6899 72.4803 70.6899 73.4799C70.6899 74.4796 71.5003 75.2899 72.4999 75.2899Z" stroke="#292D32" stroke-width="1.5" stroke-linecap="round" stroke-linejoin="round"/>
<path d="M76 80.33C75.86 78.88 74.71 77.74 73.26 77.61C72.76 77.56 72.25 77.56 71.74 77.61C70.29 77.75 69.14 78.88 69 80.33" stroke="#292D32" stroke-width="1.5" stroke-linecap="round" stroke-linejoin="round"/>
<path d="M134.88 82.1501V80.0801" stroke="#292D32" stroke-width="1.5" stroke-linecap="round"/>
<path d="M140 82.15V78.01" stroke="#292D32" stroke-width="1.5" stroke-linecap="round"/>
<path d="M145.12 82.1499V75.9299" stroke="#292D32" stroke-width="1.5" stroke-linecap="round"/>
<path d="M145.12 69.8501L144.66 70.3901C142.11 73.3701 138.69 75.4801 134.88 76.4301" stroke="#292D32" stroke-width="1.5" stroke-linecap="round"/>
<path d="M142.19 69.8501H145.12V72.7701" stroke="#292D32" stroke-width="1.5" stroke-linecap="round" stroke-linejoin="round"/>
<path d="M137 86H143C148 86 150 84 150 79V73C150 68 148 66 143 66H137C132 66 130 68 130 73V79C130 84 132 86 137 86Z" stroke="#292D32" stroke-width="1.5" stroke-linecap="round" stroke-linejoin="round"/>
</svg>
