<svg width="664" height="216" viewBox="0 0 664 216" fill="none" xmlns="http://www.w3.org/2000/svg">
<path d="M470 10V15C470 20 468 22 463 22H457C452 22 450 20 450 15V9C450 4 452 2 457 2H462" stroke="#292D32" stroke-width="1.5" stroke-linecap="round" stroke-linejoin="round"/>
<path d="M470 10H466C463 10 462 9 462 6V2L470 10Z" stroke="#292D32" stroke-width="1.5" stroke-linecap="round" stroke-linejoin="round"/>
<path fill-rule="evenodd" clip-rule="evenodd" d="M456.32 12H458.97C459.24 12 459.58 12.18 459.72 12.4L460.85 14.1C461.08 14.44 461.03 14.95 460.74 15.24L458.28 17.7C457.93 18.05 457.35 18.05 457 17.7L454.54 15.24C454.25 14.95 454.2 14.44 454.43 14.1L455.56 12.4C455.72 12.18 456.06 12 456.32 12Z" stroke="#292D32" stroke-width="1.5" stroke-miterlimit="10" stroke-linecap="round" stroke-linejoin="round"/>
<path d="M593 13.4V16.4C593 20.4 591.4 22 587.4 22H583.6C579.6 22 578 20.4 578 16.4V12.6C578 8.6 579.6 7 583.6 7H586.6" stroke="#292D32" stroke-width="1.5" stroke-linecap="round" stroke-linejoin="round"/>
<path d="M593 13.4H589.8C587.4 13.4 586.6 12.6 586.6 10.2V7L593 13.4Z" stroke="#292D32" stroke-width="1.5" stroke-linecap="round" stroke-linejoin="round"/>
<path d="M587.6 2H591.6" stroke="#292D32" stroke-width="1.5" stroke-linecap="round" stroke-linejoin="round"/>
<path d="M583 5C583 3.34 584.34 2 586 2H588.62" stroke="#292D32" stroke-width="1.5" stroke-linecap="round" stroke-linejoin="round"/>
<path d="M598 8V14.19C598 15.74 596.74 17 595.19 17" stroke="#292D32" stroke-width="1.5" stroke-linecap="round" stroke-linejoin="round"/>
<path d="M598 8H595C592.75 8 592 7.25 592 5V2L598 8Z" stroke="#292D32" stroke-width="1.5" stroke-linecap="round" stroke-linejoin="round"/>
<path d="M650 6H654C656 6 656 5 656 4C656 2 655 2 654 2H650C649 2 648 2 648 4C648 6 649 6 650 6Z" stroke="#292D32" stroke-width="1.5" stroke-miterlimit="10" stroke-linecap="round" stroke-linejoin="round"/>
<path d="M656 4.02002C659.33 4.20002 661 5.43002 661 10V16C661 20 660 22 655 22H649C644 22 643 20 643 16V10C643 5.44002 644.67 4.20002 648 4.02002" stroke="#292D32" stroke-width="1.5" stroke-miterlimit="10" stroke-linecap="round" stroke-linejoin="round"/>
<path d="M526 2H521C516 2 514 4 514 9V15C514 20 516 22 521 22" stroke="#292D32" stroke-width="1.5" stroke-linecap="round" stroke-linejoin="round"/>
<path d="M534 10V13" stroke="#292D32" stroke-width="1.5" stroke-linecap="round" stroke-linejoin="round"/>
<path d="M534 10H530C527 10 526 9 526 6V2L534 10Z" stroke="#292D32" stroke-width="1.5" stroke-linecap="round" stroke-linejoin="round"/>
<path d="M525.76 18.2601C523.41 18.4301 523.41 21.8301 525.76 22.0001H531.32C531.99 22.0001 532.65 21.7501 533.14 21.3001C534.79 19.8601 533.91 16.9801 531.74 16.7101C530.96 12.0201 524.18 13.8001 525.78 18.2701" stroke="#292D32" stroke-width="1.5" stroke-miterlimit="10" stroke-linecap="round" stroke-linejoin="round"/>
<path d="M340 72.25V82C340 85 338.21 86 336 86H328C325.79 86 324 85 324 82V72.25C324 69 325.79 68.25 328 68.25C328 68.87 328.25 69.43 328.66 69.84C329.07 70.25 329.63 70.5 330.25 70.5H333.75C334.99 70.5 336 69.49 336 68.25C338.21 68.25 340 69 340 72.25Z" stroke="#292D32" stroke-width="1.5" stroke-linecap="round" stroke-linejoin="round"/>
<path d="M336 68.25C336 69.49 334.99 70.5 333.75 70.5H330.25C329.63 70.5 329.07 70.25 328.66 69.84C328.25 69.43 328 68.87 328 68.25C328 67.01 329.01 66 330.25 66H333.75C334.37 66 334.93 66.25 335.34 66.66C335.75 67.07 336 67.63 336 68.25Z" stroke="#292D32" stroke-width="1.5" stroke-linecap="round" stroke-linejoin="round"/>
<path d="M328 77H332" stroke="#292D32" stroke-width="1.5" stroke-linecap="round" stroke-linejoin="round"/>
<path d="M328 81H336" stroke="#292D32" stroke-width="1.5" stroke-linecap="round" stroke-linejoin="round"/>
<path d="M405 71V81C405 84 403.5 86 400 86H392C388.5 86 387 84 387 81V71C387 68 388.5 66 392 66H400C403.5 66 405 68 405 71Z" stroke="#292D32" stroke-width="1.5" stroke-miterlimit="10" stroke-linecap="round" stroke-linejoin="round"/>
<path d="M398.5 68.5V70.5C398.5 71.6 399.4 72.5 400.5 72.5H402.5" stroke="#292D32" stroke-width="1.5" stroke-miterlimit="10" stroke-linecap="round" stroke-linejoin="round"/>
<path d="M392 77H396" stroke="#292D32" stroke-width="1.5" stroke-miterlimit="10" stroke-linecap="round" stroke-linejoin="round"/>
<path d="M392 81H400" stroke="#292D32" stroke-width="1.5" stroke-miterlimit="10" stroke-linecap="round" stroke-linejoin="round"/>
<path d="M469 71V81C469 84 467.5 86 464 86H456C452.5 86 451 84 451 81V71C451 68 452.5 66 456 66H464C467.5 66 469 68 469 71Z" stroke="#292D32" stroke-width="1.5" stroke-miterlimit="10" stroke-linecap="round" stroke-linejoin="round"/>
<path d="M462.5 68.5V70.5C462.5 71.6 463.4 72.5 464.5 72.5H466.5" stroke="#292D32" stroke-width="1.5" stroke-miterlimit="10" stroke-linecap="round" stroke-linejoin="round"/>
<path d="M455.48 79.4901C455.15 78.4601 455.54 77.1901 456.61 76.8401C457.18 76.6601 457.88 76.8101 458.27 77.3601C458.64 76.7901 459.37 76.6601 459.93 76.8401C461.01 77.1901 461.39 78.4601 461.07 79.4901C460.56 81.1201 458.77 81.9701 458.27 81.9701C457.78 81.9601 456.01 81.1301 455.48 79.4901Z" stroke="#292D32" stroke-width="1.5" stroke-linecap="round" stroke-linejoin="round"/>
<path d="M652 86C646.48 86 642 81.52 642 76C642 70.48 646.48 66 652 66C657.52 66 662 70.48 662 76C662 81.52 657.52 86 652 86Z" stroke="#292D32" stroke-width="1.5" stroke-linecap="round" stroke-linejoin="round"/>
<path d="M654.88 79C654.17 79.62 653.25 80 652.24 80C650.03 80 648.24 78.21 648.24 76C648.24 73.79 650.03 72 652.24 72C653.25 72 654.17 72.38 654.88 73" stroke="#292D32" stroke-width="1.5" stroke-linecap="round" stroke-linejoin="round"/>
<path d="M12 150C6.48 150 2 145.52 2 140C2 134.48 6.48 130 12 130C17.52 130 22 134.48 22 140C22 145.52 17.52 150 12 150Z" stroke="#292D32" stroke-width="1.5" stroke-linecap="round" stroke-linejoin="round"/>
<path d="M10.8801 142.15C10.3701 142.59 9.71011 142.87 8.99011 142.87C7.41011 142.87 6.12012 141.59 6.12012 140C6.12012 138.41 7.40011 137.13 8.99011 137.13C9.72011 137.13 10.3801 137.4 10.8801 137.85" stroke="#292D32" stroke-width="1.5" stroke-linecap="round" stroke-linejoin="round"/>
<path d="M17.8801 142.15C17.3701 142.59 16.7101 142.87 15.9901 142.87C14.4101 142.87 13.1201 141.59 13.1201 140C13.1201 138.41 14.4001 137.13 15.9901 137.13C16.7201 137.13 17.3801 137.4 17.8801 137.85" stroke="#292D32" stroke-width="1.5" stroke-linecap="round" stroke-linejoin="round"/>
<path d="M451.67 130.5V142.47C451.67 143.45 452.13 144.38 452.92 144.97L458.13 148.87C459.24 149.7 460.77 149.7 461.88 148.87L467.09 144.97C467.88 144.38 468.34 143.45 468.34 142.47V130.5H451.67Z" stroke="#292D32" stroke-width="1.5" stroke-miterlimit="10"/>
<path d="M450 130.5H470" stroke="#292D32" stroke-width="1.5" stroke-miterlimit="10" stroke-linecap="round"/>
<path d="M456 136H464" stroke="#292D32" stroke-width="1.5" stroke-miterlimit="10" stroke-linecap="round" stroke-linejoin="round"/>
<path d="M456 141H464" stroke="#292D32" stroke-width="1.5" stroke-miterlimit="10" stroke-linecap="round" stroke-linejoin="round"/>
<path d="M515.35 130H524.25C524.99 130 525.6 130.61 525.6 131.35V132.83C525.6 133.37 525.26 134.04 524.93 134.38L522.03 136.94C521.63 137.28 521.36 137.95 521.36 138.49V141.39C521.36 141.79 521.09 142.33 520.75 142.54L519.81 143.15C518.93 143.69 517.72 143.08 517.72 142V138.43C517.72 137.96 517.45 137.35 517.18 137.01L514.62 134.31C514.28 133.97 514.01 133.37 514.01 132.96V131.41C514 130.61 514.61 130 515.35 130Z" stroke="#292D32" stroke-width="1.5" stroke-miterlimit="10" stroke-linecap="round" stroke-linejoin="round"/>
<path d="M514 140V143C514 148 516 150 521 150H527C532 150 534 148 534 143V137C534 133.88 533.22 131.92 531.41 130.9C530.9 130.61 529.88 130.39 528.95 130.24" stroke="#292D32" stroke-width="1.5" stroke-linecap="round" stroke-linejoin="round"/>
<path d="M525 141H530" stroke="#292D32" stroke-width="1.5" stroke-linecap="round" stroke-linejoin="round"/>
<path d="M523 145H530" stroke="#292D32" stroke-width="1.5" stroke-linecap="round" stroke-linejoin="round"/>
<path d="M597 135V145C597 148 595.5 150 592 150H584C580.5 150 579 148 579 145V135C579 132 580.5 130 584 130H592C595.5 130 597 132 597 135Z" stroke="#292D32" stroke-width="1.5" stroke-miterlimit="10" stroke-linecap="round" stroke-linejoin="round"/>
<path d="M591.5 130V137.86C591.5 138.3 590.98 138.52 590.66 138.23L588.34 136.09C588.15 135.91 587.85 135.91 587.66 136.09L585.34 138.23C585.02 138.52 584.5 138.3 584.5 137.86V130H591.5Z" stroke="#292D32" stroke-width="1.5" stroke-miterlimit="10" stroke-linecap="round" stroke-linejoin="round"/>
<path d="M589.25 142H593.5" stroke="#292D32" stroke-width="1.5" stroke-miterlimit="10" stroke-linecap="round" stroke-linejoin="round"/>
<path d="M585 146H593.5" stroke="#292D32" stroke-width="1.5" stroke-miterlimit="10" stroke-linecap="round" stroke-linejoin="round"/>
<path d="M648 130V133" stroke="#292D32" stroke-width="1.5" stroke-miterlimit="10" stroke-linecap="round" stroke-linejoin="round"/>
<path d="M656 130V133" stroke="#292D32" stroke-width="1.5" stroke-miterlimit="10" stroke-linecap="round" stroke-linejoin="round"/>
<path d="M661 136.5V145C661 148 659.5 150 656 150H648C644.5 150 643 148 643 145V136.5C643 133.5 644.5 131.5 648 131.5H656C659.5 131.5 661 133.5 661 136.5Z" stroke="#292D32" stroke-width="1.5" stroke-miterlimit="10" stroke-linecap="round" stroke-linejoin="round"/>
<path d="M648 139H656" stroke="#292D32" stroke-width="1.5" stroke-miterlimit="10" stroke-linecap="round" stroke-linejoin="round"/>
<path d="M648 144H652" stroke="#292D32" stroke-width="1.5" stroke-miterlimit="10" stroke-linecap="round" stroke-linejoin="round"/>
<path d="M8 194V197" stroke="#292D32" stroke-width="1.5" stroke-miterlimit="10" stroke-linecap="round" stroke-linejoin="round"/>
<path d="M16 194V197" stroke="#292D32" stroke-width="1.5" stroke-miterlimit="10" stroke-linecap="round" stroke-linejoin="round"/>
<path d="M21 200.5V205.63C20.11 204.92 18.98 204.5 17.75 204.5C16.52 204.5 15.37 204.93 14.47 205.66C13.26 206.61 12.5 208.1 12.5 209.75C12.5 210.73 12.78 211.67 13.26 212.45C13.63 213.06 14.11 213.59 14.68 214H8C4.5 214 3 212 3 209V200.5C3 197.5 4.5 195.5 8 195.5H16C19.5 195.5 21 197.5 21 200.5Z" stroke="#292D32" stroke-width="1.5" stroke-miterlimit="10" stroke-linecap="round" stroke-linejoin="round"/>
<path d="M7 203H13" stroke="#292D32" stroke-width="1.5" stroke-miterlimit="10" stroke-linecap="round" stroke-linejoin="round"/>
<path d="M7 208H9.62" stroke="#292D32" stroke-width="1.5" stroke-miterlimit="10" stroke-linecap="round" stroke-linejoin="round"/>
<path d="M23 209.75C23 210.73 22.72 211.67 22.24 212.45C21.96 212.93 21.61 213.35 21.2 213.69C20.28 214.51 19.08 215 17.75 215C16.6 215 15.54 214.63 14.68 214C14.11 213.59 13.63 213.06 13.26 212.45C12.78 211.67 12.5 210.73 12.5 209.75C12.5 208.1 13.26 206.61 14.47 205.66C15.37 204.93 16.52 204.5 17.75 204.5C18.98 204.5 20.11 204.92 21 205.63C22.22 206.59 23 208.08 23 209.75Z" stroke="#292D32" stroke-width="1.5" stroke-miterlimit="10" stroke-linecap="round" stroke-linejoin="round"/>
<path d="M17.75 212.25C17.75 210.87 18.87 209.75 20.25 209.75C18.87 209.75 17.75 208.63 17.75 207.25C17.75 208.63 16.63 209.75 15.25 209.75C16.63 209.75 17.75 210.87 17.75 212.25Z" stroke="#292D32" stroke-width="1.5" stroke-linecap="round" stroke-linejoin="round"/>
<path d="M85.9301 198.76L82.5601 212.29C82.3201 213.3 81.4201 214 80.3801 214H67.2401C65.7301 214 64.6501 212.52 65.1001 211.07L69.3101 197.55C69.6001 196.61 70.4702 195.96 71.4502 195.96H83.7501C84.7001 195.96 85.4901 196.54 85.8201 197.34C86.0101 197.77 86.0501 198.26 85.9301 198.76Z" stroke="#292D32" stroke-width="1.5" stroke-miterlimit="10"/>
<path d="M80 214H84.78C86.07 214 87.08 212.91 86.99 211.62L86 198" stroke="#292D32" stroke-width="1.5" stroke-miterlimit="10" stroke-linecap="round" stroke-linejoin="round"/>
<path d="M73.6802 198.38L74.7202 194.06" stroke="#292D32" stroke-width="1.5" stroke-miterlimit="10" stroke-linecap="round" stroke-linejoin="round"/>
<path d="M80.3799 198.39L81.3199 194.05" stroke="#292D32" stroke-width="1.5" stroke-miterlimit="10" stroke-linecap="round" stroke-linejoin="round"/>
<path d="M71.7002 204H79.7002" stroke="#292D32" stroke-width="1.5" stroke-miterlimit="10" stroke-linecap="round" stroke-linejoin="round"/>
<path d="M70.7002 208H78.7002" stroke="#292D32" stroke-width="1.5" stroke-miterlimit="10" stroke-linecap="round" stroke-linejoin="round"/>
<path d="M86 10V15C86 20 84 22 79 22H73C68 22 66 20 66 15V9C66 4 68 2 73 2H78" stroke="#292D32" stroke-width="1.5" stroke-linecap="round" stroke-linejoin="round"/>
<path d="M86 10H82C79 10 78 9 78 6V2L86 10Z" stroke="#292D32" stroke-width="1.5" stroke-linecap="round" stroke-linejoin="round"/>
<path d="M71 13H77" stroke="#292D32" stroke-width="1.5" stroke-linecap="round" stroke-linejoin="round"/>
<path d="M71 17H75" stroke="#292D32" stroke-width="1.5" stroke-linecap="round" stroke-linejoin="round"/>
<path d="M201 11V17L203 15" stroke="#292D32" stroke-width="1.5" stroke-linecap="round" stroke-linejoin="round"/>
<path d="M201 17L199 15" stroke="#292D32" stroke-width="1.5" stroke-linecap="round" stroke-linejoin="round"/>
<path d="M214 10V15C214 20 212 22 207 22H201C196 22 194 20 194 15V9C194 4 196 2 201 2H206" stroke="#292D32" stroke-width="1.5" stroke-linecap="round" stroke-linejoin="round"/>
<path d="M214 10H210C207 10 206 9 206 6V2L214 10Z" stroke="#292D32" stroke-width="1.5" stroke-linecap="round" stroke-linejoin="round"/>
<path d="M22 10V15C22 20 20 22 15 22H9C4 22 2 20 2 15V9C2 4 4 2 9 2H14" stroke="#292D32" stroke-width="1.5" stroke-linecap="round" stroke-linejoin="round"/>
<path d="M22 10H18C15 10 14 9 14 6V2L22 10Z" stroke="#292D32" stroke-width="1.5" stroke-linecap="round" stroke-linejoin="round"/>
<path d="M331 17L333 15L331 13L333 15H327" stroke="#292D32" stroke-width="1.5" stroke-linecap="round" stroke-linejoin="round"/>
<path d="M342 10V15C342 20 340 22 335 22H329C324 22 322 20 322 15V9C322 4 324 2 329 2H334" stroke="#292D32" stroke-width="1.5" stroke-linecap="round" stroke-linejoin="round"/>
<path d="M342 10H338C335 10 334 9 334 6V2L342 10Z" stroke="#292D32" stroke-width="1.5" stroke-linecap="round" stroke-linejoin="round"/>
<path d="M523 66H521C516 66 514 68 514 73V79C514 84 516 86 521 86H527C532 86 534 84 534 79V77" stroke="#292D32" stroke-width="1.5" stroke-linecap="round" stroke-linejoin="round"/>
<path d="M528.04 67.0198L520.16 74.8998C519.86 75.1998 519.56 75.7898 519.5 76.2198L519.07 79.2298C518.91 80.3198 519.68 81.0798 520.77 80.9298L523.78 80.4998C524.2 80.4398 524.79 80.1398 525.1 79.8398L532.98 71.9598C534.34 70.5998 534.98 69.0198 532.98 67.0198C530.98 65.0198 529.4 65.6598 528.04 67.0198Z" stroke="#292D32" stroke-width="1.5" stroke-miterlimit="10" stroke-linecap="round" stroke-linejoin="round"/>
<path d="M526.91 68.1499C527.58 70.5399 529.45 72.4099 531.85 73.0899" stroke="#292D32" stroke-width="1.5" stroke-miterlimit="10" stroke-linecap="round" stroke-linejoin="round"/>
<path d="M150 10V15C150 20 148 22 143 22H137C132 22 130 20 130 15V9C130 4 132 2 137 2H142" stroke="#292D32" stroke-width="1.5" stroke-linecap="round" stroke-linejoin="round"/>
<path d="M150 10H146C143 10 142 9 142 6V2L150 10Z" stroke="#292D32" stroke-width="1.5" stroke-linecap="round" stroke-linejoin="round"/>
<path d="M134.62 15.7301C134.29 14.7001 134.68 13.4301 135.75 13.0801C136.32 12.9001 137.02 13.0501 137.41 13.6001C137.78 13.0301 138.51 12.9001 139.07 13.0801C140.15 13.4301 140.53 14.7001 140.21 15.7301C139.7 17.3601 137.91 18.2101 137.41 18.2101C136.92 18.2001 135.15 17.3701 134.62 15.7301Z" stroke="#292D32" stroke-width="1.5" stroke-linecap="round" stroke-linejoin="round"/>
<path d="M397 15H391L393 17" stroke="#292D32" stroke-width="1.5" stroke-linecap="round" stroke-linejoin="round"/>
<path d="M391 15L393 13" stroke="#292D32" stroke-width="1.5" stroke-linecap="round" stroke-linejoin="round"/>
<path d="M406 10V15C406 20 404 22 399 22H393C388 22 386 20 386 15V9C386 4 388 2 393 2H398" stroke="#292D32" stroke-width="1.5" stroke-linecap="round" stroke-linejoin="round"/>
<path d="M406 10H402C399 10 398 9 398 6V2L402 6L406 10Z" stroke="#292D32" stroke-width="1.5" stroke-linecap="round" stroke-linejoin="round"/>
<path d="M396.37 136.88H401.62" stroke="#292D32" stroke-width="1.5" stroke-linecap="round" stroke-linejoin="round"/>
<path d="M390.38 136.88L391.13 137.63L393.38 135.38" stroke="#292D32" stroke-width="1.5" stroke-linecap="round" stroke-linejoin="round"/>
<path d="M396.37 143.88H401.62" stroke="#292D32" stroke-width="1.5" stroke-linecap="round" stroke-linejoin="round"/>
<path d="M390.38 143.88L391.13 144.63L393.38 142.38" stroke="#292D32" stroke-width="1.5" stroke-linecap="round" stroke-linejoin="round"/>
<path d="M393 150H399C404 150 406 148 406 143V137C406 132 404 130 399 130H393C388 130 386 132 386 137V143C386 148 388 150 393 150Z" stroke="#292D32" stroke-width="1.5" stroke-linecap="round" stroke-linejoin="round"/>
<path d="M589.26 67.6002L581.05 76.2902C580.74 76.6202 580.44 77.2702 580.38 77.7202L580.01 80.9602C579.88 82.1302 580.72 82.9302 581.88 82.7302L585.1 82.1802C585.55 82.1002 586.18 81.7702 586.49 81.4302L594.7 72.7402C596.12 71.2402 596.76 69.5302 594.55 67.4402C592.35 65.3702 590.68 66.1002 589.26 67.6002Z" stroke="#292D32" stroke-width="1.5" stroke-miterlimit="10" stroke-linecap="round" stroke-linejoin="round"/>
<path d="M587.89 69.0498C588.32 71.8098 590.56 73.9198 593.34 74.1998" stroke="#292D32" stroke-width="1.5" stroke-miterlimit="10" stroke-linecap="round" stroke-linejoin="round"/>
<path d="M579 86H597" stroke="#292D32" stroke-width="1.5" stroke-miterlimit="10" stroke-linecap="round" stroke-linejoin="round"/>
<path d="M265 17V11L263 13" stroke="#292D32" stroke-width="1.5" stroke-linecap="round" stroke-linejoin="round"/>
<path d="M265 11L267 13" stroke="#292D32" stroke-width="1.5" stroke-linecap="round" stroke-linejoin="round"/>
<path d="M278 10V15C278 20 276 22 271 22H265C260 22 258 20 258 15V9C258 4 260 2 265 2H270" stroke="#292D32" stroke-width="1.5" stroke-linecap="round" stroke-linejoin="round"/>
<path d="M278 10H274C271 10 270 9 270 6V2L278 10Z" stroke="#292D32" stroke-width="1.5" stroke-linecap="round" stroke-linejoin="round"/>
<path d="M8 76.2002H15" stroke="#292D32" stroke-width="1.5" stroke-miterlimit="10" stroke-linecap="round" stroke-linejoin="round"/>
<path d="M8 80.2002H12.38" stroke="#292D32" stroke-width="1.5" stroke-miterlimit="10" stroke-linecap="round" stroke-linejoin="round"/>
<path d="M10 70H14C16 70 16 69 16 68C16 66 15 66 14 66H10C9 66 8 66 8 68C8 70 9 70 10 70Z" stroke="#292D32" stroke-width="1.5" stroke-miterlimit="10" stroke-linecap="round" stroke-linejoin="round"/>
<path d="M16 68.02C19.33 68.2 21 69.43 21 74V80C21 84 20 86 15 86H9C4 86 3 84 3 80V74C3 69.44 4.67 68.2 8 68.02" stroke="#292D32" stroke-width="1.5" stroke-miterlimit="10" stroke-linecap="round" stroke-linejoin="round"/>
<path d="M73.3101 78.7002L74.8101 80.2002L78.8101 76.2002" stroke="#292D32" stroke-width="1.5" stroke-linecap="round" stroke-linejoin="round"/>
<path d="M74 70H78C80 70 80 69 80 68C80 66 79 66 78 66H74C73 66 72 66 72 68C72 70 73 70 74 70Z" stroke="#292D32" stroke-width="1.5" stroke-miterlimit="10" stroke-linecap="round" stroke-linejoin="round"/>
<path d="M80 68.02C83.33 68.2 85 69.43 85 74V80C85 84 84 86 79 86H73C68 86 67 84 67 80V74C67 69.44 68.67 68.2 72 68.02" stroke="#292D32" stroke-width="1.5" stroke-miterlimit="10" stroke-linecap="round" stroke-linejoin="round"/>
<path d="M142 80.1602L138.04 76.2002" stroke="#292D32" stroke-width="1.5" stroke-miterlimit="10" stroke-linecap="round" stroke-linejoin="round"/>
<path d="M141.96 76.2402L138 80.2002" stroke="#292D32" stroke-width="1.5" stroke-miterlimit="10" stroke-linecap="round" stroke-linejoin="round"/>
<path d="M138 70H142C144 70 144 69 144 68C144 66 143 66 142 66H138C137 66 136 66 136 68C136 70 137 70 138 70Z" stroke="#292D32" stroke-width="1.5" stroke-miterlimit="10" stroke-linecap="round" stroke-linejoin="round"/>
<path d="M144 68.02C147.33 68.2 149 69.43 149 74V80C149 84 148 86 143 86H137C132 86 131 84 131 80V74C131 69.44 132.67 68.2 136 68.02" stroke="#292D32" stroke-width="1.5" stroke-miterlimit="10" stroke-linecap="round" stroke-linejoin="round"/>
<path d="M202 70H206C208 70 208 69 208 68C208 66 207 66 206 66H202C201 66 200 66 200 68C200 70 201 70 202 70Z" stroke="#292D32" stroke-width="1.5" stroke-miterlimit="10" stroke-linecap="round" stroke-linejoin="round"/>
<path d="M206 86H201C196 86 195 84 195 80V74C195 69.44 196.67 68.2 200 68.02" stroke="#292D32" stroke-width="1.5" stroke-miterlimit="10" stroke-linecap="round" stroke-linejoin="round"/>
<path d="M208 68.02C211.33 68.2 213 69.43 213 74V79" stroke="#292D32" stroke-width="1.5" stroke-miterlimit="10" stroke-linecap="round" stroke-linejoin="round"/>
<path d="M207 83V80H210" stroke="#292D32" stroke-width="1.5" stroke-miterlimit="10" stroke-linecap="round" stroke-linejoin="round"/>
<path d="M213 86L207.04 80.04" stroke="#292D32" stroke-width="1.5" stroke-miterlimit="10" stroke-linecap="round" stroke-linejoin="round"/>
<path d="M266 70H270C272 70 272 69 272 68C272 66 271 66 270 66H266C265 66 264 66 264 68C264 70 265 70 266 70Z" stroke="#292D32" stroke-width="1.5" stroke-miterlimit="10" stroke-linecap="round" stroke-linejoin="round"/>
<path d="M270 86H265C260 86 259 84 259 80V74C259 69.44 260.67 68.2 264 68.02" stroke="#292D32" stroke-width="1.5" stroke-miterlimit="10" stroke-linecap="round" stroke-linejoin="round"/>
<path d="M272 68.02C275.33 68.2 277 69.43 277 74V79" stroke="#292D32" stroke-width="1.5" stroke-miterlimit="10" stroke-linecap="round" stroke-linejoin="round"/>
<path d="M277 83V86H274" stroke="#292D32" stroke-width="1.5" stroke-miterlimit="10" stroke-linecap="round" stroke-linejoin="round"/>
<path d="M271 80L276.96 85.96" stroke="#292D32" stroke-width="1.5" stroke-miterlimit="10" stroke-linecap="round" stroke-linejoin="round"/>
<path d="M331 147.5H341" stroke="#292D32" stroke-width="1.5" stroke-linecap="round" stroke-linejoin="round"/>
<path d="M331 140.5H341" stroke="#292D32" stroke-width="1.5" stroke-linecap="round" stroke-linejoin="round"/>
<path d="M331 133.5H341" stroke="#292D32" stroke-width="1.5" stroke-linecap="round" stroke-linejoin="round"/>
<path d="M323 133.5L324 134.5L327 131.5" stroke="#292D32" stroke-width="1.5" stroke-linecap="round" stroke-linejoin="round"/>
<path d="M323 140.5L324 141.5L327 138.5" stroke="#292D32" stroke-width="1.5" stroke-linecap="round" stroke-linejoin="round"/>
<path d="M323 147.5L324 148.5L327 145.5" stroke="#292D32" stroke-width="1.5" stroke-linecap="round" stroke-linejoin="round"/>
<path d="M135 142H140" stroke="#292D32" stroke-width="1.5" stroke-miterlimit="10" stroke-linecap="round" stroke-linejoin="round"/>
<path d="M135 133.96L131.25 130.21" stroke="#292D32" stroke-width="1.5" stroke-miterlimit="10" stroke-linecap="round" stroke-linejoin="round"/>
<path d="M134.96 130.25L131.21 134" stroke="#292D32" stroke-width="1.5" stroke-miterlimit="10" stroke-linecap="round" stroke-linejoin="round"/>
<path d="M135 138H143" stroke="#292D32" stroke-width="1.5" stroke-miterlimit="10" stroke-linecap="round" stroke-linejoin="round"/>
<path d="M138 130H144C147.33 130.18 149 131.41 149 135.99V144" stroke="#292D32" stroke-width="1.5" stroke-miterlimit="10" stroke-linecap="round" stroke-linejoin="round"/>
<path d="M131 137.01V143.98C131 147.99 132 150 137 150H140C140.17 150 142.84 150 143 150" stroke="#292D32" stroke-width="1.5" stroke-miterlimit="10" stroke-linecap="round" stroke-linejoin="round"/>
<path d="M149 144L143 150V147C143 145 144 144 146 144H149Z" stroke="#292D32" stroke-width="1.5" stroke-linecap="round" stroke-linejoin="round"/>
<path d="M200 130V133" stroke="#292D32" stroke-width="1.5" stroke-miterlimit="10" stroke-linecap="round" stroke-linejoin="round"/>
<path d="M208 130V133" stroke="#292D32" stroke-width="1.5" stroke-miterlimit="10" stroke-linecap="round" stroke-linejoin="round"/>
<path d="M199 139H207" stroke="#292D32" stroke-width="1.5" stroke-miterlimit="10" stroke-linecap="round" stroke-linejoin="round"/>
<path d="M199 143H204" stroke="#292D32" stroke-width="1.5" stroke-miterlimit="10" stroke-linecap="round" stroke-linejoin="round"/>
<path d="M207 150H201C196 150 195 147.94 195 143.82V137.65C195 132.95 196.67 131.69 200 131.5H208C211.33 131.68 213 132.95 213 137.65V144" stroke="#292D32" stroke-width="1.5" stroke-miterlimit="10" stroke-linecap="round" stroke-linejoin="round"/>
<path d="M213 144L207 150V147C207 145 208 144 210 144H213Z" stroke="#292D32" stroke-width="1.5" stroke-linecap="round" stroke-linejoin="round"/>
<path d="M72 130V133" stroke="#292D32" stroke-width="1.5" stroke-miterlimit="10" stroke-linecap="round" stroke-linejoin="round"/>
<path d="M80 130V133" stroke="#292D32" stroke-width="1.5" stroke-miterlimit="10" stroke-linecap="round" stroke-linejoin="round"/>
<path d="M71 141H79" stroke="#292D32" stroke-width="1.5" stroke-miterlimit="10" stroke-linecap="round" stroke-linejoin="round"/>
<path d="M71 145H76" stroke="#292D32" stroke-width="1.5" stroke-miterlimit="10" stroke-linecap="round" stroke-linejoin="round"/>
<path d="M80 131.5C83.33 131.68 85 132.95 85 137.65V143.83C85 147.95 84 150.01 79 150.01H73C68 150.01 67 147.95 67 143.83V137.65C67 132.95 68.67 131.69 72 131.5H80Z" stroke="#292D32" stroke-width="1.5" stroke-miterlimit="10" stroke-linecap="round" stroke-linejoin="round"/>
<path d="M265.56 146V141" stroke="#292D32" stroke-width="1.5" stroke-miterlimit="10" stroke-linecap="round" stroke-linejoin="round"/>
<path d="M268 143.5H263" stroke="#292D32" stroke-width="1.5" stroke-miterlimit="10" stroke-linecap="round" stroke-linejoin="round"/>
<path d="M264 130V133" stroke="#292D32" stroke-width="1.5" stroke-miterlimit="10" stroke-linecap="round" stroke-linejoin="round"/>
<path d="M272 130V133" stroke="#292D32" stroke-width="1.5" stroke-miterlimit="10" stroke-linecap="round" stroke-linejoin="round"/>
<path d="M271.81 131.42C275.15 131.54 276.84 132.77 276.94 137.47L277.07 143.64C277.15 147.76 276.2 149.83 271.2 149.94L265.2 150.06C260.2 150.16 259.16 148.12 259.08 144.01L258.94 137.83C258.84 133.13 260.49 131.83 263.81 131.58L271.81 131.42Z" stroke="#292D32" stroke-width="1.5" stroke-miterlimit="10" stroke-linecap="round" stroke-linejoin="round"/>
</svg>
