<svg width="344" height="24" viewBox="0 0 344 24" fill="none" xmlns="http://www.w3.org/2000/svg">
<path d="M2 17.0601H12" stroke="#292D32" stroke-width="1.5" stroke-miterlimit="10" stroke-linecap="round" stroke-linejoin="round"/>
<path d="M4.21997 13.5H9.78003C11.56 13.5 12 13.94 12 15.7V19.81C12 21.57 11.56 22.01 9.78003 22.01H4.21997C2.43997 22.01 2 21.57 2 19.81V15.7C2 13.94 2.43997 13.5 4.21997 13.5Z" stroke="#292D32" stroke-width="1.5" stroke-linecap="round" stroke-linejoin="round"/>
<path d="M22 15C22 18.87 18.87 22 15 22L16.05 20.25" stroke="#292D32" stroke-width="1.5" stroke-linecap="round" stroke-linejoin="round"/>
<path d="M2 9C2 5.13 5.13 2 9 2L7.95001 3.75" stroke="#292D32" stroke-width="1.5" stroke-linecap="round" stroke-linejoin="round"/>
<path d="M18.5 11C20.9853 11 23 8.98528 23 6.5C23 4.01472 20.9853 2 18.5 2C16.0147 2 14 4.01472 14 6.5C14 8.98528 16.0147 11 18.5 11Z" stroke="#292D32" stroke-width="1.5" stroke-linecap="round" stroke-linejoin="round"/>
<path d="M86 8.5C86 12.09 83.09 15 79.5 15C79.33 15 79.15 14.99 78.98 14.98C78.73 11.81 76.19 9.26999 73.02 9.01999C73.01 8.84999 73 8.67 73 8.5C73 4.91 75.91 2 79.5 2C83.09 2 86 4.91 86 8.5Z" stroke="#292D32" stroke-width="1.5" stroke-linecap="round" stroke-linejoin="round"/>
<path d="M79 15.5C79 19.09 76.09 22 72.5 22C68.91 22 66 19.09 66 15.5C66 11.91 68.91 9 72.5 9C72.67 9 72.85 9.00999 73.02 9.01999C76.19 9.26999 78.73 11.81 78.98 14.98C78.99 15.15 79 15.33 79 15.5Z" stroke="#292D32" stroke-width="1.5" stroke-linecap="round" stroke-linejoin="round"/>
<path d="M69.59 2H67C66.45 2 66 2.45 66 3V5.59C66 6.48 67.08 6.92999 67.71 6.29999L70.3 3.70999C70.92 3.07999 70.48 2 69.59 2Z" stroke="#292D32" stroke-width="1.5" stroke-linecap="round" stroke-linejoin="round"/>
<path d="M82.4102 22H85.0002C85.5502 22 86.0002 21.55 86.0002 21V18.41C86.0002 17.52 84.9202 17.07 84.2902 17.7L81.7002 20.29C81.0802 20.92 81.5202 22 82.4102 22Z" stroke="#292D32" stroke-width="1.5" stroke-linecap="round" stroke-linejoin="round"/>
<path d="M150 8.5C150 12.09 147.09 15 143.5 15C143.33 15 143.15 14.99 142.98 14.98C142.73 11.81 140.19 9.26999 137.02 9.01999C137.01 8.84999 137 8.67 137 8.5C137 4.91 139.91 2 143.5 2C147.09 2 150 4.91 150 8.5Z" stroke="#292D32" stroke-width="1.5" stroke-linecap="round" stroke-linejoin="round"/>
<path d="M143 15.5C143 19.09 140.09 22 136.5 22C132.91 22 130 19.09 130 15.5C130 11.91 132.91 9 136.5 9C136.67 9 136.85 9.00999 137.02 9.01999C140.19 9.26999 142.73 11.81 142.98 14.98C142.99 15.15 143 15.33 143 15.5Z" stroke="#292D32" stroke-width="1.5" stroke-linecap="round" stroke-linejoin="round"/>
<path d="M135.62 14.62L136.5 13L137.38 14.62L139 15.5L137.38 16.38L136.5 18L135.62 16.38L134 15.5L135.62 14.62Z" stroke="#292D32" stroke-width="1.5" stroke-linecap="round" stroke-linejoin="round"/>
<path d="M194 8.5H205" stroke="#292D32" stroke-width="1.5" stroke-miterlimit="10" stroke-linecap="round" stroke-linejoin="round"/>
<path d="M198 16.5H200" stroke="#292D32" stroke-width="1.5" stroke-miterlimit="10" stroke-linecap="round" stroke-linejoin="round"/>
<path d="M202.5 16.5H206.5" stroke="#292D32" stroke-width="1.5" stroke-miterlimit="10" stroke-linecap="round" stroke-linejoin="round"/>
<path d="M214 11.33V16.11C214 19.62 213.11 20.5 209.56 20.5H198.44C194.89 20.5 194 19.62 194 16.11V7.89001C194 4.38001 194.89 3.5 198.44 3.5H205.28" stroke="#292D32" stroke-width="1.5" stroke-linecap="round" stroke-linejoin="round"/>
<path d="M209 3.25H212.13C212.82 3.25 213.38 3.88 213.38 4.5C213.38 5.19 212.82 5.75 212.13 5.75H209V3.25Z" stroke="#292D32" stroke-width="1.5" stroke-miterlimit="10" stroke-linecap="round" stroke-linejoin="round"/>
<path d="M209 5.75H212.57C213.36 5.75 214 6.31 214 7C214 7.69 213.36 8.25 212.57 8.25H209V5.75Z" stroke="#292D32" stroke-width="1.5" stroke-miterlimit="10" stroke-linecap="round" stroke-linejoin="round"/>
<path d="M210.76 8.25V9.5" stroke="#292D32" stroke-width="1.5" stroke-miterlimit="10" stroke-linecap="round" stroke-linejoin="round"/>
<path d="M210.76 2V3.25" stroke="#292D32" stroke-width="1.5" stroke-miterlimit="10" stroke-linecap="round" stroke-linejoin="round"/>
<path d="M210.19 3.25H208" stroke="#292D32" stroke-width="1.5" stroke-miterlimit="10" stroke-linecap="round" stroke-linejoin="round"/>
<path d="M210.19 8.25H208" stroke="#292D32" stroke-width="1.5" stroke-miterlimit="10" stroke-linecap="round" stroke-linejoin="round"/>
<path d="M279 15.97C279 19.84 275.87 22.97 272 22.97L273.05 21.22" stroke="#292D32" stroke-width="1.5" stroke-linecap="round" stroke-linejoin="round"/>
<path d="M257 7.96997C257 4.09997 260.13 0.969971 264 0.969971L262.95 2.71997" stroke="#292D32" stroke-width="1.5" stroke-linecap="round" stroke-linejoin="round"/>
<path d="M262.62 13.0698H265.43C266.05 13.0698 266.56 13.6298 266.56 14.1998C266.56 14.8198 266.06 15.3298 265.43 15.3298H262.62V13.0698Z" stroke="#292D32" stroke-width="1.5" stroke-miterlimit="10" stroke-linecap="round" stroke-linejoin="round"/>
<path d="M262.62 15.3301H265.84C266.55 15.3301 267.13 15.8301 267.13 16.4601C267.13 17.0801 266.55 17.5901 265.84 17.5901H262.62V15.3301Z" stroke="#292D32" stroke-width="1.5" stroke-miterlimit="10" stroke-linecap="round" stroke-linejoin="round"/>
<path d="M264.42 17.5801V18.7001" stroke="#292D32" stroke-width="1.5" stroke-miterlimit="10" stroke-linecap="round" stroke-linejoin="round"/>
<path d="M264.42 11.95V13.0699" stroke="#292D32" stroke-width="1.5" stroke-miterlimit="10" stroke-linecap="round" stroke-linejoin="round"/>
<path d="M270.85 15.33C270.85 18.74 268.09 21.4999 264.68 21.4999C261.27 21.4999 258.51 18.74 258.51 15.33C258.51 11.92 261.27 9.15991 264.68 9.15991C264.84 9.15991 264.99 9.16993 265.16 9.17993C268.19 9.40993 270.61 11.8299 270.84 14.8599C270.84 15.0099 270.85 15.16 270.85 15.33Z" stroke="#292D32" stroke-width="1.5" stroke-miterlimit="10" stroke-linecap="round" stroke-linejoin="round"/>
<path d="M277.5 8.66998C277.5 12.08 274.74 14.84 271.33 14.84H270.84C270.61 11.81 268.19 9.38997 265.16 9.15997V8.66998C265.16 5.25998 267.92 2.5 271.33 2.5C274.74 2.5 277.5 5.25998 277.5 8.66998Z" stroke="#292D32" stroke-width="1.5" stroke-miterlimit="10" stroke-linecap="round" stroke-linejoin="round"/>
<path d="M324.47 11.4199L322.73 9.67993L321 11.4199" stroke="#292D32" stroke-width="1.5" stroke-linecap="round" stroke-linejoin="round"/>
<path d="M339.53 12.5801L341.27 14.3201L343.01 12.5801" stroke="#292D32" stroke-width="1.5" stroke-linecap="round" stroke-linejoin="round"/>
<path d="M341.26 14.32V12C341.26 6.88 337.11 2.73999 332 2.73999C329.08 2.73999 326.47 4.10002 324.77 6.21002" stroke="#292D32" stroke-width="1.5" stroke-linecap="round" stroke-linejoin="round"/>
<path d="M322.74 9.67993V11.9999C322.74 17.1199 326.89 21.2599 332 21.2599C334.92 21.2599 337.53 19.8999 339.23 17.7899" stroke="#292D32" stroke-width="1.5" stroke-linecap="round" stroke-linejoin="round"/>
<path d="M329 8.5H333.38C334.35 8.5 335.13 9.38 335.13 10.25C335.13 11.22 334.35 12 333.38 12H329V8.5Z" stroke="#292D32" stroke-width="1.5" stroke-miterlimit="10" stroke-linecap="round" stroke-linejoin="round"/>
<path d="M329 12H334C335.1 12 336 12.78 336 13.75C336 14.72 335.1 15.5 334 15.5H329V12Z" stroke="#292D32" stroke-width="1.5" stroke-miterlimit="10" stroke-linecap="round" stroke-linejoin="round"/>
<path d="M331.8 15.5V17.25" stroke="#292D32" stroke-width="1.5" stroke-miterlimit="10" stroke-linecap="round" stroke-linejoin="round"/>
<path d="M331.8 6.75V8.5" stroke="#292D32" stroke-width="1.5" stroke-miterlimit="10" stroke-linecap="round" stroke-linejoin="round"/>
</svg>
