<svg width="664" height="216" viewBox="0 0 664 216" fill="none" xmlns="http://www.w3.org/2000/svg">
<path d="M77.2 85.37C76.54 86.25 75.46 86.25 74.8 85.37L73.3 83.37C73.13 83.15 72.77 82.97 72.5 82.97H72C68 82.97 66 81.97 66 76.97V71.97C66 67.97 68 65.97 72 65.97H80C84 65.97 86 67.97 86 71.97V76.97" stroke="#292D32" stroke-width="1.5" stroke-miterlimit="10" stroke-linecap="round" stroke-linejoin="round"/>
<path d="M82.2 85.4C83.9673 85.4 85.4 83.9673 85.4 82.2C85.4 80.4327 83.9673 79 82.2 79C80.4327 79 79 80.4327 79 82.2C79 83.9673 80.4327 85.4 82.2 85.4Z" stroke="#292D32" stroke-width="1.5" stroke-linecap="round" stroke-linejoin="round"/>
<path d="M86 86L85 85" stroke="#292D32" stroke-width="1.5" stroke-linecap="round" stroke-linejoin="round"/>
<path d="M79.9965 75H80.0054" stroke="#292D32" stroke-width="2" stroke-linecap="round" stroke-linejoin="round"/>
<path d="M75.9955 75H76.0045" stroke="#292D32" stroke-width="2" stroke-linecap="round" stroke-linejoin="round"/>
<path d="M71.9945 75H72.0035" stroke="#292D32" stroke-width="2" stroke-linecap="round" stroke-linejoin="round"/>
<path d="M212 76.2V77.9C212 81.05 210.2 82.4 207.5 82.4H198.5C195.8 82.4 194 81.05 194 77.9V72.5C194 69.35 195.8 68 198.5 68H201.2C201.07 68.38 201 68.8 201 69.25V73.15C201 74.12 201.32 74.94 201.89 75.51C202.46 76.08 203.28 76.4 204.25 76.4V77.79C204.25 78.3 204.83 78.61 205.26 78.33L208.15 76.4H210.75C211.2 76.4 211.62 76.33 212 76.2Z" stroke="#292D32" stroke-width="1.5" stroke-miterlimit="10" stroke-linecap="round" stroke-linejoin="round"/>
<path d="M214 69.25V73.15C214 74.64 213.24 75.76 212 76.2C211.62 76.33 211.2 76.4 210.75 76.4H208.15L205.26 78.33C204.83 78.61 204.25 78.3 204.25 77.79V76.4C203.28 76.4 202.46 76.08 201.89 75.51C201.32 74.94 201 74.12 201 73.15V69.25C201 68.8 201.07 68.38 201.2 68C201.64 66.76 202.76 66 204.25 66H210.75C212.7 66 214 67.3 214 69.25Z" stroke="#292D32" stroke-width="1.5" stroke-miterlimit="10" stroke-linecap="round" stroke-linejoin="round"/>
<path d="M199.4 86H206.6" stroke="#292D32" stroke-width="1.5" stroke-miterlimit="10" stroke-linecap="round" stroke-linejoin="round"/>
<path d="M203 82.3999V85.9999" stroke="#292D32" stroke-width="1.5" stroke-miterlimit="10" stroke-linecap="round" stroke-linejoin="round"/>
<path d="M210.495 71.25H210.504" stroke="#292D32" stroke-width="1.5" stroke-linecap="round" stroke-linejoin="round"/>
<path d="M207.696 71.25H207.705" stroke="#292D32" stroke-width="1.5" stroke-linecap="round" stroke-linejoin="round"/>
<path d="M204.896 71.25H204.905" stroke="#292D32" stroke-width="1.5" stroke-linecap="round" stroke-linejoin="round"/>
<path d="M273 73C273 76.87 269.64 80 265.5 80L264.57 81.12L264.02 81.78C263.55 82.34 262.65 82.22 262.34 81.55L261 78.6C259.18 77.32 258 75.29 258 73C258 69.13 261.36 66 265.5 66C268.52 66 271.13 67.67 272.3 70.07C272.75 70.96 273 71.95 273 73Z" stroke="#292D32" stroke-width="1.5" stroke-linecap="round" stroke-linejoin="round"/>
<path d="M278 76.86C278 79.15 276.82 81.1801 275 82.4601L273.66 85.41C273.35 86.08 272.45 86.2101 271.98 85.6401L270.5 83.86C268.08 83.86 265.92 82.7901 264.57 81.1201L265.5 80.0001C269.64 80.0001 273 76.8701 273 73.0001C273 71.9501 272.75 70.9601 272.3 70.0701C275.57 70.8201 278 73.58 278 76.86Z" stroke="#292D32" stroke-width="1.5" stroke-linecap="round" stroke-linejoin="round"/>
<path d="M263 73H268" stroke="#292D32" stroke-width="1.5" stroke-linecap="round" stroke-linejoin="round"/>
<path d="M338.47 80.83L338.86 83.99C338.96 84.82 338.07 85.4 337.36 84.97L333.17 82.48C332.71 82.48 332.26 82.45 331.82 82.39C332.56 81.52 333 80.42 333 79.23C333 76.39 330.54 74.09 327.5 74.09C326.34 74.09 325.27 74.42 324.38 75C324.35 74.75 324.34 74.5 324.34 74.24C324.34 69.69 328.29 66 333.17 66C338.05 66 342 69.69 342 74.24C342 76.94 340.61 79.33 338.47 80.83Z" stroke="#292D32" stroke-width="1.5" stroke-linecap="round" stroke-linejoin="round"/>
<path d="M333 79.23C333 80.42 332.56 81.5201 331.82 82.3901C330.83 83.5901 329.26 84.36 327.5 84.36L324.89 85.91C324.45 86.18 323.89 85.81 323.95 85.3L324.2 83.3301C322.86 82.4001 322 80.91 322 79.23C322 77.47 322.94 75.9201 324.38 75.0001C325.27 74.4201 326.34 74.0901 327.5 74.0901C330.54 74.0901 333 76.39 333 79.23Z" stroke="#292D32" stroke-width="1.5" stroke-linecap="round" stroke-linejoin="round"/>
<path d="M406 70.25V75.35C406 76.62 405.58 77.69 404.83 78.43C404.09 79.18 403.02 79.6 401.75 79.6V81.41C401.75 82.09 400.99 82.5 400.43 82.12L399.46 81.48C399.55 81.17 399.59 80.83 399.59 80.47V76.4C399.59 74.36 398.23 73 396.19 73H389.4C389.26 73 389.13 73.01 389 73.02V70.25C389 67.7 390.7 66 393.25 66H401.75C404.3 66 406 67.7 406 70.25Z" stroke="#292D32" stroke-width="1.5" stroke-miterlimit="10" stroke-linecap="round" stroke-linejoin="round"/>
<path d="M399.59 76.4V80.47C399.59 80.83 399.55 81.17 399.46 81.48C399.09 82.95 397.87 83.87 396.19 83.87H393.47L390.45 85.88C390 86.19 389.4 85.86 389.4 85.32V83.87C388.38 83.87 387.53 83.53 386.94 82.94C386.34 82.34 386 81.49 386 80.47V76.4C386 74.5 387.18 73.19 389 73.02C389.13 73.01 389.26 73 389.4 73H396.19C398.23 73 399.59 74.36 399.59 76.4Z" stroke="#292D32" stroke-width="1.5" stroke-miterlimit="10" stroke-linecap="round" stroke-linejoin="round"/>
<path d="M465 84.5H455C452 84.5 450 83 450 79.5V72.5C450 69 452 67.5 455 67.5H465C468 67.5 470 69 470 72.5V79.5C470 83 468 84.5 465 84.5Z" stroke="#292D32" stroke-width="1.5" stroke-miterlimit="10" stroke-linecap="round" stroke-linejoin="round"/>
<path d="M465 73L461.87 75.5C460.84 76.32 459.15 76.32 458.12 75.5L455 73" stroke="#292D32" stroke-width="1.5" stroke-miterlimit="10" stroke-linecap="round" stroke-linejoin="round"/>
<path d="M514 72.5C514 69 516 67.5 519 67.5H529C532 67.5 534 69 534 72.5V79.5C534 83 532 84.5 529 84.5H519" stroke="#292D32" stroke-width="1.5" stroke-miterlimit="10" stroke-linecap="round" stroke-linejoin="round"/>
<path d="M529 73L525.87 75.5C524.84 76.32 523.15 76.32 522.12 75.5L519 73" stroke="#292D32" stroke-width="1.5" stroke-miterlimit="10" stroke-linecap="round" stroke-linejoin="round"/>
<path d="M514 80.5H520" stroke="#292D32" stroke-width="1.5" stroke-miterlimit="10" stroke-linecap="round" stroke-linejoin="round"/>
<path d="M514 76.5H517" stroke="#292D32" stroke-width="1.5" stroke-miterlimit="10" stroke-linecap="round" stroke-linejoin="round"/>
<path d="M598 74.5V79.5C598 83 596 84.5 593 84.5H583C580 84.5 578 83 578 79.5V72.5C578 69 580 67.5 583 67.5H590" stroke="#292D32" stroke-width="1.5" stroke-miterlimit="10" stroke-linecap="round" stroke-linejoin="round"/>
<path d="M583 73L586.13 75.5C587.16 76.32 588.85 76.32 589.88 75.5L591.06 74.56" stroke="#292D32" stroke-width="1.5" stroke-miterlimit="10" stroke-linecap="round" stroke-linejoin="round"/>
<path d="M595.5 72C596.881 72 598 70.8807 598 69.5C598 68.1193 596.881 67 595.5 67C594.119 67 593 68.1193 593 69.5C593 70.8807 594.119 72 595.5 72Z" stroke="#292D32" stroke-width="1.5" stroke-miterlimit="10" stroke-linecap="round" stroke-linejoin="round"/>
<path d="M652 84.5H647C644 84.5 642 83 642 79.5V72.5C642 69 644 67.5 647 67.5H657C660 67.5 662 69 662 72.5V75.5" stroke="#292D32" stroke-width="1.5" stroke-miterlimit="10" stroke-linecap="round" stroke-linejoin="round"/>
<path d="M657 73L653.87 75.5C652.84 76.32 651.15 76.32 650.12 75.5L647 73" stroke="#292D32" stroke-width="1.5" stroke-miterlimit="10" stroke-linecap="round" stroke-linejoin="round"/>
<path d="M659.21 78.77L655.67 82.31C655.53 82.45 655.4 82.71 655.37 82.9L655.18 84.25C655.11 84.74 655.45 85.0801 655.94 85.0101L657.29 84.82C657.48 84.79 657.75 84.66 657.88 84.52L661.42 80.9801C662.03 80.3701 662.32 79.6601 661.42 78.7601C660.53 77.8701 659.82 78.16 659.21 78.77Z" stroke="#292D32" stroke-width="1.5" stroke-miterlimit="10" stroke-linecap="round" stroke-linejoin="round"/>
<path d="M658.7 79.28C659 80.36 659.84 81.2 660.92 81.5" stroke="#292D32" stroke-width="1.5" stroke-miterlimit="10" stroke-linecap="round" stroke-linejoin="round"/>
<path d="M22 139.5V143.5C22 147 20 148.5 17 148.5H7C4 148.5 2 147 2 143.5V136.5C2 133 4 131.5 7 131.5H12" stroke="#292D32" stroke-width="1.5" stroke-miterlimit="10" stroke-linecap="round" stroke-linejoin="round"/>
<path d="M7 137L10.13 139.5C11.16 140.32 12.85 140.32 13.88 139.5" stroke="#292D32" stroke-width="1.5" stroke-miterlimit="10" stroke-linecap="round" stroke-linejoin="round"/>
<path d="M19.4802 130.82L19.7602 131.39C19.9002 131.67 20.2502 131.93 20.5602 131.99L20.9402 132.05C22.0802 132.24 22.3502 133.08 21.5302 133.91L21.1802 134.26C20.9502 134.5 20.8202 134.96 20.8902 135.28L20.9402 135.49C21.2502 136.87 20.5202 137.4 19.3202 136.68L19.0602 136.53C18.7502 136.35 18.2502 136.35 17.9402 136.53L17.6802 136.68C16.4702 137.41 15.7402 136.87 16.0602 135.49L16.1102 135.28C16.1802 134.96 16.0502 134.5 15.8202 134.26L15.4702 133.91C14.6502 133.08 14.9202 132.24 16.0602 132.05L16.4402 131.99C16.7402 131.94 17.1002 131.67 17.2402 131.39L17.5202 130.82C18.0602 129.73 18.9402 129.73 19.4802 130.82Z" stroke="#292D32" stroke-width="1.5" stroke-linecap="round" stroke-linejoin="round"/>
<path d="M76 148.5H71C68 148.5 66 147 66 143.5V136.5C66 133 68 131.5 71 131.5H81C84 131.5 86 133 86 136.5V139.5" stroke="#292D32" stroke-width="1.5" stroke-miterlimit="10" stroke-linecap="round" stroke-linejoin="round"/>
<path d="M81 137L77.87 139.5C76.84 140.32 75.15 140.32 74.12 139.5L71 137" stroke="#292D32" stroke-width="1.5" stroke-miterlimit="10" stroke-linecap="round" stroke-linejoin="round"/>
<path d="M82.2 149.4C83.9673 149.4 85.4 147.967 85.4 146.2C85.4 144.433 83.9673 143 82.2 143C80.4327 143 79 144.433 79 146.2C79 147.967 80.4327 149.4 82.2 149.4Z" stroke="#292D32" stroke-width="1.5" stroke-linecap="round" stroke-linejoin="round"/>
<path d="M86 150L85 149" stroke="#292D32" stroke-width="1.5" stroke-linecap="round" stroke-linejoin="round"/>
<path d="M150 135.43V141.43C150 142.93 149.5 144.18 148.62 145.06C147.75 145.93 146.5 146.43 145 146.43V148.56C145 149.36 144.11 149.84 143.45 149.4L139 146.43H136.88C136.96 146.13 137 145.82 137 145.5C137 144.48 136.61 143.54 135.97 142.83C135.25 142.01 134.18 141.5 133 141.5C131.88 141.5 130.86 141.96 130.13 142.71C130.04 142.31 130 141.88 130 141.43V135.43C130 132.43 132 130.43 135 130.43H145C148 130.43 150 132.43 150 135.43Z" stroke="#292D32" stroke-width="1.5" stroke-miterlimit="10" stroke-linecap="round" stroke-linejoin="round"/>
<path d="M137 145.5C137 145.82 136.96 146.13 136.88 146.43C136.79 146.83 136.63 147.22 136.42 147.56C135.73 148.72 134.46 149.5 133 149.5C131.97 149.5 131.04 149.11 130.34 148.47C130.04 148.21 129.78 147.9 129.58 147.56C129.21 146.96 129 146.25 129 145.5C129 144.42 129.43 143.43 130.13 142.71C130.86 141.96 131.88 141.5 133 141.5C134.18 141.5 135.25 142.01 135.97 142.83C136.61 143.54 137 144.48 137 145.5Z" stroke="#292D32" stroke-width="1.5" stroke-miterlimit="10" stroke-linecap="round" stroke-linejoin="round"/>
<path d="M134.07 146.54L131.95 144.43" stroke="#292D32" stroke-width="1.5" stroke-miterlimit="10" stroke-linecap="round" stroke-linejoin="round"/>
<path d="M134.05 144.46L131.93 146.57" stroke="#292D32" stroke-width="1.5" stroke-miterlimit="10" stroke-linecap="round" stroke-linejoin="round"/>
<path d="M136.5 138.5H143.5" stroke="#292D32" stroke-width="1.5" stroke-miterlimit="10" stroke-linecap="round" stroke-linejoin="round"/>
<path d="M214 135.43V141.43C214 142.93 213.5 144.18 212.62 145.06C211.75 145.93 210.5 146.43 209 146.43V148.56C209 149.36 208.11 149.84 207.45 149.4L203 146.43H200.88C200.96 146.13 201 145.82 201 145.5C201 144.48 200.61 143.54 199.97 142.83C199.25 142.01 198.18 141.5 197 141.5C195.88 141.5 194.86 141.96 194.13 142.71C194.04 142.31 194 141.88 194 141.43V135.43C194 132.43 196 130.43 199 130.43H209C212 130.43 214 132.43 214 135.43Z" stroke="#292D32" stroke-width="1.5" stroke-miterlimit="10" stroke-linecap="round" stroke-linejoin="round"/>
<path d="M201 145.5C201 145.82 200.96 146.13 200.88 146.43C200.79 146.83 200.63 147.22 200.42 147.56C199.73 148.72 198.46 149.5 197 149.5C195.97 149.5 195.04 149.11 194.34 148.47C194.04 148.21 193.78 147.9 193.58 147.56C193.21 146.96 193 146.25 193 145.5C193 144.42 193.43 143.43 194.13 142.71C194.86 141.96 195.88 141.5 197 141.5C198.18 141.5 199.25 142.01 199.97 142.83C200.61 143.54 201 144.48 201 145.5Z" stroke="#292D32" stroke-width="1.5" stroke-miterlimit="10" stroke-linecap="round" stroke-linejoin="round"/>
<path d="M198.49 145.48H195.51" stroke="#292D32" stroke-width="1.5" stroke-miterlimit="10" stroke-linecap="round" stroke-linejoin="round"/>
<path d="M197 144.02V147.01" stroke="#292D32" stroke-width="1.5" stroke-miterlimit="10" stroke-linecap="round" stroke-linejoin="round"/>
<path d="M200.5 138.5H207.5" stroke="#292D32" stroke-width="1.5" stroke-miterlimit="10" stroke-linecap="round" stroke-linejoin="round"/>
<path d="M278 135.43V141.43C278 142.93 277.5 144.18 276.62 145.06C275.75 145.93 274.5 146.43 273 146.43V148.56C273 149.36 272.11 149.84 271.45 149.4L267 146.43H264.88C264.96 146.13 265 145.82 265 145.5C265 144.48 264.61 143.54 263.97 142.83C263.25 142.01 262.18 141.5 261 141.5C259.88 141.5 258.86 141.96 258.13 142.71C258.04 142.31 258 141.88 258 141.43V135.43C258 132.43 260 130.43 263 130.43H273C276 130.43 278 132.43 278 135.43Z" stroke="#292D32" stroke-width="1.5" stroke-miterlimit="10" stroke-linecap="round" stroke-linejoin="round"/>
<path d="M265 145.5C265 146.25 264.79 146.96 264.42 147.56C264.21 147.92 263.94 148.24 263.63 148.5C262.93 149.13 262.01 149.5 261 149.5C259.54 149.5 258.27 148.72 257.58 147.56C257.21 146.96 257 146.25 257 145.5C257 144.24 257.58 143.11 258.5 142.38C259.19 141.83 260.06 141.5 261 141.5C263.21 141.5 265 143.29 265 145.5Z" stroke="#292D32" stroke-width="1.5" stroke-miterlimit="10" stroke-linecap="round" stroke-linejoin="round"/>
<path d="M259.44 145.5L260.43 146.49L262.56 144.52" stroke="#292D32" stroke-width="1.5" stroke-linecap="round" stroke-linejoin="round"/>
<path d="M264.5 138.5H271.5" stroke="#292D32" stroke-width="1.5" stroke-miterlimit="10" stroke-linecap="round" stroke-linejoin="round"/>
<path d="M342 135.43V141.43C342 142.93 341.5 144.18 340.62 145.06C339.75 145.93 338.5 146.43 337 146.43V148.56C337 149.36 336.11 149.84 335.45 149.4L331 146.43H328.88C328.96 146.13 329 145.82 329 145.5C329 144.48 328.61 143.54 327.97 142.83C327.25 142.01 326.18 141.5 325 141.5C323.88 141.5 322.86 141.96 322.13 142.71C322.04 142.31 322 141.88 322 141.43V135.43C322 132.43 324 130.43 327 130.43H337C340 130.43 342 132.43 342 135.43Z" stroke="#292D32" stroke-width="1.5" stroke-miterlimit="10" stroke-linecap="round" stroke-linejoin="round"/>
<path d="M329 145.5C329 146.7 328.47 147.77 327.64 148.5C326.93 149.12 326.01 149.5 325 149.5C322.79 149.5 321 147.71 321 145.5C321 144.24 321.58 143.11 322.5 142.38C323.19 141.83 324.06 141.5 325 141.5C327.21 141.5 329 143.29 329 145.5Z" stroke="#292D32" stroke-width="1.5" stroke-miterlimit="10" stroke-linecap="round" stroke-linejoin="round"/>
<path d="M325.25 144.25V145.75L324 146.5" stroke="#292D32" stroke-width="1.5" stroke-miterlimit="10" stroke-linecap="round" stroke-linejoin="round"/>
<path d="M328.5 138.5H335.5" stroke="#292D32" stroke-width="1.5" stroke-miterlimit="10" stroke-linecap="round" stroke-linejoin="round"/>
<path d="M392.5 138.5H399.5" stroke="#292D32" stroke-width="1.5" stroke-miterlimit="10" stroke-linecap="round" stroke-linejoin="round"/>
<path d="M391 146.43H395L399.45 149.39C400.11 149.83 401 149.36 401 148.56V146.43C404 146.43 406 144.43 406 141.43V135.43C406 132.43 404 130.43 401 130.43H391C388 130.43 386 132.43 386 135.43V141.43C386 144.43 388 146.43 391 146.43Z" stroke="#292D32" stroke-width="1.5" stroke-miterlimit="10" stroke-linecap="round" stroke-linejoin="round"/>
<path d="M465.98 138.79V142.79C465.98 143.05 465.97 143.3 465.94 143.54C465.71 146.24 464.12 147.58 461.19 147.58H460.79C460.54 147.58 460.3 147.7 460.15 147.9L458.95 149.5C458.42 150.21 457.56 150.21 457.03 149.5L455.83 147.9C455.7 147.73 455.41 147.58 455.19 147.58H454.79C451.6 147.58 450 146.79 450 142.79V138.79C450 135.86 451.35 134.27 454.04 134.04C454.28 134.01 454.53 134 454.79 134H461.19C464.38 134 465.98 135.6 465.98 138.79Z" stroke="#292D32" stroke-width="1.5" stroke-miterlimit="10" stroke-linecap="round" stroke-linejoin="round"/>
<path d="M469.98 134.79V138.79C469.98 141.73 468.63 143.31 465.94 143.54C465.97 143.3 465.98 143.05 465.98 142.79V138.79C465.98 135.6 464.38 134 461.19 134H454.79C454.53 134 454.28 134.01 454.04 134.04C454.27 131.35 455.86 130 458.79 130H465.19C468.38 130 469.98 131.6 469.98 134.79Z" stroke="#292D32" stroke-width="1.5" stroke-miterlimit="10" stroke-linecap="round" stroke-linejoin="round"/>
<path d="M461.495 141.25H461.504" stroke="#292D32" stroke-width="2" stroke-linecap="round" stroke-linejoin="round"/>
<path d="M457.995 141.25H458.004" stroke="#292D32" stroke-width="2" stroke-linecap="round" stroke-linejoin="round"/>
<path d="M454.495 141.25H454.504" stroke="#292D32" stroke-width="2" stroke-linecap="round" stroke-linejoin="round"/>
<path d="M529.25 138.18V140.81C529.25 140.98 529.24 141.14 529.22 141.3C529.07 143.07 528.02 143.95 526.1 143.95H525.84C525.68 143.95 525.52 144.03 525.42 144.16L524.63 145.21C524.28 145.68 523.72 145.68 523.37 145.21L522.58 144.16C522.49 144.05 522.3 143.95 522.16 143.95H521.9C519.8 143.95 518.75 143.43 518.75 140.8V138.17C518.75 136.25 519.64 135.2 521.4 135.05C521.56 135.03 521.72 135.02 521.89 135.02H526.09C528.2 135.04 529.25 136.09 529.25 138.18Z" stroke="#292D32" stroke-width="1.5" stroke-miterlimit="10" stroke-linecap="round" stroke-linejoin="round"/>
<path d="M524 150C529.523 150 534 145.523 534 140C534 134.477 529.523 130 524 130C518.477 130 514 134.477 514 140C514 145.523 518.477 150 524 150Z" stroke="#292D32" stroke-width="1.5" stroke-miterlimit="10" stroke-linecap="round" stroke-linejoin="round"/>
<path d="M594.28 137.76V140.9C594.28 141.1 594.27 141.3 594.25 141.49C594.07 143.61 592.82 144.67 590.52 144.67H590.21C590.01 144.67 589.82 144.76 589.71 144.92L588.77 146.18C588.35 146.74 587.68 146.74 587.26 146.18L586.32 144.92C586.22 144.79 585.99 144.67 585.82 144.67H585.51C583 144.67 581.75 144.05 581.75 140.91V137.77C581.75 135.47 582.81 134.22 584.93 134.04C585.12 134.02 585.32 134.01 585.52 134.01H590.55C593.02 134 594.28 135.26 594.28 137.76Z" stroke="#292D32" stroke-width="1.5" stroke-miterlimit="10" stroke-linecap="round" stroke-linejoin="round"/>
<path d="M585 150H591C596 150 598 148 598 143V137C598 132 596 130 591 130H585C580 130 578 132 578 137V143C578 148 580 150 585 150Z" stroke="#292D32" stroke-width="1.5" stroke-linecap="round" stroke-linejoin="round"/>
<path d="M656 130H648C644 130 642 132 642 136V149C642 149.55 642.45 150 643 150H656C660 150 662 148 662 144V136C662 132 660 130 656 130Z" stroke="#292D32" stroke-width="1.5" stroke-linecap="round" stroke-linejoin="round"/>
<path d="M647 137.5H657" stroke="#292D32" stroke-width="1.5" stroke-miterlimit="10" stroke-linecap="round" stroke-linejoin="round"/>
<path d="M647 142.5H654" stroke="#292D32" stroke-width="1.5" stroke-miterlimit="10" stroke-linecap="round" stroke-linejoin="round"/>
<path d="M16 194H8C4 194 2 196 2 200V213C2 213.55 2.45 214 3 214H16C20 214 22 212 22 208V200C22 196 20 194 16 194Z" stroke="#292D32" stroke-width="1.5" stroke-linecap="round" stroke-linejoin="round"/>
<path d="M8.5 204H15.5" stroke="#292D32" stroke-width="1.5" stroke-miterlimit="10" stroke-linecap="round" stroke-linejoin="round"/>
<path d="M80 194H72C68 194 66 196 66 200V213C66 213.55 66.45 214 67 214H80C84 214 86 212 86 208V200C86 196 84 194 80 194Z" stroke="#292D32" stroke-width="1.5" stroke-linecap="round" stroke-linejoin="round"/>
<path d="M72.5 204H79.5" stroke="#292D32" stroke-width="1.5" stroke-miterlimit="10" stroke-linecap="round" stroke-linejoin="round"/>
<path d="M76 207.5V200.5" stroke="#292D32" stroke-width="1.5" stroke-miterlimit="10" stroke-linecap="round" stroke-linejoin="round"/>
<path d="M144 194H136C132 194 130 196 130 200V213C130 213.55 130.45 214 131 214H144C148 214 150 212 150 208V200C150 196 148 194 144 194Z" stroke="#292D32" stroke-width="1.5" stroke-linecap="round" stroke-linejoin="round"/>
<path d="M140.91 199.84L135.72 205.03C135.52 205.23 135.33 205.62 135.29 205.9L135.01 207.88C134.91 208.6 135.41 209.1 136.13 209L138.11 208.72C138.39 208.68 138.78 208.49 138.98 208.29L144.17 203.1C145.06 202.21 145.49 201.17 144.17 199.85C142.85 198.52 141.81 198.94 140.91 199.84Z" stroke="#292D32" stroke-width="1.5" stroke-miterlimit="10" stroke-linecap="round" stroke-linejoin="round"/>
<path d="M140.17 200.58C140.61 202.15 141.84 203.39 143.42 203.83" stroke="#292D32" stroke-width="1.5" stroke-miterlimit="10" stroke-linecap="round" stroke-linejoin="round"/>
<path d="M7 12C3 12 3 13.79 3 16V17C3 19.76 3 22 8 22H16C20 22 21 19.76 21 17V16C21 13.79 21 12 17 12C16 12 15.72 12.21 15.2 12.6L14.18 13.68C13 14.94 11 14.94 9.81 13.68L8.8 12.6C8.28 12.21 8 12 7 12Z" stroke="#292D32" stroke-width="1.5" stroke-miterlimit="10" stroke-linecap="round" stroke-linejoin="round"/>
<path d="M19 12V6C19 3.79 19 2 15 2H9C5 2 5 3.79 5 6V12" stroke="#292D32" stroke-width="1.5" stroke-miterlimit="10" stroke-linecap="round" stroke-linejoin="round"/>
<path d="M71 12C67 12 67 13.79 67 16V17C67 19.76 67 22 72 22H80C84 22 85 19.76 85 17V16C85 13.79 85 12 81 12C80 12 79.72 12.21 79.2 12.6L78.18 13.68C77 14.94 75 14.94 73.81 13.68L72.8 12.6C72.28 12.21 72 12 71 12Z" stroke="#292D32" stroke-width="1.5" stroke-miterlimit="10" stroke-linecap="round" stroke-linejoin="round"/>
<path d="M83 12V6C83 3.79 83 2 79 2H73C69 2 69 3.79 69 6V12" stroke="#292D32" stroke-width="1.5" stroke-miterlimit="10" stroke-linecap="round" stroke-linejoin="round"/>
<path d="M74.5498 9.22998H77.8798" stroke="#292D32" stroke-width="1.5" stroke-linecap="round" stroke-linejoin="round"/>
<path d="M73.7202 6.22998H78.7202" stroke="#292D32" stroke-width="1.5" stroke-linecap="round" stroke-linejoin="round"/>
<path d="M140 2V8L142 6" stroke="#292D32" stroke-width="1.5" stroke-linecap="round" stroke-linejoin="round"/>
<path d="M140 8L138 6" stroke="#292D32" stroke-width="1.5" stroke-linecap="round" stroke-linejoin="round"/>
<path d="M135 12C131 12 131 13.79 131 16V17C131 19.76 131 22 136 22H144C148 22 149 19.76 149 17V16C149 13.79 149 12 145 12C144 12 143.72 12.21 143.2 12.6L142.18 13.68C141 14.94 139 14.94 137.81 13.68L136.8 12.6C136.28 12.21 136 12 135 12Z" stroke="#292D32" stroke-width="1.5" stroke-miterlimit="10" stroke-linecap="round" stroke-linejoin="round"/>
<path d="M133 12V8.00004C133 5.99004 133 4.33004 136 4.04004" stroke="#292D32" stroke-width="1.5" stroke-miterlimit="10" stroke-linecap="round" stroke-linejoin="round"/>
<path d="M147 12V8.00004C147 5.99004 147 4.33004 144 4.04004" stroke="#292D32" stroke-width="1.5" stroke-miterlimit="10" stroke-linecap="round" stroke-linejoin="round"/>
<path d="M204 8V2L202 4" stroke="#292D32" stroke-width="1.5" stroke-linecap="round" stroke-linejoin="round"/>
<path d="M204 2L206 4" stroke="#292D32" stroke-width="1.5" stroke-linecap="round" stroke-linejoin="round"/>
<path d="M199 12C195 12 195 13.79 195 16V17C195 19.76 195 22 200 22H208C212 22 213 19.76 213 17V16C213 13.79 213 12 209 12C208 12 207.72 12.21 207.2 12.6L206.18 13.68C205 14.94 203 14.94 201.81 13.68L200.8 12.6C200.28 12.21 200 12 199 12Z" stroke="#292D32" stroke-width="1.5" stroke-miterlimit="10" stroke-linecap="round" stroke-linejoin="round"/>
<path d="M197 12V10C197 7.99004 197 6.33004 200 6.04004" stroke="#292D32" stroke-width="1.5" stroke-miterlimit="10" stroke-linecap="round" stroke-linejoin="round"/>
<path d="M211 12V10C211 7.99004 211 6.33004 208 6.04004" stroke="#292D32" stroke-width="1.5" stroke-miterlimit="10" stroke-linecap="round" stroke-linejoin="round"/>
<path d="M265 22H271C276 22 278 20 278 15V9C278 4 276 2 271 2H265C260 2 258 4 258 9V15C258 20 260 22 265 22Z" stroke="#292D32" stroke-width="1.5" stroke-linecap="round" stroke-linejoin="round"/>
<path d="M258 13H261.76C262.52 13 263.21 13.43 263.55 14.11L264.44 15.9C265 17 266 17 266.24 17H269.77C270.53 17 271.22 16.57 271.56 15.89L272.45 14.1C272.79 13.42 273.48 12.99 274.24 12.99H277.98" stroke="#292D32" stroke-width="1.5" stroke-linecap="round" stroke-linejoin="round"/>
<path d="M329 22H335C340 22 342 20 342 15V9C342 4 340 2 335 2H329C324 2 322 4 322 9V15C322 20 324 22 329 22Z" stroke="#292D32" stroke-width="1.5" stroke-linecap="round" stroke-linejoin="round"/>
<path d="M322 13H325.76C326.52 13 327.21 13.43 327.55 14.11L328.44 15.9C329 17 330 17 330.24 17H333.77C334.53 17 335.22 16.57 335.56 15.89L336.45 14.1C336.79 13.42 337.48 12.99 338.24 12.99H341.98" stroke="#292D32" stroke-width="1.5" stroke-linecap="round" stroke-linejoin="round"/>
<path d="M330.34 7H333.67" stroke="#292D32" stroke-width="1.5" stroke-linecap="round" stroke-linejoin="round"/>
<path d="M329.5 10H334.5" stroke="#292D32" stroke-width="1.5" stroke-linecap="round" stroke-linejoin="round"/>
<path d="M385.98 13H389.77C390.53 13 391.22 13.43 391.56 14.11L392.45 15.9C393 17 394 17 394.24 17H397.77C398.53 17 399.22 16.57 399.56 15.89L400.45 14.1C400.79 13.42 401.48 12.99 402.24 12.99H405.98" stroke="#292D32" stroke-width="1.5" stroke-linecap="round" stroke-linejoin="round"/>
<path d="M403 8C404.657 8 406 6.65685 406 5C406 3.34315 404.657 2 403 2C401.343 2 400 3.34315 400 5C400 6.65685 401.343 8 403 8Z" stroke="#292D32" stroke-width="1.5" stroke-linecap="round" stroke-linejoin="round"/>
<path d="M398 2H393C388 2 386 4 386 9V15C386 20 388 22 393 22H399C404 22 406 20 406 15V10" stroke="#292D32" stroke-width="1.5" stroke-linecap="round" stroke-linejoin="round"/>
<path d="M460 2V9L462 7" stroke="#292D32" stroke-width="1.5" stroke-linecap="round" stroke-linejoin="round"/>
<path d="M460 9L458 7" stroke="#292D32" stroke-width="1.5" stroke-linecap="round" stroke-linejoin="round"/>
<path d="M449.98 13H454.39C454.77 13 455.11 13.21 455.28 13.55L456.45 15.89C456.79 16.57 457.48 17 458.24 17H461.77C462.53 17 463.22 16.57 463.56 15.89L464.73 13.55C464.9 13.21 465.25 13 465.62 13H469.98" stroke="#292D32" stroke-width="1.5" stroke-linecap="round" stroke-linejoin="round"/>
<path d="M455 4.12988C451.46 4.64988 450 6.72988 450 10.9999V14.9999C450 19.9999 452 21.9999 457 21.9999H463C468 21.9999 470 19.9999 470 14.9999V10.9999C470 6.72988 468.54 4.64988 465 4.12988" stroke="#292D32" stroke-width="1.5" stroke-linecap="round" stroke-linejoin="round"/>
<path d="M524 9V2L522 4" stroke="#292D32" stroke-width="1.5" stroke-linecap="round" stroke-linejoin="round"/>
<path d="M524 2L526 4" stroke="#292D32" stroke-width="1.5" stroke-linecap="round" stroke-linejoin="round"/>
<path d="M513.98 13H518.39C518.77 13 519.11 13.21 519.28 13.55L520.45 15.89C520.79 16.57 521.48 17 522.24 17H525.77C526.53 17 527.22 16.57 527.56 15.89L528.73 13.55C528.9 13.21 529.25 13 529.62 13H533.98" stroke="#292D32" stroke-width="1.5" stroke-linecap="round" stroke-linejoin="round"/>
<path d="M519 5.12988C515.46 5.64988 514 7.72988 514 11.9999V14.9999C514 19.9999 516 21.9999 521 21.9999H527C532 21.9999 534 19.9999 534 14.9999V11.9999C534 7.72988 532.54 5.64988 529 5.12988" stroke="#292D32" stroke-width="1.5" stroke-linecap="round" stroke-linejoin="round"/>
<path d="M584.5 19H584C580 19 578 18 578 13V8C578 4 580 2 584 2H592C596 2 598 4 598 8V13C598 17 596 19 592 19H591.5C591.19 19 590.89 19.15 590.7 19.4L589.2 21.4C588.54 22.28 587.46 22.28 586.8 21.4L585.3 19.4C585.14 19.18 584.77 19 584.5 19Z" stroke="#292D32" stroke-width="1.5" stroke-miterlimit="10" stroke-linecap="round" stroke-linejoin="round"/>
<path d="M591.996 11H592.005" stroke="#292D32" stroke-width="2" stroke-linecap="round" stroke-linejoin="round"/>
<path d="M587.995 11H588.004" stroke="#292D32" stroke-width="2" stroke-linecap="round" stroke-linejoin="round"/>
<path d="M583.995 11H584.003" stroke="#292D32" stroke-width="2" stroke-linecap="round" stroke-linejoin="round"/>
<path d="M662 8V13C662 17 660 19 656 19H655.5C655.19 19 654.89 19.15 654.7 19.4L653.2 21.4C652.54 22.28 651.46 22.28 650.8 21.4L649.3 19.4C649.14 19.18 648.77 19 648.5 19H648C644 19 642 18 642 13V8C642 4 644 2 648 2H652" stroke="#292D32" stroke-width="1.5" stroke-miterlimit="10" stroke-linecap="round" stroke-linejoin="round"/>
<path d="M655.2 4.62008C654.87 3.63008 655.26 2.41008 656.34 2.07008C656.9 1.90008 657.6 2.04008 658 2.57008C658.38 2.02008 659.1 1.90008 659.66 2.07008C660.74 2.40008 661.13 3.63008 660.8 4.62008C660.29 6.19008 658.5 7.00008 658 7.00008C657.5 7.00008 655.73 6.20008 655.2 4.62008Z" stroke="#292D32" stroke-width="1.5" stroke-linecap="round" stroke-linejoin="round"/>
<path d="M655.996 11H656.005" stroke="#292D32" stroke-width="2" stroke-linecap="round" stroke-linejoin="round"/>
<path d="M651.995 11H652.004" stroke="#292D32" stroke-width="2" stroke-linecap="round" stroke-linejoin="round"/>
<path d="M647.995 11H648.003" stroke="#292D32" stroke-width="2" stroke-linecap="round" stroke-linejoin="round"/>
<path d="M22 74V77C22 81 20 83 16 83H15.5C15.19 83 14.89 83.15 14.7 83.4L13.2 85.4C12.54 86.28 11.46 86.28 10.8 85.4L9.3 83.4C9.14 83.18 8.77 83 8.5 83H8C4 83 2 82 2 77V72C2 68 4 66 8 66H14" stroke="#292D32" stroke-width="1.5" stroke-miterlimit="10" stroke-linecap="round" stroke-linejoin="round"/>
<path d="M19.5 71C20.8807 71 22 69.8807 22 68.5C22 67.1193 20.8807 66 19.5 66C18.1193 66 17 67.1193 17 68.5C17 69.8807 18.1193 71 19.5 71Z" stroke="#292D32" stroke-width="1.5" stroke-linecap="round" stroke-linejoin="round"/>
<path d="M15.9965 75H16.0054" stroke="#292D32" stroke-width="2" stroke-linecap="round" stroke-linejoin="round"/>
<path d="M11.9955 75H12.0045" stroke="#292D32" stroke-width="2" stroke-linecap="round" stroke-linejoin="round"/>
<path d="M7.99451 75H8.00349" stroke="#292D32" stroke-width="2" stroke-linecap="round" stroke-linejoin="round"/>
<path d="M136.5 83H136C132 83 130 82 130 77V72C130 68 132 66 136 66H144C148 66 150 68 150 72V77C150 81 148 83 144 83H143.5C143.19 83 142.89 83.15 142.7 83.4L141.2 85.4C140.54 86.28 139.46 86.28 138.8 85.4L137.3 83.4C137.14 83.18 136.77 83 136.5 83Z" stroke="#292D32" stroke-width="1.5" stroke-miterlimit="10" stroke-linecap="round" stroke-linejoin="round"/>
<path d="M135 72H145" stroke="#292D32" stroke-width="1.5" stroke-linecap="round" stroke-linejoin="round"/>
<path d="M135 77H141" stroke="#292D32" stroke-width="1.5" stroke-linecap="round" stroke-linejoin="round"/>
</svg>
