<svg width="472" height="24" viewBox="0 0 472 24" fill="none" xmlns="http://www.w3.org/2000/svg">
<path d="M22 11V17C22 21 21 22 17 22H7C3 22 2 21 2 17V7C2 3 3 2 7 2H8.5C10 2 10.33 2.44 10.9 3.2L12.4 5.2C12.78 5.7 13 6 14 6H17C21 6 22 7 22 11Z" stroke="#292D32" stroke-width="1.5" stroke-miterlimit="10"/>
<path d="M77.81 15.73L74.27 12.19" stroke="#292D32" stroke-width="1.5" stroke-miterlimit="10" stroke-linecap="round" stroke-linejoin="round"/>
<path d="M77.77 12.23L74.23 15.77" stroke="#292D32" stroke-width="1.5" stroke-miterlimit="10" stroke-linecap="round" stroke-linejoin="round"/>
<path d="M86 11V17C86 21 85 22 81 22H71C67 22 66 21 66 17V7C66 3 67 2 71 2H72.5C74 2 74.33 2.44 74.9 3.2L76.4 5.2C76.78 5.7 77 6 78 6H81C85 6 86 7 86 11Z" stroke="#292D32" stroke-width="1.5" stroke-miterlimit="10"/>
<path d="M140.06 16.5V11.5" stroke="#292D32" stroke-width="1.5" stroke-miterlimit="10" stroke-linecap="round" stroke-linejoin="round"/>
<path d="M142.5 14H137.5" stroke="#292D32" stroke-width="1.5" stroke-miterlimit="10" stroke-linecap="round" stroke-linejoin="round"/>
<path d="M150 11V17C150 21 149 22 145 22H135C131 22 130 21 130 17V7C130 3 131 2 135 2H136.5C138 2 138.33 2.44 138.9 3.2L140.4 5.2C140.78 5.7 141 6 142 6H145C149 6 150 7 150 11Z" stroke="#292D32" stroke-width="1.5" stroke-miterlimit="10"/>
<path d="M206.43 14.55H201.43" stroke="#292D32" stroke-width="1.5" stroke-miterlimit="10" stroke-linecap="round" stroke-linejoin="round"/>
<path d="M214 11V17C214 21 213 22 209 22H199C195 22 194 21 194 17V7C194 3 195 2 199 2H200.5C202 2 202.33 2.44 202.9 3.2L204.4 5.2C204.78 5.7 205 6 206 6H209C213 6 214 7 214 11Z" stroke="#292D32" stroke-width="1.5" stroke-miterlimit="10"/>
<path d="M265.2 14.78L267.78 17.04C267.9 17.15 268.09 17.15 268.21 17.04L270.79 14.78C271.46 14.19 271.55 13.19 270.99 12.49C270.43 11.79 269.41 11.66 268.7 12.2L268 12.74L267.29 12.21C266.57 11.67 265.56 11.8 265 12.5C264.44 13.19 264.53 14.2 265.2 14.78Z" stroke="#292D32" stroke-width="1.5" stroke-linecap="round" stroke-linejoin="round"/>
<path d="M278 11V17C278 21 277 22 273 22H263C259 22 258 21 258 17V7C258 3 259 2 263 2H264.5C266 2 266.33 2.44 266.9 3.2L268.4 5.2C268.78 5.7 269 6 270 6H273C277 6 278 7 278 11Z" stroke="#292D32" stroke-width="1.5" stroke-miterlimit="10"/>
<path d="M342 11V17C342 21 341 22 337 22H327C323 22 322 21 322 17V7C322 3 323 2 327 2H328.5C330 2 330.33 2.44 330.9 3.2L332.4 5.2C332.78 5.7 333 6 334 6H337C341 6 342 7 342 11Z" stroke="#292D32" stroke-width="1.5" stroke-miterlimit="10"/>
<path d="M328 2H337C339 2 340 3 340 5V6.38" stroke="#292D32" stroke-width="1.5" stroke-miterlimit="10" stroke-linecap="round" stroke-linejoin="round"/>
<path d="M405.67 14.3L405.27 19.3C405.12 20.83 405 22 402.29 22H389.71C387 22 386.88 20.83 386.73 19.3L386.33 14.3C386.25 13.47 386.51 12.7 386.98 12.11C386.99 12.1 386.99 12.1 387 12.09C387.55 11.42 388.38 11 389.31 11H402.69C403.62 11 404.44 11.42 404.98 12.07C404.99 12.08 405 12.09 405 12.1C405.49 12.69 405.76 13.46 405.67 14.3Z" stroke="#292D32" stroke-width="1.5" stroke-miterlimit="10"/>
<path d="M387.5 11.43V6.28003C387.5 2.88003 388.35 2.03003 391.75 2.03003H393.02C394.29 2.03003 394.58 2.41003 395.06 3.05003L396.33 4.75003C396.65 5.17003 396.84 5.43003 397.69 5.43003H400.24C403.64 5.43003 404.49 6.28003 404.49 9.68003V11.47" stroke="#292D32" stroke-width="1.5" stroke-miterlimit="10" stroke-linecap="round" stroke-linejoin="round"/>
<path d="M393.43 17H398.57" stroke="#292D32" stroke-width="1.5" stroke-miterlimit="10" stroke-linecap="round" stroke-linejoin="round"/>
<path d="M457 22H455C451 22 450 21 450 17V7C450 3 451 2 455 2H456.5C458 2 458.33 2.44001 458.9 3.20001L460.4 5.20001C460.78 5.70001 461 6 462 6H465C469 6 470 7 470 11V13" stroke="#292D32" stroke-width="1.5" stroke-miterlimit="10" stroke-linecap="round" stroke-linejoin="round"/>
<path d="M461.76 18.32C459.41 18.49 459.41 21.89 461.76 22.06H467.32C467.99 22.06 468.65 21.81 469.14 21.36C470.79 19.92 469.91 17.04 467.74 16.77C466.96 12.08 460.18 13.86 461.78 18.33" stroke="#292D32" stroke-width="1.5" stroke-miterlimit="10" stroke-linecap="round" stroke-linejoin="round"/>
</svg>
