<svg width="664" height="152" viewBox="0 0 664 152" fill="none" xmlns="http://www.w3.org/2000/svg">
<path d="M454 4C455.67 2.75 457.75 2 460 2C465.52 2 470 6.48 470 12C470 17.52 465.52 22 460 22C454.48 22 450 17.52 450 12C450 10.19 450.48 8.48999 451.33 7.01999L460 12" stroke="#292D32" stroke-width="1.5" stroke-miterlimit="10" stroke-linecap="round" stroke-linejoin="round"/>
<path d="M518 4C519.67 2.75 521.75 2 524 2C529.52 2 534 6.48 534 12C534 17.52 529.52 22 524 22C518.48 22 514 17.52 514 12C514 10.19 514.48 8.48999 515.33 7.01999L524 12" stroke="#292D32" stroke-width="1.5" stroke-miterlimit="10" stroke-linecap="round" stroke-linejoin="round"/>
<path d="M518.83 8.95999C518.3 9.84999 518 10.89 518 12C518 15.31 520.69 18 524 18C527.31 18 530 15.31 530 12C530 8.69 527.31 6 524 6C523.09 6 522.22 6.20001 521.45 6.57001" stroke="#292D32" stroke-width="1.5" stroke-miterlimit="10" stroke-linecap="round" stroke-linejoin="round"/>
<path d="M598 12C598 6.48 593.52 2 588 2C582.48 2 578 6.48 578 12C578 17.52 582.48 22 588 22" stroke="#292D32" stroke-width="1.5" stroke-linecap="round" stroke-linejoin="round"/>
<path d="M584 3H585C583.05 8.84 583.05 15.16 585 21H584" stroke="#292D32" stroke-width="1.5" stroke-linecap="round" stroke-linejoin="round"/>
<path d="M591 3C591.97 5.92 592.46 8.96 592.46 12" stroke="#292D32" stroke-width="1.5" stroke-linecap="round" stroke-linejoin="round"/>
<path d="M579 16V15C581.92 15.97 584.96 16.46 588 16.46" stroke="#292D32" stroke-width="1.5" stroke-linecap="round" stroke-linejoin="round"/>
<path d="M579 8.99998C584.84 7.04998 591.16 7.04998 597 8.99998" stroke="#292D32" stroke-width="1.5" stroke-linecap="round" stroke-linejoin="round"/>
<path d="M594.2 21.4C595.967 21.4 597.4 19.9673 597.4 18.2C597.4 16.4327 595.967 15 594.2 15C592.433 15 591 16.4327 591 18.2C591 19.9673 592.433 21.4 594.2 21.4Z" stroke="#292D32" stroke-width="1.5" stroke-linecap="round" stroke-linejoin="round"/>
<path d="M598 22L597 21" stroke="#292D32" stroke-width="1.5" stroke-linecap="round" stroke-linejoin="round"/>
<path d="M662 12C662 6.48 657.52 2 652 2C646.48 2 642 6.48 642 12C642 17.52 646.48 22 652 22" stroke="#292D32" stroke-width="1.5" stroke-linecap="round" stroke-linejoin="round"/>
<path d="M648 3H649C647.05 8.84 647.05 15.16 649 21H648" stroke="#292D32" stroke-width="1.5" stroke-linecap="round" stroke-linejoin="round"/>
<path d="M655 3C655.97 5.92 656.46 8.96 656.46 12" stroke="#292D32" stroke-width="1.5" stroke-linecap="round" stroke-linejoin="round"/>
<path d="M643 16V15C645.92 15.97 648.96 16.46 652 16.46" stroke="#292D32" stroke-width="1.5" stroke-linecap="round" stroke-linejoin="round"/>
<path d="M643 8.99998C648.84 7.04998 655.16 7.04998 661 8.99998" stroke="#292D32" stroke-width="1.5" stroke-linecap="round" stroke-linejoin="round"/>
<path d="M659.21 15.74L655.67 19.2801C655.53 19.4201 655.4 19.68 655.37 19.87L655.18 21.22C655.11 21.71 655.45 22.05 655.94 21.98L657.29 21.79C657.48 21.76 657.75 21.63 657.88 21.49L661.42 17.95C662.03 17.34 662.32 16.63 661.42 15.73C660.53 14.84 659.82 15.13 659.21 15.74Z" stroke="#292D32" stroke-width="1.5" stroke-miterlimit="10" stroke-linecap="round" stroke-linejoin="round"/>
<path d="M658.7 16.25C659 17.33 659.84 18.17 660.92 18.47" stroke="#292D32" stroke-width="1.5" stroke-miterlimit="10" stroke-linecap="round" stroke-linejoin="round"/>
<path d="M406 73V79C406 81.5 405.5 83.25 404.38 84.38L398 78L405.73 70.27C405.91 71.06 406 71.96 406 73Z" stroke="#292D32" stroke-width="1.5" stroke-linecap="round" stroke-linejoin="round"/>
<path d="M405.73 70.27L390.27 85.73C387.26 85.04 386 82.96 386 79V73C386 68 388 66 393 66H399C402.96 66 405.04 67.26 405.73 70.27Z" stroke="#292D32" stroke-width="1.5" stroke-linecap="round" stroke-linejoin="round"/>
<path d="M404.38 84.38C403.25 85.5 401.5 86 399 86H393C391.96 86 391.06 85.91 390.27 85.73L398 78L404.38 84.38Z" stroke="#292D32" stroke-width="1.5" stroke-linecap="round" stroke-linejoin="round"/>
<path d="M390.24 71.98C390.92 69.05 395.32 69.05 396 71.98C396.39 73.7 395.31 75.16 394.36 76.06C393.67 76.72 392.58 76.72 391.88 76.06C390.93 75.16 389.84 73.7 390.24 71.98Z" stroke="#292D32" stroke-width="1.5"/>
<path d="M393.094 72.7H393.103" stroke="#292D32" stroke-width="2" stroke-linecap="round" stroke-linejoin="round"/>
<path d="M76.1396 143.07V141.11C76.1396 138.59 78.1797 136.54 80.7097 136.54H82.6696" stroke="#292D32" stroke-width="1.5" stroke-linecap="round" stroke-linejoin="round"/>
<path d="M69.6196 136.55H71.5797C74.0997 136.55 76.1497 138.59 76.1497 141.12V141.77V145.25" stroke="#292D32" stroke-width="1.5" stroke-linecap="round" stroke-linejoin="round"/>
<path d="M71.1398 134.75L69.3398 136.55L71.1398 138.35" stroke="#292D32" stroke-width="1.5" stroke-linecap="round" stroke-linejoin="round"/>
<path d="M80.8599 134.75L82.6599 136.55L80.8599 138.35" stroke="#292D32" stroke-width="1.5" stroke-linecap="round" stroke-linejoin="round"/>
<path d="M73 150H79C84 150 86 148 86 143V137C86 132 84 130 79 130H73C68 130 66 132 66 137V143C66 148 68 150 73 150Z" stroke="#292D32" stroke-width="1.5" stroke-linecap="round" stroke-linejoin="round"/>
<path d="M137 150H143C148 150 150 148 150 143V137C150 132 148 130 143 130H137C132 130 130 132 130 137V143C130 148 132 150 137 150Z" stroke="#292D32" stroke-width="1.5" stroke-linecap="round" stroke-linejoin="round"/>
<path d="M137 130L141.95 150" stroke="#292D32" stroke-width="1.5" stroke-linecap="round" stroke-linejoin="round"/>
<path d="M139.53 140.22L130 143" stroke="#292D32" stroke-width="1.5" stroke-linecap="round" stroke-linejoin="round"/>
<path d="M204 150V148" stroke="#292D32" stroke-width="1.5" stroke-linecap="round" stroke-linejoin="round"/>
<path d="M204 146V144" stroke="#292D32" stroke-width="1.5" stroke-linecap="round" stroke-linejoin="round"/>
<path d="M204 142V139C204 135.13 207.13 132 211 132H214" stroke="#292D32" stroke-width="1.5" stroke-linecap="round" stroke-linejoin="round"/>
<path d="M194 132H197C200.87 132 204 135.13 204 139V140V142" stroke="#292D32" stroke-width="1.5" stroke-linecap="round" stroke-linejoin="round"/>
<path d="M196 130L194 132L196 134" stroke="#292D32" stroke-width="1.5" stroke-linecap="round" stroke-linejoin="round"/>
<path d="M212 130L214 132L212 134" stroke="#292D32" stroke-width="1.5" stroke-linecap="round" stroke-linejoin="round"/>
<path d="M273.35 137.05L271.01 144.59C270.45 146.38 267.94 146.41 267.35 144.63L266.65 142.56C266.46 141.99 266.01 141.53 265.44 141.35L263.36 140.65C261.59 140.06 261.62 137.53 263.41 136.99L270.95 134.64C272.43 134.19 273.82 135.58 273.35 137.05Z" stroke="#292D32" stroke-width="1.5" stroke-linecap="round" stroke-linejoin="round"/>
<path d="M265 150H271C276 150 278 148 278 143V137C278 132 276 130 271 130H265C260 130 258 132 258 137V143C258 148 260 150 265 150Z" stroke="#292D32" stroke-width="1.5" stroke-linecap="round" stroke-linejoin="round"/>
<path d="M268 22C273.5 22 278 17.5 278 12C278 6.5 273.5 2 268 2C262.5 2 258 6.5 258 12C258 17.5 262.5 22 268 22Z" stroke="#292D32" stroke-width="1.5" stroke-miterlimit="10"/>
<path d="M269.5 8C266.47 8 264 10.48 264 13.5C264 14.87 265.12 16 266.5 16C269.52 16 272 13.52 272 10.5C272 9.13 270.87 8 269.5 8Z" stroke="#292D32" stroke-width="1.5" stroke-miterlimit="10" stroke-linecap="round" stroke-linejoin="round"/>
<path d="M22 76C22 70.48 17.52 66 12 66C6.48 66 2 70.48 2 76C2 81.52 6.48 86 12 86" stroke="#292D32" stroke-width="1.5" stroke-linecap="round" stroke-linejoin="round"/>
<path d="M8.0001 67H9.0001C7.0501 72.84 7.0501 79.16 9.0001 85H8.0001" stroke="#292D32" stroke-width="1.5" stroke-linecap="round" stroke-linejoin="round"/>
<path d="M15 67C15.97 69.92 16.46 72.96 16.46 76" stroke="#292D32" stroke-width="1.5" stroke-linecap="round" stroke-linejoin="round"/>
<path d="M3 80V79C5.92 79.97 8.96 80.46 12 80.46" stroke="#292D32" stroke-width="1.5" stroke-linecap="round" stroke-linejoin="round"/>
<path d="M3 73C8.84 71.05 15.16 71.05 21 73" stroke="#292D32" stroke-width="1.5" stroke-linecap="round" stroke-linejoin="round"/>
<path d="M19.4998 78.7C19.1298 78.59 18.7098 78.52 18.2498 78.52C16.1798 78.52 14.5098 80.2 14.5098 82.26C14.5098 84.33 16.1898 86 18.2498 86C20.3098 86 21.9897 84.32 21.9897 82.26C21.9897 81.49 21.7597 80.77 21.3597 80.18" stroke="#292D32" stroke-width="1.5" stroke-linecap="round" stroke-linejoin="round"/>
<path d="M20.0396 78.8L18.7896 77.37" stroke="#292D32" stroke-width="1.5" stroke-linecap="round" stroke-linejoin="round"/>
<path d="M20.0396 78.8L18.5796 79.86" stroke="#292D32" stroke-width="1.5" stroke-linecap="round" stroke-linejoin="round"/>
<path d="M76 86C81.5228 86 86 81.5228 86 76C86 70.4772 81.5228 66 76 66C70.4772 66 66 70.4772 66 76C66 81.5228 70.4772 86 76 86Z" stroke="#292D32" stroke-width="1.5" stroke-linecap="round" stroke-linejoin="round"/>
<path d="M72.0001 67H73.0001C71.0501 72.84 71.0501 79.16 73.0001 85H72.0001" stroke="#292D32" stroke-width="1.5" stroke-linecap="round" stroke-linejoin="round"/>
<path d="M79 67C80.95 72.84 80.95 79.16 79 85" stroke="#292D32" stroke-width="1.5" stroke-linecap="round" stroke-linejoin="round"/>
<path d="M67 80V79C72.84 80.95 79.16 80.95 85 79V80" stroke="#292D32" stroke-width="1.5" stroke-linecap="round" stroke-linejoin="round"/>
<path d="M67 73C72.84 71.05 79.16 71.05 85 73" stroke="#292D32" stroke-width="1.5" stroke-linecap="round" stroke-linejoin="round"/>
<path d="M137.17 68.71L131.07 80.3C129.62 83.05 132.55 86.04 135.33 84.65L138.57 83.03C139.47 82.58 140.53 82.58 141.43 83.03L144.67 84.65C147.45 86.04 150.37 83.05 148.93 80.3L142.83 68.71C141.63 66.43 138.37 66.43 137.17 68.71Z" stroke="#292D32" stroke-width="1.5" stroke-linecap="round" stroke-linejoin="round"/>
<path d="M260.71 73.17L272.3 67.07C275.05 65.62 278.04 68.55 276.65 71.33L275.03 74.57C274.58 75.47 274.58 76.53 275.03 77.43L276.65 80.67C278.04 83.45 275.05 86.37 272.3 84.93L260.71 78.83C258.43 77.63 258.43 74.37 260.71 73.17Z" stroke="#292D32" stroke-width="1.5" stroke-linecap="round" stroke-linejoin="round"/>
<path d="M393.25 11H398.75" stroke="#292D32" stroke-width="1.5" stroke-linecap="round"/>
<path d="M396 13.75V8.25" stroke="#292D32" stroke-width="1.5" stroke-linecap="round"/>
<path d="M387.62 8.49C389.59 -0.169998 402.42 -0.159997 404.38 8.5C405.53 13.58 402.37 17.88 399.6 20.54C397.59 22.48 394.41 22.48 392.39 20.54C389.63 17.88 386.47 13.57 387.62 8.49Z" stroke="#292D32" stroke-width="1.5"/>
<path d="M339.29 73.17L327.7 67.07C324.95 65.62 321.96 68.55 323.35 71.33L324.97 74.57C325.42 75.47 325.42 76.53 324.97 77.43L323.35 80.67C321.96 83.45 324.95 86.37 327.7 84.93L339.29 78.83C341.57 77.63 341.57 74.37 339.29 73.17Z" stroke="#292D32" stroke-width="1.5" stroke-linecap="round" stroke-linejoin="round"/>
<path d="M67.6202 8.49C69.5902 -0.169998 82.4202 -0.159997 84.3802 8.5C85.5302 13.58 82.3702 17.88 79.6002 20.54C77.5902 22.48 74.4102 22.48 72.3902 20.54C69.6302 17.88 66.4702 13.57 67.6202 8.49Z" stroke="#292D32" stroke-width="1.5"/>
<path d="M78 12.96L74.04 9" stroke="#292D32" stroke-width="1.5" stroke-miterlimit="10" stroke-linecap="round" stroke-linejoin="round"/>
<path d="M77.96 9.04004L74 13" stroke="#292D32" stroke-width="1.5" stroke-miterlimit="10" stroke-linecap="round" stroke-linejoin="round"/>
<path d="M460 83.5C464.142 83.5 467.5 80.1421 467.5 76C467.5 71.8579 464.142 68.5 460 68.5C455.858 68.5 452.5 71.8579 452.5 76C452.5 80.1421 455.858 83.5 460 83.5Z" stroke="#292D32" stroke-width="1.5" stroke-linecap="round" stroke-linejoin="round"/>
<path d="M460 79C461.657 79 463 77.6569 463 76C463 74.3431 461.657 73 460 73C458.343 73 457 74.3431 457 76C457 77.6569 458.343 79 460 79Z" stroke="#292D32" stroke-width="1.5" stroke-linecap="round" stroke-linejoin="round"/>
<path d="M460 68V66" stroke="#292D32" stroke-width="1.5" stroke-linecap="round" stroke-linejoin="round"/>
<path d="M452 76H450" stroke="#292D32" stroke-width="1.5" stroke-linecap="round" stroke-linejoin="round"/>
<path d="M460 84V86" stroke="#292D32" stroke-width="1.5" stroke-linecap="round" stroke-linejoin="round"/>
<path d="M468 76H470" stroke="#292D32" stroke-width="1.5" stroke-linecap="round" stroke-linejoin="round"/>
<path d="M131.62 8.49C133.59 -0.169998 146.42 -0.159997 148.38 8.5C149.53 13.58 146.37 17.88 143.6 20.54C141.59 22.48 138.41 22.48 136.39 20.54C133.63 17.88 130.47 13.57 131.62 8.49Z" stroke="#292D32" stroke-width="1.5"/>
<path d="M137.25 11.5L138.75 13L142.75 9" stroke="#292D32" stroke-width="1.5" stroke-linecap="round" stroke-linejoin="round"/>
<path d="M332 13.4299C333.723 13.4299 335.12 12.0331 335.12 10.3099C335.12 8.58681 333.723 7.18994 332 7.18994C330.277 7.18994 328.88 8.58681 328.88 10.3099C328.88 12.0331 330.277 13.4299 332 13.4299Z" stroke="#292D32" stroke-width="1.5"/>
<path d="M323.62 8.49C325.59 -0.169998 338.42 -0.159997 340.38 8.5C341.53 13.58 338.37 17.88 335.6 20.54C333.59 22.48 330.41 22.48 328.39 20.54C325.63 17.88 322.47 13.57 323.62 8.49Z" stroke="#292D32" stroke-width="1.5"/>
<path d="M521 82.88C521.92 83.28 522.93 83.5 524 83.5C528.14 83.5 531.5 80.14 531.5 76C531.5 74.93 531.28 73.92 530.88 73" stroke="#292D32" stroke-width="1.5" stroke-linecap="round" stroke-linejoin="round"/>
<path d="M529.21 70.6C527.86 69.3 526.02 68.5 524 68.5C519.86 68.5 516.5 71.86 516.5 76C516.5 78.01 517.29 79.84 518.58 81.19" stroke="#292D32" stroke-width="1.5" stroke-linecap="round" stroke-linejoin="round"/>
<path d="M524 68V66" stroke="#292D32" stroke-width="1.5" stroke-linecap="round" stroke-linejoin="round"/>
<path d="M516 76H514" stroke="#292D32" stroke-width="1.5" stroke-linecap="round" stroke-linejoin="round"/>
<path d="M524 84V86" stroke="#292D32" stroke-width="1.5" stroke-linecap="round" stroke-linejoin="round"/>
<path d="M532 76H534" stroke="#292D32" stroke-width="1.5" stroke-linecap="round" stroke-linejoin="round"/>
<path d="M526.12 73.88L521.88 78.12C521.34 77.58 521 76.83 521 76C521 74.34 522.34 73 524 73C524.83 73 525.58 73.34 526.12 73.88Z" stroke="#292D32" stroke-width="1.5" stroke-linecap="round" stroke-linejoin="round"/>
<path d="M534 66L514 86" stroke="#292D32" stroke-width="1.5" stroke-linecap="round" stroke-linejoin="round"/>
<path d="M202.42 12.9999C201.5 12.4599 200.88 11.4599 200.88 10.3099C200.88 8.58994 202.27 7.18994 204 7.18994C205.15 7.18994 206.15 7.80994 206.69 8.73994" stroke="#292D32" stroke-width="1.5" stroke-linecap="round" stroke-linejoin="round"/>
<path d="M197.99 17.81C196.15 15.3 194.81 12.09 195.63 8.48998C197.28 1.22998 206.57 0.0599852 210.68 4.97999" stroke="#292D32" stroke-width="1.5" stroke-linecap="round" stroke-linejoin="round"/>
<path d="M212.38 8.5C213.53 13.58 210.37 17.88 207.6 20.54C205.59 22.48 202.41 22.48 200.39 20.54" stroke="#292D32" stroke-width="1.5" stroke-linecap="round" stroke-linejoin="round"/>
<path d="M214 2L194 22" stroke="#292D32" stroke-width="1.5" stroke-linecap="round" stroke-linejoin="round"/>
<path d="M578.29 71.78V81.51C578.29 83.41 579.64 84.19 581.28 83.25L583.63 81.91C584.14 81.62 584.99 81.59 585.52 81.86L590.77 84.49C591.3 84.75 592.15 84.73 592.66 84.44L596.99 81.96C597.54 81.64 598 80.86 598 80.22V70.49C598 68.59 596.65 67.81 595.01 68.75L592.66 70.09C592.15 70.38 591.3 70.41 590.77 70.14L585.52 67.52C584.99 67.26 584.14 67.28 583.63 67.57L579.3 70.05C578.74 70.37 578.29 71.15 578.29 71.78Z" stroke="#292D32" stroke-width="1.5" stroke-linecap="round" stroke-linejoin="round"/>
<path d="M584.56 68V81" stroke="#292D32" stroke-width="1.5" stroke-linecap="round" stroke-linejoin="round"/>
<path d="M591.73 70.62V84" stroke="#292D32" stroke-width="1.5" stroke-linecap="round" stroke-linejoin="round"/>
<path d="M9.25 11H14.75" stroke="#292D32" stroke-width="1.5" stroke-linecap="round"/>
<path d="M3.6202 8.49C5.5902 -0.169998 18.4202 -0.159997 20.3802 8.5C21.5302 13.58 18.3702 17.88 15.6002 20.54C13.5902 22.48 10.4102 22.48 8.3902 20.54C5.6302 17.88 2.4702 13.57 3.6202 8.49Z" stroke="#292D32" stroke-width="1.5"/>
<path d="M642.07 68.6C642.87 65.14 648.08 65.14 648.87 68.6C649.34 70.63 648.05 72.35 646.93 73.42C646.11 74.2 644.82 74.19 644 73.42C642.89 72.35 641.6 70.63 642.07 68.6Z" stroke="#292D32" stroke-width="1.5"/>
<path d="M655.07 80.6C655.87 77.14 661.11 77.14 661.91 80.6C662.38 82.63 661.09 84.35 659.96 85.42C659.14 86.2 657.84 86.19 657.02 85.42C655.89 84.35 654.6 82.63 655.07 80.6Z" stroke="#292D32" stroke-width="1.5"/>
<path d="M652 69H654.68C656.53 69 657.39 71.29 656 72.51L648.01 79.5C646.62 80.71 647.48 83 649.32 83H652" stroke="#292D32" stroke-width="1.5" stroke-linecap="round" stroke-linejoin="round"/>
<path d="M645.486 69.5H645.497" stroke="#292D32" stroke-width="2" stroke-linecap="round" stroke-linejoin="round"/>
<path d="M658.486 81.5H658.497" stroke="#292D32" stroke-width="2" stroke-linecap="round" stroke-linejoin="round"/>
<path d="M5.47021 137C7.40321 137 8.97021 135.433 8.97021 133.5C8.97021 131.567 7.40321 130 5.47021 130C3.53722 130 1.97021 131.567 1.97021 133.5C1.97021 135.433 3.53722 137 5.47021 137Z" stroke="#292D32" stroke-width="1.5"/>
<path d="M16.9702 143H19.9702C21.0702 143 21.9702 143.9 21.9702 145V148C21.9702 149.1 21.0702 150 19.9702 150H16.9702C15.8702 150 14.9702 149.1 14.9702 148V145C14.9702 143.9 15.8702 143 16.9702 143Z" stroke="#292D32" stroke-width="1.5"/>
<path d="M12.0002 133H14.6802C16.5302 133 17.3902 135.29 16.0002 136.51L8.01019 143.5C6.62019 144.71 7.48019 147 9.32019 147H12.0002" stroke="#292D32" stroke-width="1.5" stroke-linecap="round" stroke-linejoin="round"/>
<path d="M5.48622 133.5H5.49777" stroke="#292D32" stroke-width="2" stroke-linecap="round" stroke-linejoin="round"/>
<path d="M18.4862 146.5H18.4978" stroke="#292D32" stroke-width="2" stroke-linecap="round" stroke-linejoin="round"/>
<path d="M201.17 83.29L195.07 71.7C193.62 68.95 196.55 65.96 199.33 67.35L202.57 68.97C203.47 69.42 204.53 69.42 205.43 68.97L208.67 67.35C211.45 65.96 214.37 68.95 212.93 71.7L206.83 83.29C205.63 85.57 202.37 85.57 201.17 83.29Z" stroke="#292D32" stroke-width="1.5" stroke-linecap="round" stroke-linejoin="round"/>
</svg>
