<svg width="664" height="478" viewBox="0 0 664 478" fill="none" xmlns="http://www.w3.org/2000/svg">
<path d="M585 220H591C596 220 598 218 598 213V207C598 202 596 200 591 200H585C580 200 578 202 578 207V213C578 218 580 220 585 220Z" stroke="#292D32" stroke-width="1.5" stroke-linecap="round" stroke-linejoin="round"/>
<path d="M584.42 208.9C585.48 208.9 586.34 208.04 586.34 206.98C586.34 205.92 585.48 205.06 584.42 205.06C583.36 205.06 582.5 205.92 582.5 206.98C582.5 208.04 583.36 208.9 584.42 208.9Z" stroke="#292D32" stroke-width="1.5" stroke-linecap="round" stroke-linejoin="round"/>
<path d="M584.42 214.94C585.48 214.94 586.34 214.08 586.34 213.02C586.34 211.96 585.48 211.1 584.42 211.1C583.36 211.1 582.5 211.96 582.5 213.02C582.5 214.08 583.36 214.94 584.42 214.94Z" stroke="#292D32" stroke-width="1.5" stroke-linecap="round" stroke-linejoin="round"/>
<path d="M593.5 206.7L586.16 212.19" stroke="#292D32" stroke-width="1.5" stroke-linecap="round" stroke-linejoin="round"/>
<path d="M593.5 213.28L586.16 207.79" stroke="#292D32" stroke-width="1.5" stroke-linecap="round" stroke-linejoin="round"/>
<path d="M662 206.34V213.66C662 215.16 660.37 216.1 659.07 215.35L655.9 213.53L652.73 211.7C652.53 211.58 652.37 211.45 652.24 211.29V208.73C652.37 208.57 652.53 208.44 652.73 208.32L655.9 206.49L659.07 204.67C660.37 203.9 662 204.84 662 206.34Z" stroke="#292D32" stroke-width="1.5" stroke-linecap="round" stroke-linejoin="round"/>
<path d="M652.24 206.34V213.66C652.24 215.16 650.61 216.1 649.31 215.35L646.14 213.53L642.97 211.7C641.67 210.95 641.67 209.08 642.97 208.32L646.14 206.49L649.31 204.67C650.61 203.9 652.24 204.84 652.24 206.34Z" stroke="#292D32" stroke-width="1.5" stroke-linecap="round" stroke-linejoin="round"/>
<path d="M339.07 281.07C342.98 277.16 342.98 270.83 339.07 266.93" stroke="#292D32" stroke-width="1.5" stroke-linecap="round" stroke-linejoin="round"/>
<path d="M324.93 266.93C321.02 270.84 321.02 277.17 324.93 281.07" stroke="#292D32" stroke-width="1.5" stroke-linecap="round" stroke-linejoin="round"/>
<path d="M328.7 283.41C329.77 283.78 330.88 283.96 332 283.96C333.12 283.95 334.23 283.78 335.3 283.41" stroke="#292D32" stroke-width="1.5" stroke-linecap="round" stroke-linejoin="round"/>
<path d="M328.7 264.59C329.77 264.22 330.88 264.04 332 264.04C333.12 264.04 334.23 264.22 335.3 264.59" stroke="#292D32" stroke-width="1.5" stroke-linecap="round" stroke-linejoin="round"/>
<path d="M328.74 274V272.33C328.74 270.25 330.21 269.4 332.01 270.44L333.46 271.28L334.91 272.12C336.71 273.16 336.71 274.86 334.91 275.9L333.46 276.74L332.01 277.58C330.21 278.62 328.74 277.77 328.74 275.69V274Z" stroke="#292D32" stroke-width="1.5" stroke-miterlimit="10" stroke-linecap="round" stroke-linejoin="round"/>
<path d="M258.58 270.67C259.2 268.91 260.3 267.38 261.72 266.23" stroke="#292D32" stroke-width="1.5" stroke-linecap="round" stroke-linejoin="round"/>
<path d="M258 274C258 275.17 258.21 276.29 258.58 277.33" stroke="#292D32" stroke-width="1.5" stroke-linecap="round" stroke-linejoin="round"/>
<path d="M265.09 283.57C266.01 283.85 266.99 284 268 284C273.52 284 278 279.52 278 274C278 273.4 277.94 272.81 277.84 272.24" stroke="#292D32" stroke-width="1.5" stroke-linecap="round" stroke-linejoin="round"/>
<path d="M261.72 281.75C261.25 281.37 260.8 280.95 260.4 280.49" stroke="#292D32" stroke-width="1.5" stroke-linecap="round" stroke-linejoin="round"/>
<path d="M276.24 268.34C274.44 265.72 271.42 264 268 264C266.99 264 266.01 264.15 265.09 264.43" stroke="#292D32" stroke-width="1.5" stroke-linecap="round" stroke-linejoin="round"/>
<path d="M264.59 279.11C265.468 279.11 266.18 278.398 266.18 277.52C266.18 276.642 265.468 275.93 264.59 275.93C263.712 275.93 263 276.642 263 277.52C263 278.398 263.712 279.11 264.59 279.11Z" stroke="#292D32" stroke-width="1.5" stroke-linecap="round" stroke-linejoin="round"/>
<path d="M272 276.46V270.25C272 268.93 271.17 268.74 270.33 268.97L267.15 269.84C266.57 270 266.17 270.45 266.17 271.12V272.23V272.97V277.52" stroke="#292D32" stroke-width="1.5" stroke-linecap="round" stroke-linejoin="round"/>
<path d="M270.41 278.05C271.288 278.05 272 277.338 272 276.46C272 275.582 271.288 274.87 270.41 274.87C269.532 274.87 268.82 275.582 268.82 276.46C268.82 277.338 269.532 278.05 270.41 278.05Z" stroke="#292D32" stroke-width="1.5" stroke-linecap="round" stroke-linejoin="round"/>
<path d="M266.18 272.76L272 271.17" stroke="#292D32" stroke-width="1.5" stroke-linecap="round" stroke-linejoin="round"/>
<path d="M406 274C406 275.31 405.75 276.57 405.28 277.72C404.63 277.27 403.84 277 403 277C402.06 277 401.19 277.33 400.5 277.88C399.58 278.61 399 279.74 399 281C399 281.75 399.21 282.46 399.58 283.06C399.62 283.13 399.67 283.2 399.73 283.27C398.58 283.74 397.32 284 396 284C390.48 284 386 279.52 386 274C386 268.48 390.48 264 396 264C401.52 264 406 268.48 406 274Z" stroke="#292D32" stroke-width="1.5" stroke-linecap="round" stroke-linejoin="round"/>
<path d="M393.38 274V272.61C393.38 270.89 394.6 270.18 396.09 271.04L397.29 271.73L398.49 272.42C399.98 273.28 399.98 274.69 398.49 275.55L397.29 276.24L396.09 276.93C394.6 277.79 393.38 277.09 393.38 275.36V274Z" stroke="#292D32" stroke-width="1.5" stroke-miterlimit="10" stroke-linecap="round" stroke-linejoin="round"/>
<path d="M407 281C407 281.75 406.79 282.46 406.42 283.06C406.21 283.42 405.94 283.74 405.63 284C404.93 284.63 404.01 285 403 285C401.63 285 400.43 284.31 399.73 283.27C399.67 283.2 399.62 283.13 399.58 283.06C399.21 282.46 399 281.75 399 281C399 279.74 399.58 278.61 400.5 277.88C401.19 277.33 402.06 277 403 277C403.84 277 404.63 277.27 405.28 277.72C406.32 278.44 407 279.64 407 281Z" stroke="#292D32" stroke-width="1.5" stroke-miterlimit="10" stroke-linecap="round" stroke-linejoin="round"/>
<path d="M404.069 282.04L401.949 279.93" stroke="#292D32" stroke-width="1.5" stroke-miterlimit="10" stroke-linecap="round" stroke-linejoin="round"/>
<path d="M404.05 279.96L401.93 282.07" stroke="#292D32" stroke-width="1.5" stroke-miterlimit="10" stroke-linecap="round" stroke-linejoin="round"/>
<path d="M470 274C470 275.31 469.75 276.57 469.28 277.72C468.63 277.27 467.84 277 467 277C466.06 277 465.19 277.33 464.5 277.88C463.58 278.61 463 279.74 463 281C463 281.75 463.21 282.46 463.58 283.06C463.62 283.13 463.67 283.2 463.73 283.27C462.58 283.74 461.32 284 460 284C454.48 284 450 279.52 450 274C450 268.48 454.48 264 460 264C465.52 264 470 268.48 470 274Z" stroke="#292D32" stroke-width="1.5" stroke-linecap="round" stroke-linejoin="round"/>
<path d="M457.38 274V272.61C457.38 270.89 458.6 270.18 460.09 271.04L461.29 271.73L462.49 272.42C463.98 273.28 463.98 274.69 462.49 275.55L461.29 276.24L460.09 276.93C458.6 277.79 457.38 277.09 457.38 275.36V274Z" stroke="#292D32" stroke-width="1.5" stroke-miterlimit="10" stroke-linecap="round" stroke-linejoin="round"/>
<path d="M471 281C471 281.75 470.79 282.46 470.42 283.06C470.21 283.42 469.94 283.74 469.63 284C468.93 284.63 468.01 285 467 285C465.54 285 464.27 284.22 463.58 283.06C463.21 282.46 463 281.75 463 281C463 279.74 463.58 278.61 464.5 277.88C465.19 277.33 466.06 277 467 277C469.21 277 471 278.79 471 281Z" stroke="#292D32" stroke-width="1.5" stroke-miterlimit="10" stroke-linecap="round" stroke-linejoin="round"/>
<path d="M468.49 280.98H465.51" stroke="#292D32" stroke-width="1.5" stroke-miterlimit="10" stroke-linecap="round" stroke-linejoin="round"/>
<path d="M467 279.52V282.51" stroke="#292D32" stroke-width="1.5" stroke-miterlimit="10" stroke-linecap="round" stroke-linejoin="round"/>
<path d="M525.91 272.83H522.85L522.09 275.12H524.38C525.22 275.12 525.91 275.8 525.91 276.65C525.91 277.49 525.23 278.18 524.38 278.18H522.09" stroke="#292D32" stroke-width="1.5" stroke-linecap="round" stroke-linejoin="round"/>
<path d="M522.02 266.47L524 264" stroke="#292D32" stroke-width="1.5" stroke-linecap="round" stroke-linejoin="round"/>
<path d="M516.91 269.8C515.8 271.28 515.11 273.11 515.11 275.11C515.11 280.02 519.09 284 524 284C528.91 284 532.89 280.02 532.89 275.11C532.89 270.2 528.91 266.22 524 266.22C523.32 266.22 522.66 266.31 522.02 266.46" stroke="#292D32" stroke-width="1.5" stroke-linecap="round" stroke-linejoin="round"/>
<path d="M655.96 272.83H652.9L652.14 275.12H654.43C655.27 275.12 655.96 275.8 655.96 276.65C655.96 277.49 655.28 278.18 654.43 278.18H652.14" stroke="#292D32" stroke-width="1.5" stroke-linecap="round" stroke-linejoin="round"/>
<path d="M649.54 278.17V272.83L648.04 274.5" stroke="#292D32" stroke-width="1.5" stroke-linecap="round" stroke-linejoin="round"/>
<path d="M650.02 266.47L652 264" stroke="#292D32" stroke-width="1.5" stroke-linecap="round" stroke-linejoin="round"/>
<path d="M644.91 269.8C643.8 271.28 643.11 273.11 643.11 275.11C643.11 280.02 647.09 284 652 284C656.91 284 660.89 280.02 660.89 275.11C660.89 270.2 656.91 266.22 652 266.22C651.32 266.22 650.66 266.31 650.02 266.46" stroke="#292D32" stroke-width="1.5" stroke-linecap="round" stroke-linejoin="round"/>
<path d="M585.54 277.92V272.58L584.04 274.25" stroke="#292D32" stroke-width="1.5" stroke-linecap="round" stroke-linejoin="round"/>
<path d="M586.02 266.47L588 264" stroke="#292D32" stroke-width="1.5" stroke-linecap="round" stroke-linejoin="round"/>
<path d="M580.91 269.8C579.8 271.28 579.11 273.11 579.11 275.11C579.11 280.02 583.09 284 588 284C592.91 284 596.89 280.02 596.89 275.11C596.89 270.2 592.91 266.22 588 266.22C587.32 266.22 586.66 266.31 586.02 266.46" stroke="#292D32" stroke-width="1.5" stroke-linecap="round" stroke-linejoin="round"/>
<path d="M590 272.58C591.1 272.58 592 273.48 592 274.58V275.93C592 277.03 591.1 277.93 590 277.93C588.9 277.93 588 277.03 588 275.93V274.58C588 273.47 588.9 272.58 590 272.58Z" stroke="#292D32" stroke-width="1.5" stroke-linecap="round" stroke-linejoin="round"/>
<path d="M2 270.34V277.66C2 279.16 3.62999 280.1 4.92999 279.35L8.10001 277.53L11.27 275.7C11.47 275.58 11.63 275.45 11.76 275.29V272.73C11.63 272.57 11.47 272.44 11.27 272.32L8.10001 270.49L4.92999 268.67C3.62999 267.9 2 268.84 2 270.34Z" stroke="#292D32" stroke-width="1.5" stroke-linecap="round" stroke-linejoin="round"/>
<path d="M11.7598 270.34V277.66C11.7598 279.16 13.3898 280.1 14.6898 279.35L17.8597 277.53L21.0298 275.7C22.3298 274.95 22.3298 273.08 21.0298 272.32L17.8597 270.49L14.6898 268.67C13.3898 267.9 11.7598 268.84 11.7598 270.34Z" stroke="#292D32" stroke-width="1.5" stroke-linecap="round" stroke-linejoin="round"/>
<path d="M84.24 269.22V278.79C84.24 280.75 82.11 281.98 80.41 281L76.26 278.61L72.11 276.21C70.41 275.23 70.41 272.78 72.11 271.8L76.26 269.4L80.41 267.01C82.11 266.03 84.24 267.25 84.24 269.22Z" stroke="#292D32" stroke-width="1.5" stroke-linecap="round" stroke-linejoin="round"/>
<path d="M67.7598 280.18V267.82" stroke="#292D32" stroke-width="1.5" stroke-linecap="round" stroke-linejoin="round"/>
<path d="M131.76 269.22V278.79C131.76 280.75 133.89 281.98 135.59 281L139.74 278.61L143.89 276.21C145.59 275.23 145.59 272.78 143.89 271.8L139.74 269.4L135.59 267.01C133.89 266.03 131.76 267.25 131.76 269.22Z" stroke="#292D32" stroke-width="1.5" stroke-linecap="round" stroke-linejoin="round"/>
<path d="M148.24 280.18V267.82" stroke="#292D32" stroke-width="1.5" stroke-linecap="round" stroke-linejoin="round"/>
<path d="M209 267H199C196 267 194 269 194 272V279C194 282 196 284 199 284H209C212 284 214 282 214 279V272C214 269 212 267 209 267Z" stroke="#292D32" stroke-width="1.5" stroke-linecap="round" stroke-linejoin="round"/>
<path d="M199 264V267" stroke="#292D32" stroke-width="1.5" stroke-linecap="round" stroke-linejoin="round"/>
<path d="M200.5 278C201.881 278 203 276.881 203 275.5C203 274.119 201.881 273 200.5 273C199.119 273 198 274.119 198 275.5C198 276.881 199.119 278 200.5 278Z" stroke="#292D32" stroke-width="1.5" stroke-linecap="round" stroke-linejoin="round"/>
<path d="M206.5 273H210.5" stroke="#292D32" stroke-width="1.5" stroke-linecap="round" stroke-linejoin="round"/>
<path d="M206.5 277H207" stroke="#292D32" stroke-width="1.5" stroke-linecap="round" stroke-linejoin="round"/>
<path d="M210 277H210.5" stroke="#292D32" stroke-width="1.5" stroke-linecap="round" stroke-linejoin="round"/>
<path d="M13.98 330.47L12 328" stroke="#292D32" stroke-width="1.5" stroke-linecap="round" stroke-linejoin="round"/>
<path d="M19.0899 333.8C20.1999 335.28 20.8899 337.11 20.8899 339.11C20.8899 344.02 16.9099 348 11.9999 348C7.08988 348 3.10986 344.02 3.10986 339.11C3.10986 334.2 7.08988 330.22 11.9999 330.22C12.6799 330.22 13.3399 330.31 13.9799 330.46" stroke="#292D32" stroke-width="1.5" stroke-linecap="round" stroke-linejoin="round"/>
<path d="M13.9098 336.83H10.8498L10.0898 339.12H12.3798C13.2198 339.12 13.9098 339.8 13.9098 340.65C13.9098 341.49 13.2298 342.18 12.3798 342.18H10.0898" stroke="#292D32" stroke-width="1.5" stroke-linecap="round" stroke-linejoin="round"/>
<path d="M143.96 336.83H140.9L140.14 339.12H142.43C143.27 339.12 143.96 339.8 143.96 340.65C143.96 341.49 143.28 342.18 142.43 342.18H140.14" stroke="#292D32" stroke-width="1.5" stroke-linecap="round" stroke-linejoin="round"/>
<path d="M137.54 342.17V336.83L136.04 338.5" stroke="#292D32" stroke-width="1.5" stroke-linecap="round" stroke-linejoin="round"/>
<path d="M141.98 330.47L140 328" stroke="#292D32" stroke-width="1.5" stroke-linecap="round" stroke-linejoin="round"/>
<path d="M147.09 333.8C148.2 335.28 148.89 337.11 148.89 339.11C148.89 344.02 144.91 348 140 348C135.09 348 131.11 344.02 131.11 339.11C131.11 334.2 135.09 330.22 140 330.22C140.68 330.22 141.34 330.31 141.98 330.46" stroke="#292D32" stroke-width="1.5" stroke-linecap="round" stroke-linejoin="round"/>
<path d="M209 348H199C196 348 194 346.5 194 343V338C194 334.5 196 333 199 333H209C212 333 214 334.5 214 338V343C214 346.5 212 348 209 348Z" stroke="#292D32" stroke-width="1.5" stroke-miterlimit="10" stroke-linecap="round" stroke-linejoin="round"/>
<path d="M198 330.5H210" stroke="#292D32" stroke-width="1.5" stroke-miterlimit="10" stroke-linecap="round" stroke-linejoin="round"/>
<path d="M201 328H207" stroke="#292D32" stroke-width="1.5" stroke-miterlimit="10" stroke-linecap="round" stroke-linejoin="round"/>
<path d="M200.89 345.11C201.646 345.11 202.26 344.497 202.26 343.74C202.26 342.983 201.646 342.37 200.89 342.37C200.133 342.37 199.52 342.983 199.52 343.74C199.52 344.497 200.133 345.11 200.89 345.11Z" stroke="#292D32" stroke-width="1.5" stroke-linecap="round" stroke-linejoin="round"/>
<path d="M207.28 342.83V337.48C207.28 336.34 206.57 336.18 205.84 336.38L203.1 337.13C202.6 337.27 202.26 337.66 202.26 338.23V339.18V339.82V343.74" stroke="#292D32" stroke-width="1.5" stroke-linecap="round" stroke-linejoin="round"/>
<path d="M205.909 344.2C206.666 344.2 207.279 343.587 207.279 342.83C207.279 342.073 206.666 341.46 205.909 341.46C205.152 341.46 204.539 342.073 204.539 342.83C204.539 343.587 205.152 344.2 205.909 344.2Z" stroke="#292D32" stroke-width="1.5" stroke-linecap="round" stroke-linejoin="round"/>
<path d="M202.26 339.83L207.28 338.46" stroke="#292D32" stroke-width="1.5" stroke-linecap="round" stroke-linejoin="round"/>
<path d="M258 329H278" stroke="#292D32" stroke-width="1.5" stroke-miterlimit="10" stroke-linecap="round" stroke-linejoin="round"/>
<path d="M258 335H267" stroke="#292D32" stroke-width="1.5" stroke-miterlimit="10" stroke-linecap="round" stroke-linejoin="round"/>
<path d="M258 341H264" stroke="#292D32" stroke-width="1.5" stroke-miterlimit="10" stroke-linecap="round" stroke-linejoin="round"/>
<path d="M258 347H262" stroke="#292D32" stroke-width="1.5" stroke-miterlimit="10" stroke-linecap="round" stroke-linejoin="round"/>
<path d="M267.84 348C269.044 348 270.02 347.024 270.02 345.82C270.02 344.616 269.044 343.64 267.84 343.64C266.636 343.64 265.66 344.616 265.66 345.82C265.66 347.024 266.636 348 267.84 348Z" stroke="#292D32" stroke-width="1.5" stroke-linecap="round" stroke-linejoin="round"/>
<path d="M278.001 344.37V335.86C278.001 334.05 276.861 333.8 275.711 334.11L271.361 335.3C270.571 335.52 270.021 336.14 270.021 337.05V338.57V339.59V345.82" stroke="#292D32" stroke-width="1.5" stroke-linecap="round" stroke-linejoin="round"/>
<path d="M275.821 346.55C277.025 346.55 278.001 345.574 278.001 344.37C278.001 343.166 277.025 342.19 275.821 342.19C274.617 342.19 273.641 343.166 273.641 344.37C273.641 345.574 274.617 346.55 275.821 346.55Z" stroke="#292D32" stroke-width="1.5" stroke-linecap="round" stroke-linejoin="round"/>
<path d="M270.021 339.6L278.001 337.42" stroke="#292D32" stroke-width="1.5" stroke-linecap="round" stroke-linejoin="round"/>
<path d="M342 341V335C342 330 340 328 335 328H329C324 328 322 330 322 335V341C322 346 324 348 329 348H335C340 348 342 346 342 341Z" stroke="#292D32" stroke-width="1.5" stroke-linecap="round" stroke-linejoin="round"/>
<path d="M327 328.5V347.5" stroke="#292D32" stroke-width="1.5" stroke-linecap="round" stroke-linejoin="round"/>
<path d="M331.47 342.8C332.293 342.8 332.96 342.133 332.96 341.31C332.96 340.487 332.293 339.82 331.47 339.82C330.648 339.82 329.98 340.487 329.98 341.31C329.98 342.133 330.648 342.8 331.47 342.8Z" stroke="#292D32" stroke-width="1.5" stroke-linecap="round" stroke-linejoin="round"/>
<path d="M338.431 340.31V334.48C338.431 333.24 337.651 333.07 336.861 333.28L333.881 334.09C333.341 334.24 332.961 334.67 332.961 335.29V336.33V337.03V341.3" stroke="#292D32" stroke-width="1.5" stroke-linecap="round" stroke-linejoin="round"/>
<path d="M336.93 341.8C337.753 341.8 338.42 341.133 338.42 340.31C338.42 339.487 337.753 338.82 336.93 338.82C336.108 338.82 335.44 339.487 335.44 340.31C335.44 341.133 336.108 341.8 336.93 341.8Z" stroke="#292D32" stroke-width="1.5" stroke-linecap="round" stroke-linejoin="round"/>
<path d="M332.961 337.04L338.431 335.55" stroke="#292D32" stroke-width="1.5" stroke-linecap="round" stroke-linejoin="round"/>
<path d="M405 334.65V340.35C405 340.69 404.99 341.02 404.97 341.33C404.25 340.51 403.18 340 402 340C399.79 340 398 341.79 398 344C398 344.75 398.21 345.46 398.58 346.06C398.78 346.4 399.04 346.71 399.34 346.97C399.03 346.99 398.7 347 398.35 347H392.65C387.9 347 386 345.1 386 340.35V334.65C386 329.9 387.9 328 392.65 328H398.35C403.1 328 405 329.9 405 334.65Z" stroke="#292D32" stroke-width="1.5" stroke-linecap="round" stroke-linejoin="round"/>
<path d="M390.72 340.42C391.52 340.42 392.17 339.771 392.17 338.97C392.17 338.169 391.52 337.52 390.72 337.52C389.919 337.52 389.27 338.169 389.27 338.97C389.27 339.771 389.919 340.42 390.72 340.42Z" stroke="#292D32" stroke-width="1.5" stroke-linecap="round" stroke-linejoin="round"/>
<path d="M397.47 338V332.34C397.47 331.13 396.71 330.97 395.95 331.18L393.06 331.97C392.54 332.11 392.17 332.53 392.17 333.13V334.14V334.82V338.97" stroke="#292D32" stroke-width="1.5" stroke-linecap="round" stroke-linejoin="round"/>
<path d="M396.029 339.45C396.83 339.45 397.479 338.801 397.479 338C397.479 337.199 396.83 336.55 396.029 336.55C395.228 336.55 394.579 337.199 394.579 338C394.579 338.801 395.228 339.45 396.029 339.45Z" stroke="#292D32" stroke-width="1.5" stroke-linecap="round" stroke-linejoin="round"/>
<path d="M392.17 334.83L397.47 333.38" stroke="#292D32" stroke-width="1.5" stroke-linecap="round" stroke-linejoin="round"/>
<path d="M406 344C406 344.75 405.79 345.46 405.42 346.06C404.73 347.22 403.46 348 402 348C400.97 348 400.04 347.61 399.34 346.97C399.04 346.71 398.78 346.4 398.58 346.06C398.21 345.46 398 344.75 398 344C398 341.79 399.79 340 402 340C403.18 340 404.25 340.51 404.97 341.33C405.61 342.04 406 342.98 406 344Z" stroke="#292D32" stroke-width="1.5" stroke-miterlimit="10" stroke-linecap="round" stroke-linejoin="round"/>
<path d="M403.069 345.04L400.949 342.93" stroke="#292D32" stroke-width="1.5" stroke-miterlimit="10" stroke-linecap="round" stroke-linejoin="round"/>
<path d="M403.05 342.96L400.93 345.07" stroke="#292D32" stroke-width="1.5" stroke-miterlimit="10" stroke-linecap="round" stroke-linejoin="round"/>
<path d="M469 334.65V340.35C469 340.69 468.99 341.02 468.97 341.33C468.25 340.51 467.18 340 466 340C463.79 340 462 341.79 462 344C462 344.75 462.21 345.46 462.58 346.06C462.78 346.4 463.04 346.71 463.34 346.97C463.03 346.99 462.7 347 462.35 347H456.65C451.9 347 450 345.1 450 340.35V334.65C450 329.9 451.9 328 456.65 328H462.35C467.1 328 469 329.9 469 334.65Z" stroke="#292D32" stroke-width="1.5" stroke-linecap="round" stroke-linejoin="round"/>
<path d="M454.72 340.42C455.52 340.42 456.17 339.771 456.17 338.97C456.17 338.169 455.52 337.52 454.72 337.52C453.919 337.52 453.27 338.169 453.27 338.97C453.27 339.771 453.919 340.42 454.72 340.42Z" stroke="#292D32" stroke-width="1.5" stroke-linecap="round" stroke-linejoin="round"/>
<path d="M461.48 338V332.34C461.48 331.13 460.72 330.97 459.96 331.18L457.07 331.97C456.55 332.11 456.18 332.53 456.18 333.13V334.14V334.82V338.97" stroke="#292D32" stroke-width="1.5" stroke-linecap="round" stroke-linejoin="round"/>
<path d="M460.029 339.45C460.83 339.45 461.479 338.801 461.479 338C461.479 337.199 460.83 336.55 460.029 336.55C459.228 336.55 458.579 337.199 458.579 338C458.579 338.801 459.228 339.45 460.029 339.45Z" stroke="#292D32" stroke-width="1.5" stroke-linecap="round" stroke-linejoin="round"/>
<path d="M456.17 334.83L461.48 333.38" stroke="#292D32" stroke-width="1.5" stroke-linecap="round" stroke-linejoin="round"/>
<path d="M470 344C470 344.75 469.79 345.46 469.42 346.06C468.73 347.22 467.46 348 466 348C464.54 348 463.27 347.22 462.58 346.06C462.21 345.46 462 344.75 462 344C462 341.79 463.79 340 466 340C468.21 340 470 341.79 470 344Z" stroke="#292D32" stroke-width="1.5" stroke-miterlimit="10" stroke-linecap="round" stroke-linejoin="round"/>
<path d="M467.49 343.98H464.51" stroke="#292D32" stroke-width="1.5" stroke-miterlimit="10" stroke-linecap="round" stroke-linejoin="round"/>
<path d="M466 342.52V345.51" stroke="#292D32" stroke-width="1.5" stroke-miterlimit="10" stroke-linecap="round" stroke-linejoin="round"/>
<path d="M524.35 347H520.65C515.9 347 514 345.1 514 340.35V334.65C514 329.9 515.9 328 520.65 328H526.35C531.1 328 533 329.9 533 334.65V338.35" stroke="#292D32" stroke-width="1.5" stroke-linecap="round" stroke-linejoin="round"/>
<path d="M518.72 340.42C519.52 340.42 520.17 339.771 520.17 338.97C520.17 338.169 519.52 337.52 518.72 337.52C517.919 337.52 517.27 338.169 517.27 338.97C517.27 339.771 517.919 340.42 518.72 340.42Z" stroke="#292D32" stroke-width="1.5" stroke-linecap="round" stroke-linejoin="round"/>
<path d="M525.48 338V332.34C525.48 331.13 524.72 330.97 523.96 331.18L521.07 331.97C520.55 332.11 520.18 332.53 520.18 333.13V334.14V334.82V338.97" stroke="#292D32" stroke-width="1.5" stroke-linecap="round" stroke-linejoin="round"/>
<path d="M524.029 339.45C524.83 339.45 525.479 338.801 525.479 338C525.479 337.199 524.83 336.55 524.029 336.55C523.228 336.55 522.579 337.199 522.579 338C522.579 338.801 523.228 339.45 524.029 339.45Z" stroke="#292D32" stroke-width="1.5" stroke-linecap="round" stroke-linejoin="round"/>
<path d="M520.17 334.83L525.48 333.38" stroke="#292D32" stroke-width="1.5" stroke-linecap="round" stroke-linejoin="round"/>
<path d="M529.94 347.28C531.708 347.28 533.14 345.847 533.14 344.08C533.14 342.313 531.708 340.88 529.94 340.88C528.173 340.88 526.74 342.313 526.74 344.08C526.74 345.847 528.173 347.28 529.94 347.28Z" stroke="#292D32" stroke-width="1.5" stroke-linecap="round" stroke-linejoin="round"/>
<path d="M533.74 347.88L532.74 346.88" stroke="#292D32" stroke-width="1.5" stroke-linecap="round" stroke-linejoin="round"/>
<path d="M590 329L592.44 331.34L584.49 331.32C580.92 331.32 577.99 334.25 577.99 337.84C577.99 339.63 578.72 341.26 579.9 342.44" stroke="#292D32" stroke-width="1.5" stroke-linecap="round" stroke-linejoin="round"/>
<path d="M586 347L583.56 344.66L591.51 344.68C595.08 344.68 598.01 341.75 598.01 338.16C598.01 336.37 597.28 334.74 596.1 333.56" stroke="#292D32" stroke-width="1.5" stroke-linecap="round" stroke-linejoin="round"/>
<path d="M585 338H591" stroke="#292D32" stroke-width="1.5" stroke-linecap="round" stroke-linejoin="round"/>
<path d="M654 329L656.44 331.34L648.49 331.32C644.92 331.32 641.99 334.25 641.99 337.84C641.99 339.63 642.72 341.26 643.9 342.44" stroke="#292D32" stroke-width="1.5" stroke-linecap="round" stroke-linejoin="round"/>
<path d="M650 347L647.56 344.66L655.51 344.68C659.08 344.68 662.01 341.75 662.01 338.16C662.01 336.37 661.28 334.74 660.1 333.56" stroke="#292D32" stroke-width="1.5" stroke-linecap="round" stroke-linejoin="round"/>
<path d="M652.25 340.67V335.33L650.75 337" stroke="#292D32" stroke-width="1.5" stroke-linecap="round" stroke-linejoin="round"/>
<path d="M77.98 330.47L76 328" stroke="#292D32" stroke-width="1.5" stroke-linecap="round" stroke-linejoin="round"/>
<path d="M83.0899 333.8C84.1999 335.28 84.8899 337.11 84.8899 339.11C84.8899 344.02 80.9099 348 75.9999 348C71.0899 348 67.1099 344.02 67.1099 339.11C67.1099 334.2 71.0899 330.22 75.9999 330.22C76.6799 330.22 77.3399 330.31 77.9799 330.46" stroke="#292D32" stroke-width="1.5" stroke-linecap="round" stroke-linejoin="round"/>
<path d="M73.54 341.92V336.58L72.04 338.25" stroke="#292D32" stroke-width="1.5" stroke-linecap="round" stroke-linejoin="round"/>
<path d="M78 336.58C79.1 336.58 80 337.48 80 338.58V339.93C80 341.03 79.1 341.93 78 341.93C76.9 341.93 76 341.03 76 339.93V338.58C76 337.47 76.9 336.58 78 336.58Z" stroke="#292D32" stroke-width="1.5" stroke-linecap="round" stroke-linejoin="round"/>
<path d="M79.7199 399.69C81.7799 401.75 81.7799 405.08 79.7199 407.13C77.6599 409.19 74.3299 409.19 72.2799 407.13C70.2199 405.07 70.2199 401.74 72.2799 399.69C74.3299 397.63 77.6699 397.63 79.7199 399.69Z" stroke="#292D32" stroke-width="1.5093" stroke-linecap="round" stroke-linejoin="round"/>
<path d="M76.0002 403.41L74.4102 405" stroke="#292D32" stroke-width="1.5093" stroke-linecap="round" stroke-linejoin="round"/>
<path d="M83.0698 396.34C83.2198 396.49 83.2198 396.74 83.0698 396.9C82.9198 397.05 82.6698 397.05 82.5098 396.9C82.3498 396.75 82.3598 396.5 82.5098 396.34C82.6598 396.18 82.9198 396.18 83.0698 396.34Z" stroke="#292D32" stroke-miterlimit="10"/>
<path d="M83.0698 396.34C83.2198 396.49 83.2198 396.74 83.0698 396.9C82.9198 397.05 82.6698 397.05 82.5098 396.9C82.3498 396.75 82.3598 396.5 82.5098 396.34C82.6598 396.18 82.9198 396.18 83.0698 396.34Z" stroke="#292D32" stroke-width="1.5" stroke-linecap="round" stroke-linejoin="round"/>
<path d="M69.4899 409.92C69.6399 410.07 69.6399 410.32 69.4899 410.48C69.3399 410.64 69.0899 410.63 68.9299 410.48C68.7799 410.33 68.7799 410.08 68.9299 409.92C69.0799 409.76 69.3399 409.76 69.4899 409.92Z" stroke="#292D32" stroke-miterlimit="10"/>
<path d="M69.4899 409.92C69.6399 410.07 69.6399 410.32 69.4899 410.48C69.3399 410.64 69.0899 410.63 68.9299 410.48C68.7799 410.33 68.7799 410.08 68.9299 409.92C69.0799 409.76 69.3399 409.76 69.4899 409.92Z" stroke="#292D32" stroke-width="1.5" stroke-linecap="round" stroke-linejoin="round"/>
<path d="M85.8799 403.13C86.0299 403.28 86.0299 403.53 85.8799 403.69C85.7299 403.84 85.4799 403.84 85.3199 403.69C85.1599 403.54 85.1699 403.29 85.3199 403.13C85.4699 402.97 85.7299 402.97 85.8799 403.13Z" stroke="#292D32" stroke-miterlimit="10"/>
<path d="M85.8799 403.13C86.0299 403.28 86.0299 403.53 85.8799 403.69C85.7299 403.84 85.4799 403.84 85.3199 403.69C85.1599 403.54 85.1699 403.29 85.3199 403.13C85.4699 402.97 85.7299 402.97 85.8799 403.13Z" stroke="#292D32" stroke-width="1.5" stroke-linecap="round" stroke-linejoin="round"/>
<path d="M66.6701 403.13C66.8201 403.28 66.8201 403.53 66.6701 403.69C66.5201 403.85 66.2701 403.84 66.1101 403.69C65.9601 403.54 65.9601 403.29 66.1101 403.13C66.2701 402.97 66.5201 402.97 66.6701 403.13Z" stroke="#292D32" stroke-miterlimit="10"/>
<path d="M66.6701 403.13C66.8201 403.28 66.8201 403.53 66.6701 403.69C66.5201 403.85 66.2701 403.84 66.1101 403.69C65.9601 403.54 65.9601 403.29 66.1101 403.13C66.2701 402.97 66.5201 402.97 66.6701 403.13Z" stroke="#292D32" stroke-width="1.5" stroke-linecap="round" stroke-linejoin="round"/>
<path d="M83.0698 409.92C83.2198 410.07 83.2198 410.32 83.0698 410.48C82.9198 410.63 82.6698 410.63 82.5098 410.48C82.3498 410.33 82.3598 410.08 82.5098 409.92C82.6698 409.76 82.9198 409.76 83.0698 409.92Z" stroke="#292D32" stroke-miterlimit="10"/>
<path d="M83.0698 409.92C83.2198 410.07 83.2198 410.32 83.0698 410.48C82.9198 410.63 82.6698 410.63 82.5098 410.48C82.3498 410.33 82.3598 410.08 82.5098 409.92C82.6698 409.76 82.9198 409.76 83.0698 409.92Z" stroke="#292D32" stroke-width="1.5" stroke-linecap="round" stroke-linejoin="round"/>
<path d="M69.4899 396.34C69.6399 396.49 69.6399 396.74 69.4899 396.9C69.3399 397.06 69.0899 397.05 68.9299 396.9C68.7799 396.75 68.7799 396.5 68.9299 396.34C69.0799 396.18 69.3399 396.18 69.4899 396.34Z" stroke="#292D32" stroke-miterlimit="10"/>
<path d="M69.4899 396.34C69.6399 396.49 69.6399 396.74 69.4899 396.9C69.3399 397.06 69.0899 397.05 68.9299 396.9C68.7799 396.75 68.7799 396.5 68.9299 396.34C69.0799 396.18 69.3399 396.18 69.4899 396.34Z" stroke="#292D32" stroke-width="1.5" stroke-linecap="round" stroke-linejoin="round"/>
<path d="M76.2798 393.52C76.4298 393.67 76.4298 393.92 76.2798 394.08C76.1298 394.24 75.8798 394.23 75.7198 394.08C75.5598 393.93 75.5698 393.68 75.7198 393.52C75.8698 393.36 76.1298 393.37 76.2798 393.52Z" stroke="#292D32" stroke-miterlimit="10"/>
<path d="M76.2798 393.52C76.4298 393.67 76.4298 393.92 76.2798 394.08C76.1298 394.24 75.8798 394.23 75.7198 394.08C75.5598 393.93 75.5698 393.68 75.7198 393.52C75.8698 393.36 76.1298 393.37 76.2798 393.52Z" stroke="#292D32" stroke-width="1.5" stroke-linecap="round" stroke-linejoin="round"/>
<path d="M3 407.98L5.54999 407.99C6.45999 407.99 7.31 407.54 7.81 406.79L14.2 397.21C14.7 396.46 15.55 396 16.46 396.01L21.01 396.03" stroke="#292D32" stroke-width="1.5" stroke-linecap="round" stroke-linejoin="round"/>
<path d="M19 409.98L21 407.98" stroke="#292D32" stroke-width="1.5" stroke-linecap="round" stroke-linejoin="round"/>
<path d="M8.89001 398.62L7.81 397.12C7.3 396.41 6.47999 395.99 5.60999 396L3 396.01" stroke="#292D32" stroke-width="1.5" stroke-linecap="round" stroke-linejoin="round"/>
<path d="M12.9702 405.38L14.1902 406.95C14.7002 407.61 15.5002 408 16.3402 408L21.0102 407.98" stroke="#292D32" stroke-width="1.5" stroke-linecap="round" stroke-linejoin="round"/>
<path d="M21 396.02L19 394.02" stroke="#292D32" stroke-width="1.5" stroke-linecap="round" stroke-linejoin="round"/>
<path d="M150 403V407C150 410.5 148 412 145 412H135C132 412 130 410.5 130 407V403C130 400.35 131.15 398.85 133 398.28C133.6 398.09 134.27 398 135 398H145C145.73 398 146.4 398.09 147 398.28C148.85 398.85 150 400.35 150 403Z" stroke="#292D32" stroke-width="1.5" stroke-miterlimit="10" stroke-linecap="round" stroke-linejoin="round"/>
<path d="M147 397V398.28C146.4 398.09 145.73 398 145 398H135C134.27 398 133.6 398.09 133 398.28V397C133 395.9 133.9 395 135 395H145C146.1 395 147 395.9 147 397Z" stroke="#292D32" stroke-width="1.5" stroke-miterlimit="10" stroke-linecap="round" stroke-linejoin="round"/>
<path d="M144 393.51V395H136V393.51C136 392.68 136.68 392 137.51 392H142.49C143.32 392 144 392.68 144 393.51Z" stroke="#292D32" stroke-width="1.5" stroke-miterlimit="10" stroke-linecap="round" stroke-linejoin="round"/>
<path d="M137.07 409.45C137.799 409.45 138.39 408.859 138.39 408.13C138.39 407.401 137.799 406.81 137.07 406.81C136.341 406.81 135.75 407.401 135.75 408.13C135.75 408.859 136.341 409.45 137.07 409.45Z" stroke="#292D32" stroke-width="1.5" stroke-linecap="round" stroke-linejoin="round"/>
<path d="M143.25 407.25V402.08C143.25 400.98 142.56 400.82 141.86 401.02L139.21 401.74C138.73 401.87 138.4 402.25 138.4 402.8V403.72V404.34V408.13" stroke="#292D32" stroke-width="1.5" stroke-linecap="round" stroke-linejoin="round"/>
<path d="M141.93 408.57C142.659 408.57 143.25 407.979 143.25 407.25C143.25 406.521 142.659 405.93 141.93 405.93C141.201 405.93 140.61 406.521 140.61 407.25C140.61 407.979 141.201 408.57 141.93 408.57Z" stroke="#292D32" stroke-width="1.5" stroke-linecap="round" stroke-linejoin="round"/>
<path d="M138.4 404.35L143.25 403.03" stroke="#292D32" stroke-width="1.5" stroke-linecap="round" stroke-linejoin="round"/>
<path d="M214 405V399C214 394 212 392 207 392H201C196 392 194 394 194 399V405C194 410 196 412 201 412H207C212 412 214 410 214 405Z" stroke="#292D32" stroke-width="1.5" stroke-linecap="round" stroke-linejoin="round"/>
<path d="M200.42 407.11C201.287 407.11 201.99 406.407 201.99 405.54C201.99 404.673 201.287 403.97 200.42 403.97C199.553 403.97 198.85 404.673 198.85 405.54C198.85 406.407 199.553 407.11 200.42 407.11Z" stroke="#292D32" stroke-width="1.5" stroke-linecap="round" stroke-linejoin="round"/>
<path d="M207.75 404.49V398.35C207.75 397.04 206.93 396.86 206.1 397.09L202.96 397.95C202.39 398.11 202 398.56 202 399.21V400.31V401.05V405.55" stroke="#292D32" stroke-width="1.5" stroke-linecap="round" stroke-linejoin="round"/>
<path d="M206.179 406.06C207.046 406.06 207.749 405.357 207.749 404.49C207.749 403.623 207.046 402.92 206.179 402.92C205.312 402.92 204.609 403.623 204.609 404.49C204.609 405.357 205.312 406.06 206.179 406.06Z" stroke="#292D32" stroke-width="1.5" stroke-linecap="round" stroke-linejoin="round"/>
<path d="M201.989 401.04L207.749 399.47" stroke="#292D32" stroke-width="1.5" stroke-linecap="round" stroke-linejoin="round"/>
<path d="M342 400V399C342 394 340 392 335 392H329C324 392 322 394 322 399V405C322 410 324 412 329 412H331" stroke="#292D32" stroke-width="1.5" stroke-linecap="round" stroke-linejoin="round"/>
<path d="M335.51 412C336.614 412 337.51 411.105 337.51 410C337.51 408.895 336.614 408 335.51 408C334.405 408 333.51 408.895 333.51 410C333.51 411.105 334.405 412 335.51 412Z" stroke="#292D32" stroke-width="1.5" stroke-linecap="round" stroke-linejoin="round"/>
<path d="M337.51 410V403.01" stroke="#292D32" stroke-width="1.5" stroke-linecap="round" stroke-linejoin="round"/>
<path d="M338.82 402.07L341.03 402.81C341.56 402.99 342 403.59 342 404.16V404.75C342 405.51 341.41 405.94 340.69 405.7L338.48 404.96C337.95 404.78 337.51 404.18 337.51 403.61V403.02C337.51 402.25 338.1 401.83 338.82 402.07Z" stroke="#292D32" stroke-width="1.5" stroke-linecap="round" stroke-linejoin="round"/>
<path d="M278 405V399C278 394 276 392 271 392H265C260 392 258 394 258 399V405C258 410 260 412 265 412H271C276 412 278 410 278 405Z" stroke="#292D32" stroke-width="1.5" stroke-linecap="round" stroke-linejoin="round"/>
<path d="M265.62 407.3C266.791 407.3 267.74 406.351 267.74 405.18C267.74 404.009 266.791 403.06 265.62 403.06C264.449 403.06 263.5 404.009 263.5 405.18C263.5 406.351 264.449 407.3 265.62 407.3Z" stroke="#292D32" stroke-width="1.5" stroke-linecap="round" stroke-linejoin="round"/>
<path d="M267.74 405.18V397.77" stroke="#292D32" stroke-width="1.5" stroke-linecap="round" stroke-linejoin="round"/>
<path d="M269.13 396.77L271.47 397.55C272.04 397.74 272.5 398.38 272.5 398.98V399.6C272.5 400.41 271.87 400.86 271.11 400.6L268.77 399.82C268.2 399.63 267.74 398.99 267.74 398.39V397.77C267.74 396.97 268.36 396.51 269.13 396.77Z" stroke="#292D32" stroke-width="1.5" stroke-linecap="round" stroke-linejoin="round"/>
<path d="M404 400V399C404 394 402 392 397 392H391C386 392 384 394 384 399V405C384 410 386 412 391 412H393" stroke="#292D32" stroke-width="1.5" stroke-linecap="round" stroke-linejoin="round"/>
<path d="M397.27 412C398.065 412 398.71 411.355 398.71 410.56C398.71 409.765 398.065 409.12 397.27 409.12C396.475 409.12 395.83 409.765 395.83 410.56C395.83 411.355 396.475 412 397.27 412Z" stroke="#292D32" stroke-width="1.5" stroke-linecap="round" stroke-linejoin="round"/>
<path d="M404 409.6V403.96C404 402.76 403.25 402.59 402.48 402.8L399.59 403.59C399.07 403.73 398.7 404.15 398.7 404.75V405.76V406.44V410.57" stroke="#292D32" stroke-width="1.5" stroke-linecap="round" stroke-linejoin="round"/>
<path d="M402.56 411.04C403.355 411.04 404 410.395 404 409.6C404 408.805 403.355 408.16 402.56 408.16C401.765 408.16 401.12 408.805 401.12 409.6C401.12 410.395 401.765 411.04 402.56 411.04Z" stroke="#292D32" stroke-width="1.5" stroke-linecap="round" stroke-linejoin="round"/>
<path d="M398.71 406.43L404 404.99" stroke="#292D32" stroke-width="1.5" stroke-linecap="round" stroke-linejoin="round"/>
<path d="M468 399V405C468 405.23 468 405.45 467.98 405.67C467.94 405.61 467.89 405.55 467.84 405.5C467.83 405.49 467.82 405.47 467.81 405.46C467 404.56 465.81 404 464.5 404C463.24 404 462.09 404.52 461.27 405.36C460.48 406.17 460 407.28 460 408.5C460 409.34 460.24 410.14 460.65 410.82C460.87 411.19 461.15 411.53 461.47 411.81C461.49 411.82 461.5 411.83 461.51 411.84C461.56 411.89 461.61 411.93 461.67 411.98C461.46 412 461.23 412 461 412H455C450 412 448 410 448 405V399C448 394 450 392 455 392H461C466 392 468 394 468 399Z" stroke="#292D32" stroke-width="1.5" stroke-linecap="round" stroke-linejoin="round"/>
<path d="M448.52 397.11H467.48" stroke="#292D32" stroke-width="1.5" stroke-linecap="round" stroke-linejoin="round"/>
<path d="M454.52 392.11V396.97" stroke="#292D32" stroke-width="1.5" stroke-linecap="round" stroke-linejoin="round"/>
<path d="M461.479 392.11V396.52" stroke="#292D32" stroke-width="1.5" stroke-linecap="round" stroke-linejoin="round"/>
<path d="M469 408.5C469 408.86 468.96 409.21 468.87 409.55C468.76 410 468.58 410.43 468.35 410.82C467.57 412.12 466.14 413 464.5 413C463.42 413 462.44 412.62 461.68 411.98C461.67 411.98 461.67 411.98 461.67 411.98C461.61 411.93 461.56 411.89 461.51 411.84C461.5 411.83 461.49 411.82 461.47 411.81C461.15 411.53 460.87 411.19 460.65 410.82C460.24 410.14 460 409.34 460 408.5C460 407.28 460.48 406.17 461.27 405.36C462.09 404.52 463.24 404 464.5 404C465.81 404 467 404.56 467.81 405.46C467.82 405.47 467.83 405.49 467.84 405.5C467.89 405.55 467.94 405.61 467.98 405.67C468.62 406.44 469 407.43 469 408.5Z" stroke="#292D32" stroke-width="1.5" stroke-miterlimit="10" stroke-linecap="round" stroke-linejoin="round"/>
<path d="M466.18 408.48H462.82" stroke="#292D32" stroke-width="1.5" stroke-miterlimit="10" stroke-linecap="round" stroke-linejoin="round"/>
<path d="M464.5 406.84V410.2" stroke="#292D32" stroke-width="1.5" stroke-miterlimit="10" stroke-linecap="round" stroke-linejoin="round"/>
<path d="M532 399V405C532 405.23 532 405.45 531.98 405.67C531.94 405.61 531.89 405.55 531.84 405.5C531.03 404.57 529.83 404 528.5 404C527.24 404 526.09 404.52 525.27 405.36C524.48 406.17 524 407.28 524 408.5C524 409.34 524.24 410.14 524.65 410.82C524.88 411.2 525.17 411.55 525.51 411.84C525.56 411.89 525.61 411.93 525.67 411.98C525.46 412 525.23 412 525 412H519C514 412 512 410 512 405V399C512 394 514 392 519 392H525C530 392 532 394 532 399Z" stroke="#292D32" stroke-width="1.5" stroke-linecap="round" stroke-linejoin="round"/>
<path d="M512.52 397.11H531.48" stroke="#292D32" stroke-width="1.5" stroke-linecap="round" stroke-linejoin="round"/>
<path d="M518.52 392.11V396.97" stroke="#292D32" stroke-width="1.5" stroke-linecap="round" stroke-linejoin="round"/>
<path d="M525.479 392.11V396.52" stroke="#292D32" stroke-width="1.5" stroke-linecap="round" stroke-linejoin="round"/>
<path d="M533 408.5C533 408.86 532.96 409.21 532.87 409.55C532.76 410 532.58 410.43 532.35 410.82C531.57 412.12 530.14 413 528.5 413C527.42 413 526.44 412.62 525.68 411.98C525.67 411.98 525.67 411.98 525.67 411.98C525.61 411.93 525.56 411.89 525.51 411.84C525.17 411.55 524.88 411.2 524.65 410.82C524.24 410.14 524 409.34 524 408.5C524 407.28 524.48 406.17 525.27 405.36C526.09 404.52 527.24 404 528.5 404C529.83 404 531.03 404.57 531.84 405.5C531.89 405.55 531.94 405.61 531.98 405.67C532.62 406.44 533 407.43 533 408.5Z" stroke="#292D32" stroke-width="1.5" stroke-miterlimit="10" stroke-linecap="round" stroke-linejoin="round"/>
<path d="M529.699 409.68L527.319 407.3" stroke="#292D32" stroke-width="1.5" stroke-miterlimit="10" stroke-linecap="round" stroke-linejoin="round"/>
<path d="M529.68 407.32L527.3 409.7" stroke="#292D32" stroke-width="1.5" stroke-miterlimit="10" stroke-linecap="round" stroke-linejoin="round"/>
<path d="M596 399V405C596 405.22 596 405.44 595.98 405.65C595.16 404.64 593.91 404 592.5 404C591.44 404 590.46 404.37 589.69 404.99C588.65 405.81 588 407.08 588 408.5C588 409.34 588.24 410.14 588.65 410.82C588.92 411.27 589.26 411.66 589.66 411.98C589.45 412 589.23 412 589 412H583C578 412 576 410 576 405V399C576 394 578 392 583 392H589C594 392 596 394 596 399Z" stroke="#292D32" stroke-width="1.5" stroke-linecap="round" stroke-linejoin="round"/>
<path d="M576.52 397.11H595.48" stroke="#292D32" stroke-width="1.5" stroke-linecap="round" stroke-linejoin="round"/>
<path d="M582.52 392.11V396.97" stroke="#292D32" stroke-width="1.5" stroke-linecap="round" stroke-linejoin="round"/>
<path d="M589.479 392.11V396.52" stroke="#292D32" stroke-width="1.5" stroke-linecap="round" stroke-linejoin="round"/>
<path d="M597 408.5C597 409.34 596.76 410.14 596.35 410.82C596.11 411.22 595.81 411.58 595.46 411.88C594.67 412.58 593.64 413 592.5 413C591.43 413 590.44 412.62 589.67 411.98H589.66C589.26 411.66 588.92 411.27 588.65 410.82C588.24 410.14 588 409.34 588 408.5C588 407.08 588.65 405.81 589.69 404.99C590.46 404.37 591.44 404 592.5 404C593.91 404 595.16 404.64 595.98 405.65C596.62 406.42 597 407.42 597 408.5Z" stroke="#292D32" stroke-width="1.5" stroke-miterlimit="10" stroke-linecap="round" stroke-linejoin="round"/>
<path d="M590.75 408.5L591.86 409.61L594.26 407.39" stroke="#292D32" stroke-width="1.5" stroke-linecap="round" stroke-linejoin="round"/>
<path d="M660 399V405C660 405.22 660 405.44 659.98 405.65C659.16 404.64 657.91 404 656.5 404C655.44 404 654.46 404.37 653.69 404.99C652.65 405.81 652 407.08 652 408.5C652 409.91 652.64 411.16 653.65 411.98C653.44 412 653.22 412 653 412H647C642 412 640 410 640 405V399C640 394 642 392 647 392H653C658 392 660 394 660 399Z" stroke="#292D32" stroke-width="1.5" stroke-linecap="round" stroke-linejoin="round"/>
<path d="M640.52 397.11H659.48" stroke="#292D32" stroke-width="1.5" stroke-linecap="round" stroke-linejoin="round"/>
<path d="M646.52 392.11V396.97" stroke="#292D32" stroke-width="1.5" stroke-linecap="round" stroke-linejoin="round"/>
<path d="M653.479 392.11V396.52" stroke="#292D32" stroke-width="1.5" stroke-linecap="round" stroke-linejoin="round"/>
<path d="M661 408.5C661 409.85 660.4 411.05 659.47 411.88C658.67 412.57 657.64 413 656.5 413C655.42 413 654.42 412.62 653.65 411.98C652.64 411.16 652 409.91 652 408.5C652 407.08 652.65 405.81 653.69 404.99C654.46 404.37 655.44 404 656.5 404C657.91 404 659.16 404.64 659.98 405.65C660.62 406.42 661 407.42 661 408.5Z" stroke="#292D32" stroke-width="1.5" stroke-miterlimit="10" stroke-linecap="round" stroke-linejoin="round"/>
<path d="M656.78 407.09V408.78L655.38 409.62" stroke="#292D32" stroke-width="1.5" stroke-miterlimit="10" stroke-linecap="round" stroke-linejoin="round"/>
<path d="M21.0801 462.58V469.42C21.0801 470.54 20.4802 471.58 19.5102 472.15L13.5702 475.58C12.6002 476.14 11.4002 476.14 10.4202 475.58L4.48016 472.15C3.51016 471.59 2.91016 470.55 2.91016 469.42V462.58C2.91016 461.46 3.51016 460.42 4.48016 459.85L10.4202 456.42C11.3902 455.86 12.5902 455.86 13.5702 456.42L19.5102 459.85C20.4802 460.42 21.0801 461.45 21.0801 462.58Z" stroke="#292D32" stroke-width="1.5" stroke-linecap="round" stroke-linejoin="round"/>
<path d="M9.75 466V464.8C9.75 463.26 10.84 462.63 12.17 463.4L13.21 464L14.25 464.6C15.58 465.37 15.58 466.63 14.25 467.4L13.21 468L12.17 468.6C10.84 469.37 9.75 468.74 9.75 467.2V466Z" stroke="#292D32" stroke-width="1.5" stroke-miterlimit="10" stroke-linecap="round" stroke-linejoin="round"/>
<path d="M70 463.86V468.15" stroke="#292D32" stroke-width="1.5" stroke-linecap="round" stroke-linejoin="round"/>
<path d="M73 462.43V469.57" stroke="#292D32" stroke-width="1.5" stroke-linecap="round" stroke-linejoin="round"/>
<path d="M76 461V471" stroke="#292D32" stroke-width="1.5" stroke-linecap="round" stroke-linejoin="round"/>
<path d="M79 462.43V469.57" stroke="#292D32" stroke-width="1.5" stroke-linecap="round" stroke-linejoin="round"/>
<path d="M82 463.86V468.15" stroke="#292D32" stroke-width="1.5" stroke-linecap="round" stroke-linejoin="round"/>
<path d="M73 476H79C84 476 86 474 86 469V463C86 458 84 456 79 456H73C68 456 66 458 66 463V469C66 474 68 476 73 476Z" stroke="#292D32" stroke-width="1.5" stroke-linecap="round" stroke-linejoin="round"/>
<path d="M134 463.86V468.15" stroke="#292D32" stroke-width="1.5" stroke-linecap="round" stroke-linejoin="round"/>
<path d="M137 462.43V469.57" stroke="#292D32" stroke-width="1.5" stroke-linecap="round" stroke-linejoin="round"/>
<path d="M140 461V471" stroke="#292D32" stroke-width="1.5" stroke-linecap="round" stroke-linejoin="round"/>
<path d="M143 462.43V469.57" stroke="#292D32" stroke-width="1.5" stroke-linecap="round" stroke-linejoin="round"/>
<path d="M146 463.86V468.15" stroke="#292D32" stroke-width="1.5" stroke-linecap="round" stroke-linejoin="round"/>
<path d="M140 476C145.523 476 150 471.523 150 466C150 460.477 145.523 456 140 456C134.477 456 130 460.477 130 466C130 471.523 134.477 476 140 476Z" stroke="#292D32" stroke-width="1.5" stroke-linecap="round" stroke-linejoin="round"/>
<path d="M211 457H215V461" stroke="#292D32" stroke-width="1.5" stroke-linecap="round" stroke-linejoin="round"/>
<path d="M209 463L215 457" stroke="#292D32" stroke-width="1.5" stroke-linecap="round" stroke-linejoin="round"/>
<path d="M201 475H197V471" stroke="#292D32" stroke-width="1.5" stroke-linecap="round" stroke-linejoin="round"/>
<path d="M203 469L197 475" stroke="#292D32" stroke-width="1.5" stroke-linecap="round" stroke-linejoin="round"/>
<path d="M208.02 456.2C207.37 456.07 206.69 456 206 456C200.48 456 196 460.48 196 466C196 466.69 196.07 467.36 196.2 468" stroke="#292D32" stroke-width="1.5" stroke-linecap="round" stroke-linejoin="round"/>
<path d="M203.98 475.8C204.63 475.93 205.31 476 206 476C211.52 476 216 471.52 216 466C216 465.32 215.93 464.65 215.8 464" stroke="#292D32" stroke-width="1.5" stroke-linecap="round" stroke-linejoin="round"/>
<path d="M521.3 151H526.7C531.2 151 533 149.2 533 144.7V139.3C533 134.8 531.2 133 526.7 133H521.3C516.8 133 515 134.8 515 139.3V144.7C515 149.2 516.8 151 521.3 151Z" stroke="#292D32" stroke-width="1.5" stroke-linecap="round" stroke-linejoin="round"/>
<path d="M80.63 73.58C80.63 73.58 80.66 72.63 80.63 72.32C80.46 70.28 79.13 69.58 76.52 69.58H70.21C67.05 69.58 66 70.63 66 73.79V82.21C66 83.47 66.38 84.74 67.37 85.55L68 86" stroke="#292D32" stroke-width="1.5" stroke-linecap="round" stroke-linejoin="round"/>
<path d="M80.7398 76.95V82.21C80.7398 85.37 79.6898 86.42 76.5298 86.42H71.2598" stroke="#292D32" stroke-width="1.5" stroke-linecap="round" stroke-linejoin="round"/>
<path d="M86.0002 72.74V81.81C86.0002 83.48 84.8802 84.06 83.5202 83.1L80.7402 81.15" stroke="#292D32" stroke-width="1.5" stroke-linecap="round" stroke-linejoin="round"/>
<path d="M86.02 68.19L66.02 88.19" stroke="#292D32" stroke-width="1.5" stroke-linecap="round" stroke-linejoin="round"/>
<path d="M326 142H329" stroke="#292D32" stroke-width="1.5" stroke-linecap="round" stroke-linejoin="round"/>
<path d="M326.76 154H337.24C340 154 341.1 152.31 341.23 150.25L341.75 141.99C341.81 141.06 341.52 140.19 341.01 139.51" stroke="#292D32" stroke-width="1.5" stroke-linecap="round" stroke-linejoin="round"/>
<path d="M338 138C337.39 138 336.83 137.65 336.55 137.11L335.83 135.66C335.37 134.75 334.17 134 333.15 134H330.86C329.83 134 328.63 134.75 328.17 135.66L327.45 137.11C327.17 137.65 326.61 138 326 138C323.83 138 322.11 139.83 322.25 141.99L322.77 150.25C322.82 151.07 323.03 151.84 323.44 152.46" stroke="#292D32" stroke-width="1.5" stroke-linecap="round" stroke-linejoin="round"/>
<path d="M330 149.31C330.55 149.74 331.25 150 332 150C333.79 150 335.25 148.54 335.25 146.75C335.25 146.11 335.07 145.52 334.75 145.02" stroke="#292D32" stroke-width="1.5" stroke-linecap="round" stroke-linejoin="round"/>
<path d="M342 134L322 154" stroke="#292D32" stroke-width="1.5" stroke-linecap="round" stroke-linejoin="round"/>
<path d="M646.28 152C648.003 152 649.4 150.603 649.4 148.88C649.4 147.157 648.003 145.76 646.28 145.76C644.557 145.76 643.16 147.157 643.16 148.88C643.16 150.603 644.557 152 646.28 152Z" stroke="#292D32" stroke-width="1.5" stroke-linecap="round" stroke-linejoin="round"/>
<path d="M660.84 146.8V134.6C660.84 132 659.21 131.64 657.56 132.09L651.32 133.79C650.18 134.1 649.4 135 649.4 136.3V138.47V139.93V148.87" stroke="#292D32" stroke-width="1.5" stroke-linecap="round" stroke-linejoin="round"/>
<path d="M657.72 149.92C659.443 149.92 660.84 148.523 660.84 146.8C660.84 145.077 659.443 143.68 657.72 143.68C655.996 143.68 654.6 145.077 654.6 146.8C654.6 148.523 655.996 149.92 657.72 149.92Z" stroke="#292D32" stroke-width="1.5" stroke-linecap="round" stroke-linejoin="round"/>
<path d="M649.4 139.52L660.84 136.4" stroke="#292D32" stroke-width="1.5" stroke-linecap="round" stroke-linejoin="round"/>
<path d="M260 10.1595V14.1595C260 16.1595 261 17.1595 263 17.1595H264.43C264.8 17.1595 265.17 17.2695 265.49 17.4595L268.41 19.2895C270.93 20.8695 273 19.7195 273 16.7495V7.56946C273 4.58946 270.93 3.44946 268.41 5.02946L265.49 6.85946C265.17 7.04946 264.8 7.15946 264.43 7.15946H263C261 7.15946 260 8.15946 260 10.1595Z" stroke="#292D32" stroke-width="1.5"/>
<path d="M280 14.1195L276.04 10.1595" stroke="#292D32" stroke-width="1.5" stroke-miterlimit="10" stroke-linecap="round" stroke-linejoin="round"/>
<path d="M279.96 10.1995L276 14.1595" stroke="#292D32" stroke-width="1.5" stroke-miterlimit="10" stroke-linecap="round" stroke-linejoin="round"/>
<path d="M262.76 154H273.24C276 154 277.1 152.31 277.23 150.25L277.75 141.99C277.89 139.83 276.17 138 274 138C273.39 138 272.83 137.65 272.55 137.11L271.83 135.66C271.37 134.75 270.17 134 269.15 134H266.86C265.83 134 264.63 134.75 264.17 135.66L263.45 137.11C263.17 137.65 262.61 138 262 138C259.83 138 258.11 139.83 258.25 141.99L258.77 150.25C258.89 152.31 260 154 262.76 154Z" stroke="#292D32" stroke-width="1.5" stroke-linecap="round" stroke-linejoin="round"/>
<path d="M266.5 140H269.5" stroke="#292D32" stroke-width="1.5" stroke-linecap="round" stroke-linejoin="round"/>
<path d="M268 150C269.79 150 271.25 148.54 271.25 146.75C271.25 144.96 269.79 143.5 268 143.5C266.21 143.5 264.75 144.96 264.75 146.75C264.75 148.54 266.21 150 268 150Z" stroke="#292D32" stroke-width="1.5" stroke-linecap="round" stroke-linejoin="round"/>
<path d="M329 74C330.105 74 331 73.1046 331 72C331 70.8954 330.105 70 329 70C327.895 70 327 70.8954 327 72C327 73.1046 327.895 74 329 74Z" stroke="#292D32" stroke-width="1.5" stroke-linecap="round" stroke-linejoin="round"/>
<path d="M332 66H329C324 66 322 68 322 73V79C322 84 324 86 329 86H335C340 86 342 84 342 79V75" stroke="#292D32" stroke-width="1.5" stroke-linecap="round" stroke-linejoin="round"/>
<path d="M336.12 69.11C335.79 68.07 336.18 66.78 337.26 66.43C337.83 66.25 338.54 66.4 338.94 66.95C339.32 66.38 340.05 66.24 340.62 66.43C341.71 66.78 342.1 68.07 341.77 69.11C341.25 70.75 339.45 71.61 338.95 71.61C338.44 71.61 336.65 70.77 336.12 69.11Z" stroke="#292D32" stroke-width="1.5" stroke-linecap="round" stroke-linejoin="round"/>
<path d="M322.67 82.95L327.6 79.64C328.39 79.11 329.53 79.17 330.24 79.78L330.57 80.07C331.35 80.74 332.61 80.74 333.39 80.07L337.55 76.5C338.33 75.83 339.59 75.83 340.37 76.5L342 77.9" stroke="#292D32" stroke-width="1.5" stroke-linecap="round" stroke-linejoin="round"/>
<path d="M387.37 84.1C386.43 82.97 386 81.31 386 79V73C386 68 388 66 393 66H399C401.19 66 402.8 66.38 403.92 67.23" stroke="#292D32" stroke-width="1.5" stroke-linecap="round" stroke-linejoin="round"/>
<path d="M405.97 71.99C405.99 72.31 406 72.65 406 73V79C406 84 404 86 399 86H393C392.26 86 391.58 85.96 390.96 85.86" stroke="#292D32" stroke-width="1.5" stroke-linecap="round" stroke-linejoin="round"/>
<path d="M392 74C393.105 74 394 73.1046 394 72C394 70.8954 393.105 70 392 70C390.895 70 390 70.8954 390 72C390 73.1046 390.895 74 392 74Z" stroke="#292D32" stroke-width="1.5" stroke-linecap="round" stroke-linejoin="round"/>
<path d="M406 66L386 86" stroke="#292D32" stroke-width="1.5" stroke-linecap="round" stroke-linejoin="round"/>
<path d="M395.43 80.45C395.73 80.75 396.22 80.75 396.52 80.45L401.55 75.41C402.33 74.63 403.59 74.63 404.37 75.41L406 77.05" stroke="#292D32" stroke-width="1.5" stroke-linecap="round" stroke-linejoin="round"/>
<path d="M331.97 218C337.493 218 341.97 213.523 341.97 208C341.97 202.477 337.493 198 331.97 198C326.447 198 321.97 202.477 321.97 208C321.97 213.523 326.447 218 331.97 218Z" stroke="#292D32" stroke-width="1.5" stroke-linecap="round" stroke-linejoin="round"/>
<path d="M332 212.23C334.336 212.23 336.23 210.336 336.23 208C336.23 205.664 334.336 203.77 332 203.77C329.663 203.77 327.77 205.664 327.77 208C327.77 210.336 329.663 212.23 332 212.23Z" stroke="#292D32" stroke-width="1.5" stroke-miterlimit="10" stroke-linecap="round" stroke-linejoin="round"/>
<path d="M521 74C522.105 74 523 73.1046 523 72C523 70.8954 522.105 70 521 70C519.895 70 519 70.8954 519 72C519 73.1046 519.895 74 521 74Z" stroke="#292D32" stroke-width="1.5" stroke-linecap="round" stroke-linejoin="round"/>
<path d="M525 66H521C516 66 514 68 514 73V79C514 84 516 86 521 86H527C532 86 534 84 534 79V74" stroke="#292D32" stroke-width="1.5" stroke-linecap="round" stroke-linejoin="round"/>
<path d="M530 66V72L532 70" stroke="#292D32" stroke-width="1.5" stroke-linecap="round" stroke-linejoin="round"/>
<path d="M530 72L528 70" stroke="#292D32" stroke-width="1.5" stroke-linecap="round" stroke-linejoin="round"/>
<path d="M514.67 82.95L519.6 79.64C520.39 79.11 521.53 79.17 522.24 79.78L522.57 80.07C523.35 80.74 524.61 80.74 525.39 80.07L529.55 76.5C530.33 75.83 531.59 75.83 532.37 76.5L534 77.9" stroke="#292D32" stroke-width="1.5" stroke-linecap="round" stroke-linejoin="round"/>
<path d="M450 9.96V14.04C450 16.08 451.02 17.1 453.06 17.1H454.52C454.9 17.1 455.28 17.21 455.6 17.41L458.58 19.27C461.16 20.88 463.26 19.71 463.26 16.67V7.32C463.26 4.28 461.15 3.11 458.58 4.72L455.6 6.59C455.27 6.79 454.9 6.9 454.52 6.9H453.06C451.02 6.9 450 7.92 450 9.96Z" stroke="#292D32" stroke-width="1.5"/>
<path d="M466 12H470" stroke="#292D32" stroke-width="1.5" stroke-linecap="round" stroke-linejoin="round"/>
<path d="M585 74C586.105 74 587 73.1046 587 72C587 70.8954 586.105 70 585 70C583.895 70 583 70.8954 583 72C583 73.1046 583.895 74 585 74Z" stroke="#292D32" stroke-width="1.5" stroke-linecap="round" stroke-linejoin="round"/>
<path d="M589 66H585C580 66 578 68 578 73V79C578 84 580 86 585 86H591C596 86 598 84 598 79V74" stroke="#292D32" stroke-width="1.5" stroke-linecap="round" stroke-linejoin="round"/>
<path d="M594 72V66L596 68" stroke="#292D32" stroke-width="1.5" stroke-linecap="round" stroke-linejoin="round"/>
<path d="M594 66L592 68" stroke="#292D32" stroke-width="1.5" stroke-linecap="round" stroke-linejoin="round"/>
<path d="M578.67 82.95L583.6 79.64C584.39 79.11 585.53 79.17 586.24 79.78L586.57 80.07C587.35 80.74 588.61 80.74 589.39 80.07L593.55 76.5C594.33 75.83 595.59 75.83 596.37 76.5L598 77.9" stroke="#292D32" stroke-width="1.5" stroke-linecap="round" stroke-linejoin="round"/>
<path d="M140 15.5C142.21 15.5 144 13.71 144 11.5V6C144 3.79 142.21 2 140 2C137.79 2 136 3.79 136 6V11.5C136 13.71 137.79 15.5 140 15.5Z" stroke="#292D32" stroke-width="1.5" stroke-linecap="round" stroke-linejoin="round"/>
<path d="M132.35 9.64999V11.35C132.35 15.57 135.78 19 140 19C144.22 19 147.65 15.57 147.65 11.35V9.64999" stroke="#292D32" stroke-width="1.5" stroke-linecap="round" stroke-linejoin="round"/>
<path d="M138.61 6.43C139.51 6.1 140.49 6.1 141.39 6.43" stroke="#292D32" stroke-width="1.5" stroke-linecap="round" stroke-linejoin="round"/>
<path d="M139.2 8.55001C139.73 8.41001 140.28 8.41001 140.81 8.55001" stroke="#292D32" stroke-width="1.5" stroke-linecap="round" stroke-linejoin="round"/>
<path d="M140 19V22" stroke="#292D32" stroke-width="1.5" stroke-linecap="round" stroke-linejoin="round"/>
<path d="M86 211V205C86 200 84 198 79 198H73C68 198 66 200 66 205V211C66 216 68 218 73 218H79C84 218 86 216 86 211Z" stroke="#292D32" stroke-width="1.5" stroke-linecap="round" stroke-linejoin="round"/>
<path d="M66.52 213.11H85.48" stroke="#292D32" stroke-width="1.5" stroke-linecap="round" stroke-linejoin="round"/>
<path d="M66.52 203.11H85.48" stroke="#292D32" stroke-width="1.5" stroke-linecap="round" stroke-linejoin="round"/>
<path d="M70.9702 213.11V217.46" stroke="#292D32" stroke-width="1.5" stroke-linecap="round" stroke-linejoin="round"/>
<path d="M76 213.11V217.97" stroke="#292D32" stroke-width="1.5" stroke-linecap="round" stroke-linejoin="round"/>
<path d="M80.9702 213.11V217.52" stroke="#292D32" stroke-width="1.5" stroke-linecap="round" stroke-linejoin="round"/>
<path d="M70.9702 198.11V202.46" stroke="#292D32" stroke-width="1.5" stroke-linecap="round" stroke-linejoin="round"/>
<path d="M76 198.11V202.97" stroke="#292D32" stroke-width="1.5" stroke-linecap="round" stroke-linejoin="round"/>
<path d="M76 203.03V214.03" stroke="#292D32" stroke-width="1.5" stroke-linecap="round" stroke-linejoin="round"/>
<path d="M80.9702 198.11V202.52" stroke="#292D32" stroke-width="1.5" stroke-linecap="round" stroke-linejoin="round"/>
<path d="M9 218H15C20 218 22 216 22 211V205C22 200 20 198 15 198H9C4 198 2 200 2 205V211C2 216 4 218 9 218Z" stroke="#292D32" stroke-width="1.5" stroke-linecap="round" stroke-linejoin="round"/>
<path d="M6.89014 198.52V217.48" stroke="#292D32" stroke-width="1.5" stroke-linecap="round" stroke-linejoin="round"/>
<path d="M16.8901 198.52V217.48" stroke="#292D32" stroke-width="1.5" stroke-linecap="round" stroke-linejoin="round"/>
<path d="M6.89004 202.97H2.54004" stroke="#292D32" stroke-width="1.5" stroke-linecap="round" stroke-linejoin="round"/>
<path d="M6.88978 208H2.02979" stroke="#292D32" stroke-width="1.5" stroke-linecap="round" stroke-linejoin="round"/>
<path d="M6.88998 212.97H2.47998" stroke="#292D32" stroke-width="1.5" stroke-linecap="round" stroke-linejoin="round"/>
<path d="M21.89 202.97H17.54" stroke="#292D32" stroke-width="1.5" stroke-linecap="round" stroke-linejoin="round"/>
<path d="M21.8898 208H17.0298" stroke="#292D32" stroke-width="1.5" stroke-linecap="round" stroke-linejoin="round"/>
<path d="M16.9702 208H5.97021" stroke="#292D32" stroke-width="1.5" stroke-linecap="round" stroke-linejoin="round"/>
<path d="M21.89 212.97H17.48" stroke="#292D32" stroke-width="1.5" stroke-linecap="round" stroke-linejoin="round"/>
<path d="M208 6.3V6C208 3.79 206.21 2 204 2C201.79 2 200 3.79 200 6V11" stroke="#292D32" stroke-width="1.5" stroke-linecap="round" stroke-linejoin="round"/>
<path d="M201.04 14.19C201.77 15 202.83 15.5 204 15.5C206.21 15.5 208 13.71 208 11.5V11" stroke="#292D32" stroke-width="1.5" stroke-linecap="round" stroke-linejoin="round"/>
<path d="M198.78 16.95C200.15 18.22 201.98 19 204 19C208.22 19 211.65 15.57 211.65 11.35V9.64999" stroke="#292D32" stroke-width="1.5" stroke-linecap="round" stroke-linejoin="round"/>
<path d="M196.35 9.64999V11.35C196.35 12.41 196.56 13.41 196.95 14.33" stroke="#292D32" stroke-width="1.5" stroke-linecap="round" stroke-linejoin="round"/>
<path d="M212.07 2.84L195.93 18.99" stroke="#292D32" stroke-width="1.5" stroke-linecap="round" stroke-linejoin="round"/>
<path d="M203 3V6" stroke="#292D32" stroke-width="1.5" stroke-linecap="round" stroke-linejoin="round"/>
<path d="M204 19V22" stroke="#292D32" stroke-width="1.5" stroke-linecap="round" stroke-linejoin="round"/>
<path d="M150 211V205C150 200 148 198 143 198H137C132 198 130 200 130 205V211C130 216 132 218 137 218H143C148 218 150 216 150 211Z" stroke="#292D32" stroke-width="1.5" stroke-linecap="round" stroke-linejoin="round"/>
<path d="M130.52 203.11H149.48" stroke="#292D32" stroke-width="1.5" stroke-linecap="round" stroke-linejoin="round"/>
<path d="M136.52 198.11V202.97" stroke="#292D32" stroke-width="1.5" stroke-linecap="round" stroke-linejoin="round"/>
<path d="M143.48 198.11V202.52" stroke="#292D32" stroke-width="1.5" stroke-linecap="round" stroke-linejoin="round"/>
<path d="M137.75 210.45V209.25C137.75 207.71 138.84 207.08 140.17 207.85L141.21 208.45L142.25 209.05C143.58 209.82 143.58 211.08 142.25 211.85L141.21 212.45L140.17 213.05C138.84 213.82 137.75 213.19 137.75 211.65V210.45V210.45Z" stroke="#292D32" stroke-width="1.5" stroke-miterlimit="10" stroke-linecap="round" stroke-linejoin="round"/>
<path d="M12 19C15.31 19 18 16.31 18 13V8C18 4.69 15.31 2 12 2C8.69 2 6 4.69 6 8V13C6 16.31 8.69 19 12 19Z" stroke="#292D32" stroke-width="1.5" stroke-linecap="round" stroke-linejoin="round"/>
<path d="M3 11V13C3 17.97 7.03 22 12 22C16.97 22 21 17.97 21 13V11" stroke="#292D32" stroke-width="1.5" stroke-linecap="round" stroke-linejoin="round"/>
<path d="M9.10986 7.47999C10.8899 6.82999 12.8299 6.82999 14.6099 7.47999" stroke="#292D32" stroke-width="1.5" stroke-linecap="round" stroke-linejoin="round"/>
<path d="M10.0298 10.48C11.2298 10.15 12.4998 10.15 13.6998 10.48" stroke="#292D32" stroke-width="1.5" stroke-linecap="round" stroke-linejoin="round"/>
<path d="M201 218H207C212 218 214 216 214 211V205C214 200 212 198 207 198H201C196 198 194 200 194 205V211C194 216 196 218 201 218Z" stroke="#292D32" stroke-width="1.5" stroke-linecap="round" stroke-linejoin="round"/>
<path d="M209.5 213.08H207.65" stroke="#292D32" stroke-width="1.5" stroke-linecap="round" stroke-linejoin="round"/>
<path d="M204.97 213.08H198.5" stroke="#292D32" stroke-width="1.5" stroke-linecap="round" stroke-linejoin="round"/>
<path d="M209.5 209.32H203.97" stroke="#292D32" stroke-width="1.5" stroke-linecap="round" stroke-linejoin="round"/>
<path d="M201.27 209.32H198.5" stroke="#292D32" stroke-width="1.5" stroke-linecap="round" stroke-linejoin="round"/>
<path d="M81.82 6.53C81.16 3.93 78.81 2 76 2C72.69 2 70 4.69 70 8V13C70 14.46 70.52 15.8 71.39 16.84" stroke="#292D32" stroke-width="1.5" stroke-linecap="round" stroke-linejoin="round"/>
<path d="M81.9999 9.98V13C81.9999 16.31 79.3099 19 75.9999 19C75.2699 19 74.5599 18.87 73.9199 18.63" stroke="#292D32" stroke-width="1.5" stroke-linecap="round" stroke-linejoin="round"/>
<path d="M69.8599 19.58C71.4699 21.08 73.6299 22 75.9999 22C80.9699 22 84.9999 17.97 84.9999 13V11" stroke="#292D32" stroke-width="1.5" stroke-linecap="round" stroke-linejoin="round"/>
<path d="M85.5 2.99001L66.5 21.99" stroke="#292D32" stroke-width="1.5" stroke-linecap="round" stroke-linejoin="round"/>
<path d="M75.5498 5.49999V2.25999" stroke="#292D32" stroke-width="1.5" stroke-linecap="round" stroke-linejoin="round"/>
<path d="M72.5 3.5V7.5" stroke="#292D32" stroke-width="1.5" stroke-linecap="round" stroke-linejoin="round"/>
<path d="M137 88H143C148 88 150 86 150 81V75C150 70 148 68 143 68H137C132 68 130 70 130 75V81C130 86 132 88 137 88Z" stroke="#292D32" stroke-width="1.5" stroke-linecap="round" stroke-linejoin="round"/>
<path d="M137.1 78V76.52C137.1 74.61 138.45 73.84 140.1 74.79L141.38 75.53L142.66 76.27C144.31 77.22 144.31 78.78 142.66 79.73L141.38 80.47L140.1 81.21C138.45 82.16 137.1 81.38 137.1 79.48V78Z" stroke="#292D32" stroke-width="1.5" stroke-miterlimit="10" stroke-linecap="round" stroke-linejoin="round"/>
<path d="M201.1 78V76.52C201.1 74.61 202.45 73.84 204.1 74.79L205.38 75.53L206.66 76.27C208.31 77.22 208.31 78.78 206.66 79.73L205.38 80.47L204.1 81.21C202.45 82.16 201.1 81.38 201.1 79.48V78Z" stroke="#292D32" stroke-width="1.5" stroke-miterlimit="10" stroke-linecap="round" stroke-linejoin="round"/>
<path d="M204 88C209.523 88 214 83.5228 214 78C214 72.4772 209.523 68 204 68C198.477 68 194 72.4772 194 78C194 83.5228 198.477 88 204 88Z" stroke="#292D32" stroke-width="1.5" stroke-linecap="round" stroke-linejoin="round"/>
<path d="M457 74C458.105 74 459 73.1046 459 72C459 70.8954 458.105 70 457 70C455.895 70 455 70.8954 455 72C455 73.1046 455.895 74 457 74Z" stroke="#292D32" stroke-width="1.5" stroke-linecap="round" stroke-linejoin="round"/>
<path d="M461 66H457C452 66 450 68 450 73V79C450 84 452 86 457 86H463C468 86 470 84 470 79V74" stroke="#292D32" stroke-width="1.5" stroke-linecap="round" stroke-linejoin="round"/>
<path d="M464 68.99L465.46 70.45L469.36 66.55" stroke="#292D32" stroke-width="1.5" stroke-linecap="round" stroke-linejoin="round"/>
<path d="M450.67 82.95L455.6 79.64C456.39 79.11 457.53 79.17 458.24 79.78L458.57 80.07C459.35 80.74 460.61 80.74 461.39 80.07L465.55 76.5C466.33 75.83 467.59 75.83 468.37 76.5L470 77.9" stroke="#292D32" stroke-width="1.5" stroke-linecap="round" stroke-linejoin="round"/>
<path d="M265 86H271C276 86 278 84 278 79V73C278 68 276 66 271 66H265C260 66 258 68 258 73V79C258 84 260 86 265 86Z" stroke="#292D32" stroke-width="1.5" stroke-linecap="round" stroke-linejoin="round"/>
<path d="M265 74C266.105 74 267 73.1046 267 72C267 70.8954 266.105 70 265 70C263.895 70 263 70.8954 263 72C263 73.1046 263.895 74 265 74Z" stroke="#292D32" stroke-width="1.5" stroke-linecap="round" stroke-linejoin="round"/>
<path d="M258.67 82.95L263.6 79.64C264.39 79.11 265.53 79.17 266.24 79.78L266.57 80.07C267.35 80.74 268.61 80.74 269.39 80.07L273.55 76.5C274.33 75.83 275.59 75.83 276.37 76.5L278 77.9" stroke="#292D32" stroke-width="1.5" stroke-linecap="round" stroke-linejoin="round"/>
<path d="M649 74C650.105 74 651 73.1046 651 72C651 70.8954 650.105 70 649 70C647.895 70 647 70.8954 647 72C647 73.1046 647.895 74 649 74Z" stroke="#292D32" stroke-width="1.5" stroke-linecap="round" stroke-linejoin="round"/>
<path d="M653 66H649C644 66 642 68 642 73V79C642 84 644 86 649 86H655C660 86 662 84 662 79V74" stroke="#292D32" stroke-width="1.5" stroke-linecap="round" stroke-linejoin="round"/>
<path d="M655.75 69H661.25" stroke="#292D32" stroke-width="1.5" stroke-linecap="round"/>
<path d="M658.5 71.75V66.25" stroke="#292D32" stroke-width="1.5" stroke-linecap="round"/>
<path d="M642.67 82.95L647.6 79.64C648.39 79.11 649.53 79.17 650.24 79.78L650.57 80.07C651.35 80.74 652.61 80.74 653.39 80.07L657.55 76.5C658.33 75.83 659.59 75.83 660.37 76.5L662 77.9" stroke="#292D32" stroke-width="1.5" stroke-linecap="round" stroke-linejoin="round"/>
<path d="M12.53 86.42H6.21C3.05 86.42 2 84.32 2 82.21V73.79C2 70.63 3.05 69.58 6.21 69.58H12.53C15.69 69.58 16.74 70.63 16.74 73.79V82.21C16.74 85.37 15.68 86.42 12.53 86.42Z" stroke="#292D32" stroke-width="1.5" stroke-linecap="round" stroke-linejoin="round"/>
<path d="M19.5202 83.1L16.7402 81.15V74.84L19.5202 72.89C20.8802 71.94 22.0002 72.52 22.0002 74.19V81.81C22.0002 83.48 20.8802 84.06 19.5202 83.1Z" stroke="#292D32" stroke-width="1.5" stroke-linecap="round" stroke-linejoin="round"/>
<path d="M11.5 77C12.3284 77 13 76.3284 13 75.5C13 74.6716 12.3284 74 11.5 74C10.6716 74 10 74.6716 10 75.5C10 76.3284 10.6716 77 11.5 77Z" stroke="#292D32" stroke-width="1.5" stroke-linecap="round" stroke-linejoin="round"/>
<path d="M583.97 152C586.179 152 587.97 150.209 587.97 148C587.97 145.791 586.179 144 583.97 144C581.761 144 579.97 145.791 579.97 148C579.97 150.209 581.761 152 583.97 152Z" stroke="#292D32" stroke-width="1.5" stroke-linecap="round" stroke-linejoin="round"/>
<path d="M587.97 148V134" stroke="#292D32" stroke-width="1.5" stroke-linecap="round" stroke-linejoin="round"/>
<path d="M590.61 132.11L595.03 133.58C596.1 133.94 596.98 135.15 596.98 136.28V137.45C596.98 138.98 595.8 139.83 594.35 139.35L589.93 137.88C588.86 137.52 587.98 136.31 587.98 135.18V134C587.97 132.48 589.16 131.62 590.61 132.11Z" stroke="#292D32" stroke-width="1.5" stroke-linecap="round" stroke-linejoin="round"/>
<path d="M201 152H207C212 152 214 150 214 145V139C214 134 212 132 207 132H201C196 132 194 134 194 139V145C194 150 196 152 201 152Z" stroke="#292D32" stroke-width="1.5" stroke-linecap="round" stroke-linejoin="round"/>
<path d="M204.6 148.5H208.4C209.9 148.5 210.5 147.9 210.5 146.4V144.6C210.5 143.1 209.9 142.5 208.4 142.5H204.6C203.1 142.5 202.5 143.1 202.5 144.6V146.4C202.5 147.9 203.1 148.5 204.6 148.5Z" stroke="#292D32" stroke-width="1.5" stroke-linecap="round" stroke-linejoin="round"/>
<path d="M388 142V138.44C388 134.02 391.13 132.21 394.96 134.42L398.05 136.2L401.14 137.98C404.97 140.19 404.97 143.81 401.14 146.02L398.05 147.8L394.96 149.58C391.13 151.79 388 149.98 388 145.56V142Z" stroke="#292D32" stroke-width="1.5" stroke-miterlimit="10" stroke-linecap="round" stroke-linejoin="round"/>
<path d="M460 151C464.971 151 469 146.971 469 142C469 137.029 464.971 133 460 133C455.029 133 451 137.029 451 142C451 146.971 455.029 151 460 151Z" stroke="#292D32" stroke-width="1.5" stroke-miterlimit="10" stroke-linecap="round" stroke-linejoin="round"/>
<path d="M9 140C10.1046 140 11 139.105 11 138C11 136.895 10.1046 136 9 136C7.89543 136 7 136.895 7 138C7 139.105 7.89543 140 9 140Z" stroke="#292D32" stroke-width="1.5" stroke-linecap="round" stroke-linejoin="round"/>
<path d="M13 132H9C4 132 2 134 2 139V145C2 150 4 152 9 152H15C20 152 22 150 22 145V140" stroke="#292D32" stroke-width="1.5" stroke-linecap="round" stroke-linejoin="round"/>
<path d="M16.5601 136.94L20.4401 133.06" stroke="#292D32" stroke-width="1.5" stroke-linecap="round"/>
<path d="M20.4401 136.94L16.5601 133.06" stroke="#292D32" stroke-width="1.5" stroke-linecap="round"/>
<path d="M2.66992 148.95L7.59992 145.64C8.38992 145.11 9.52992 145.17 10.2399 145.78L10.5699 146.07C11.3499 146.74 12.6099 146.74 13.3899 146.07L17.5499 142.5C18.3299 141.83 19.5899 141.83 20.3699 142.5L21.9999 143.9" stroke="#292D32" stroke-width="1.5" stroke-linecap="round" stroke-linejoin="round"/>
<path d="M515.33 10V14C515.33 16 516.33 17 518.33 17H519.76C520.13 17 520.5 17.11 520.82 17.3L523.74 19.13C526.26 20.71 528.33 19.56 528.33 16.59V7.41C528.33 4.43 526.26 3.29 523.74 4.87L520.82 6.7C520.5 6.89 520.13 7 519.76 7H518.33C516.33 7 515.33 8 515.33 10Z" stroke="#292D32" stroke-width="1.5"/>
<path d="M531.33 8C533.11 10.37 533.11 13.63 531.33 16" stroke="#292D32" stroke-width="1.5" stroke-linecap="round" stroke-linejoin="round"/>
<path d="M73 140C74.1046 140 75 139.105 75 138C75 136.895 74.1046 136 73 136C71.8954 136 71 136.895 71 138C71 139.105 71.8954 140 73 140Z" stroke="#292D32" stroke-width="1.5" stroke-linecap="round" stroke-linejoin="round"/>
<path d="M77 132H73C68 132 66 134 66 139V145C66 150 68 152 73 152H79C84 152 86 150 86 145V140" stroke="#292D32" stroke-width="1.5" stroke-linecap="round" stroke-linejoin="round"/>
<path d="M83.1399 132.59L79.5099 136.22C79.3699 136.36 79.2299 136.63 79.2099 136.83L79.0099 138.22C78.9399 138.72 79.2899 139.07 79.7899 139L81.1799 138.8C81.3699 138.77 81.6499 138.64 81.7899 138.5L85.4199 134.87C86.0499 134.24 86.3399 133.52 85.4199 132.6C84.4899 131.66 83.7699 131.96 83.1399 132.59Z" stroke="#292D32" stroke-width="1.5" stroke-miterlimit="10" stroke-linecap="round" stroke-linejoin="round"/>
<path d="M82.6201 133.11C82.9301 134.21 83.7901 135.07 84.8901 135.38" stroke="#292D32" stroke-width="1.5" stroke-miterlimit="10" stroke-linecap="round" stroke-linejoin="round"/>
<path d="M66.6699 148.95L71.5999 145.64C72.3899 145.11 73.5299 145.17 74.2399 145.78L74.5699 146.07C75.3499 146.74 76.6099 146.74 77.3899 146.07L81.5499 142.5C82.3299 141.83 83.5899 141.83 84.3699 142.5L85.9999 143.9" stroke="#292D32" stroke-width="1.5" stroke-linecap="round" stroke-linejoin="round"/>
<path d="M149.68 146.96L146.55 139.65C145.49 137.17 143.54 137.07 142.23 139.43L140.34 142.84C139.38 144.57 137.59 144.72 136.35 143.17L136.13 142.89C134.84 141.27 133.02 141.47 132.09 143.32L130.37 146.77C129.16 149.17 130.91 152 133.59 152H146.35C148.95 152 150.7 149.35 149.68 146.96Z" stroke="#292D32" stroke-width="1.5" stroke-linecap="round" stroke-linejoin="round"/>
<path d="M134.97 138C136.627 138 137.97 136.657 137.97 135C137.97 133.343 136.627 132 134.97 132C133.313 132 131.97 133.343 131.97 135C131.97 136.657 133.313 138 134.97 138Z" stroke="#292D32" stroke-width="1.5" stroke-linecap="round" stroke-linejoin="round"/>
<path d="M395.97 218C401.493 218 405.97 213.523 405.97 208C405.97 202.477 401.493 198 395.97 198C390.447 198 385.97 202.477 385.97 208C385.97 213.523 390.447 218 395.97 218Z" stroke="#292D32" stroke-width="1.5" stroke-linecap="round" stroke-linejoin="round"/>
<path d="M394.73 212.23H397.27C399.39 212.23 400.23 211.38 400.23 209.27V206.73C400.23 204.61 399.38 203.77 397.27 203.77H394.73C392.61 203.77 391.77 204.62 391.77 206.73V209.27C391.77 211.38 392.62 212.23 394.73 212.23Z" stroke="#292D32" stroke-width="1.5" stroke-linecap="round" stroke-linejoin="round"/>
<path d="M337 8.37V7.41C337 4.43 334.93 3.29 332.41 4.87L329.49 6.7C329.17 6.89 328.8 7 328.43 7H327C325 7 324 8 324 10V14C324 16 325 17 327 17H329" stroke="#292D32" stroke-width="1.5" stroke-linecap="round" stroke-linejoin="round"/>
<path d="M332.41 19.13C334.93 20.71 337 19.56 337 16.59V12.95" stroke="#292D32" stroke-width="1.5" stroke-linecap="round" stroke-linejoin="round"/>
<path d="M340.81 9.42C341.71 11.57 341.44 14.08 340 16" stroke="#292D32" stroke-width="1.5" stroke-linecap="round" stroke-linejoin="round"/>
<path d="M343.15 7.8C344.62 11.29 344.18 15.37 341.83 18.5" stroke="#292D32" stroke-width="1.5" stroke-linecap="round" stroke-linejoin="round"/>
<path d="M344 2L324 22" stroke="#292D32" stroke-width="1.5" stroke-linecap="round" stroke-linejoin="round"/>
<path d="M267.97 218C273.493 218 277.97 213.523 277.97 208C277.97 202.477 273.493 198 267.97 198C262.447 198 257.97 202.477 257.97 208C257.97 213.523 262.447 218 267.97 218Z" stroke="#292D32" stroke-width="1.5" stroke-linecap="round" stroke-linejoin="round"/>
<path d="M264.74 208.23V206.56C264.74 204.48 266.21 203.63 268.01 204.67L269.46 205.51L270.91 206.35C272.71 207.39 272.71 209.09 270.91 210.13L269.46 210.97L268.01 211.81C266.21 212.85 264.74 212 264.74 209.92V208.23Z" stroke="#292D32" stroke-width="1.5" stroke-miterlimit="10" stroke-linecap="round" stroke-linejoin="round"/>
<path d="M386 9.96V14.04C386 16.08 387.02 17.1 389.06 17.1H390.52C390.9 17.1 391.28 17.21 391.6 17.41L394.58 19.27C397.16 20.88 399.26 19.71 399.26 16.67V7.32C399.26 4.28 397.15 3.11 394.58 4.72L391.6 6.59C391.27 6.79 390.9 6.9 390.52 6.9H389.06C387.02 6.9 386 7.92 386 9.96Z" stroke="#292D32" stroke-width="1.5"/>
<path d="M402 12H406" stroke="#292D32" stroke-width="1.5" stroke-linecap="round" stroke-linejoin="round"/>
<path d="M404 14V10" stroke="#292D32" stroke-width="1.5" stroke-linecap="round" stroke-linejoin="round"/>
<path d="M459.97 218C465.493 218 469.97 213.523 469.97 208C469.97 202.477 465.493 198 459.97 198C454.447 198 449.97 202.477 449.97 208C449.97 213.523 454.447 218 459.97 218Z" stroke="#292D32" stroke-width="1.5" stroke-linecap="round" stroke-linejoin="round"/>
<path d="M458.72 210.53V205.47C458.72 204.99 458.52 204.8 458.01 204.8H456.71C456.2 204.8 456 204.99 456 205.47V210.53C456 211.01 456.2 211.2 456.71 211.2H458C458.52 211.2 458.72 211.01 458.72 210.53Z" stroke="#292D32" stroke-width="1.5" stroke-linecap="round" stroke-linejoin="round"/>
<path d="M464 210.53V205.47C464 204.99 463.8 204.8 463.29 204.8H462C461.49 204.8 461.29 204.99 461.29 205.47V210.53C461.29 211.01 461.49 211.2 462 211.2H463.29C463.8 211.2 464 211.01 464 210.53Z" stroke="#292D32" stroke-width="1.5" stroke-linecap="round" stroke-linejoin="round"/>
<path d="M578 10V14C578 16 579 17 581 17H582.43C582.8 17 583.17 17.11 583.49 17.3L586.41 19.13C588.93 20.71 591 19.56 591 16.59V7.41C591 4.43 588.93 3.29 586.41 4.87L583.49 6.7C583.17 6.89 582.8 7 582.43 7H581C579 7 578 8 578 10Z" stroke="#292D32" stroke-width="1.5"/>
<path d="M594 8C595.78 10.37 595.78 13.63 594 16" stroke="#292D32" stroke-width="1.5" stroke-linecap="round" stroke-linejoin="round"/>
<path d="M595.83 5.5C598.72 9.35 598.72 14.65 595.83 18.5" stroke="#292D32" stroke-width="1.5" stroke-linecap="round" stroke-linejoin="round"/>
<path d="M645.5 10V14C645.5 16 646.5 17 648.5 17H649.93C650.3 17 650.67 17.11 650.99 17.3L653.91 19.13C656.43 20.71 658.5 19.56 658.5 16.59V7.41C658.5 4.43 656.43 3.29 653.91 4.87L650.99 6.7C650.67 6.89 650.3 7 649.93 7H648.5C646.5 7 645.5 8 645.5 10Z" stroke="#292D32" stroke-width="1.5"/>
<path d="M522.65 215.11V200.89C522.65 199.54 522.08 199 520.64 199H517.01C515.57 199 515 199.54 515 200.89V215.11C515 216.46 515.57 217 517.01 217H520.64C522.08 217 522.65 216.46 522.65 215.11Z" stroke="#292D32" stroke-width="1.5" stroke-linecap="round" stroke-linejoin="round"/>
<path d="M533 215.11V200.89C533 199.54 532.43 199 530.99 199H527.36C525.93 199 525.35 199.54 525.35 200.89V215.11C525.35 216.46 525.92 217 527.36 217H530.99C532.43 217 533 216.46 533 215.11Z" stroke="#292D32" stroke-width="1.5" stroke-linecap="round" stroke-linejoin="round"/>
</svg>
