<svg width="664" height="472" viewBox="0 0 664 472" fill="none" xmlns="http://www.w3.org/2000/svg">
<path d="M17.7514 7.04997C17.5114 7.00997 17.2614 6.99998 17.0014 6.99998H7.00141C6.72141 6.99998 6.45141 7.01998 6.19141 7.05998C6.33141 6.77998 6.53141 6.52001 6.77141 6.28001L10.0214 3.02C11.3914 1.66 13.6114 1.66 14.9814 3.02L16.7314 4.78996C17.3714 5.41996 17.7114 6.21997 17.7514 7.04997Z" stroke="#292D32" stroke-width="1.5" stroke-linecap="round" stroke-linejoin="round"/>
<path d="M9 19C9 19.75 8.79 20.46 8.42 21.06C7.73 22.22 6.46 23 5 23C3.54 23 2.27 22.22 1.58 21.06C1.21 20.46 1 19.75 1 19C1 16.79 2.79 15 5 15C7.21 15 9 16.79 9 19Z" stroke="#292D32" stroke-width="1.5" stroke-miterlimit="10" stroke-linecap="round" stroke-linejoin="round"/>
<path d="M6.49172 18.9795H3.51172" stroke="#292D32" stroke-width="1.5" stroke-miterlimit="10" stroke-linecap="round" stroke-linejoin="round"/>
<path d="M5 17.5195V20.5095" stroke="#292D32" stroke-width="1.5" stroke-miterlimit="10" stroke-linecap="round" stroke-linejoin="round"/>
<path d="M22 12V17C22 20 20 22 17 22H7.63C7.94 21.74 8.21 21.42 8.42 21.06C8.79 20.46 9 19.75 9 19C9 16.79 7.21 15 5 15C3.8 15 2.73 15.53 2 16.36V12C2 9.28 3.64 7.38 6.19 7.06C6.45 7.02 6.72 7 7 7H17C17.26 7 17.51 7.00999 17.75 7.04999C20.33 7.34999 22 9.26 22 12Z" stroke="#292D32" stroke-width="1.5" stroke-linecap="round" stroke-linejoin="round"/>
<path d="M22 12.5H19C17.9 12.5 17 13.4 17 14.5C17 15.6 17.9 16.5 19 16.5H22" stroke="#292D32" stroke-width="1.5" stroke-linecap="round" stroke-linejoin="round"/>
<path d="M82.04 13.55C81.62 13.96 81.38 14.55 81.44 15.18C81.53 16.26 82.52 17.05 83.6 17.05H85.5V18.24C85.5 20.31 83.81 22 81.74 22H70.26C68.19 22 66.5 20.31 66.5 18.24V11.51C66.5 9.44001 68.19 7.75 70.26 7.75H81.74C83.81 7.75 85.5 9.44001 85.5 11.51V12.95H83.48C82.92 12.95 82.41 13.17 82.04 13.55Z" stroke="#292D32" stroke-width="1.5" stroke-linecap="round" stroke-linejoin="round"/>
<path d="M66.5 12.4101V7.8401C66.5 6.6501 67.23 5.59006 68.34 5.17006L76.28 2.17006C77.52 1.70006 78.85 2.62009 78.85 3.95009V7.75008" stroke="#292D32" stroke-width="1.5" stroke-linecap="round" stroke-linejoin="round"/>
<path d="M86.5588 13.9702V16.0302C86.5588 16.5802 86.1188 17.0302 85.5588 17.0502H83.5988C82.5188 17.0502 81.5288 16.2602 81.4388 15.1802C81.3788 14.5502 81.6188 13.9602 82.0388 13.5502C82.4088 13.1702 82.9188 12.9502 83.4788 12.9502H85.5588C86.1188 12.9702 86.5588 13.4202 86.5588 13.9702Z" stroke="#292D32" stroke-width="1.5" stroke-linecap="round" stroke-linejoin="round"/>
<path d="M71 12H78" stroke="#292D32" stroke-width="1.5" stroke-linecap="round" stroke-linejoin="round"/>
<path d="M137 19C137 19.75 136.79 20.46 136.42 21.06C135.73 22.22 134.46 23 133 23C131.54 23 130.27 22.22 129.58 21.06C129.21 20.46 129 19.75 129 19C129 16.79 130.79 15 133 15C135.21 15 137 16.79 137 19Z" stroke="#292D32" stroke-width="1.5" stroke-miterlimit="10" stroke-linecap="round" stroke-linejoin="round"/>
<path d="M131.441 18.9995L132.431 19.9895L134.561 18.0195" stroke="#292D32" stroke-width="1.5" stroke-linecap="round" stroke-linejoin="round"/>
<path d="M145.751 7.04997C145.511 7.00997 145.261 6.99998 145.001 6.99998H135.001C134.721 6.99998 134.451 7.01998 134.191 7.05998C134.331 6.77998 134.531 6.52001 134.771 6.28001L138.021 3.02C139.391 1.66 141.611 1.66 142.981 3.02L144.731 4.78996C145.371 5.41996 145.711 6.21997 145.751 7.04997Z" stroke="#292D32" stroke-width="1.5" stroke-linecap="round" stroke-linejoin="round"/>
<path d="M150 12V17C150 20 148 22 145 22H135.63C135.94 21.74 136.21 21.42 136.42 21.06C136.79 20.46 137 19.75 137 19C137 16.79 135.21 15 133 15C131.8 15 130.73 15.53 130 16.36V12C130 9.28 131.64 7.38 134.19 7.06C134.45 7.02 134.72 7 135 7H145C145.26 7 145.51 7.00999 145.75 7.04999C148.33 7.34999 150 9.26 150 12Z" stroke="#292D32" stroke-width="1.5" stroke-linecap="round" stroke-linejoin="round"/>
<path d="M150 12.5H147C145.9 12.5 145 13.4 145 14.5C145 15.6 145.9 16.5 147 16.5H150" stroke="#292D32" stroke-width="1.5" stroke-linecap="round" stroke-linejoin="round"/>
<path d="M214 6V8.42C214 10 213 11 211.42 11H208V4.01C208 2.9 208.91 2 210.02 2C211.11 2.01 212.11 2.45 212.83 3.17C213.55 3.9 214 4.9 214 6Z" stroke="#292D32" stroke-width="1.5" stroke-miterlimit="10" stroke-linecap="round" stroke-linejoin="round"/>
<path d="M194 7V21C194 21.83 194.94 22.3 195.6 21.8L197.31 20.52C197.71 20.22 198.27 20.26 198.63 20.62L200.29 22.29C200.68 22.68 201.32 22.68 201.71 22.29L203.39 20.61C203.74 20.26 204.3 20.22 204.69 20.52L206.4 21.8C207.06 22.29 208 21.82 208 21V4C208 2.9 208.9 2 210 2H199H198C195 2 194 3.79 194 6V7Z" stroke="#292D32" stroke-width="1.5" stroke-miterlimit="10" stroke-linecap="round" stroke-linejoin="round"/>
<path d="M201 13.01H204" stroke="#292D32" stroke-width="1.5" stroke-linecap="round" stroke-linejoin="round"/>
<path d="M201 9.01001H204" stroke="#292D32" stroke-width="1.5" stroke-linecap="round" stroke-linejoin="round"/>
<path d="M197.996 13H198.005" stroke="#292D32" stroke-width="2" stroke-linecap="round" stroke-linejoin="round"/>
<path d="M197.996 9H198.005" stroke="#292D32" stroke-width="2" stroke-linecap="round" stroke-linejoin="round"/>
<path d="M278 6V8.42C278 10 277 11 275.42 11H272V4.01C272 2.9 272.91 2 274.02 2C275.11 2.01 276.11 2.45 276.83 3.17C277.55 3.9 278 4.9 278 6Z" stroke="#292D32" stroke-width="1.5" stroke-miterlimit="10" stroke-linecap="round" stroke-linejoin="round"/>
<path d="M258 7V21C258 21.83 258.94 22.3 259.6 21.8L261.31 20.52C261.71 20.22 262.27 20.26 262.63 20.62L264.29 22.29C264.68 22.68 265.32 22.68 265.71 22.29L267.39 20.61C267.74 20.26 268.3 20.22 268.69 20.52L270.4 21.8C271.06 22.29 272 21.82 272 21V4C272 2.9 272.9 2 274 2H263H262C259 2 258 3.79 258 6V7Z" stroke="#292D32" stroke-width="1.5" stroke-miterlimit="10" stroke-linecap="round" stroke-linejoin="round"/>
<path d="M262.27 13.73L267.73 8.27002" stroke="#292D32" stroke-width="1.5" stroke-linecap="round" stroke-linejoin="round"/>
<path d="M267.924 13.5H267.933" stroke="#292D32" stroke-width="2" stroke-linecap="round" stroke-linejoin="round"/>
<path d="M262.195 8.5H262.204" stroke="#292D32" stroke-width="2" stroke-linecap="round" stroke-linejoin="round"/>
<path d="M338.04 13.55C337.62 13.96 337.38 14.55 337.44 15.18C337.53 16.26 338.52 17.05 339.6 17.05H341.5V18.24C341.5 20.31 339.81 22 337.74 22H327.63C327.94 21.74 328.21 21.42 328.42 21.06C328.79 20.46 329 19.75 329 19C329 16.79 327.21 15 325 15C324.06 15 323.19 15.33 322.5 15.88V11.51C322.5 9.44001 324.19 7.75 326.26 7.75H337.74C339.81 7.75 341.5 9.44001 341.5 11.51V12.95H339.48C338.92 12.95 338.41 13.17 338.04 13.55Z" stroke="#292D32" stroke-width="1.5" stroke-linecap="round" stroke-linejoin="round"/>
<path d="M322.5 12.4101V7.8401C322.5 6.6501 323.23 5.59006 324.34 5.17006L332.28 2.17006C333.52 1.70006 334.85 2.62009 334.85 3.95009V7.75008" stroke="#292D32" stroke-width="1.5" stroke-linecap="round" stroke-linejoin="round"/>
<path d="M342.559 13.9702V16.0302C342.559 16.5802 342.119 17.0302 341.559 17.0502H339.599C338.519 17.0502 337.529 16.2602 337.439 15.1802C337.379 14.5502 337.619 13.9602 338.039 13.5502C338.409 13.1702 338.919 12.9502 339.479 12.9502H341.559C342.119 12.9702 342.559 13.4202 342.559 13.9702Z" stroke="#292D32" stroke-width="1.5" stroke-linecap="round" stroke-linejoin="round"/>
<path d="M327 12H334" stroke="#292D32" stroke-width="1.5" stroke-linecap="round" stroke-linejoin="round"/>
<path d="M329 19C329 19.75 328.79 20.46 328.42 21.06C328.21 21.42 327.94 21.74 327.63 22C326.93 22.63 326.01 23 325 23C323.54 23 322.27 22.22 321.58 21.06C321.21 20.46 321 19.75 321 19C321 17.74 321.58 16.61 322.5 15.88C323.19 15.33 324.06 15 325 15C327.21 15 329 16.79 329 19Z" stroke="#292D32" stroke-width="1.5" stroke-miterlimit="10" stroke-linecap="round" stroke-linejoin="round"/>
<path d="M326.069 20.0399L323.949 17.9299" stroke="#292D32" stroke-width="1.5" stroke-miterlimit="10" stroke-linecap="round" stroke-linejoin="round"/>
<path d="M326.05 17.96L323.93 20.0699" stroke="#292D32" stroke-width="1.5" stroke-miterlimit="10" stroke-linecap="round" stroke-linejoin="round"/>
<path d="M402.04 13.55C401.62 13.96 401.38 14.55 401.44 15.18C401.53 16.26 402.52 17.05 403.6 17.05H405.5V18.24C405.5 20.31 403.81 22 401.74 22H391.63C391.94 21.74 392.21 21.42 392.42 21.06C392.79 20.46 393 19.75 393 19C393 16.79 391.21 15 389 15C388.06 15 387.19 15.33 386.5 15.88V11.51C386.5 9.44001 388.19 7.75 390.26 7.75H401.74C403.81 7.75 405.5 9.44001 405.5 11.51V12.95H403.48C402.92 12.95 402.41 13.17 402.04 13.55Z" stroke="#292D32" stroke-width="1.5" stroke-linecap="round" stroke-linejoin="round"/>
<path d="M386.5 12.4101V7.8401C386.5 6.6501 387.23 5.59006 388.34 5.17006L396.28 2.17006C397.52 1.70006 398.85 2.62009 398.85 3.95009V7.75008" stroke="#292D32" stroke-width="1.5" stroke-linecap="round" stroke-linejoin="round"/>
<path d="M406.559 13.9702V16.0302C406.559 16.5802 406.119 17.0302 405.559 17.0502H403.599C402.519 17.0502 401.529 16.2602 401.439 15.1802C401.379 14.5502 401.619 13.9602 402.039 13.5502C402.409 13.1702 402.919 12.9502 403.479 12.9502H405.559C406.119 12.9702 406.559 13.4202 406.559 13.9702Z" stroke="#292D32" stroke-width="1.5" stroke-linecap="round" stroke-linejoin="round"/>
<path d="M391 12H398" stroke="#292D32" stroke-width="1.5" stroke-linecap="round" stroke-linejoin="round"/>
<path d="M393 19C393 19.75 392.79 20.46 392.42 21.06C392.21 21.42 391.94 21.74 391.63 22C390.93 22.63 390.01 23 389 23C387.54 23 386.27 22.22 385.58 21.06C385.21 20.46 385 19.75 385 19C385 17.74 385.58 16.61 386.5 15.88C387.19 15.33 388.06 15 389 15C391.21 15 393 16.79 393 19Z" stroke="#292D32" stroke-width="1.5" stroke-miterlimit="10" stroke-linecap="round" stroke-linejoin="round"/>
<path d="M390.492 18.9795H387.512" stroke="#292D32" stroke-width="1.5" stroke-miterlimit="10" stroke-linecap="round" stroke-linejoin="round"/>
<path d="M389 17.5195V20.5095" stroke="#292D32" stroke-width="1.5" stroke-miterlimit="10" stroke-linecap="round" stroke-linejoin="round"/>
<path d="M470 6V8.42C470 10 469 11 467.42 11H464V4.01C464 2.9 464.91 2 466.02 2C467.11 2.01 468.11 2.45 468.83 3.17C469.55 3.9 470 4.9 470 6Z" stroke="#292D32" stroke-width="1.5" stroke-miterlimit="10" stroke-linecap="round" stroke-linejoin="round"/>
<path d="M450 7V21C450 21.83 450.94 22.3 451.6 21.8L453.31 20.52C453.71 20.22 454.27 20.26 454.63 20.62L456.29 22.29C456.68 22.68 457.32 22.68 457.71 22.29L459.39 20.61C459.74 20.26 460.3 20.22 460.69 20.52L462.4 21.8C463.06 22.29 464 21.82 464 21V4C464 2.9 464.9 2 466 2H455H454C451 2 450 3.79 450 6V7Z" stroke="#292D32" stroke-width="1.5" stroke-miterlimit="10" stroke-linecap="round" stroke-linejoin="round"/>
<path d="M454.25 10H459.75" stroke="#292D32" stroke-width="1.5" stroke-linecap="round" stroke-linejoin="round"/>
<path d="M524 22H529C532 22 534 20 534 17V12C534 9.3 532.3 7.3 529.8 7C529.6 7 529.3 7 529 7H519C518.7 7 518.5 6.99998 518.2 7.09998C515.6 7.39998 514 9.3 514 12C514 12.3 514 12.7 514 13" stroke="#292D32" stroke-width="1.5" stroke-linecap="round" stroke-linejoin="round"/>
<path d="M529.8 6.99995C529.6 6.99995 529.3 6.99995 529 6.99995H519C518.7 6.99995 518.5 6.99993 518.2 7.09993C518.3 6.79993 518.5 6.59994 518.8 6.29994L522 2.99995C523.4 1.59995 525.6 1.59995 527 2.99995L528.8 4.79994C529.4 5.39994 529.7 6.19995 529.8 6.99995Z" stroke="#292D32" stroke-width="1.5" stroke-linecap="round" stroke-linejoin="round"/>
<path d="M534 12.5H531C529.9 12.5 529 13.4 529 14.5C529 15.6 529.9 16.5 531 16.5H534" stroke="#292D32" stroke-width="1.5" stroke-linecap="round" stroke-linejoin="round"/>
<path d="M517.802 21.4C519.572 21.4 521.002 19.97 521.002 18.2C521.002 16.43 519.572 15 517.802 15C516.032 15 514.602 16.43 514.602 18.2C514.602 19.97 516.032 21.4 517.802 21.4Z" stroke="#292D32" stroke-width="1.5" stroke-linecap="round" stroke-linejoin="round"/>
<path d="M514 22L515 21" stroke="#292D32" stroke-width="1.5" stroke-linecap="round" stroke-linejoin="round"/>
<path d="M585 22H591C596 22 598 20 598 15V9C598 4 596 2 591 2H585C580 2 578 4 578 9V15C578 20 580 22 585 22Z" stroke="#292D32" stroke-width="1.5" stroke-linecap="round" stroke-linejoin="round"/>
<path d="M584 19H592C594 19 595 18 595 16V8C595 6 594 5 592 5H584C582 5 581 6 581 8V16C581 18 582 19 584 19Z" stroke="#292D32" stroke-width="1.5" stroke-linecap="round" stroke-linejoin="round"/>
<path d="M581 9.5H583.48C584.86 9.5 585.98 10.62 585.98 12C585.98 13.38 584.86 14.5 583.48 14.5H581" stroke="#292D32" stroke-width="1.5" stroke-linecap="round" stroke-linejoin="round"/>
<path d="M595 9.98999H592" stroke="#292D32" stroke-width="1.5" stroke-linecap="round" stroke-linejoin="round"/>
<path d="M595 14H592" stroke="#292D32" stroke-width="1.5" stroke-linecap="round" stroke-linejoin="round"/>
<path d="M583.2 12H583.3" stroke="#292D32" stroke-width="2" stroke-miterlimit="10" stroke-linecap="round" stroke-linejoin="round"/>
<path d="M658.04 13.55C657.62 13.96 657.38 14.55 657.44 15.18C657.53 16.26 658.52 17.05 659.6 17.05H661.5V18.24C661.5 20.31 659.81 22 657.74 22H647.63C647.94 21.74 648.21 21.42 648.42 21.06C648.79 20.46 649 19.75 649 19C649 16.79 647.21 15 645 15C644.06 15 643.19 15.33 642.5 15.88V11.51C642.5 9.44001 644.19 7.75 646.26 7.75H657.74C659.81 7.75 661.5 9.44001 661.5 11.51V12.95H659.48C658.92 12.95 658.41 13.17 658.04 13.55Z" stroke="#292D32" stroke-width="1.5" stroke-linecap="round" stroke-linejoin="round"/>
<path d="M642.5 12.4101V7.8401C642.5 6.6501 643.23 5.59006 644.34 5.17006L652.28 2.17006C653.52 1.70006 654.85 2.62009 654.85 3.95009V7.75008" stroke="#292D32" stroke-width="1.5" stroke-linecap="round" stroke-linejoin="round"/>
<path d="M662.559 13.9702V16.0302C662.559 16.5802 662.119 17.0302 661.559 17.0502H659.599C658.519 17.0502 657.529 16.2602 657.439 15.1802C657.379 14.5502 657.619 13.9602 658.039 13.5502C658.409 13.1702 658.919 12.9502 659.479 12.9502H661.559C662.119 12.9702 662.559 13.4202 662.559 13.9702Z" stroke="#292D32" stroke-width="1.5" stroke-linecap="round" stroke-linejoin="round"/>
<path d="M647 12H654" stroke="#292D32" stroke-width="1.5" stroke-linecap="round" stroke-linejoin="round"/>
<path d="M649 19C649 19.75 648.79 20.46 648.42 21.06C648.21 21.42 647.94 21.74 647.63 22C646.93 22.63 646.01 23 645 23C643.54 23 642.27 22.22 641.58 21.06C641.21 20.46 641 19.75 641 19C641 17.74 641.58 16.61 642.5 15.88C643.19 15.33 644.06 15 645 15C647.21 15 649 16.79 649 19Z" stroke="#292D32" stroke-width="1.5" stroke-miterlimit="10" stroke-linecap="round" stroke-linejoin="round"/>
<path d="M643.441 18.9995L644.431 19.9895L646.561 18.0195" stroke="#292D32" stroke-width="1.5" stroke-linecap="round" stroke-linejoin="round"/>
<path d="M22 70V72.42C22 74 21 75 19.42 75H16V68.01C16 66.9 16.91 66 18.02 66C19.11 66.01 20.11 66.45 20.83 67.17C21.55 67.9 22 68.9 22 70Z" stroke="#292D32" stroke-width="1.5" stroke-miterlimit="10" stroke-linecap="round" stroke-linejoin="round"/>
<path d="M2 71V85C2 85.83 2.94001 86.3 3.60001 85.8L5.31 84.52C5.71 84.22 6.27 84.26 6.63 84.62L8.28999 86.29C8.67999 86.68 9.32001 86.68 9.71001 86.29L11.39 84.61C11.74 84.26 12.3 84.22 12.69 84.52L14.4 85.8C15.06 86.29 16 85.82 16 85V68C16 66.9 16.9 66 18 66H7H6C3 66 2 67.79 2 70V71Z" stroke="#292D32" stroke-width="1.5" stroke-miterlimit="10" stroke-linecap="round" stroke-linejoin="round"/>
<path d="M6.25 74H11.75" stroke="#292D32" stroke-width="1.5" stroke-linecap="round" stroke-linejoin="round"/>
<path d="M9 76.75V71.25" stroke="#292D32" stroke-width="1.5" stroke-linecap="round" stroke-linejoin="round"/>
<path d="M81 84.5H71C68 84.5 66 83 66 79.5V72.5C66 69 68 67.5 71 67.5H81C84 67.5 86 69 86 72.5V79.5C86 83 84 84.5 81 84.5Z" stroke="#292D32" stroke-width="1.5" stroke-miterlimit="10" stroke-linecap="round" stroke-linejoin="round"/>
<path d="M76 79C77.6569 79 79 77.6569 79 76C79 74.3431 77.6569 73 76 73C74.3431 73 73 74.3431 73 76C73 77.6569 74.3431 79 76 79Z" stroke="#292D32" stroke-width="1.5" stroke-miterlimit="10" stroke-linecap="round" stroke-linejoin="round"/>
<path d="M69.5 73.5V78.5" stroke="#292D32" stroke-width="1.5" stroke-miterlimit="10" stroke-linecap="round" stroke-linejoin="round"/>
<path d="M82.5 73.5V78.5" stroke="#292D32" stroke-width="1.5" stroke-miterlimit="10" stroke-linecap="round" stroke-linejoin="round"/>
<path d="M146.04 77.55C145.62 77.96 145.38 78.55 145.44 79.18C145.53 80.26 146.52 81.05 147.6 81.05H149.5V82.24C149.5 84.31 147.81 86 145.74 86H135.64C136.47 85.27 137 84.2 137 83C137 80.79 135.21 79 133 79C132.06 79 131.19 79.33 130.5 79.88V75.51C130.5 73.44 132.19 71.75 134.26 71.75H145.74C147.81 71.75 149.5 73.44 149.5 75.51V76.95H147.48C146.92 76.95 146.41 77.17 146.04 77.55Z" stroke="#292D32" stroke-width="1.5" stroke-linecap="round" stroke-linejoin="round"/>
<path d="M130.5 75.5101V71.8401C130.5 70.6501 131.23 69.5901 132.34 69.1701L140.28 66.1701C141.52 65.7101 142.85 66.6201 142.85 67.9501V71.7501" stroke="#292D32" stroke-width="1.5" stroke-linecap="round" stroke-linejoin="round"/>
<path d="M150.559 77.9702V80.0302C150.559 80.5802 150.119 81.0302 149.559 81.0502H147.599C146.519 81.0502 145.529 80.2602 145.439 79.1802C145.379 78.5502 145.619 77.9602 146.039 77.5502C146.409 77.1702 146.919 76.9502 147.479 76.9502H149.559C150.119 76.9702 150.559 77.4202 150.559 77.9702Z" stroke="#292D32" stroke-width="1.5" stroke-linecap="round" stroke-linejoin="round"/>
<path d="M135 76H142" stroke="#292D32" stroke-width="1.5" stroke-linecap="round" stroke-linejoin="round"/>
<path d="M137 83C137 84.2 136.47 85.27 135.64 86C134.93 86.62 134.01 87 133 87C130.79 87 129 85.21 129 83C129 81.74 129.58 80.61 130.5 79.88C131.19 79.33 132.06 79 133 79C135.21 79 137 80.79 137 83Z" stroke="#292D32" stroke-width="1.5" stroke-miterlimit="10" stroke-linecap="round" stroke-linejoin="round"/>
<path d="M133.25 81.75V83.25L132 84" stroke="#292D32" stroke-width="1.5" stroke-miterlimit="10" stroke-linecap="round" stroke-linejoin="round"/>
<path d="M198.728 83.7C199.548 82.82 200.798 82.89 201.518 83.85L202.528 85.2C203.338 86.27 204.648 86.27 205.458 85.2L206.468 83.85C207.188 82.89 208.438 82.82 209.258 83.7C211.038 85.6 212.488 84.97 212.488 82.31V71.04C212.488 67.01 211.548 66 207.768 66H200.208C196.428 66 195.488 67.01 195.488 71.04V82.3C195.498 84.97 196.958 85.59 198.728 83.7Z" stroke="#292D32" stroke-width="1.5" stroke-linecap="round" stroke-linejoin="round"/>
<path d="M201.25 74H206.75" stroke="#292D32" stroke-width="1.5" stroke-linecap="round" stroke-linejoin="round"/>
<path d="M273 84.5H263C260 84.5 258 83 258 79.5V72.5C258 69 260 67.5 263 67.5H273C276 67.5 278 69 278 72.5V79.5C278 83 276 84.5 273 84.5Z" stroke="#292D32" stroke-width="1.5" stroke-miterlimit="10" stroke-linecap="round" stroke-linejoin="round"/>
<path d="M268 79C269.657 79 271 77.6569 271 76C271 74.3431 269.657 73 268 73C266.343 73 265 74.3431 265 76C265 77.6569 266.343 79 268 79Z" stroke="#292D32" stroke-width="1.5" stroke-miterlimit="10" stroke-linecap="round" stroke-linejoin="round"/>
<path d="M258 73H259C262 73 263 72 263 69V68" stroke="#292D32" stroke-width="1.5" stroke-miterlimit="10" stroke-linecap="round" stroke-linejoin="round"/>
<path d="M278 73H277C274 73 273 72 273 69V68" stroke="#292D32" stroke-width="1.5" stroke-miterlimit="10" stroke-linecap="round" stroke-linejoin="round"/>
<path d="M258 79H259C262 79 263 80 263 83V84" stroke="#292D32" stroke-width="1.5" stroke-miterlimit="10" stroke-linecap="round" stroke-linejoin="round"/>
<path d="M278 79H277C274 79 273 80 273 83V84" stroke="#292D32" stroke-width="1.5" stroke-miterlimit="10" stroke-linecap="round" stroke-linejoin="round"/>
<path d="M322.5 77.24V75.51C322.5 73.44 324.19 71.75 326.26 71.75H337.74C339.81 71.75 341.5 73.44 341.5 75.51V76.95H339.48C338.92 76.95 338.41 77.17 338.04 77.55C337.62 77.96 337.38 78.55 337.44 79.18C337.53 80.26 338.52 81.05 339.6 81.05H341.5V82.24C341.5 84.31 339.81 86 337.74 86H332.26" stroke="#292D32" stroke-width="1.5" stroke-linecap="round" stroke-linejoin="round"/>
<path d="M322.5 76.4101V71.8401C322.5 70.6501 323.23 69.5901 324.34 69.1701L332.28 66.1701C333.52 65.7001 334.85 66.6201 334.85 67.9501V71.7501" stroke="#292D32" stroke-width="1.5" stroke-linecap="round" stroke-linejoin="round"/>
<path d="M342.559 77.9702V80.0302C342.559 80.5802 342.119 81.0302 341.559 81.0502H339.599C338.519 81.0502 337.529 80.2602 337.439 79.1802C337.379 78.5502 337.619 77.9602 338.039 77.5502C338.409 77.1702 338.919 76.9502 339.479 76.9502H341.559C342.119 76.9702 342.559 77.4202 342.559 77.9702Z" stroke="#292D32" stroke-width="1.5" stroke-linecap="round" stroke-linejoin="round"/>
<path d="M327 76H334" stroke="#292D32" stroke-width="1.5" stroke-linecap="round" stroke-linejoin="round"/>
<path d="M323 80.5H328.34C328.98 80.5 329.5 81.02 329.5 81.66V82.94" stroke="#292D32" stroke-width="1.5" stroke-miterlimit="10" stroke-linecap="round" stroke-linejoin="round"/>
<path d="M324.22 79.28L323 80.5L324.22 81.72" stroke="#292D32" stroke-width="1.5" stroke-miterlimit="10" stroke-linecap="round" stroke-linejoin="round"/>
<path d="M329.5 85.7801H324.16C323.52 85.7801 323 85.2601 323 84.6201V83.3401" stroke="#292D32" stroke-width="1.5" stroke-miterlimit="10" stroke-linecap="round" stroke-linejoin="round"/>
<path d="M328.281 87.0003L329.501 85.7803L328.281 84.5603" stroke="#292D32" stroke-width="1.5" stroke-miterlimit="10" stroke-linecap="round" stroke-linejoin="round"/>
<path d="M401 84.5H391C388 84.5 386 83 386 79.5V72.5C386 69 388 67.5 391 67.5H401C404 67.5 406 69 406 72.5V79.5C406 83 404 84.5 401 84.5Z" stroke="#292D32" stroke-width="1.5" stroke-miterlimit="10" stroke-linecap="round" stroke-linejoin="round"/>
<path d="M396 79C397.657 79 399 77.6569 399 76C399 74.3431 397.657 73 396 73C394.343 73 393 74.3431 393 76C393 77.6569 394.343 79 396 79Z" stroke="#292D32" stroke-width="1.5" stroke-miterlimit="10" stroke-linecap="round" stroke-linejoin="round"/>
<path d="M403 71H400" stroke="#292D32" stroke-width="1.5" stroke-miterlimit="10" stroke-linecap="round" stroke-linejoin="round"/>
<path d="M392 81H389" stroke="#292D32" stroke-width="1.5" stroke-miterlimit="10" stroke-linecap="round" stroke-linejoin="round"/>
<path d="M457 66H463C468 66 470 68 470 73V79C470 84 468 86 463 86H457C452 86 450 84 450 79V73C450 68 452 66 457 66Z" stroke="#292D32" stroke-width="1.5" stroke-linecap="round" stroke-linejoin="round"/>
<path d="M456.57 79.27L463.11 72.73" stroke="#292D32" stroke-width="1.5" stroke-linecap="round" stroke-linejoin="round"/>
<path d="M456.98 74.3699C457.659 74.3699 458.21 73.8192 458.21 73.1399C458.21 72.4606 457.659 71.9099 456.98 71.9099C456.301 71.9099 455.75 72.4606 455.75 73.1399C455.75 73.8192 456.301 74.3699 456.98 74.3699Z" stroke="#292D32" stroke-width="1.5" stroke-linecap="round" stroke-linejoin="round"/>
<path d="M463.52 80.0899C464.199 80.0899 464.75 79.5392 464.75 78.8599C464.75 78.1806 464.199 77.6299 463.52 77.6299C462.841 77.6299 462.29 78.1806 462.29 78.8599C462.29 79.5392 462.841 80.0899 463.52 80.0899Z" stroke="#292D32" stroke-width="1.5" stroke-linecap="round" stroke-linejoin="round"/>
<path d="M529 84.5H519C516 84.5 514 83 514 79.5V72.5C514 69 516 67.5 519 67.5H529C532 67.5 534 69 534 72.5V79.5C534 83 532 84.5 529 84.5Z" stroke="#292D32" stroke-width="1.5" stroke-miterlimit="10" stroke-linecap="round" stroke-linejoin="round"/>
<path d="M524 79C525.657 79 527 77.6569 527 76C527 74.3431 525.657 73 524 73C522.343 73 521 74.3431 521 76C521 77.6569 522.343 79 524 79Z" stroke="#292D32" stroke-width="1.5" stroke-miterlimit="10" stroke-linecap="round" stroke-linejoin="round"/>
<path d="M520.5 70H519C517.62 70 516.5 71.12 516.5 72.5V74" stroke="#292D32" stroke-width="1.5" stroke-miterlimit="10" stroke-linecap="round" stroke-linejoin="round"/>
<path d="M527.5 70H529C530.38 70 531.5 71.12 531.5 72.5V74" stroke="#292D32" stroke-width="1.5" stroke-miterlimit="10" stroke-linecap="round" stroke-linejoin="round"/>
<path d="M520.5 82H519C517.62 82 516.5 80.88 516.5 79.5V78" stroke="#292D32" stroke-width="1.5" stroke-miterlimit="10" stroke-linecap="round" stroke-linejoin="round"/>
<path d="M527.5 82H529C530.38 82 531.5 80.88 531.5 79.5V78" stroke="#292D32" stroke-width="1.5" stroke-miterlimit="10" stroke-linecap="round" stroke-linejoin="round"/>
<path d="M584.57 79.27L591.11 72.73" stroke="#292D32" stroke-width="1.5" stroke-linecap="round" stroke-linejoin="round"/>
<path d="M584.98 74.3699C585.659 74.3699 586.21 73.8192 586.21 73.1399C586.21 72.4606 585.659 71.9099 584.98 71.9099C584.301 71.9099 583.75 72.4606 583.75 73.1399C583.75 73.8192 584.301 74.3699 584.98 74.3699Z" stroke="#292D32" stroke-width="1.5" stroke-linecap="round" stroke-linejoin="round"/>
<path d="M591.52 80.0899C592.199 80.0899 592.75 79.5392 592.75 78.8599C592.75 78.1806 592.199 77.6299 591.52 77.6299C590.841 77.6299 590.29 78.1806 590.29 78.8599C590.29 79.5392 590.841 80.0899 591.52 80.0899Z" stroke="#292D32" stroke-width="1.5" stroke-linecap="round" stroke-linejoin="round"/>
<path d="M588 86C593.523 86 598 81.5228 598 76C598 70.4772 593.523 66 588 66C582.477 66 578 70.4772 578 76C578 81.5228 582.477 86 588 86Z" stroke="#292D32" stroke-width="1.5" stroke-linecap="round" stroke-linejoin="round"/>
<path d="M650.11 75.1501H647.46C646.83 75.1501 646.32 75.6601 646.32 76.2901V81.4101H650.11V75.1501V75.1501Z" stroke="#292D32" stroke-width="1.5" stroke-miterlimit="10" stroke-linecap="round" stroke-linejoin="round"/>
<path d="M652.762 70.6001H651.242C650.612 70.6001 650.102 71.1101 650.102 71.7401V81.4001H653.892V71.7401C653.892 71.1101 653.392 70.6001 652.762 70.6001Z" stroke="#292D32" stroke-width="1.5" stroke-miterlimit="10" stroke-linecap="round" stroke-linejoin="round"/>
<path d="M656.548 76.8501H653.898V81.4001H657.688V77.9901C657.678 77.3601 657.168 76.8501 656.548 76.8501Z" stroke="#292D32" stroke-width="1.5" stroke-miterlimit="10" stroke-linecap="round" stroke-linejoin="round"/>
<path d="M649 86H655C660 86 662 84 662 79V73C662 68 660 66 655 66H649C644 66 642 68 642 73V79C642 84 644 86 649 86Z" stroke="#292D32" stroke-width="1.5" stroke-linecap="round" stroke-linejoin="round"/>
<path d="M19.3 135.92V141.07C19.3 144.15 17.54 145.47 14.9 145.47H6.10995C5.65995 145.47 5.22996 145.43 4.82996 145.34C4.57996 145.3 4.33996 145.23 4.11996 145.15C2.61996 144.59 1.70996 143.29 1.70996 141.07V135.92C1.70996 132.84 3.46995 131.52 6.10995 131.52H14.9C17.14 131.52 18.75 132.47 19.18 134.64C19.25 135.04 19.3 135.45 19.3 135.92Z" stroke="#292D32" stroke-width="1.5" stroke-miterlimit="10" stroke-linecap="round" stroke-linejoin="round"/>
<path d="M22.3011 138.92V144.07C22.3011 147.15 20.5411 148.47 17.9011 148.47H9.11105C8.37105 148.47 7.70106 148.37 7.12106 148.15C5.93106 147.71 5.12105 146.8 4.83105 145.34C5.23105 145.43 5.66105 145.47 6.11105 145.47H14.9011C17.5411 145.47 19.3011 144.15 19.3011 141.07V135.92C19.3011 135.45 19.2611 135.03 19.1811 134.64C21.0811 135.04 22.3011 136.38 22.3011 138.92Z" stroke="#292D32" stroke-width="1.5" stroke-miterlimit="10" stroke-linecap="round" stroke-linejoin="round"/>
<path d="M10.4984 141.14C11.9564 141.14 13.1384 139.958 13.1384 138.5C13.1384 137.042 11.9564 135.86 10.4984 135.86C9.04038 135.86 7.8584 137.042 7.8584 138.5C7.8584 139.958 9.04038 141.14 10.4984 141.14Z" stroke="#292D32" stroke-width="1.5" stroke-miterlimit="10" stroke-linecap="round" stroke-linejoin="round"/>
<path d="M4.77979 136.3V140.7" stroke="#292D32" stroke-width="1.5" stroke-miterlimit="10" stroke-linecap="round" stroke-linejoin="round"/>
<path d="M16.2217 136.3V140.7" stroke="#292D32" stroke-width="1.5" stroke-miterlimit="10" stroke-linecap="round" stroke-linejoin="round"/>
<path d="M82.5 140.65V144.35C82.5 147.47 79.59 150 76 150C72.41 150 69.5 147.47 69.5 144.35V140.65C69.5 143.77 72.41 146 76 146C79.59 146 82.5 143.77 82.5 140.65Z" stroke="#292D32" stroke-width="1.5" stroke-linecap="round" stroke-linejoin="round"/>
<path d="M82.5 135.65C82.5 136.56 82.25 137.4 81.81 138.12C80.74 139.88 78.54 141 76 141C73.46 141 71.26 139.88 70.19 138.12C69.75 137.4 69.5 136.56 69.5 135.65C69.5 134.09 70.23 132.68 71.4 131.66C72.58 130.63 74.2 130 76 130C77.8 130 79.42 130.63 80.6 131.65C81.77 132.68 82.5 134.09 82.5 135.65Z" stroke="#292D32" stroke-width="1.5" stroke-linecap="round" stroke-linejoin="round"/>
<path d="M82.5 135.65V140.65C82.5 143.77 79.59 146 76 146C72.41 146 69.5 143.77 69.5 140.65V135.65C69.5 132.53 72.41 130 76 130C77.8 130 79.42 130.63 80.6 131.65C81.77 132.68 82.5 134.09 82.5 135.65Z" stroke="#292D32" stroke-width="1.5" stroke-linecap="round" stroke-linejoin="round"/>
<path d="M148.5 139.3V135.04C148.5 131.01 147.56 130 143.78 130H136.22C132.44 130 131.5 131.01 131.5 135.04V146.3C131.5 148.96 132.96 149.59 134.73 147.69L134.74 147.68C135.56 146.81 136.81 146.88 137.52 147.83L138.53 149.18" stroke="#292D32" stroke-width="1.5" stroke-linecap="round" stroke-linejoin="round"/>
<path d="M136 135H144" stroke="#292D32" stroke-width="1.5" stroke-linecap="round" stroke-linejoin="round"/>
<path d="M137 139H143" stroke="#292D32" stroke-width="1.5" stroke-linecap="round" stroke-linejoin="round"/>
<path d="M146.211 142.77L142.671 146.31C142.531 146.45 142.401 146.71 142.371 146.9L142.181 148.25C142.111 148.74 142.451 149.08 142.941 149.01L144.291 148.82C144.481 148.79 144.751 148.66 144.881 148.52L148.421 144.98C149.031 144.37 149.321 143.66 148.421 142.76C147.531 141.87 146.821 142.16 146.211 142.77Z" stroke="#292D32" stroke-width="1.5" stroke-miterlimit="10" stroke-linecap="round" stroke-linejoin="round"/>
<path d="M145.699 143.28C145.999 144.36 146.839 145.2 147.919 145.5" stroke="#292D32" stroke-width="1.5" stroke-miterlimit="10" stroke-linecap="round" stroke-linejoin="round"/>
<path d="M204 142.5C205.381 142.5 206.5 141.381 206.5 140C206.5 138.619 205.381 137.5 204 137.5C202.619 137.5 201.5 138.619 201.5 140C201.5 141.381 202.619 142.5 204 142.5Z" stroke="#292D32" stroke-width="1.5" stroke-miterlimit="10" stroke-linecap="round" stroke-linejoin="round"/>
<path d="M210.5 137.5V142.5" stroke="#292D32" stroke-width="1.5" stroke-miterlimit="10" stroke-linecap="round" stroke-linejoin="round"/>
<path d="M201 146C201 146.75 200.79 147.46 200.42 148.06C199.73 149.22 198.46 150 197 150C195.54 150 194.27 149.22 193.58 148.06C193.21 147.46 193 146.75 193 146C193 143.79 194.79 142 197 142C199.21 142 201 143.79 201 146Z" stroke="#292D32" stroke-width="1.5" stroke-miterlimit="10" stroke-linecap="round" stroke-linejoin="round"/>
<path d="M195.441 146L196.431 146.99L198.561 145.02" stroke="#292D32" stroke-width="1.5" stroke-linecap="round" stroke-linejoin="round"/>
<path d="M194 143.3V137C194 133.5 196 132 199 132H209C212 132 214 133.5 214 137V143C214 146.5 212 148 209 148H200.5" stroke="#292D32" stroke-width="1.5" stroke-miterlimit="10" stroke-linecap="round" stroke-linejoin="round"/>
<path d="M259.989 142.66L258.469 141.14C257.849 140.52 257.849 139.5 258.469 138.88L259.989 137.36C260.249 137.1 260.459 136.59 260.459 136.23V134.08C260.459 133.2 261.179 132.48 262.059 132.48H264.209C264.569 132.48 265.079 132.27 265.339 132.01L266.859 130.49C267.479 129.87 268.499 129.87 269.119 130.49L270.639 132.01C270.899 132.27 271.409 132.48 271.769 132.48H273.919C274.799 132.48 275.519 133.2 275.519 134.08V136.23C275.519 136.59 275.729 137.1 275.989 137.36L277.509 138.88C278.129 139.5 278.129 140.52 277.509 141.14L275.989 142.66C275.729 142.92 275.519 143.43 275.519 143.79V145.94C275.519 146.82 274.799 147.54 273.919 147.54H271.769C271.409 147.54 270.899 147.75 270.639 148.01L269.119 149.53C268.499 150.15 267.479 150.15 266.859 149.53L265.339 148.01C265.079 147.75 264.569 147.54 264.209 147.54H262.059C261.179 147.54 260.459 146.82 260.459 145.94V143.79C260.459 143.42 260.249 142.91 259.989 142.66Z" stroke="#292D32" stroke-width="1.5" stroke-linecap="round" stroke-linejoin="round"/>
<path d="M265 143L271 137" stroke="#292D32" stroke-width="1.5" stroke-linecap="round" stroke-linejoin="round"/>
<path d="M270.495 142.5H270.503" stroke="#292D32" stroke-width="2" stroke-linecap="round" stroke-linejoin="round"/>
<path d="M265.495 137.5H265.503" stroke="#292D32" stroke-width="2" stroke-linecap="round" stroke-linejoin="round"/>
<path d="M340.5 139.3V135.04C340.5 131.01 339.56 130 335.78 130H328.22C324.44 130 323.5 131.01 323.5 135.04V146.3C323.5 148.96 324.96 149.59 326.73 147.69L326.74 147.68C327.56 146.81 328.81 146.88 329.52 147.83L330.53 149.18" stroke="#292D32" stroke-width="1.5" stroke-linecap="round" stroke-linejoin="round"/>
<path d="M338.2 149.4C339.967 149.4 341.4 147.967 341.4 146.2C341.4 144.433 339.967 143 338.2 143C336.433 143 335 144.433 335 146.2C335 147.967 336.433 149.4 338.2 149.4Z" stroke="#292D32" stroke-width="1.5" stroke-linecap="round" stroke-linejoin="round"/>
<path d="M342 150L341 149" stroke="#292D32" stroke-width="1.5" stroke-linecap="round" stroke-linejoin="round"/>
<path d="M328 135H336" stroke="#292D32" stroke-width="1.5" stroke-linecap="round" stroke-linejoin="round"/>
<path d="M329 139H335" stroke="#292D32" stroke-width="1.5" stroke-linecap="round" stroke-linejoin="round"/>
<path d="M396 142.5C397.381 142.5 398.5 141.381 398.5 140C398.5 138.619 397.381 137.5 396 137.5C394.619 137.5 393.5 138.619 393.5 140C393.5 141.381 394.619 142.5 396 142.5Z" stroke="#292D32" stroke-width="1.5" stroke-miterlimit="10" stroke-linecap="round" stroke-linejoin="round"/>
<path d="M402.5 137.5V142.5" stroke="#292D32" stroke-width="1.5" stroke-miterlimit="10" stroke-linecap="round" stroke-linejoin="round"/>
<path d="M393 146C393 146.75 392.79 147.46 392.42 148.06C391.73 149.22 390.46 150 389 150C387.54 150 386.27 149.22 385.58 148.06C385.21 147.46 385 146.75 385 146C385 143.79 386.79 142 389 142C391.21 142 393 143.79 393 146Z" stroke="#292D32" stroke-width="1.5" stroke-miterlimit="10" stroke-linecap="round" stroke-linejoin="round"/>
<path d="M390.492 145.979H387.512" stroke="#292D32" stroke-width="1.5" stroke-miterlimit="10" stroke-linecap="round" stroke-linejoin="round"/>
<path d="M389 144.52V147.51" stroke="#292D32" stroke-width="1.5" stroke-miterlimit="10" stroke-linecap="round" stroke-linejoin="round"/>
<path d="M386 143.3V137C386 133.5 388 132 391 132H401C404 132 406 133.5 406 137V143C406 146.5 404 148 401 148H392.5" stroke="#292D32" stroke-width="1.5" stroke-miterlimit="10" stroke-linecap="round" stroke-linejoin="round"/>
<path d="M460 133.56H470" stroke="#292D32" stroke-width="1.5" stroke-miterlimit="10" stroke-linecap="round" stroke-linejoin="round"/>
<path d="M462.22 130H467.78C469.56 130 470 130.44 470 132.2V136.31C470 138.07 469.56 138.51 467.78 138.51H462.22C460.44 138.51 460 138.07 460 136.31V132.2C460 130.44 460.44 130 462.22 130Z" stroke="#292D32" stroke-width="1.5" stroke-linecap="round" stroke-linejoin="round"/>
<path d="M450 145.06H460" stroke="#292D32" stroke-width="1.5" stroke-miterlimit="10" stroke-linecap="round" stroke-linejoin="round"/>
<path d="M452.22 141.5H457.78C459.56 141.5 460 141.94 460 143.7V147.81C460 149.57 459.56 150.01 457.78 150.01H452.22C450.44 150.01 450 149.57 450 147.81V143.7C450 141.94 450.44 141.5 452.22 141.5Z" stroke="#292D32" stroke-width="1.5" stroke-linecap="round" stroke-linejoin="round"/>
<path d="M470 143C470 146.87 466.87 150 463 150L464.05 148.25" stroke="#292D32" stroke-width="1.5" stroke-linecap="round" stroke-linejoin="round"/>
<path d="M450 137C450 133.13 453.13 130 457 130L455.95 131.75" stroke="#292D32" stroke-width="1.5" stroke-linecap="round" stroke-linejoin="round"/>
<path d="M524 150C529.523 150 534 145.523 534 140C534 134.477 529.523 130 524 130C518.477 130 514 134.477 514 140C514 145.523 518.477 150 524 150Z" stroke="#292D32" stroke-width="1.5" stroke-linecap="round" stroke-linejoin="round"/>
<path d="M521 143L527 137" stroke="#292D32" stroke-width="1.5" stroke-linecap="round" stroke-linejoin="round"/>
<path d="M526.495 142.5H526.503" stroke="#292D32" stroke-width="2" stroke-linecap="round" stroke-linejoin="round"/>
<path d="M521.495 137.5H521.503" stroke="#292D32" stroke-width="2" stroke-linecap="round" stroke-linejoin="round"/>
<path d="M589 137H583" stroke="#292D32" stroke-width="1.5" stroke-linecap="round" stroke-linejoin="round"/>
<path d="M598 138.97V141.03C598 141.58 597.56 142.03 597 142.05H595.04C593.96 142.05 592.97 141.26 592.88 140.18C592.82 139.55 593.06 138.96 593.48 138.55C593.85 138.17 594.36 137.95 594.92 137.95H597C597.56 137.97 598 138.42 598 138.97Z" stroke="#292D32" stroke-width="1.5" stroke-linecap="round" stroke-linejoin="round"/>
<path d="M593.48 138.55C593.06 138.96 592.82 139.55 592.88 140.18C592.97 141.26 593.96 142.05 595.04 142.05H597V143.5C597 146.5 595 148.5 592 148.5H583C580 148.5 578 146.5 578 143.5V136.5C578 133.78 579.64 131.88 582.19 131.56C582.45 131.52 582.72 131.5 583 131.5H592C592.26 131.5 592.51 131.51 592.75 131.55C595.33 131.85 597 133.76 597 136.5V137.95H594.92C594.36 137.95 593.85 138.17 593.48 138.55Z" stroke="#292D32" stroke-width="1.5" stroke-linecap="round" stroke-linejoin="round"/>
<path d="M642 143.3V137C642 133.5 644 132 647 132H657C660 132 662 133.5 662 137V143C662 146.5 660 148 657 148H648.5" stroke="#292D32" stroke-width="1.5" stroke-miterlimit="10" stroke-linecap="round" stroke-linejoin="round"/>
<path d="M652 142.5C653.381 142.5 654.5 141.381 654.5 140C654.5 138.619 653.381 137.5 652 137.5C650.619 137.5 649.5 138.619 649.5 140C649.5 141.381 650.619 142.5 652 142.5Z" stroke="#292D32" stroke-width="1.5" stroke-miterlimit="10" stroke-linecap="round" stroke-linejoin="round"/>
<path d="M658.5 137.5V142.5" stroke="#292D32" stroke-width="1.5" stroke-miterlimit="10" stroke-linecap="round" stroke-linejoin="round"/>
<path d="M649 146C649 146.75 648.79 147.46 648.42 148.06C647.73 149.22 646.46 150 645 150C643.54 150 642.27 149.22 641.58 148.06C641.21 147.46 641 146.75 641 146C641 143.79 642.79 142 645 142C647.21 142 649 143.79 649 146Z" stroke="#292D32" stroke-width="1.5" stroke-miterlimit="10" stroke-linecap="round" stroke-linejoin="round"/>
<path d="M646.071 147.04L643.961 144.93" stroke="#292D32" stroke-width="1.5" stroke-miterlimit="10" stroke-linecap="round" stroke-linejoin="round"/>
<path d="M646.04 144.96L643.93 147.07" stroke="#292D32" stroke-width="1.5" stroke-miterlimit="10" stroke-linecap="round" stroke-linejoin="round"/>
<path d="M10.7516 208.86V210.89C10.7516 212.61 9.15158 214 7.18158 214C5.21158 214 3.60156 212.61 3.60156 210.89V208.86C3.60156 210.58 5.20158 211.8 7.18158 211.8C9.15158 211.8 10.7516 210.57 10.7516 208.86Z" stroke="#292D32" stroke-width="1.5" stroke-linecap="round" stroke-linejoin="round"/>
<path d="M10.7498 206.11C10.7498 206.61 10.6098 207.07 10.3698 207.47C9.77981 208.44 8.5698 209.05 7.1698 209.05C5.7698 209.05 4.55979 208.43 3.96979 207.47C3.72979 207.07 3.58984 206.61 3.58984 206.11C3.58984 205.25 3.98982 204.48 4.62982 203.92C5.27982 203.35 6.16979 203.01 7.15979 203.01C8.14979 203.01 9.03982 203.36 9.68982 203.92C10.3498 204.47 10.7498 205.25 10.7498 206.11Z" stroke="#292D32" stroke-width="1.5" stroke-linecap="round" stroke-linejoin="round"/>
<path d="M10.7516 206.11V208.86C10.7516 210.58 9.15158 211.8 7.18158 211.8C5.21158 211.8 3.60156 210.57 3.60156 208.86V206.11C3.60156 204.39 5.20158 203 7.18158 203C8.17158 203 9.06161 203.35 9.71161 203.91C10.3516 204.47 10.7516 205.25 10.7516 206.11Z" stroke="#292D32" stroke-width="1.5" stroke-linecap="round" stroke-linejoin="round"/>
<path d="M22.0002 202.97V205.03C22.0002 205.58 21.5602 206.03 21.0002 206.05H19.0402C17.9602 206.05 16.9702 205.26 16.8802 204.18C16.8202 203.55 17.0602 202.96 17.4802 202.55C17.8502 202.17 18.3602 201.95 18.9202 201.95H21.0002C21.5602 201.97 22.0002 202.42 22.0002 202.97Z" stroke="#292D32" stroke-width="1.5" stroke-linecap="round" stroke-linejoin="round"/>
<path d="M2 202.5V200.5C2 197.78 3.64 195.88 6.19 195.56C6.45 195.52 6.72 195.5 7 195.5H16C16.26 195.5 16.51 195.51 16.75 195.55C19.33 195.85 21 197.76 21 200.5V201.95H18.92C18.36 201.95 17.85 202.17 17.48 202.55C17.06 202.96 16.82 203.55 16.88 204.18C16.97 205.26 17.96 206.05 19.04 206.05H21V207.5C21 210.5 19 212.5 16 212.5H13.5" stroke="#292D32" stroke-width="1.5" stroke-linecap="round" stroke-linejoin="round"/>
<path d="M65.8984 202.03H85.8984" stroke="#292D32" stroke-width="1.5" stroke-miterlimit="10" stroke-linecap="round" stroke-linejoin="round"/>
<path d="M75.4584 212.53H70.3484C66.7984 212.53 65.8984 211.65 65.8984 208.14V199.92C65.8984 196.74 66.6384 195.72 69.4284 195.56C69.7084 195.55 70.0184 195.54 70.3484 195.54H81.4584C85.0084 195.54 85.9084 196.42 85.9084 199.93V204.34" stroke="#292D32" stroke-width="1.5" stroke-linecap="round" stroke-linejoin="round"/>
<path d="M81.8984 214.03C84.1076 214.03 85.8984 212.239 85.8984 210.03C85.8984 207.821 84.1076 206.03 81.8984 206.03C79.6893 206.03 77.8984 207.821 77.8984 210.03C77.8984 212.239 79.6893 214.03 81.8984 214.03Z" stroke="#292D32" stroke-width="1.5" stroke-miterlimit="10" stroke-linecap="round" stroke-linejoin="round"/>
<path d="M82.9694 211.15L80.8594 209.03" stroke="#292D32" stroke-width="1.5" stroke-miterlimit="10" stroke-linecap="round" stroke-linejoin="round"/>
<path d="M82.9481 209.06L80.8281 211.17" stroke="#292D32" stroke-width="1.5" stroke-miterlimit="10" stroke-linecap="round" stroke-linejoin="round"/>
<path d="M69.8984 208.03H73.8984" stroke="#292D32" stroke-width="1.5" stroke-miterlimit="10" stroke-linecap="round" stroke-linejoin="round"/>
<path d="M130 204.61H147" stroke="#292D32" stroke-width="1.5" stroke-miterlimit="10" stroke-linecap="round" stroke-linejoin="round"/>
<path d="M147 202.28V209.43C146.97 212.28 146.19 213 143.22 213H133.78C130.76 213 130 212.25 130 209.27V202.28C130 199.58 130.63 198.71 133 198.57C133.24 198.56 133.5 198.55 133.78 198.55H143.22C146.24 198.55 147 199.3 147 202.28Z" stroke="#292D32" stroke-width="1.5" stroke-linecap="round" stroke-linejoin="round"/>
<path d="M150 198.73V205.72C150 208.42 149.37 209.29 147 209.43V202.28C147 199.3 146.24 198.55 143.22 198.55H133.78C133.5 198.55 133.24 198.56 133 198.57C133.03 195.72 133.81 195 136.78 195H146.22C149.24 195 150 195.75 150 198.73Z" stroke="#292D32" stroke-width="1.5" stroke-linecap="round" stroke-linejoin="round"/>
<path d="M133.25 209.81H134.97" stroke="#292D32" stroke-width="1.5" stroke-miterlimit="10" stroke-linecap="round" stroke-linejoin="round"/>
<path d="M137.11 209.81H140.55" stroke="#292D32" stroke-width="1.5" stroke-miterlimit="10" stroke-linecap="round" stroke-linejoin="round"/>
<path d="M194 207.2V201C194 197.5 196 196 199 196H209C212 196 214 197.5 214 201V207C214 210.5 212 212 209 212H200.5" stroke="#292D32" stroke-width="1.5" stroke-miterlimit="10" stroke-linecap="round" stroke-linejoin="round"/>
<path d="M204 206.5C205.381 206.5 206.5 205.381 206.5 204C206.5 202.619 205.381 201.5 204 201.5C202.619 201.5 201.5 202.619 201.5 204C201.5 205.381 202.619 206.5 204 206.5Z" stroke="#292D32" stroke-width="1.5" stroke-miterlimit="10" stroke-linecap="round" stroke-linejoin="round"/>
<path d="M210.5 201.5V206.5" stroke="#292D32" stroke-width="1.5" stroke-miterlimit="10" stroke-linecap="round" stroke-linejoin="round"/>
<path d="M201 210C201 210.75 200.79 211.46 200.42 212.06C199.73 213.22 198.46 214 197 214C195.54 214 194.27 213.22 193.58 212.06C193.21 211.46 193 210.75 193 210C193 207.79 194.79 206 197 206C199.21 206 201 207.79 201 210Z" stroke="#292D32" stroke-width="1.5" stroke-miterlimit="10" stroke-linecap="round" stroke-linejoin="round"/>
<path d="M199.75 207.25L194.25 212.75" stroke="#292D32" stroke-width="1.5" stroke-miterlimit="10" stroke-linecap="round" stroke-linejoin="round"/>
<path d="M269 203.15H263" stroke="#292D32" stroke-width="1.5" stroke-linecap="round" stroke-linejoin="round"/>
<path d="M258 203.15V198.53C258 196.49 259.65 194.84 261.69 194.84H267.31C269.35 194.84 271 196.11 271 198.15" stroke="#292D32" stroke-width="1.5" stroke-linecap="round" stroke-linejoin="round"/>
<path d="M273.48 204.2C272.98 204.68 272.74 205.42 272.94 206.18C273.19 207.11 274.11 207.7 275.07 207.7H276V209.15C276 211.36 274.21 213.15 272 213.15H262C259.79 213.15 258 211.36 258 209.15V202.15C258 199.94 259.79 198.15 262 198.15H272C274.2 198.15 276 199.95 276 202.15V203.6H274.92C274.36 203.6 273.85 203.82 273.48 204.2Z" stroke="#292D32" stroke-width="1.5" stroke-linecap="round" stroke-linejoin="round"/>
<path d="M278 204.62V206.68C278 207.24 277.54 207.7 276.97 207.7H275.04C273.96 207.7 272.97 206.91 272.88 205.83C272.82 205.2 273.06 204.61 273.48 204.2C273.85 203.82 274.36 203.6 274.92 203.6H276.97C277.54 203.6 278 204.06 278 204.62Z" stroke="#292D32" stroke-width="1.5" stroke-linecap="round" stroke-linejoin="round"/>
<path d="M322 202H342" stroke="#292D32" stroke-width="1.5" stroke-miterlimit="10" stroke-linecap="round" stroke-linejoin="round"/>
<path d="M331.548 212.5H326.438C322.888 212.5 321.988 211.62 321.988 208.11V199.89C321.988 196.71 322.728 195.69 325.518 195.53C325.798 195.52 326.108 195.51 326.438 195.51H337.548C341.098 195.51 341.998 196.39 341.998 199.9V204.31" stroke="#292D32" stroke-width="1.5" stroke-linecap="round" stroke-linejoin="round"/>
<path d="M326 208H330" stroke="#292D32" stroke-width="1.5" stroke-miterlimit="10" stroke-linecap="round" stroke-linejoin="round"/>
<path d="M342 210C342 210.75 341.79 211.46 341.42 212.06C340.73 213.22 339.46 214 338 214C336.54 214 335.27 213.22 334.58 212.06C334.21 211.46 334 210.75 334 210C334 207.79 335.79 206 338 206C340.21 206 342 207.79 342 210Z" stroke="#292D32" stroke-width="1.5" stroke-miterlimit="10" stroke-linecap="round" stroke-linejoin="round"/>
<path d="M336.441 210L337.431 210.99L339.561 209.02" stroke="#292D32" stroke-width="1.5" stroke-linecap="round" stroke-linejoin="round"/>
<path d="M404 199.04V208.96C404 210.48 403.86 211.56 403.5 212.33C403.5 212.34 403.49 212.36 403.48 212.37C403.26 212.65 402.97 212.79 402.63 212.79C402.1 212.79 401.46 212.44 400.77 211.7C399.95 210.82 398.69 210.89 397.97 211.85L396.96 213.19C396.56 213.73 396.03 214 395.5 214C394.97 214 394.44 213.73 394.04 213.19L393.02 211.84C392.31 210.89 391.06 210.82 390.24 211.69L390.23 211.7C389.1 212.91 388.1 213.09 387.52 212.37C387.51 212.36 387.5 212.34 387.5 212.33C387.14 211.56 387 210.48 387 208.96V199.04C387 197.52 387.14 196.44 387.5 195.67C387.5 195.66 387.5 195.65 387.52 195.64C388.09 194.91 389.1 195.09 390.23 196.3L390.24 196.31C391.06 197.18 392.31 197.11 393.02 196.16L394.04 194.81C394.44 194.27 394.97 194 395.5 194C396.03 194 396.56 194.27 396.96 194.81L397.97 196.15C398.69 197.11 399.95 197.18 400.77 196.3C401.46 195.56 402.1 195.21 402.63 195.21C402.97 195.21 403.26 195.36 403.48 195.64C403.5 195.65 403.5 195.66 403.5 195.67C403.86 196.44 404 197.52 404 199.04Z" stroke="#292D32" stroke-width="1.5" stroke-linecap="round" stroke-linejoin="round"/>
<path d="M392 202.25H400" stroke="#292D32" stroke-width="1.5" stroke-linecap="round" stroke-linejoin="round"/>
<path d="M392 205.75H398" stroke="#292D32" stroke-width="1.5" stroke-linecap="round" stroke-linejoin="round"/>
<path d="M450 203V201C450 197.5 452 196 455 196H465C468 196 470 197.5 470 201V207C470 210.5 468 212 465 212H460" stroke="#292D32" stroke-width="1.5" stroke-miterlimit="10" stroke-linecap="round" stroke-linejoin="round"/>
<path d="M460 206.5C461.381 206.5 462.5 205.381 462.5 204C462.5 202.619 461.381 201.5 460 201.5C458.619 201.5 457.5 202.619 457.5 204C457.5 205.381 458.619 206.5 460 206.5Z" stroke="#292D32" stroke-width="1.5" stroke-miterlimit="10" stroke-linecap="round" stroke-linejoin="round"/>
<path d="M466.5 201.5V206.5" stroke="#292D32" stroke-width="1.5" stroke-miterlimit="10" stroke-linecap="round" stroke-linejoin="round"/>
<path d="M450 207.5H455.34C455.98 207.5 456.5 208.02 456.5 208.66V209.94" stroke="#292D32" stroke-width="1.5" stroke-miterlimit="10" stroke-linecap="round" stroke-linejoin="round"/>
<path d="M451.22 206.28L450 207.5L451.22 208.72" stroke="#292D32" stroke-width="1.5" stroke-miterlimit="10" stroke-linecap="round" stroke-linejoin="round"/>
<path d="M456.5 212.78H451.16C450.52 212.78 450 212.26 450 211.62V210.34" stroke="#292D32" stroke-width="1.5" stroke-miterlimit="10" stroke-linecap="round" stroke-linejoin="round"/>
<path d="M455.281 214L456.501 212.78L455.281 211.56" stroke="#292D32" stroke-width="1.5" stroke-miterlimit="10" stroke-linecap="round" stroke-linejoin="round"/>
<path d="M534 198V200.42C534 202 533 203 531.42 203H528V196.01C528 194.9 528.91 194 530.02 194C531.11 194.01 532.11 194.45 532.83 195.17C533.55 195.9 534 196.9 534 198Z" stroke="#292D32" stroke-width="1.5" stroke-miterlimit="10" stroke-linecap="round" stroke-linejoin="round"/>
<path d="M514 199V213C514 213.83 514.94 214.3 515.6 213.8L517.31 212.52C517.71 212.22 518.27 212.26 518.63 212.62L520.29 214.29C520.68 214.68 521.32 214.68 521.71 214.29L523.39 212.61C523.74 212.26 524.3 212.22 524.69 212.52L526.4 213.8C527.06 214.29 528 213.82 528 213V196C528 194.9 528.9 194 530 194H519H518C515 194 514 195.79 514 198V199Z" stroke="#292D32" stroke-width="1.5" stroke-miterlimit="10" stroke-linecap="round" stroke-linejoin="round"/>
<path d="M598 204V209C598 212 596 214 593 214H583.63C583.94 213.74 584.21 213.42 584.42 213.06C584.79 212.46 585 211.75 585 211C585 208.79 583.21 207 581 207C579.8 207 578.73 207.53 578 208.36V204C578 201.28 579.64 199.38 582.19 199.06C582.45 199.02 582.72 199 583 199H593C593.26 199 593.51 199.01 593.75 199.05C596.33 199.35 598 201.26 598 204Z" stroke="#292D32" stroke-width="1.5" stroke-linecap="round" stroke-linejoin="round"/>
<path d="M593.751 199.05C593.511 199.01 593.261 199 593.001 199H583.001C582.721 199 582.451 199.02 582.191 199.06C582.331 198.78 582.531 198.52 582.771 198.28L586.021 195.02C587.391 193.66 589.611 193.66 590.981 195.02L592.731 196.79C593.371 197.42 593.711 198.22 593.751 199.05Z" stroke="#292D32" stroke-width="1.5" stroke-linecap="round" stroke-linejoin="round"/>
<path d="M598 204.5H595C593.9 204.5 593 205.4 593 206.5C593 207.6 593.9 208.5 595 208.5H598" stroke="#292D32" stroke-width="1.5" stroke-linecap="round" stroke-linejoin="round"/>
<path d="M585 211C585 211.75 584.79 212.46 584.42 213.06C584.21 213.42 583.94 213.74 583.63 214C582.93 214.63 582.01 215 581 215C579.54 215 578.27 214.22 577.58 213.06C577.21 212.46 577 211.75 577 211C577 209.99 577.38 209.07 578 208.36C578.73 207.53 579.8 207 581 207C583.21 207 585 208.79 585 211Z" stroke="#292D32" stroke-width="1.5" stroke-miterlimit="10" stroke-linecap="round" stroke-linejoin="round"/>
<path d="M582.071 212.04L579.961 209.93" stroke="#292D32" stroke-width="1.5" stroke-miterlimit="10" stroke-linecap="round" stroke-linejoin="round"/>
<path d="M582.04 209.96L579.93 212.07" stroke="#292D32" stroke-width="1.5" stroke-miterlimit="10" stroke-linecap="round" stroke-linejoin="round"/>
<path d="M652 206.5C653.381 206.5 654.5 205.381 654.5 204C654.5 202.619 653.381 201.5 652 201.5C650.619 201.5 649.5 202.619 649.5 204C649.5 205.381 650.619 206.5 652 206.5Z" stroke="#292D32" stroke-width="1.5" stroke-miterlimit="10" stroke-linecap="round" stroke-linejoin="round"/>
<path d="M658.5 201.5V206.5" stroke="#292D32" stroke-width="1.5" stroke-miterlimit="10" stroke-linecap="round" stroke-linejoin="round"/>
<path d="M645 214C647.209 214 649 212.209 649 210C649 207.791 647.209 206 645 206C642.791 206 641 207.791 641 210C641 212.209 642.791 214 645 214Z" stroke="#292D32" stroke-width="1.5" stroke-miterlimit="10" stroke-linecap="round" stroke-linejoin="round"/>
<path d="M645.25 208.75V209.68C645.25 210.03 645.07 210.36 644.76 210.54L644 211" stroke="#292D32" stroke-width="1.5" stroke-miterlimit="10" stroke-linecap="round" stroke-linejoin="round"/>
<path d="M642 207.2V201C642 197.5 644 196 647 196H657C660 196 662 197.5 662 201V207C662 210.5 660 212 657 212H648.5" stroke="#292D32" stroke-width="1.5" stroke-miterlimit="10" stroke-linecap="round" stroke-linejoin="round"/>
<path d="M22 262V264.42C22 266 21 267 19.42 267H16V260.01C16 258.9 16.91 258 18.02 258C19.11 258.01 20.11 258.45 20.83 259.17C21.55 259.9 22 260.9 22 262Z" stroke="#292D32" stroke-width="1.5" stroke-miterlimit="10" stroke-linecap="round" stroke-linejoin="round"/>
<path d="M2 263V277C2 277.83 2.93998 278.3 3.59998 277.8L5.31 276.52C5.71 276.22 6.27 276.26 6.63 276.62L8.28998 278.29C8.67998 278.68 9.32002 278.68 9.71002 278.29L11.39 276.61C11.74 276.26 12.3 276.22 12.69 276.52L14.4 277.8C15.06 278.29 16 277.82 16 277V260C16 258.9 16.9 258 18 258H7H6C3 258 2 259.79 2 262V263Z" stroke="#292D32" stroke-width="1.5" stroke-miterlimit="10" stroke-linecap="round" stroke-linejoin="round"/>
<path d="M6 265H12" stroke="#292D32" stroke-width="1.5" stroke-linecap="round" stroke-linejoin="round"/>
<path d="M6.75 269H11.25" stroke="#292D32" stroke-width="1.5" stroke-linecap="round" stroke-linejoin="round"/>
<path d="M73 278H79C84 278 86 276 86 271V265C86 260 84 258 79 258H73C68 258 66 260 66 265V271C66 276 68 278 73 278Z" stroke="#292D32" stroke-width="1.5" stroke-linecap="round" stroke-linejoin="round"/>
<path d="M78.3511 266.91C78.2511 267.62 77.8311 268.22 77.2511 268.58V270.56C77.2511 271.25 76.6911 271.81 76.0011 271.81C75.3111 271.81 74.7511 271.25 74.7511 270.56V268.58C74.1711 268.22 73.7511 267.62 73.6511 266.91C73.6311 266.8 73.6211 266.68 73.6211 266.56C73.6211 265.04 75.0611 263.86 76.6411 264.28C77.4411 264.49 78.0911 265.14 78.3011 265.94C78.3911 266.27 78.4011 266.6 78.3511 266.91Z" stroke="#292D32" stroke-width="1.5" stroke-miterlimit="10"/>
<path d="M86.0016 266.91H78.3516" stroke="#292D32" stroke-width="1.5" stroke-miterlimit="10"/>
<path d="M73.65 266.91H66" stroke="#292D32" stroke-width="1.5" stroke-miterlimit="10"/>
<path d="M150 268V273C150 276 148 278 145 278H135C132 278 130 276 130 273V268C130 265.28 131.64 263.38 134.19 263.06C134.45 263.02 134.72 263 135 263H145C145.26 263 145.51 263.01 145.75 263.05C148.33 263.35 150 265.26 150 268Z" stroke="#292D32" stroke-width="1.5" stroke-linecap="round" stroke-linejoin="round"/>
<path d="M145.751 263.05C145.511 263.01 145.261 263 145.001 263H135.001C134.721 263 134.451 263.02 134.191 263.06C134.331 262.78 134.531 262.52 134.771 262.28L138.021 259.02C139.391 257.66 141.611 257.66 142.981 259.02L144.731 260.79C145.371 261.42 145.711 262.22 145.751 263.05Z" stroke="#292D32" stroke-width="1.5" stroke-linecap="round" stroke-linejoin="round"/>
<path d="M150 268.5H147C145.9 268.5 145 269.4 145 270.5C145 271.6 145.9 272.5 147 272.5H150" stroke="#292D32" stroke-width="1.5" stroke-linecap="round" stroke-linejoin="round"/>
<path d="M203.74 273.75H209.66C209.57 273.83 209.48 273.9 209.39 273.98L205.12 277.18C203.71 278.23 201.41 278.23 199.99 277.18L195.71 273.98C194.77 273.28 194 271.73 194 270.56V263.15C194 261.93 194.93 260.58 196.07 260.15L201.05 258.28C201.87 257.97 203.23 257.97 204.05 258.28L209.02 260.15C209.97 260.51 210.78 261.51 211.03 262.53H203.73C203.51 262.53 203.31 262.54 203.12 262.54C201.27 262.65 200.79 263.32 200.79 265.43V270.86C200.8 273.16 201.39 273.75 203.74 273.75Z" stroke="#292D32" stroke-width="1.5" stroke-linecap="round" stroke-linejoin="round"/>
<path d="M200.8 267.22H214" stroke="#292D32" stroke-width="1.5" stroke-miterlimit="10" stroke-linecap="round" stroke-linejoin="round"/>
<path d="M214 265.42V270.97C213.98 273.19 213.37 273.74 211.06 273.74H203.74C201.39 273.74 200.8 273.15 200.8 270.84V265.41C200.8 263.31 201.28 262.64 203.13 262.52C203.32 262.52 203.52 262.51 203.74 262.51H211.06C213.41 262.52 214 263.1 214 265.42Z" stroke="#292D32" stroke-width="1.5" stroke-linecap="round" stroke-linejoin="round"/>
<path d="M203.32 271.26H204.65" stroke="#292D32" stroke-width="1.5" stroke-miterlimit="10" stroke-linecap="round" stroke-linejoin="round"/>
<path d="M206.75 271.26H210.02" stroke="#292D32" stroke-width="1.5" stroke-miterlimit="10" stroke-linecap="round" stroke-linejoin="round"/>
<path d="M265.5 269.75C265.5 270.72 266.25 271.5 267.17 271.5H269.05C269.85 271.5 270.5 270.82 270.5 269.97C270.5 269.06 270.1 268.73 269.51 268.52L266.5 267.47C265.91 267.26 265.51 266.94 265.51 266.02C265.51 265.18 266.16 264.49 266.96 264.49H268.84C269.76 264.49 270.51 265.27 270.51 266.24" stroke="#292D32" stroke-width="1.5" stroke-linecap="round" stroke-linejoin="round"/>
<path d="M268 263.5V272.5" stroke="#292D32" stroke-width="1.5" stroke-linecap="round" stroke-linejoin="round"/>
<path d="M278 268C278 273.52 273.52 278 268 278C262.48 278 258 273.52 258 268C258 262.48 262.48 258 268 258" stroke="#292D32" stroke-width="1.5" stroke-linecap="round" stroke-linejoin="round"/>
<path d="M273 259V263H277" stroke="#292D32" stroke-width="1.5" stroke-linecap="round" stroke-linejoin="round"/>
<path d="M278 258L273 263" stroke="#292D32" stroke-width="1.5" stroke-linecap="round" stroke-linejoin="round"/>
<path d="M329.5 269.75C329.5 270.72 330.25 271.5 331.17 271.5H333.05C333.85 271.5 334.5 270.82 334.5 269.97C334.5 269.06 334.1 268.73 333.51 268.52L330.5 267.47C329.91 267.26 329.51 266.94 329.51 266.02C329.51 265.18 330.16 264.49 330.96 264.49H332.84C333.76 264.49 334.51 265.27 334.51 266.24" stroke="#292D32" stroke-width="1.5" stroke-linecap="round" stroke-linejoin="round"/>
<path d="M332 263.5V272.5" stroke="#292D32" stroke-width="1.5" stroke-linecap="round" stroke-linejoin="round"/>
<path d="M342 268C342 273.52 337.52 278 332 278C326.48 278 322 273.52 322 268C322 262.48 326.48 258 332 258" stroke="#292D32" stroke-width="1.5" stroke-linecap="round" stroke-linejoin="round"/>
<path d="M342 262V258H338" stroke="#292D32" stroke-width="1.5" stroke-linecap="round" stroke-linejoin="round"/>
<path d="M337 263L342 258" stroke="#292D32" stroke-width="1.5" stroke-linecap="round" stroke-linejoin="round"/>
<path d="M393 278H399C404 278 406 276 406 271V265C406 260 404 258 399 258H393C388 258 386 260 386 265V271C386 276 388 278 393 278Z" stroke="#292D32" stroke-width="1.5" stroke-linecap="round" stroke-linejoin="round"/>
<path d="M402 263.75V270.5C402 269.4 401.1 268.5 400 268.5H392C390.9 268.5 390 269.4 390 270.5V263.75C390 262.65 390.9 261.75 392 261.75H400C401.1 261.75 402 262.65 402 263.75Z" stroke="#292D32" stroke-width="1.5" stroke-linecap="round" stroke-linejoin="round"/>
<path d="M403 271.75H402" stroke="#292D32" stroke-width="1.5" stroke-linecap="round" stroke-linejoin="round"/>
<path d="M390 271.75H389" stroke="#292D32" stroke-width="1.5" stroke-linecap="round" stroke-linejoin="round"/>
<path d="M402 270V267C402 265.9 401.1 265 400 265H392C390.9 265 390 265.9 390 267V270" stroke="#292D32" stroke-width="1.5" stroke-linecap="round" stroke-linejoin="round"/>
<path d="M402 270.5V271.75H398.5C398.5 273.13 397.38 274.25 396 274.25C394.62 274.25 393.5 273.13 393.5 271.75H390V270.5C390 269.4 390.9 268.5 392 268.5H400C401.1 268.5 402 269.4 402 270.5Z" stroke="#292D32" stroke-width="1.5" stroke-linecap="round" stroke-linejoin="round"/>
<path d="M649 278H655C660 278 662 276 662 271V265C662 260 660 258 655 258H649C644 258 642 260 642 265V271C642 276 644 278 649 278Z" stroke="#292D32" stroke-width="1.5" stroke-linecap="round" stroke-linejoin="round"/>
<path d="M655.75 265H648.25" stroke="#292D32" stroke-width="1.5" stroke-linecap="round" stroke-linejoin="round"/>
<path d="M655.75 271H648.25" stroke="#292D32" stroke-width="1.5" stroke-linecap="round" stroke-linejoin="round"/>
<path d="M584 267.4C584 268.17 584.6 268.8 585.33 268.8H586.83C587.47 268.8 587.99 268.25 587.99 267.58C587.99 266.85 587.67 266.59 587.2 266.42L584.8 265.58C584.32 265.41 584 265.15 584 264.42C584 263.75 584.52 263.2 585.16 263.2H586.66C587.4 263.21 588 263.83 588 264.6" stroke="#292D32" stroke-width="1.5" stroke-linecap="round" stroke-linejoin="round"/>
<path d="M586 268.85V269.59" stroke="#292D32" stroke-width="1.5" stroke-linecap="round" stroke-linejoin="round"/>
<path d="M586 262.41V263.19" stroke="#292D32" stroke-width="1.5" stroke-linecap="round" stroke-linejoin="round"/>
<path d="M585.99 273.98C590.403 273.98 593.98 270.403 593.98 265.99C593.98 261.577 590.403 258 585.99 258C581.577 258 578 261.577 578 265.99C578 270.403 581.577 273.98 585.99 273.98Z" stroke="#292D32" stroke-width="1.5" stroke-linecap="round" stroke-linejoin="round"/>
<path d="M588.98 275.88C589.88 277.15 591.35 277.98 593.03 277.98C595.76 277.98 597.98 275.76 597.98 273.03C597.98 271.37 597.16 269.9 595.91 269" stroke="#292D32" stroke-width="1.5" stroke-linecap="round" stroke-linejoin="round"/>
<path d="M514 328.5H526.5" stroke="#292D32" stroke-width="1.5" stroke-miterlimit="10" stroke-linecap="round" stroke-linejoin="round"/>
<path d="M518 336.5H520" stroke="#292D32" stroke-width="1.5" stroke-miterlimit="10" stroke-linecap="round" stroke-linejoin="round"/>
<path d="M522.5 336.5H526.5" stroke="#292D32" stroke-width="1.5" stroke-miterlimit="10" stroke-linecap="round" stroke-linejoin="round"/>
<path d="M534 334.03V336.11C534 339.62 533.11 340.5 529.56 340.5H518.44C514.89 340.5 514 339.62 514 336.11V327.89C514 324.38 514.89 323.5 518.44 323.5H526.5" stroke="#292D32" stroke-width="1.5" stroke-linecap="round" stroke-linejoin="round"/>
<path d="M532 329.5V323.5L534 325.5" stroke="#292D32" stroke-width="1.5" stroke-linecap="round" stroke-linejoin="round"/>
<path d="M532 323.5L530 325.5" stroke="#292D32" stroke-width="1.5" stroke-linecap="round" stroke-linejoin="round"/>
<path d="M516.405 271.526L520.935 276.056C522.795 277.916 525.815 277.916 527.685 276.056L532.075 271.666C533.935 269.806 533.935 266.786 532.075 264.916L527.535 260.396C526.585 259.446 525.275 258.936 523.935 259.006L518.935 259.246C516.935 259.336 515.345 260.926 515.245 262.916L515.005 267.916C514.945 269.266 515.455 270.576 516.405 271.526Z" stroke="#292D32" stroke-width="1.5" stroke-linecap="round" stroke-linejoin="round"/>
<path d="M521.734 268.226C523.115 268.226 524.234 267.107 524.234 265.726C524.234 264.346 523.115 263.226 521.734 263.226C520.354 263.226 519.234 264.346 519.234 265.726C519.234 267.107 520.354 268.226 521.734 268.226Z" stroke="#292D32" stroke-width="1.5" stroke-linecap="round"/>
<path d="M525.234 273.226L529.234 269.226" stroke="#292D32" stroke-width="1.5" stroke-miterlimit="10" stroke-linecap="round" stroke-linejoin="round"/>
<path d="M654.262 335.998H649.262" stroke="#292D32" stroke-width="1.5" stroke-miterlimit="10" stroke-linecap="round" stroke-linejoin="round"/>
<path d="M652.66 322.518L652.63 322.588L649.73 329.318H646.88C646.2 329.318 645.55 329.458 644.96 329.708L646.71 325.528L646.75 325.428L646.82 325.268C646.84 325.208 646.86 325.148 646.89 325.098C648.2 322.068 649.68 321.378 652.66 322.518Z" stroke="#292D32" stroke-width="1.5" stroke-linecap="round" stroke-linejoin="round"/>
<path d="M658.05 329.518C657.6 329.378 657.12 329.318 656.64 329.318H649.73L652.63 322.588L652.66 322.518C652.81 322.568 652.95 322.638 653.1 322.698L655.31 323.628C656.54 324.138 657.4 324.668 657.92 325.308C658.02 325.428 658.1 325.538 658.17 325.668C658.26 325.808 658.33 325.948 658.37 326.098C658.41 326.188 658.44 326.278 658.46 326.358C658.73 327.198 658.57 328.228 658.05 329.518Z" stroke="#292D32" stroke-width="1.5" stroke-linecap="round" stroke-linejoin="round"/>
<path d="M661.522 334.198V336.148C661.522 336.348 661.512 336.548 661.502 336.748C661.312 340.238 659.362 341.998 655.662 341.998H647.862C647.622 341.998 647.382 341.978 647.152 341.948C643.972 341.738 642.272 340.038 642.062 336.858C642.032 336.628 642.012 336.388 642.012 336.148V334.198C642.012 332.188 643.232 330.458 644.972 329.708C645.572 329.458 646.212 329.318 646.892 329.318H656.652C657.142 329.318 657.622 329.388 658.062 329.518C660.052 330.128 661.522 331.988 661.522 334.198Z" stroke="#292D32" stroke-width="1.5" stroke-linecap="round" stroke-linejoin="round"/>
<path d="M646.71 325.528L644.96 329.708C643.22 330.458 642 332.188 642 334.198V331.268C642 328.428 644.02 326.058 646.71 325.528Z" stroke="#292D32" stroke-width="1.5" stroke-linecap="round" stroke-linejoin="round"/>
<path d="M661.519 331.268V334.198C661.519 331.998 660.059 330.128 658.059 329.528C658.579 328.228 658.729 327.208 658.479 326.358C658.459 326.268 658.429 326.178 658.389 326.098C660.249 327.058 661.519 329.028 661.519 331.268Z" stroke="#292D32" stroke-width="1.5" stroke-linecap="round" stroke-linejoin="round"/>
<path d="M577.996 328.5H587.496" stroke="#292D32" stroke-width="1.5" stroke-miterlimit="10" stroke-linecap="round" stroke-linejoin="round"/>
<path d="M581.996 336.5H583.996" stroke="#292D32" stroke-width="1.5" stroke-miterlimit="10" stroke-linecap="round" stroke-linejoin="round"/>
<path d="M586.496 336.5H590.496" stroke="#292D32" stroke-width="1.5" stroke-miterlimit="10" stroke-linecap="round" stroke-linejoin="round"/>
<path d="M597.996 332.03V336.11C597.996 339.62 597.106 340.5 593.556 340.5H582.436C578.886 340.5 577.996 339.62 577.996 336.11V327.89C577.996 324.38 578.886 323.5 582.436 323.5H590.496" stroke="#292D32" stroke-width="1.5" stroke-linecap="round" stroke-linejoin="round"/>
<path d="M595.076 324.13L591.366 327.84C591.226 327.98 591.086 328.26 591.056 328.46L590.856 329.88C590.786 330.39 591.146 330.75 591.656 330.68L593.076 330.48C593.276 330.45 593.556 330.31 593.696 330.17L597.406 326.46C598.046 325.82 598.346 325.08 597.406 324.14C596.456 323.19 595.716 323.49 595.076 324.13Z" stroke="#292D32" stroke-width="1.5" stroke-miterlimit="10" stroke-linecap="round" stroke-linejoin="round"/>
<path d="M594.546 324.66C594.866 325.79 595.746 326.67 596.866 326.98" stroke="#292D32" stroke-width="1.5" stroke-miterlimit="10" stroke-linecap="round" stroke-linejoin="round"/>
<path d="M522.902 403.87H529.372C533.072 403.87 533.992 402.95 533.992 399.25C532.712 399.25 531.682 398.21 531.682 396.94C531.682 395.66 532.712 394.62 533.992 394.62V393.7C533.992 390 533.072 389.08 529.372 389.08H522.992V395.87" stroke="#292D32" stroke-width="1.5" stroke-linecap="round" stroke-linejoin="round"/>
<path d="M522.994 400.87V403.87H520.224C518.744 403.87 517.874 402.86 516.914 400.54L516.734 400.09C517.944 399.61 518.534 398.21 518.024 397C517.534 395.79 516.144 395.21 514.924 395.71L514.754 395.28C513.314 391.76 513.814 390.53 517.334 389.08L519.974 388L522.994 395.32V397.87" stroke="#292D32" stroke-width="1.5" stroke-linecap="round" stroke-linejoin="round"/>
<path d="M520.162 403.87H519.992" stroke="#292D32" stroke-width="1.5" stroke-linecap="round" stroke-linejoin="round"/>
<path d="M594.91 398.693C594.91 399.983 595.97 401.033 597.26 401.033C597.26 404.783 596.32 405.723 592.57 405.723H583.19C579.44 405.723 578.5 404.783 578.5 401.033V400.573C579.79 400.573 580.85 399.513 580.85 398.223C580.85 396.933 579.79 395.873 578.5 395.873V395.413C578.51 391.663 579.44 390.723 583.19 390.723H592.56C596.31 390.723 597.25 391.663 597.25 395.413V396.353C595.96 396.353 594.91 397.393 594.91 398.693Z" stroke="#292D32" stroke-width="1.5" stroke-linecap="round" stroke-linejoin="round"/>
<path d="M592.211 390.722H583.121L586.051 387.793C588.441 385.402 589.641 385.402 592.031 387.793L592.631 388.392C592.001 389.022 591.851 389.952 592.211 390.722Z" stroke="#292D32" stroke-width="1.5" stroke-linecap="round" stroke-linejoin="round"/>
<path d="M585.879 390.723L585.879 405.723" stroke="#292D32" stroke-width="1.5" stroke-linecap="round" stroke-linejoin="round" stroke-dasharray="5 5"/>
<path d="M659.5 396.5C659.5 395.12 660.62 394 662 394V393C662 389 661 388 657 388H647C643 388 642 389 642 393V393.5C643.38 393.5 644.5 394.62 644.5 396C644.5 397.38 643.38 398.5 642 398.5V399C642 403 643 404 647 404H657C661 404 662 403 662 399C660.62 399 659.5 397.88 659.5 396.5Z" stroke="#292D32" stroke-width="1.5" stroke-linecap="round" stroke-linejoin="round"/>
<path d="M649 398.75L655 392.75" stroke="#292D32" stroke-width="1.5" stroke-linecap="round" stroke-linejoin="round"/>
<path d="M654.995 398.75H655.003" stroke="#292D32" stroke-width="2" stroke-linecap="round" stroke-linejoin="round"/>
<path d="M648.995 393.25H649.003" stroke="#292D32" stroke-width="2" stroke-linecap="round" stroke-linejoin="round"/>
<path d="M452.17 271.3L456.7 275.83C458.56 277.69 461.58 277.69 463.45 275.83L467.84 271.44C469.7 269.58 469.7 266.56 467.84 264.69L463.3 260.17C462.35 259.22 461.04 258.71 459.7 258.78L454.7 259.02C452.7 259.11 451.11 260.7 451.01 262.69L450.77 267.69C450.71 269.04 451.22 270.35 452.17 271.3Z" stroke="#292D32" stroke-width="1.5" stroke-linecap="round" stroke-linejoin="round"/>
<path d="M457.5 268C458.881 268 460 266.881 460 265.5C460 264.119 458.881 263 457.5 263C456.119 263 455 264.119 455 265.5C455 266.881 456.119 268 457.5 268Z" stroke="#292D32" stroke-width="1.5" stroke-linecap="round"/>
<path d="M130 328.5H141.5" stroke="#292D32" stroke-width="1.5" stroke-miterlimit="10" stroke-linecap="round" stroke-linejoin="round"/>
<path d="M134 336.5H136" stroke="#292D32" stroke-width="1.5" stroke-miterlimit="10" stroke-linecap="round" stroke-linejoin="round"/>
<path d="M138.5 336.5H142.5" stroke="#292D32" stroke-width="1.5" stroke-miterlimit="10" stroke-linecap="round" stroke-linejoin="round"/>
<path d="M150 332.03V336.11C150 339.62 149.11 340.5 145.56 340.5H134.44C130.89 340.5 130 339.62 130 336.11V327.89C130 324.38 130.89 323.5 134.44 323.5H141.5" stroke="#292D32" stroke-width="1.5" stroke-linecap="round" stroke-linejoin="round"/>
<path d="M145.309 328.19L149.189 324.31" stroke="#292D32" stroke-width="1.5" stroke-linecap="round"/>
<path d="M149.189 328.19L145.309 324.31" stroke="#292D32" stroke-width="1.5" stroke-linecap="round"/>
<path d="M258 328.5H271.24" stroke="#292D32" stroke-width="1.5" stroke-miterlimit="10" stroke-linecap="round" stroke-linejoin="round"/>
<path d="M262 336.5H263.29" stroke="#292D32" stroke-width="1.5" stroke-miterlimit="10" stroke-linecap="round" stroke-linejoin="round"/>
<path d="M267 336.5H270.5" stroke="#292D32" stroke-width="1.5" stroke-miterlimit="10" stroke-linecap="round" stroke-linejoin="round"/>
<path d="M263.98 340.5H273.56C277.12 340.5 278 339.62 278 336.11V326.89" stroke="#292D32" stroke-width="1.5" stroke-linecap="round" stroke-linejoin="round"/>
<path d="M275.99 323.75C275.37 323.57 274.57 323.5 273.56 323.5H262.44C258.89 323.5 258 324.38 258 327.89V336.1C258 338.44 258.39 339.61 259.71 340.13" stroke="#292D32" stroke-width="1.5" stroke-linecap="round" stroke-linejoin="round"/>
<path d="M278 322L258 342" stroke="#292D32" stroke-width="1.5" stroke-linecap="round" stroke-linejoin="round"/>
<path d="M66 328.5H77.5" stroke="#292D32" stroke-width="1.5" stroke-miterlimit="10" stroke-linecap="round" stroke-linejoin="round"/>
<path d="M70 336.5H72" stroke="#292D32" stroke-width="1.5" stroke-miterlimit="10" stroke-linecap="round" stroke-linejoin="round"/>
<path d="M74.5 336.5H78.5" stroke="#292D32" stroke-width="1.5" stroke-miterlimit="10" stroke-linecap="round" stroke-linejoin="round"/>
<path d="M86 332.03V336.11C86 339.62 85.11 340.5 81.56 340.5H70.44C66.89 340.5 66 339.62 66 336.11V327.89C66 324.38 66.89 323.5 70.44 323.5H77.5" stroke="#292D32" stroke-width="1.5" stroke-linecap="round" stroke-linejoin="round"/>
<path d="M80.5 326.25H86" stroke="#292D32" stroke-width="1.5" stroke-linecap="round"/>
<path d="M83.25 329V323.5" stroke="#292D32" stroke-width="1.5" stroke-linecap="round"/>
<path d="M386 328.505H406" stroke="#292D32" stroke-width="1.5" stroke-miterlimit="10" stroke-linecap="round" stroke-linejoin="round"/>
<path d="M390 336.505H392" stroke="#292D32" stroke-width="1.5" stroke-miterlimit="10" stroke-linecap="round" stroke-linejoin="round"/>
<path d="M394.5 336.505H398.5" stroke="#292D32" stroke-width="1.5" stroke-miterlimit="10" stroke-linecap="round" stroke-linejoin="round"/>
<path d="M390.44 323.505H401.55C405.11 323.505 406 324.385 406 327.895V336.105C406 339.615 405.11 340.495 401.56 340.495H390.44C386.89 340.505 386 339.625 386 336.115V327.895C386 324.385 386.89 323.505 390.44 323.505Z" stroke="#292D32" stroke-width="1.5" stroke-linecap="round" stroke-linejoin="round"/>
<path d="M194 328.5H205.5" stroke="#292D32" stroke-width="1.5" stroke-miterlimit="10" stroke-linecap="round" stroke-linejoin="round"/>
<path d="M198 336.5H200" stroke="#292D32" stroke-width="1.5" stroke-miterlimit="10" stroke-linecap="round" stroke-linejoin="round"/>
<path d="M202.5 336.5H206.5" stroke="#292D32" stroke-width="1.5" stroke-miterlimit="10" stroke-linecap="round" stroke-linejoin="round"/>
<path d="M214 331.03V336.11C214 339.62 213.11 340.5 209.56 340.5H198.44C194.89 340.5 194 339.62 194 336.11V327.89C194 324.38 194.89 323.5 198.44 323.5H205.5" stroke="#292D32" stroke-width="1.5" stroke-linecap="round" stroke-linejoin="round"/>
<path d="M208.5 326L210 327.5L214 323.5" stroke="#292D32" stroke-width="1.5" stroke-linecap="round" stroke-linejoin="round"/>
<path d="M323.93 335.879L335.88 323.929" stroke="#292D32" stroke-width="1.5" stroke-miterlimit="10" stroke-linecap="round" stroke-linejoin="round"/>
<path d="M331.102 338.279L332.302 337.079" stroke="#292D32" stroke-width="1.5" stroke-miterlimit="10" stroke-linecap="round" stroke-linejoin="round"/>
<path d="M333.793 335.589L336.183 333.199" stroke="#292D32" stroke-width="1.5" stroke-miterlimit="10" stroke-linecap="round" stroke-linejoin="round"/>
<path d="M323.601 330.239L330.241 323.599C332.361 321.479 333.421 321.469 335.521 323.569L340.431 328.479C342.531 330.579 342.521 331.639 340.401 333.759L333.761 340.399C331.641 342.519 330.581 342.529 328.481 340.429L323.571 335.519C321.471 333.419 321.471 332.369 323.601 330.239Z" stroke="#292D32" stroke-width="1.5" stroke-linecap="round" stroke-linejoin="round"/>
<path d="M322 341.999H342" stroke="#292D32" stroke-width="1.5" stroke-linecap="round" stroke-linejoin="round"/>
<path d="M450 328.5H462.5" stroke="#292D32" stroke-width="1.5" stroke-miterlimit="10" stroke-linecap="round" stroke-linejoin="round"/>
<path d="M454 336.5H456" stroke="#292D32" stroke-width="1.5" stroke-miterlimit="10" stroke-linecap="round" stroke-linejoin="round"/>
<path d="M458.5 336.5H462.5" stroke="#292D32" stroke-width="1.5" stroke-miterlimit="10" stroke-linecap="round" stroke-linejoin="round"/>
<path d="M470 334.03V336.11C470 339.62 469.11 340.5 465.56 340.5H454.44C450.89 340.5 450 339.62 450 336.11V327.89C450 324.38 450.89 323.5 454.44 323.5H462.5" stroke="#292D32" stroke-width="1.5" stroke-linecap="round" stroke-linejoin="round"/>
<path d="M468 323.5V329.5L470 327.5" stroke="#292D32" stroke-width="1.5" stroke-linecap="round" stroke-linejoin="round"/>
<path d="M468 329.5L466 327.5" stroke="#292D32" stroke-width="1.5" stroke-linecap="round" stroke-linejoin="round"/>
<path d="M72.6719 398.33C72.6719 399.62 73.6619 400.66 74.8919 400.66H77.4019C78.4719 400.66 79.3419 399.75 79.3419 398.63C79.3419 397.41 78.8119 396.98 78.0219 396.7L73.9919 395.3C73.2019 395.02 72.6719 394.59 72.6719 393.37C72.6719 392.25 73.5419 391.34 74.6119 391.34H77.1219C78.3519 391.34 79.3419 392.38 79.3419 393.67" stroke="#292D32" stroke-width="1.5" stroke-linecap="round" stroke-linejoin="round"/>
<path d="M76 390V402" stroke="#292D32" stroke-width="1.5" stroke-linecap="round" stroke-linejoin="round"/>
<path d="M79 406H73C68 406 66 404 66 399V393C66 388 68 386 73 386H79C84 386 86 388 86 393V399C86 404 84 406 79 406Z" stroke="#292D32" stroke-width="1.5" stroke-linecap="round" stroke-linejoin="round"/>
<path d="M198.73 403.7C199.55 402.82 200.8 402.89 201.52 403.85L202.53 405.2C203.34 406.27 204.65 406.27 205.46 405.2L206.47 403.85C207.19 402.89 208.44 402.82 209.26 403.7C211.04 405.6 212.49 404.97 212.49 402.31V391.04C212.5 387.01 211.56 386 207.78 386H200.22C196.44 386 195.5 387.01 195.5 391.04V402.3C195.5 404.97 196.96 405.59 198.73 403.7Z" stroke="#292D32" stroke-width="1.5" stroke-linecap="round" stroke-linejoin="round"/>
<path d="M200 391H208" stroke="#292D32" stroke-width="1.5" stroke-linecap="round" stroke-linejoin="round"/>
<path d="M201 395H207" stroke="#292D32" stroke-width="1.5" stroke-linecap="round" stroke-linejoin="round"/>
<path d="M14.2617 399.438H9.26172" stroke="#292D32" stroke-width="1.5" stroke-miterlimit="10" stroke-linecap="round" stroke-linejoin="round"/>
<path d="M11.7617 396.998V401.998" stroke="#292D32" stroke-width="1.5" stroke-miterlimit="10" stroke-linecap="round" stroke-linejoin="round"/>
<path d="M12.66 386.518L12.63 386.588L9.72996 393.318H6.87996C6.19996 393.318 5.54996 393.458 4.95996 393.708L6.70996 389.528L6.74996 389.428L6.81996 389.268C6.83996 389.208 6.85996 389.148 6.88996 389.098C8.19996 386.068 9.67996 385.378 12.66 386.518Z" stroke="#292D32" stroke-width="1.5" stroke-linecap="round" stroke-linejoin="round"/>
<path d="M18.05 393.518C17.6 393.378 17.12 393.318 16.64 393.318H9.72998L12.63 386.588L12.66 386.518C12.81 386.568 12.95 386.638 13.1 386.698L15.31 387.628C16.54 388.138 17.4 388.668 17.92 389.308C18.02 389.428 18.1 389.538 18.17 389.668C18.26 389.808 18.33 389.948 18.37 390.098C18.41 390.188 18.44 390.278 18.46 390.358C18.73 391.198 18.57 392.228 18.05 393.518Z" stroke="#292D32" stroke-width="1.5" stroke-linecap="round" stroke-linejoin="round"/>
<path d="M21.5217 398.198V400.148C21.5217 400.348 21.5117 400.548 21.5017 400.748C21.3117 404.238 19.3617 405.998 15.6617 405.998H7.86172C7.62172 405.998 7.38172 405.978 7.15172 405.948C3.97172 405.738 2.27172 404.038 2.06172 400.858C2.03172 400.628 2.01172 400.388 2.01172 400.148V398.198C2.01172 396.188 3.23172 394.458 4.97172 393.708C5.57172 393.458 6.21172 393.318 6.89172 393.318H16.6517C17.1417 393.318 17.6217 393.388 18.0617 393.518C20.0517 394.128 21.5217 395.988 21.5217 398.198Z" stroke="#292D32" stroke-width="1.5" stroke-linecap="round" stroke-linejoin="round"/>
<path d="M6.71 389.528L4.96 393.708C3.22 394.458 2 396.188 2 398.198V395.268C2 392.428 4.02 390.058 6.71 389.528Z" stroke="#292D32" stroke-width="1.5" stroke-linecap="round" stroke-linejoin="round"/>
<path d="M21.5186 395.268V398.198C21.5186 395.998 20.0586 394.128 18.0586 393.528C18.5786 392.228 18.7286 391.208 18.4786 390.358C18.4586 390.268 18.4286 390.178 18.3886 390.098C20.2486 391.058 21.5186 393.028 21.5186 395.268Z" stroke="#292D32" stroke-width="1.5" stroke-linecap="round" stroke-linejoin="round"/>
<path d="M12.66 322.518L12.63 322.588L9.72996 329.318H6.87996C6.19996 329.318 5.54996 329.458 4.95996 329.708L6.70996 325.528L6.74996 325.428L6.81996 325.268C6.83996 325.208 6.85996 325.148 6.88996 325.098C8.19996 322.068 9.67996 321.378 12.66 322.518Z" stroke="#292D32" stroke-width="1.5" stroke-linecap="round" stroke-linejoin="round"/>
<path d="M18.05 329.518C17.6 329.378 17.12 329.318 16.64 329.318H9.72998L12.63 322.588L12.66 322.518C12.81 322.568 12.95 322.638 13.1 322.698L15.31 323.628C16.54 324.138 17.4 324.668 17.92 325.308C18.02 325.428 18.1 325.538 18.17 325.668C18.26 325.808 18.33 325.948 18.37 326.098C18.41 326.188 18.44 326.278 18.46 326.358C18.73 327.198 18.57 328.228 18.05 329.518Z" stroke="#292D32" stroke-width="1.5" stroke-linecap="round" stroke-linejoin="round"/>
<path d="M21.5217 334.198V336.148C21.5217 336.348 21.5117 336.548 21.5017 336.748C21.3117 340.238 19.3617 341.998 15.6617 341.998H7.86172C7.62172 341.998 7.38172 341.978 7.15172 341.948C3.97172 341.738 2.27172 340.038 2.06172 336.858C2.03172 336.628 2.01172 336.388 2.01172 336.148V334.198C2.01172 332.188 3.23172 330.458 4.97172 329.708C5.57172 329.458 6.21172 329.318 6.89172 329.318H16.6517C17.1417 329.318 17.6217 329.388 18.0617 329.518C20.0517 330.128 21.5217 331.988 21.5217 334.198Z" stroke="#292D32" stroke-width="1.5" stroke-linecap="round" stroke-linejoin="round"/>
<path d="M6.71 325.528L4.96 329.708C3.22 330.458 2 332.188 2 334.198V331.268C2 328.428 4.02 326.058 6.71 325.528Z" stroke="#292D32" stroke-width="1.5" stroke-linecap="round" stroke-linejoin="round"/>
<path d="M21.5186 331.268V334.198C21.5186 331.998 20.0586 330.128 18.0586 329.528C18.5786 328.228 18.7286 327.208 18.4786 326.358C18.4586 326.268 18.4286 326.178 18.3886 326.098C20.2486 327.058 21.5186 329.028 21.5186 331.268Z" stroke="#292D32" stroke-width="1.5" stroke-linecap="round" stroke-linejoin="round"/>
<path d="M136.672 398.33C136.672 399.62 137.662 400.66 138.892 400.66H141.402C142.472 400.66 143.342 399.75 143.342 398.63C143.342 397.41 142.812 396.98 142.022 396.7L137.992 395.3C137.202 395.02 136.672 394.59 136.672 393.37C136.672 392.25 137.542 391.34 138.612 391.34H141.122C142.352 391.34 143.342 392.38 143.342 393.67" stroke="#292D32" stroke-width="1.5" stroke-linecap="round" stroke-linejoin="round"/>
<path d="M140 390V402" stroke="#292D32" stroke-width="1.5" stroke-linecap="round" stroke-linejoin="round"/>
<path d="M140 406C145.523 406 150 401.523 150 396C150 390.477 145.523 386 140 386C134.477 386 130 390.477 130 396C130 401.523 134.477 406 140 406Z" stroke="#292D32" stroke-width="1.5" stroke-linecap="round" stroke-linejoin="round"/>
<path d="M262.73 403.7C263.55 402.82 264.8 402.89 265.52 403.85L266.53 405.2C267.34 406.27 268.65 406.27 269.46 405.2L270.47 403.85C271.19 402.89 272.44 402.82 273.26 403.7C275.04 405.6 276.49 404.97 276.49 402.31V391.04C276.5 387.01 275.56 386 271.78 386H264.22C260.44 386 259.5 387.01 259.5 391.04V402.3C259.5 404.97 260.96 405.59 262.73 403.7Z" stroke="#292D32" stroke-width="1.5" stroke-linecap="round" stroke-linejoin="round"/>
<path d="M264.096 395H264.105" stroke="#292D32" stroke-width="2" stroke-linecap="round" stroke-linejoin="round"/>
<path d="M266.898 395H272.398" stroke="#292D32" stroke-width="1.5" stroke-linecap="round" stroke-linejoin="round"/>
<path d="M264.096 391H264.105" stroke="#292D32" stroke-width="2" stroke-linecap="round" stroke-linejoin="round"/>
<path d="M266.898 391H272.398" stroke="#292D32" stroke-width="1.5" stroke-linecap="round" stroke-linejoin="round"/>
<path d="M326.73 403.7C327.55 402.82 328.8 402.89 329.52 403.85L330.53 405.2C331.34 406.27 332.65 406.27 333.46 405.2L334.47 403.85C335.19 402.89 336.44 402.82 337.26 403.7C339.04 405.6 340.49 404.97 340.49 402.31V391.04C340.5 387.01 339.56 386 335.78 386H328.22C324.44 386 323.5 387.01 323.5 391.04V402.3C323.5 404.97 324.96 405.59 326.73 403.7Z" stroke="#292D32" stroke-width="1.5" stroke-linecap="round" stroke-linejoin="round"/>
<path d="M329 397L335 391" stroke="#292D32" stroke-width="1.5" stroke-linecap="round" stroke-linejoin="round"/>
<path d="M334.995 397H335.003" stroke="#292D32" stroke-width="2" stroke-linecap="round" stroke-linejoin="round"/>
<path d="M328.995 391.5H329.003" stroke="#292D32" stroke-width="2" stroke-linecap="round" stroke-linejoin="round"/>
<path d="M403.5 396.5C403.5 395.12 404.62 394 406 394V393C406 389 405 388 401 388H391C387 388 386 389 386 393V393.5C387.38 393.5 388.5 394.62 388.5 396C388.5 397.38 387.38 398.5 386 398.5V399C386 403 387 404 391 404H401C405 404 406 403 406 399C404.62 399 403.5 397.88 403.5 396.5Z" stroke="#292D32" stroke-width="1.5" stroke-linecap="round" stroke-linejoin="round"/>
<path d="M394 388L394 404" stroke="#292D32" stroke-width="1.5" stroke-linecap="round" stroke-linejoin="round" stroke-dasharray="5 5"/>
<path d="M464.995 388H454.995C451.165 388 450.095 388.92 450.005 392.5C451.935 392.5 453.495 394.07 453.495 396C453.495 397.93 451.935 399.49 450.005 399.5C450.095 403.08 451.165 404 454.995 404H464.995C468.995 404 469.995 403 469.995 399V393C469.995 389 468.995 388 464.995 388Z" stroke="#292D32" stroke-width="1.5" stroke-linecap="round" stroke-linejoin="round"/>
<path d="M456.993 388V391.5" stroke="#292D32" stroke-width="1.5" stroke-linecap="round" stroke-linejoin="round"/>
<path d="M456.993 400.5V404" stroke="#292D32" stroke-width="1.5" stroke-linecap="round" stroke-linejoin="round"/>
<path d="M463.025 393.33L463.645 394.58C463.705 394.7 463.825 394.79 463.955 394.81L465.335 395.01C465.675 395.06 465.815 395.48 465.565 395.72L464.565 396.69C464.465 396.78 464.425 396.92 464.445 397.06L464.685 398.43C464.745 398.77 464.385 399.03 464.085 398.87L462.855 398.22C462.735 398.16 462.585 398.16 462.465 398.22L461.235 398.87C460.925 399.03 460.575 398.77 460.635 398.43L460.875 397.06C460.895 396.92 460.855 396.79 460.755 396.69L459.765 395.72C459.515 395.48 459.655 395.06 459.995 395.01L461.375 394.81C461.515 394.79 461.625 394.71 461.685 394.58L462.295 393.33C462.435 393.02 462.875 393.02 463.025 393.33Z" stroke="#292D32" stroke-width="1.5" stroke-linecap="round" stroke-linejoin="round"/>
<path d="M14.4209 453.64H21.7009" stroke="#292D32" stroke-width="1.5" stroke-linecap="round" stroke-linejoin="round"/>
<path d="M2.2998 453.64H9.5798" stroke="#292D32" stroke-width="1.5" stroke-linecap="round" stroke-linejoin="round"/>
<path d="M14.4209 463.33H21.7009" stroke="#292D32" stroke-width="1.5" stroke-linecap="round" stroke-linejoin="round"/>
<path d="M14.4209 469.39H21.7009" stroke="#292D32" stroke-width="1.5" stroke-linecap="round" stroke-linejoin="round"/>
<path d="M18.0894 457.27V450" stroke="#292D32" stroke-width="1.5" stroke-linecap="round" stroke-linejoin="round"/>
<path d="M2.2998 470L9.5798 462.73" stroke="#292D32" stroke-width="1.5" stroke-linecap="round" stroke-linejoin="round"/>
<path d="M9.5798 470L2.2998 462.73" stroke="#292D32" stroke-width="1.5" stroke-linecap="round" stroke-linejoin="round"/>
</svg>
