<svg width="528" height="24" viewBox="0 0 528 24" fill="none" xmlns="http://www.w3.org/2000/svg">
<path d="M12 6.43994V9.76994" stroke="#292D32" stroke-width="1.5" stroke-miterlimit="10" stroke-linecap="round"/>
<path d="M12.0199 2C8.3399 2 5.3599 4.98 5.3599 8.66V10.76C5.3599 11.44 5.0799 12.46 4.7299 13.04L3.4599 15.16C2.6799 16.47 3.2199 17.93 4.6599 18.41C9.4399 20 14.6099 20 19.3899 18.41C20.7399 17.96 21.3199 16.38 20.5899 15.16L19.3199 13.04C18.9699 12.46 18.6899 11.43 18.6899 10.76V8.66C18.6799 5 15.6799 2 12.0199 2Z" stroke="#292D32" stroke-width="1.5" stroke-miterlimit="10" stroke-linecap="round"/>
<path d="M15.3299 18.8198C15.3299 20.6498 13.8299 22.1498 11.9999 22.1498C11.0899 22.1498 10.2499 21.7698 9.64992 21.1698C9.04992 20.5698 8.66992 19.7298 8.66992 18.8198" stroke="#292D32" stroke-width="1.5" stroke-miterlimit="10"/>
<path d="M75.0201 2.91016C71.7101 2.91016 69.0201 5.60016 69.0201 8.91016V11.8002C69.0201 12.4102 68.7601 13.3402 68.4501 13.8602L67.3001 15.7702C66.5901 16.9502 67.0801 18.2602 68.3801 18.7002C72.6901 20.1402 77.3401 20.1402 81.6501 18.7002C82.8601 18.3002 83.3901 16.8702 82.7301 15.7702L81.5801 13.8602C81.2801 13.3402 81.0201 12.4102 81.0201 11.8002V8.91016C81.0201 5.61016 78.3201 2.91016 75.0201 2.91016Z" stroke="#292D32" stroke-width="1.5" stroke-miterlimit="10" stroke-linecap="round"/>
<path d="M76.8699 3.19994C76.5599 3.10994 76.2399 3.03994 75.9099 2.99994C74.9499 2.87994 74.0299 2.94994 73.1699 3.19994C73.4599 2.45994 74.1799 1.93994 75.0199 1.93994C75.8599 1.93994 76.5799 2.45994 76.8699 3.19994Z" stroke="#292D32" stroke-width="1.5" stroke-miterlimit="10" stroke-linecap="round" stroke-linejoin="round"/>
<path d="M78.02 19.0601C78.02 20.7101 76.67 22.0601 75.02 22.0601C74.2 22.0601 73.44 21.7201 72.9 21.1801C72.36 20.6401 72.02 19.8801 72.02 19.0601" stroke="#292D32" stroke-width="1.5" stroke-miterlimit="10"/>
<path d="M271 8C272.657 8 274 6.65685 274 5C274 3.34315 272.657 2 271 2C269.343 2 268 3.34315 268 5C268 6.65685 269.343 8 271 8Z" stroke="#292D32" stroke-width="1.5" stroke-linecap="round" stroke-linejoin="round"/>
<path d="M259 13H264" stroke="#292D32" stroke-width="1.5" stroke-linecap="round" stroke-linejoin="round"/>
<path d="M259 17H268" stroke="#292D32" stroke-width="1.5" stroke-linecap="round" stroke-linejoin="round"/>
<path d="M266 2H261C256 2 254 4 254 9V15C254 20 256 22 261 22H267C272 22 274 20 274 15V10" stroke="#292D32" stroke-width="1.5" stroke-linecap="round" stroke-linejoin="round"/>
<path d="M145 8C146.657 8 148 6.65685 148 5C148 3.34315 146.657 2 145 2C143.343 2 142 3.34315 142 5C142 6.65685 143.343 8 145 8Z" stroke="#292D32" stroke-width="1.5" stroke-linecap="round" stroke-linejoin="round"/>
<path d="M140 2H135C130 2 128 4 128 9V15C128 20 130 22 135 22H141C146 22 148 20 148 15V10" stroke="#292D32" stroke-width="1.5" stroke-linecap="round" stroke-linejoin="round"/>
<path d="M208 8C209.657 8 211 6.65685 211 5C211 3.34315 209.657 2 208 2C206.343 2 205 3.34315 205 5C205 6.65685 206.343 8 208 8Z" stroke="#292D32" stroke-width="1.5" stroke-linecap="round" stroke-linejoin="round"/>
<path d="M203 2H198C193 2 191 4 191 9V15C191 20 193 22 198 22H204C209 22 211 20 211 15V10" stroke="#292D32" stroke-width="1.5" stroke-linecap="round" stroke-linejoin="round"/>
<path d="M195.81 14.9299C195.46 13.8299 195.87 12.4599 197.03 12.0899C197.64 11.8899 198.39 12.0599 198.82 12.6499C199.22 12.0399 200 11.8999 200.6 12.0899C201.76 12.4599 202.17 13.8299 201.82 14.9299C201.27 16.6799 199.35 17.5899 198.82 17.5899C198.28 17.5799 196.38 16.6899 195.81 14.9299Z" stroke="#292D32" stroke-width="1.5" stroke-linecap="round" stroke-linejoin="round"/>
<path d="M334 8C335.657 8 337 6.65685 337 5C337 3.34315 335.657 2 334 2C332.343 2 331 3.34315 331 5C331 6.65685 332.343 8 334 8Z" stroke="#292D32" stroke-width="1.5" stroke-linecap="round" stroke-linejoin="round"/>
<path d="M329.02 2.2C328.36 2.07 327.69 2 327 2C321.48 2 317 6.48 317 12C317 17.52 321.48 22 327 22C332.52 22 337 17.52 337 12C337 11.32 336.93 10.65 336.8 10.01" stroke="#292D32" stroke-width="1.5" stroke-linecap="round" stroke-linejoin="round"/>
<path d="M524.03 2.47998L508.18 18.33" stroke="#292D32" stroke-width="1.5" stroke-linecap="round" stroke-linejoin="round"/>
<path d="M509.25 13.0002C508.83 12.0302 508.58 10.9802 508.58 9.90017C508.58 4.99017 512.8 1.12017 517.6 2.17017C519.06 2.49017 520.36 3.27017 521.36 4.35017" stroke="#292D32" stroke-width="1.5" stroke-linecap="round" stroke-linejoin="round"/>
<path d="M523.06 7.2998C524.28 11.1798 522.31 15.0798 519.52 16.8698V18.0298C519.52 18.3198 519.62 18.9898 518.62 18.9898H513.42C512.39 18.9898 512.52 18.5598 512.52 18.0298V16.8698C512.04 16.5698 511.59 16.1998 511.16 15.7698" stroke="#292D32" stroke-width="1.5" stroke-linecap="round" stroke-linejoin="round"/>
<path d="M512.5 22.0002C514.79 21.3502 517.21 21.3502 519.5 22.0002" stroke="#292D32" stroke-width="1.5" stroke-linecap="round" stroke-linejoin="round"/>
<path d="M386.3 18.0402V16.8802C384 15.4902 382.11 12.7802 382.11 9.90018C382.11 4.95018 386.66 1.07018 391.8 2.19018C394.06 2.69018 396.04 4.19018 397.07 6.26018C399.16 10.4602 396.96 14.9202 393.73 16.8702V18.0302C393.73 18.3202 393.84 18.9902 392.77 18.9902H387.26C386.16 19.0002 386.3 18.5702 386.3 18.0402Z" stroke="#292D32" stroke-width="1.5" stroke-linecap="round" stroke-linejoin="round"/>
<path d="M386.5 22.0002C388.79 21.3502 391.21 21.3502 393.5 22.0002" stroke="#292D32" stroke-width="1.5" stroke-linecap="round" stroke-linejoin="round"/>
<path d="M453 7.89014L451.93 9.75014C451.69 10.1601 451.89 10.5001 452.36 10.5001H453.63C454.11 10.5001 454.3 10.8401 454.06 11.2501L453 13.1101" stroke="#292D32" stroke-width="1.5" stroke-linecap="round" stroke-linejoin="round"/>
<path d="M449.3 18.0402V16.8802C447 15.4902 445.11 12.7802 445.11 9.90018C445.11 4.95018 449.66 1.07018 454.8 2.19018C457.06 2.69018 459.04 4.19018 460.07 6.26018C462.16 10.4602 459.96 14.9202 456.73 16.8702V18.0302C456.73 18.3202 456.84 18.9902 455.77 18.9902H450.26C449.16 19.0002 449.3 18.5702 449.3 18.0402Z" stroke="#292D32" stroke-width="1.5" stroke-linecap="round" stroke-linejoin="round"/>
<path d="M449.5 22.0002C451.79 21.3502 454.21 21.3502 456.5 22.0002" stroke="#292D32" stroke-width="1.5" stroke-linecap="round" stroke-linejoin="round"/>
</svg>
