<svg width="600" height="24" viewBox="0 0 600 24" fill="none" xmlns="http://www.w3.org/2000/svg">
<path d="M139 20C143.971 20 148 15.9706 148 11C148 6.02944 143.971 2 139 2C134.029 2 130 6.02944 130 11C130 15.9706 134.029 20 139 20Z" stroke="#292D32" stroke-width="1.5" stroke-linecap="round" stroke-linejoin="round"/>
<path d="M136.5 11H141.5" stroke="#292D32" stroke-width="1.5" stroke-linecap="round" stroke-linejoin="round"/>
<path d="M146.93 20.6898C147.46 22.2898 148.67 22.4498 149.6 21.0498C150.45 19.7698 149.89 18.7198 148.35 18.7198C147.21 18.7098 146.57 19.5998 146.93 20.6898Z" stroke="#292D32" stroke-width="1.5" stroke-linecap="round" stroke-linejoin="round"/>
<path d="M393.2 11.7H398.2" stroke="#292D32" stroke-width="1.5" stroke-linecap="round" stroke-linejoin="round"/>
<path d="M395.7 14.2V9.19995" stroke="#292D32" stroke-width="1.5" stroke-linecap="round" stroke-linejoin="round"/>
<path d="M395.5 21C400.747 21 405 16.7467 405 11.5C405 6.25329 400.747 2 395.5 2C390.253 2 386 6.25329 386 11.5C386 16.7467 390.253 21 395.5 21Z" stroke="#292D32" stroke-width="1.5" stroke-linecap="round" stroke-linejoin="round"/>
<path d="M406 22L404 20" stroke="#292D32" stroke-width="1.5" stroke-linecap="round" stroke-linejoin="round"/>
<path d="M212 11C212 15.97 207.97 20 203 20C198.03 20 194 15.97 194 11C194 6.03 198.03 2 203 2" stroke="#292D32" stroke-width="1.5" stroke-linecap="round" stroke-linejoin="round"/>
<path d="M205.5 6.13008C205.15 5.03008 205.56 3.66008 206.72 3.29008C207.33 3.09008 208.08 3.26008 208.51 3.85008C208.91 3.24008 209.69 3.10008 210.29 3.29008C211.45 3.66008 211.86 5.03008 211.51 6.13008C210.96 7.88008 209.04 8.79008 208.51 8.79008C207.97 8.79008 206.07 7.90008 205.5 6.13008Z" stroke="#292D32" stroke-width="1.5" stroke-linecap="round" stroke-linejoin="round"/>
<path d="M210.93 20.6898C211.46 22.2898 212.67 22.4498 213.6 21.0498C214.45 19.7698 213.89 18.7198 212.35 18.7198C211.21 18.7098 210.57 19.5998 210.93 20.6898Z" stroke="#292D32" stroke-width="1.5" stroke-linecap="round" stroke-linejoin="round"/>
<path d="M11 20C15.9706 20 20 15.9706 20 11C20 6.02944 15.9706 2 11 2C6.02944 2 2 6.02944 2 11C2 15.9706 6.02944 20 11 20Z" stroke="#292D32" stroke-width="1.5" stroke-linecap="round" stroke-linejoin="round"/>
<path d="M18.9299 20.6898C19.4599 22.2898 20.6699 22.4498 21.5999 21.0498C22.4499 19.7698 21.8899 18.7198 20.3499 18.7198C19.2099 18.7098 18.5699 19.5998 18.9299 20.6898Z" stroke="#292D32" stroke-width="1.5" stroke-linecap="round" stroke-linejoin="round"/>
<path d="M75 20C79.9706 20 84 15.9706 84 11C84 6.02944 79.9706 2 75 2C70.0294 2 66 6.02944 66 11C66 15.9706 70.0294 20 75 20Z" stroke="#292D32" stroke-width="1.5" stroke-linecap="round" stroke-linejoin="round"/>
<path d="M72.5 11H77.5" stroke="#292D32" stroke-width="1.5" stroke-linecap="round" stroke-linejoin="round"/>
<path d="M75 13.5V8.5" stroke="#292D32" stroke-width="1.5" stroke-linecap="round" stroke-linejoin="round"/>
<path d="M82.9299 20.6898C83.4599 22.2898 84.6699 22.4498 85.5999 21.0498C86.4499 19.7698 85.8899 18.7198 84.3499 18.7198C83.2099 18.7098 82.5699 19.5998 82.9299 20.6898Z" stroke="#292D32" stroke-width="1.5" stroke-linecap="round" stroke-linejoin="round"/>
<path d="M590 5H596" stroke="#292D32" stroke-width="1.5" stroke-linecap="round" stroke-linejoin="round"/>
<path d="M590 8H593" stroke="#292D32" stroke-width="1.5" stroke-linecap="round" stroke-linejoin="round"/>
<path d="M597 11.5C597 16.75 592.75 21 587.5 21C582.25 21 578 16.75 578 11.5C578 6.25 582.25 2 587.5 2" stroke="#292D32" stroke-width="1.5" stroke-linecap="round" stroke-linejoin="round"/>
<path d="M598 22L596 20" stroke="#292D32" stroke-width="1.5" stroke-linecap="round" stroke-linejoin="round"/>
<path d="M457 11.7H462" stroke="#292D32" stroke-width="1.5" stroke-linecap="round" stroke-linejoin="round"/>
<path d="M459.5 21C464.747 21 469 16.7467 469 11.5C469 6.25329 464.747 2 459.5 2C454.253 2 450 6.25329 450 11.5C450 16.7467 454.253 21 459.5 21Z" stroke="#292D32" stroke-width="1.5" stroke-linecap="round" stroke-linejoin="round"/>
<path d="M470 22L468 20" stroke="#292D32" stroke-width="1.5" stroke-linecap="round" stroke-linejoin="round"/>
<path d="M533 11.5C533 16.75 528.75 21 523.5 21C518.25 21 514 16.75 514 11.5C514 6.25 518.25 2 523.5 2" stroke="#292D32" stroke-width="1.5" stroke-linecap="round" stroke-linejoin="round"/>
<path d="M534 22L532 20" stroke="#292D32" stroke-width="1.5" stroke-linecap="round" stroke-linejoin="round"/>
<path d="M526.5 6.13008C526.15 5.03008 526.56 3.66008 527.72 3.29008C528.33 3.09008 529.08 3.26008 529.51 3.85008C529.91 3.24008 530.69 3.10008 531.29 3.29008C532.45 3.66008 532.86 5.03008 532.51 6.13008C531.96 7.88008 530.04 8.79008 529.51 8.79008C528.97 8.79008 527.07 7.90008 526.5 6.13008Z" stroke="#292D32" stroke-width="1.5" stroke-linecap="round" stroke-linejoin="round"/>
<path d="M276 11C276 15.97 271.97 20 267 20C262.03 20 258 15.97 258 11C258 6.03 262.03 2 267 2" stroke="#292D32" stroke-width="1.5" stroke-linecap="round" stroke-linejoin="round"/>
<path d="M274.93 20.6898C275.46 22.2898 276.67 22.4498 277.6 21.0498C278.45 19.7698 277.89 18.7198 276.35 18.7198C275.21 18.7098 274.57 19.5998 274.93 20.6898Z" stroke="#292D32" stroke-width="1.5" stroke-linecap="round" stroke-linejoin="round"/>
<path d="M270 5H276" stroke="#292D32" stroke-width="1.5" stroke-linecap="round" stroke-linejoin="round"/>
<path d="M270 8H273" stroke="#292D32" stroke-width="1.5" stroke-linecap="round" stroke-linejoin="round"/>
<path d="M331.5 21C336.747 21 341 16.7467 341 11.5C341 6.25329 336.747 2 331.5 2C326.253 2 322 6.25329 322 11.5C322 16.7467 326.253 21 331.5 21Z" stroke="#292D32" stroke-width="1.5" stroke-linecap="round" stroke-linejoin="round"/>
<path d="M342 22L340 20" stroke="#292D32" stroke-width="1.5" stroke-linecap="round" stroke-linejoin="round"/>
</svg>
