<svg width="664" height="152" viewBox="0 0 664 152" fill="none" xmlns="http://www.w3.org/2000/svg">
<path d="M460 78.88C459.09 78.88 458.35 78.14 458.35 77.23V74.76C458.35 73.85 459.09 73.11 460 73.11C460.91 73.11 461.65 73.85 461.65 74.76V77.23C461.65 78.14 460.91 78.88 460 78.88Z" stroke="#292D32" stroke-width="1.5" stroke-linecap="round"/>
<path d="M464.98 77.47C464.78 80.05 462.62 82.07 460 82.07C457.24 82.07 455 79.83 455 77.07V74.93C455 72.17 457.24 69.93 460 69.93C462.59 69.93 464.72 71.9 464.97 74.42" stroke="#292D32" stroke-width="1.5" stroke-linecap="round"/>
<path d="M463 66H465C468 66 470 68 470 71V73" stroke="#292D32" stroke-width="1.5" stroke-miterlimit="10" stroke-linecap="round" stroke-linejoin="round"/>
<path d="M450 73V71C450 68 452 66 455 66H457" stroke="#292D32" stroke-width="1.5" stroke-miterlimit="10" stroke-linecap="round" stroke-linejoin="round"/>
<path d="M463 86H465C468 86 470 84 470 81V79" stroke="#292D32" stroke-width="1.5" stroke-miterlimit="10" stroke-linecap="round" stroke-linejoin="round"/>
<path d="M450 79V81C450 84 452 86 455 86H457" stroke="#292D32" stroke-width="1.5" stroke-miterlimit="10" stroke-linecap="round" stroke-linejoin="round"/>
<path d="M524 86C529.523 86 534 81.5228 534 76C534 70.4772 529.523 66 524 66C518.477 66 514 70.4772 514 76C514 81.5228 518.477 86 524 86Z" stroke="#292D32" stroke-width="1.5" stroke-miterlimit="10" stroke-linecap="round" stroke-linejoin="round"/>
<path d="M524 78.88C523.09 78.88 522.35 78.14 522.35 77.23V74.76C522.35 73.85 523.09 73.11 524 73.11C524.91 73.11 525.65 73.85 525.65 74.76V77.23C525.65 78.14 524.91 78.88 524 78.88Z" stroke="#292D32" stroke-width="1.5" stroke-linecap="round"/>
<path d="M528.98 77.47C528.78 80.05 526.62 82.07 524 82.07C521.24 82.07 519 79.83 519 77.07V74.93C519 72.17 521.24 69.93 524 69.93C526.59 69.93 528.72 71.9 528.97 74.42" stroke="#292D32" stroke-width="1.5" stroke-linecap="round"/>
<path d="M578 73V71C578 68 580 66 583 66H593C596 66 598 68 598 71V73" stroke="#292D32" stroke-width="1.5" stroke-miterlimit="10" stroke-linecap="round" stroke-linejoin="round"/>
<path d="M578 79V81C578 84 580 86 583 86H593C596 86 598 84 598 81V79" stroke="#292D32" stroke-width="1.5" stroke-miterlimit="10" stroke-linecap="round" stroke-linejoin="round"/>
<path d="M578 76H598" stroke="#292D32" stroke-width="1.5" stroke-miterlimit="10" stroke-linecap="round" stroke-linejoin="round"/>
<path d="M650.49 66.23L645.5 68.1C644.35 68.53 643.41 69.89 643.41 71.12V78.55C643.41 79.73 644.19 81.28 645.14 81.99L649.44 85.2C650.85 86.26 653.17 86.26 654.58 85.2L658.88 81.99C659.83 81.28 660.61 79.73 660.61 78.55V71.12C660.61 69.89 659.67 68.53 658.52 68.1L653.53 66.23C652.68 65.92 651.32 65.92 650.49 66.23Z" stroke="#292D32" stroke-width="1.5" stroke-linecap="round" stroke-linejoin="round"/>
<path d="M652 74.92C651.96 74.92 651.91 74.92 651.87 74.92C650.93 74.89 650.18 74.11 650.18 73.16C650.18 72.19 650.97 71.4 651.94 71.4C652.91 71.4 653.7 72.19 653.7 73.16C653.69 74.12 652.94 74.89 652 74.92Z" stroke="#292D32" stroke-width="1.5" stroke-linecap="round" stroke-linejoin="round"/>
<path d="M650.01 77.72C649.05 78.36 649.05 79.41 650.01 80.05C651.1 80.78 652.89 80.78 653.98 80.05C654.94 79.41 654.94 78.36 653.98 77.72C652.9 76.99 651.11 76.99 650.01 77.72Z" stroke="#292D32" stroke-width="1.5" stroke-linecap="round" stroke-linejoin="round"/>
<path d="M6 138V136C6 132.69 7 130 12 130C17 130 18 132.69 18 136V138" stroke="#292D32" stroke-width="1.5" stroke-linecap="round" stroke-linejoin="round"/>
<path d="M17 150H7C3 150 2 149 2 145V143C2 139 3 138 7 138H17C21 138 22 139 22 143V145C22 149 21 150 17 150Z" stroke="#292D32" stroke-width="1.5" stroke-linecap="round" stroke-linejoin="round"/>
<path d="M15.9965 144H16.0054" stroke="#292D32" stroke-width="2" stroke-linecap="round" stroke-linejoin="round"/>
<path d="M11.9955 144H12.0045" stroke="#292D32" stroke-width="2" stroke-linecap="round" stroke-linejoin="round"/>
<path d="M7.99451 144H8.00349" stroke="#292D32" stroke-width="2" stroke-linecap="round" stroke-linejoin="round"/>
<path d="M73 139V138C73 136.34 73.5 135 76 135C78.5 135 79 136.34 79 138V139" stroke="#292D32" stroke-width="1.5" stroke-linecap="round" stroke-linejoin="round"/>
<path d="M75.9999 142.6C76.3312 142.6 76.5999 142.331 76.5999 142C76.5999 141.669 76.3312 141.4 75.9999 141.4C75.6685 141.4 75.3999 141.669 75.3999 142C75.3999 142.331 75.6685 142.6 75.9999 142.6Z" stroke="#292D32" stroke-width="1.5" stroke-linecap="round" stroke-linejoin="round"/>
<path d="M78.5 145H73.5C71.5 145 71 144.5 71 142.5V141.5C71 139.5 71.5 139 73.5 139H78.5C80.5 139 81 139.5 81 141.5V142.5C81 144.5 80.5 145 78.5 145Z" stroke="#292D32" stroke-width="1.5" stroke-linecap="round" stroke-linejoin="round"/>
<path d="M76 150C81.5228 150 86 145.523 86 140C86 134.477 81.5228 130 76 130C70.4772 130 66 134.477 66 140C66 145.523 70.4772 150 76 150Z" stroke="#292D32" stroke-width="1.5" stroke-linecap="round" stroke-linejoin="round"/>
<path d="M130 150H150" stroke="#292D32" stroke-width="1.5" stroke-linecap="round" stroke-linejoin="round"/>
<path d="M140 134C135.03 134 131 138.03 131 143V150H149V143C149 138.03 144.97 134 140 134Z" stroke="#292D32" stroke-width="1.5" stroke-linecap="round" stroke-linejoin="round"/>
<path d="M140 130V131" stroke="#292D32" stroke-width="1.5" stroke-linecap="round" stroke-linejoin="round"/>
<path d="M132 132L133 133" stroke="#292D32" stroke-width="1.5" stroke-linecap="round" stroke-linejoin="round"/>
<path d="M148 132L147 133" stroke="#292D32" stroke-width="1.5" stroke-linecap="round" stroke-linejoin="round"/>
<path d="M204 142C205.105 142 206 141.105 206 140C206 138.895 205.105 138 204 138C202.895 138 202 138.895 202 140C202 141.105 202.895 142 204 142Z" stroke="#292D32" stroke-width="1.5" stroke-linecap="round" stroke-linejoin="round"/>
<path d="M212 146C213.26 144.33 214 142.25 214 140C214 137.75 213.26 135.67 212 134" stroke="#292D32" stroke-width="1.5" stroke-linecap="round" stroke-linejoin="round"/>
<path d="M196 134C194.74 135.67 194 137.75 194 140C194 142.25 194.74 144.33 196 146" stroke="#292D32" stroke-width="1.5" stroke-linecap="round" stroke-linejoin="round"/>
<path d="M208.8 143.6C209.55 142.6 210 141.35 210 140C210 138.65 209.55 137.4 208.8 136.4" stroke="#292D32" stroke-width="1.5" stroke-linecap="round" stroke-linejoin="round"/>
<path d="M199.2 136.4C198.45 137.4 198 138.65 198 140C198 141.35 198.45 142.6 199.2 143.6" stroke="#292D32" stroke-width="1.5" stroke-linecap="round" stroke-linejoin="round"/>
<path d="M276.91 139.12C276.91 144.01 273.36 148.59 268.51 149.93C268.18 150.02 267.82 150.02 267.49 149.93C262.64 148.59 259.09 144.01 259.09 139.12V134.73C259.09 133.91 259.71 132.98 260.48 132.67L266.05 130.39C267.3 129.88 268.71 129.88 269.96 130.39L275.53 132.67C276.29 132.98 276.92 133.91 276.92 134.73L276.91 139.12Z" stroke="#292D32" stroke-width="1.5" stroke-linecap="round" stroke-linejoin="round"/>
<path d="M268 140.5C269.105 140.5 270 139.605 270 138.5C270 137.395 269.105 136.5 268 136.5C266.895 136.5 266 137.395 266 138.5C266 139.605 266.895 140.5 268 140.5Z" stroke="#292D32" stroke-width="1.5" stroke-miterlimit="10" stroke-linecap="round" stroke-linejoin="round"/>
<path d="M268 140.5V143.5" stroke="#292D32" stroke-width="1.5" stroke-miterlimit="10" stroke-linecap="round" stroke-linejoin="round"/>
<path d="M340.91 139.12C340.91 144.01 337.36 148.59 332.51 149.93C332.18 150.02 331.82 150.02 331.49 149.93C326.64 148.59 323.09 144.01 323.09 139.12V134.73C323.09 133.91 323.71 132.98 324.48 132.67L330.05 130.39C331.3 129.88 332.71 129.88 333.96 130.39L339.53 132.67C340.29 132.98 340.92 133.91 340.92 134.73L340.91 139.12Z" stroke="#292D32" stroke-width="1.5" stroke-linecap="round" stroke-linejoin="round"/>
<path d="M595.79 14.93C593.73 16.98 590.78 17.61 588.19 16.8L583.48 21.5C583.14 21.85 582.47 22.06 581.99 21.99L579.81 21.69C579.09 21.59 578.42 20.91 578.31 20.19L578.01 18.01C577.94 17.53 578.17 16.86 578.5 16.52L583.2 11.82C582.4 9.22001 583.02 6.27001 585.08 4.22001C588.03 1.27001 592.82 1.27001 595.78 4.22001C598.74 7.17001 598.74 11.98 595.79 14.93Z" stroke="#292D32" stroke-width="1.5" stroke-miterlimit="10" stroke-linecap="round" stroke-linejoin="round"/>
<path d="M582.89 17.49L585.19 19.79" stroke="#292D32" stroke-width="1.5" stroke-miterlimit="10" stroke-linecap="round" stroke-linejoin="round"/>
<path d="M590.5 11C591.328 11 592 10.3284 592 9.5C592 8.67157 591.328 8 590.5 8C589.672 8 589 8.67157 589 9.5C589 10.3284 589.672 11 590.5 11Z" stroke="#292D32" stroke-width="1.5" stroke-linecap="round" stroke-linejoin="round"/>
<path d="M649 22H655C660 22 662 20 662 15V9C662 4 660 2 655 2H649C644 2 642 4 642 9V15C642 20 644 22 649 22Z" stroke="#292D32" stroke-width="1.5" stroke-linecap="round" stroke-linejoin="round"/>
<path d="M656.28 13.61C655.15 14.74 653.53 15.09 652.1 14.64L649.51 17.22C649.33 17.41 648.96 17.53 648.69 17.49L647.49 17.33C647.09 17.28 646.73 16.9 646.67 16.51L646.51 15.31C646.47 15.05 646.6 14.68 646.78 14.49L649.36 11.91C648.92 10.48 649.26 8.86001 650.39 7.73001C652.01 6.11001 654.65 6.11001 656.28 7.73001C657.9 9.34001 657.9 11.98 656.28 13.61Z" stroke="#292D32" stroke-width="1.5" stroke-miterlimit="10" stroke-linecap="round" stroke-linejoin="round"/>
<path d="M650.45 16.28L649.6 15.42" stroke="#292D32" stroke-width="1.5" stroke-miterlimit="10" stroke-linecap="round" stroke-linejoin="round"/>
<path d="M653.395 10.7H653.404" stroke="#292D32" stroke-width="2" stroke-linecap="round" stroke-linejoin="round"/>
<path d="M11.02 83.5H7.5C6.88 83.5 6.33 83.48 5.84 83.41C3.21 83.12 2.5 81.88 2.5 78.5V73.5C2.5 70.12 3.21 68.88 5.84 68.59C6.33 68.52 6.88 68.5 7.5 68.5H10.96" stroke="#292D32" stroke-width="1.5" stroke-linecap="round" stroke-linejoin="round"/>
<path d="M15.02 68.5H16.5C17.12 68.5 17.67 68.52 18.16 68.59C20.79 68.88 21.5 70.12 21.5 73.5V78.5C21.5 81.88 20.79 83.12 18.16 83.41C17.67 83.48 17.12 83.5 16.5 83.5H15.02" stroke="#292D32" stroke-width="1.5" stroke-linecap="round" stroke-linejoin="round"/>
<path d="M15 66V86" stroke="#292D32" stroke-width="1.5" stroke-linecap="round" stroke-linejoin="round"/>
<path d="M8 72.5V79.5" stroke="#292D32" stroke-width="1.5" stroke-linecap="round" stroke-linejoin="round"/>
<path d="M70 74V72C70 68.69 71 66 76 66C81 66 82 68.69 82 72V74" stroke="#292D32" stroke-width="1.5" stroke-linecap="round" stroke-linejoin="round"/>
<path d="M76 82.5C77.3807 82.5 78.5 81.3807 78.5 80C78.5 78.6193 77.3807 77.5 76 77.5C74.6193 77.5 73.5 78.6193 73.5 80C73.5 81.3807 74.6193 82.5 76 82.5Z" stroke="#292D32" stroke-width="1.5" stroke-linecap="round" stroke-linejoin="round"/>
<path d="M81 86H71C67 86 66 85 66 81V79C66 75 67 74 71 74H81C85 74 86 75 86 79V81C86 85 85 86 81 86Z" stroke="#292D32" stroke-width="1.5" stroke-linecap="round" stroke-linejoin="round"/>
<path d="M145 86H135C131 86 130 85 130 81V79C130 75 131 74 135 74H145C149 74 150 75 150 79V81C150 85 149 86 145 86Z" stroke="#292D32" stroke-width="1.5" stroke-linecap="round" stroke-linejoin="round"/>
<path d="M134 74V72C134 68.69 135 66 140 66C144.5 66 146 68 146 71" stroke="#292D32" stroke-width="1.5" stroke-linecap="round" stroke-linejoin="round"/>
<path d="M140 82.5C141.381 82.5 142.5 81.3807 142.5 80C142.5 78.6193 141.381 77.5 140 77.5C138.619 77.5 137.5 78.6193 137.5 80C137.5 81.3807 138.619 82.5 140 82.5Z" stroke="#292D32" stroke-width="1.5" stroke-linecap="round" stroke-linejoin="round"/>
<path d="M202.02 81.52C202.48 82.11 203.2 82.5 204 82.5C205.38 82.5 206.5 81.38 206.5 80C206.5 79.43 206.31 78.9 205.99 78.48" stroke="#292D32" stroke-width="1.5" stroke-linecap="round" stroke-linejoin="round"/>
<path d="M194.82 84.8C194.21 84.04 194 82.83 194 81V79C194 75 195 74 199 74H209C209.36 74 209.69 74.01 210 74.03C213.17 74.21 214 75.36 214 79V81C214 85 213 86 209 86H199C198.64 86 198.31 85.99 198 85.97" stroke="#292D32" stroke-width="1.5" stroke-linecap="round" stroke-linejoin="round"/>
<path d="M198 74V72C198 68.69 199 66 204 66C208.15 66 209.54 67.38 209.9 69.56" stroke="#292D32" stroke-width="1.5" stroke-linecap="round" stroke-linejoin="round"/>
<path d="M214 66L194 86" stroke="#292D32" stroke-width="1.5" stroke-linecap="round" stroke-linejoin="round"/>
<path d="M15.5799 12C15.5799 13.98 13.9799 15.58 11.9999 15.58C10.0199 15.58 8.41992 13.98 8.41992 12C8.41992 10.02 10.0199 8.42001 11.9999 8.42001C13.9799 8.42001 15.5799 10.02 15.5799 12Z" stroke="#292D32" stroke-width="1.5" stroke-linecap="round" stroke-linejoin="round"/>
<path d="M11.9998 20.27C15.5298 20.27 18.8198 18.19 21.1098 14.59C22.0098 13.18 22.0098 10.81 21.1098 9.4C18.8198 5.8 15.5298 3.72 11.9998 3.72C8.46984 3.72 5.17984 5.8 2.88984 9.4C1.98984 10.81 1.98984 13.18 2.88984 14.59C5.17984 18.19 8.46984 20.27 11.9998 20.27Z" stroke="#292D32" stroke-width="1.5" stroke-linecap="round" stroke-linejoin="round"/>
<path d="M322 73V70.5C322 68.01 324.01 66 326.5 66H329" stroke="#292D32" stroke-width="1.5" stroke-linecap="round" stroke-linejoin="round"/>
<path d="M335 66H337.5C339.99 66 342 68.01 342 70.5V73" stroke="#292D32" stroke-width="1.5" stroke-linecap="round" stroke-linejoin="round"/>
<path d="M342 80V81.5C342 83.99 339.99 86 337.5 86H336" stroke="#292D32" stroke-width="1.5" stroke-linecap="round" stroke-linejoin="round"/>
<path d="M329 86H326.5C324.01 86 322 83.99 322 81.5V79" stroke="#292D32" stroke-width="1.5" stroke-linecap="round" stroke-linejoin="round"/>
<path d="M330.5 71V73C330.5 74 330 74.5 329 74.5H327C326 74.5 325.5 74 325.5 73V71C325.5 70 326 69.5 327 69.5H329C330 69.5 330.5 70 330.5 71Z" stroke="#292D32" stroke-width="1.5" stroke-linecap="round" stroke-linejoin="round"/>
<path d="M338.5 71V73C338.5 74 338 74.5 337 74.5H335C334 74.5 333.5 74 333.5 73V71C333.5 70 334 69.5 335 69.5H337C338 69.5 338.5 70 338.5 71Z" stroke="#292D32" stroke-width="1.5" stroke-linecap="round" stroke-linejoin="round"/>
<path d="M330.5 79V81C330.5 82 330 82.5 329 82.5H327C326 82.5 325.5 82 325.5 81V79C325.5 78 326 77.5 327 77.5H329C330 77.5 330.5 78 330.5 79Z" stroke="#292D32" stroke-width="1.5" stroke-linecap="round" stroke-linejoin="round"/>
<path d="M338.5 79V81C338.5 82 338 82.5 337 82.5H335C334 82.5 333.5 82 333.5 81V79C333.5 78 334 77.5 335 77.5H337C338 77.5 338.5 78 338.5 79Z" stroke="#292D32" stroke-width="1.5" stroke-linecap="round" stroke-linejoin="round"/>
<path d="M386 73V70.5C386 68.01 388.01 66 390.5 66H393" stroke="#292D32" stroke-width="1.5" stroke-linecap="round" stroke-linejoin="round"/>
<path d="M399 66H401.5C403.99 66 406 68.01 406 70.5V73" stroke="#292D32" stroke-width="1.5" stroke-linecap="round" stroke-linejoin="round"/>
<path d="M406 80V81.5C406 83.99 403.99 86 401.5 86H400" stroke="#292D32" stroke-width="1.5" stroke-linecap="round" stroke-linejoin="round"/>
<path d="M393 86H390.5C388.01 86 386 83.99 386 81.5V79" stroke="#292D32" stroke-width="1.5" stroke-linecap="round" stroke-linejoin="round"/>
<path d="M392.5 75C393.881 75 395 73.8807 395 72.5C395 71.1193 393.881 70 392.5 70C391.119 70 390 71.1193 390 72.5C390 73.8807 391.119 75 392.5 75Z" stroke="#292D32" stroke-width="1.5" stroke-linecap="round" stroke-linejoin="round"/>
<path d="M391.5 82C392.328 82 393 81.3284 393 80.5C393 79.6716 392.328 79 391.5 79C390.672 79 390 79.6716 390 80.5C390 81.3284 390.672 82 391.5 82Z" stroke="#292D32" stroke-width="1.5" stroke-linecap="round" stroke-linejoin="round"/>
<path d="M400.5 73C401.328 73 402 72.3284 402 71.5C402 70.6716 401.328 70 400.5 70C399.672 70 399 70.6716 399 71.5C399 72.3284 399.672 73 400.5 73Z" stroke="#292D32" stroke-width="1.5" stroke-linecap="round" stroke-linejoin="round"/>
<path d="M399.5 82C400.881 82 402 80.8807 402 79.5C402 78.1193 400.881 77 399.5 77C398.119 77 397 78.1193 397 79.5C397 80.8807 398.119 82 399.5 82Z" stroke="#292D32" stroke-width="1.5" stroke-linecap="round" stroke-linejoin="round"/>
<path d="M138.49 2.23L133.5 4.11C132.35 4.54 131.41 5.9 131.41 7.12V14.55C131.41 15.73 132.19 17.28 133.14 17.99L137.44 21.2C138.85 22.26 141.17 22.26 142.58 21.2L146.88 17.99C147.83 17.28 148.61 15.73 148.61 14.55V7.12C148.61 5.89 147.67 4.53 146.52 4.1L141.53 2.23C140.68 1.92 139.32 1.92 138.49 2.23Z" stroke="#292D32" stroke-width="1.5" stroke-linecap="round" stroke-linejoin="round"/>
<path d="M258 73V70.5C258 68.01 260.01 66 262.5 66H265" stroke="#292D32" stroke-width="1.5" stroke-linecap="round" stroke-linejoin="round"/>
<path d="M271 66H273.5C275.99 66 278 68.01 278 70.5V73" stroke="#292D32" stroke-width="1.5" stroke-linecap="round" stroke-linejoin="round"/>
<path d="M278 80V81.5C278 83.99 275.99 86 273.5 86H272" stroke="#292D32" stroke-width="1.5" stroke-linecap="round" stroke-linejoin="round"/>
<path d="M265 86H262.5C260.01 86 258 83.99 258 81.5V79" stroke="#292D32" stroke-width="1.5" stroke-linecap="round" stroke-linejoin="round"/>
<path d="M273 73.5V78.5C273 80.5 272 81.5 270 81.5H266C264 81.5 263 80.5 263 78.5V73.5C263 71.5 264 70.5 266 70.5H270C272 70.5 273 71.5 273 73.5Z" stroke="#292D32" stroke-width="1.5" stroke-linecap="round" stroke-linejoin="round"/>
<path d="M275 76H261" stroke="#292D32" stroke-width="1.5" stroke-linecap="round" stroke-linejoin="round"/>
<path d="M266.49 2.23L261.5 4.11C260.35 4.54 259.41 5.9 259.41 7.12V14.55C259.41 15.73 260.19 17.28 261.14 17.99L265.44 21.2C266.85 22.26 269.17 22.26 270.58 21.2L274.88 17.99C275.83 17.28 276.61 15.73 276.61 14.55V7.12C276.61 5.89 275.67 4.53 274.52 4.1L269.53 2.23C268.68 1.92 267.32 1.92 266.49 2.23Z" stroke="#292D32" stroke-width="1.5" stroke-linecap="round" stroke-linejoin="round"/>
<path d="M270.15 13.44L265.9 9.19" stroke="#292D32" stroke-width="1.5" stroke-miterlimit="10" stroke-linecap="round" stroke-linejoin="round"/>
<path d="M270.1 9.23999L265.85 13.49" stroke="#292D32" stroke-width="1.5" stroke-miterlimit="10" stroke-linecap="round" stroke-linejoin="round"/>
<path d="M78.5299 9.47001L73.4699 14.53C72.8199 13.88 72.4199 12.99 72.4199 12C72.4199 10.02 74.0199 8.42001 75.9999 8.42001C76.9899 8.42001 77.8799 8.82001 78.5299 9.47001Z" stroke="#292D32" stroke-width="1.5" stroke-linecap="round" stroke-linejoin="round"/>
<path d="M81.8198 5.77001C80.0698 4.45001 78.0698 3.73001 75.9998 3.73001C72.4698 3.73001 69.1798 5.81001 66.8898 9.41001C65.9898 10.82 65.9898 13.19 66.8898 14.6C67.6798 15.84 68.5998 16.91 69.5998 17.77" stroke="#292D32" stroke-width="1.5" stroke-linecap="round" stroke-linejoin="round"/>
<path d="M72.4199 19.53C73.5599 20.01 74.7699 20.27 75.9999 20.27C79.5299 20.27 82.8199 18.19 85.1099 14.59C86.0099 13.18 86.0099 10.81 85.1099 9.39999C84.7799 8.87999 84.4199 8.38999 84.0499 7.92999" stroke="#292D32" stroke-width="1.5" stroke-linecap="round" stroke-linejoin="round"/>
<path d="M79.5099 12.7C79.2499 14.11 78.0999 15.26 76.6899 15.52" stroke="#292D32" stroke-width="1.5" stroke-linecap="round" stroke-linejoin="round"/>
<path d="M73.47 14.53L66 22" stroke="#292D32" stroke-width="1.5" stroke-linecap="round" stroke-linejoin="round"/>
<path d="M85.9998 2L78.5298 9.47" stroke="#292D32" stroke-width="1.5" stroke-linecap="round" stroke-linejoin="round"/>
<path d="M394.49 2.23L389.5 4.11C388.35 4.54 387.41 5.9 387.41 7.12V14.55C387.41 15.73 388.19 17.28 389.14 17.99L393.44 21.2C394.85 22.26 397.17 22.26 398.58 21.2L402.88 17.99C403.83 17.28 404.61 15.73 404.61 14.55V7.12C404.61 5.89 403.67 4.53 402.52 4.1L397.53 2.23C396.68 1.92 395.32 1.92 394.49 2.23Z" stroke="#292D32" stroke-width="1.5" stroke-linecap="round" stroke-linejoin="round"/>
<path d="M396 12.5C397.105 12.5 398 11.6046 398 10.5C398 9.39543 397.105 8.5 396 8.5C394.895 8.5 394 9.39543 394 10.5C394 11.6046 394.895 12.5 396 12.5Z" stroke="#292D32" stroke-width="1.5" stroke-miterlimit="10" stroke-linecap="round" stroke-linejoin="round"/>
<path d="M396 12.5V15.5" stroke="#292D32" stroke-width="1.5" stroke-miterlimit="10" stroke-linecap="round" stroke-linejoin="round"/>
<path d="M202.49 2.23L197.5 4.11C196.35 4.54 195.41 5.9 195.41 7.12V14.55C195.41 15.73 196.19 17.28 197.14 17.99L201.44 21.2C202.85 22.26 205.17 22.26 206.58 21.2L210.88 17.99C211.83 17.28 212.61 15.73 212.61 14.55V7.12C212.61 5.89 211.67 4.53 210.52 4.1L205.53 2.23C204.68 1.92 203.32 1.92 202.49 2.23Z" stroke="#292D32" stroke-width="1.5" stroke-linecap="round" stroke-linejoin="round"/>
<path d="M201.05 11.87L202.66 13.48L206.96 9.17999" stroke="#292D32" stroke-width="1.5" stroke-linecap="round" stroke-linejoin="round"/>
<path d="M327.84 20.02L329.43 21.21C330.84 22.27 333.16 22.27 334.57 21.21L338.87 18C339.82 17.29 340.6 15.74 340.6 14.56V7.12" stroke="#292D32" stroke-width="1.5" stroke-linecap="round" stroke-linejoin="round"/>
<path d="M338.98 4.34C338.83 4.25 338.67 4.17 338.51 4.1L333.52 2.23C332.69 1.92 331.33 1.92 330.5 2.23L325.5 4.11C324.35 4.54 323.41 5.9 323.41 7.12V14.55C323.41 15.73 324.19 17.28 325.14 17.99L325.34 18.14" stroke="#292D32" stroke-width="1.5" stroke-linecap="round" stroke-linejoin="round"/>
<path d="M342 2L322 22" stroke="#292D32" stroke-width="1.5" stroke-linecap="round" stroke-linejoin="round"/>
<path d="M532.59 10.55V7.12C532.59 5.89 531.65 4.53 530.5 4.1L525.51 2.23C524.68 1.92 523.32 1.92 522.49 2.23L517.5 4.11C516.35 4.54 515.41 5.9 515.41 7.12V14.55C515.41 15.73 516.19 17.28 517.14 17.99L521.44 21.2C522.14 21.74 523.07 22 524 22" stroke="#292D32" stroke-width="1.5" stroke-linecap="round" stroke-linejoin="round"/>
<path d="M528 20C530.209 20 532 18.2091 532 16C532 13.7909 530.209 12 528 12C525.791 12 524 13.7909 524 16C524 18.2091 525.791 20 528 20Z" stroke="#292D32" stroke-width="1.5" stroke-linecap="round" stroke-linejoin="round"/>
<path d="M532.995 21H533.004" stroke="#292D32" stroke-width="2" stroke-linecap="round" stroke-linejoin="round"/>
<path d="M459.02 19.5H455.5C454.88 19.5 454.33 19.48 453.84 19.41C451.21 19.12 450.5 17.88 450.5 14.5V9.5C450.5 6.12 451.21 4.88 453.84 4.59C454.33 4.52 454.88 4.5 455.5 4.5H458.96" stroke="#292D32" stroke-width="1.5" stroke-linecap="round" stroke-linejoin="round"/>
<path d="M463.02 4.5H464.5C465.12 4.5 465.67 4.52 466.16 4.59C468.79 4.88 469.5 6.12 469.5 9.5V14.5C469.5 17.88 468.79 19.12 466.16 19.41C465.67 19.48 465.12 19.5 464.5 19.5H463.02" stroke="#292D32" stroke-width="1.5" stroke-linecap="round" stroke-linejoin="round"/>
<path d="M463 2V22" stroke="#292D32" stroke-width="1.5" stroke-linecap="round" stroke-linejoin="round"/>
<path d="M459.094 12H459.103" stroke="#292D32" stroke-width="2" stroke-linecap="round" stroke-linejoin="round"/>
<path d="M455.094 12H455.103" stroke="#292D32" stroke-width="2" stroke-linecap="round" stroke-linejoin="round"/>
</svg>
