<svg width="664" height="88" viewBox="0 0 664 88" fill="none" xmlns="http://www.w3.org/2000/svg">
<path d="M145.54 72.31C146.899 72.31 148 71.2086 148 69.85C148 68.4914 146.899 67.39 145.54 67.39C144.181 67.39 143.08 68.4914 143.08 69.85C143.08 71.2086 144.181 72.31 145.54 72.31Z" stroke="#292D32" stroke-width="1.5" stroke-miterlimit="10" stroke-linecap="round" stroke-linejoin="round"/>
<path d="M134.46 72.31C135.819 72.31 136.92 71.2086 136.92 69.85C136.92 68.4914 135.819 67.39 134.46 67.39C133.101 67.39 132 68.4914 132 69.85C132 71.2086 133.101 72.31 134.46 72.31Z" stroke="#292D32" stroke-width="1.5" stroke-miterlimit="10" stroke-linecap="round" stroke-linejoin="round"/>
<path d="M145.54 84.61C146.899 84.61 148 83.5086 148 82.15C148 80.7914 146.899 79.69 145.54 79.69C144.181 79.69 143.08 80.7914 143.08 82.15C143.08 83.5086 144.181 84.61 145.54 84.61Z" stroke="#292D32" stroke-width="1.5" stroke-miterlimit="10" stroke-linecap="round" stroke-linejoin="round"/>
<path d="M134.46 84.61C135.819 84.61 136.92 83.5086 136.92 82.15C136.92 80.7914 135.819 79.69 134.46 79.69C133.101 79.69 132 80.7914 132 82.15C132 83.5086 133.101 84.61 134.46 84.61Z" stroke="#292D32" stroke-width="1.5" stroke-miterlimit="10" stroke-linecap="round" stroke-linejoin="round"/>
<path d="M342 81.5H335" stroke="#292D32" stroke-width="1.5" stroke-miterlimit="10" stroke-linecap="round" stroke-linejoin="round"/>
<path d="M325 81.5H322" stroke="#292D32" stroke-width="1.5" stroke-miterlimit="10" stroke-linecap="round" stroke-linejoin="round"/>
<path d="M342 70.5H339" stroke="#292D32" stroke-width="1.5" stroke-miterlimit="10" stroke-linecap="round" stroke-linejoin="round"/>
<path d="M329 70.5H322" stroke="#292D32" stroke-width="1.5" stroke-miterlimit="10" stroke-linecap="round" stroke-linejoin="round"/>
<path d="M327 78.5H333C334.1 78.5 335 79 335 80.5V82.5C335 84 334.1 84.5 333 84.5H327C325.9 84.5 325 84 325 82.5V80.5C325 79 325.9 78.5 327 78.5Z" stroke="#292D32" stroke-width="1.5" stroke-miterlimit="10" stroke-linecap="round" stroke-linejoin="round"/>
<path d="M331 67.5H337C338.1 67.5 339 68 339 69.5V71.5C339 73 338.1 73.5 337 73.5H331C329.9 73.5 329 73 329 71.5V69.5C329 68 329.9 67.5 331 67.5Z" stroke="#292D32" stroke-width="1.5" stroke-miterlimit="10" stroke-linecap="round" stroke-linejoin="round"/>
<path d="M198.5 86V79" stroke="#292D32" stroke-width="1.5" stroke-miterlimit="10" stroke-linecap="round" stroke-linejoin="round"/>
<path d="M198.5 69V66" stroke="#292D32" stroke-width="1.5" stroke-miterlimit="10" stroke-linecap="round" stroke-linejoin="round"/>
<path d="M209.5 86V83" stroke="#292D32" stroke-width="1.5" stroke-miterlimit="10" stroke-linecap="round" stroke-linejoin="round"/>
<path d="M209.5 73V66" stroke="#292D32" stroke-width="1.5" stroke-miterlimit="10" stroke-linecap="round" stroke-linejoin="round"/>
<path d="M201.5 71V77C201.5 78.1 201 79 199.5 79H197.5C196 79 195.5 78.1 195.5 77V71C195.5 69.9 196 69 197.5 69H199.5C201 69 201.5 69.9 201.5 71Z" stroke="#292D32" stroke-width="1.5" stroke-miterlimit="10" stroke-linecap="round" stroke-linejoin="round"/>
<path d="M212.5 75V81C212.5 82.1 212 83 210.5 83H208.5C207 83 206.5 82.1 206.5 81V75C206.5 73.9 207 73 208.5 73H210.5C212 73 212.5 73.9 212.5 75Z" stroke="#292D32" stroke-width="1.5" stroke-miterlimit="10" stroke-linecap="round" stroke-linejoin="round"/>
<path d="M268 80.5C270.485 80.5 272.5 78.4853 272.5 76C272.5 73.5147 270.485 71.5 268 71.5C265.515 71.5 263.5 73.5147 263.5 76C263.5 78.4853 265.515 80.5 268 80.5Z" stroke="#292D32" stroke-width="1.5" stroke-linecap="round" stroke-linejoin="round"/>
<path d="M258 76H263" stroke="#292D32" stroke-width="1.5" stroke-linecap="round" stroke-linejoin="round"/>
<path d="M273 76H278" stroke="#292D32" stroke-width="1.5" stroke-linecap="round" stroke-linejoin="round"/>
<path d="M5 10H7C9 10 10 9 10 7V5C10 3 9 2 7 2H5C3 2 2 3 2 5V7C2 9 3 10 5 10Z" stroke="#292D32" stroke-width="1.5" stroke-miterlimit="10" stroke-linecap="round" stroke-linejoin="round"/>
<path d="M17 10H19C21 10 22 9 22 7V5C22 3 21 2 19 2H17C15 2 14 3 14 5V7C14 9 15 10 17 10Z" stroke="#292D32" stroke-width="1.5" stroke-miterlimit="10" stroke-linecap="round" stroke-linejoin="round"/>
<path d="M17 22H19C21 22 22 21 22 19V17C22 15 21 14 19 14H17C15 14 14 15 14 17V19C14 21 15 22 17 22Z" stroke="#292D32" stroke-width="1.5" stroke-miterlimit="10" stroke-linecap="round" stroke-linejoin="round"/>
<path d="M5 22H7C9 22 10 21 10 19V17C10 15 9 14 7 14H5C3 14 2 15 2 17V19C2 21 3 22 5 22Z" stroke="#292D32" stroke-width="1.5" stroke-miterlimit="10" stroke-linecap="round" stroke-linejoin="round"/>
<path d="M342 6.5H336" stroke="#292D32" stroke-width="1.5" stroke-miterlimit="10" stroke-linecap="round" stroke-linejoin="round"/>
<path d="M326 6.5H322" stroke="#292D32" stroke-width="1.5" stroke-miterlimit="10" stroke-linecap="round" stroke-linejoin="round"/>
<path d="M330 10C331.933 10 333.5 8.433 333.5 6.5C333.5 4.567 331.933 3 330 3C328.067 3 326.5 4.567 326.5 6.5C326.5 8.433 328.067 10 330 10Z" stroke="#292D32" stroke-width="1.5" stroke-miterlimit="10" stroke-linecap="round" stroke-linejoin="round"/>
<path d="M342 17.5H338" stroke="#292D32" stroke-width="1.5" stroke-miterlimit="10" stroke-linecap="round" stroke-linejoin="round"/>
<path d="M328 17.5H322" stroke="#292D32" stroke-width="1.5" stroke-miterlimit="10" stroke-linecap="round" stroke-linejoin="round"/>
<path d="M334 21C335.933 21 337.5 19.433 337.5 17.5C337.5 15.567 335.933 14 334 14C332.067 14 330.5 15.567 330.5 17.5C330.5 19.433 332.067 21 334 21Z" stroke="#292D32" stroke-width="1.5" stroke-miterlimit="10" stroke-linecap="round" stroke-linejoin="round"/>
<path d="M131 9.10998V14.88C131 17 131 17 133 18.35L138.5 21.53C139.33 22.01 140.68 22.01 141.5 21.53L147 18.35C149 17 149 17 149 14.89V9.10998C149 6.99998 149 6.99999 147 5.64999L141.5 2.46999C140.68 1.98999 139.33 1.98999 138.5 2.46999L133 5.64999C131 6.99999 131 6.99998 131 9.10998Z" stroke="#292D32" stroke-width="1.5" stroke-linecap="round" stroke-linejoin="round"/>
<path d="M140 15C141.657 15 143 13.6569 143 12C143 10.3431 141.657 9 140 9C138.343 9 137 10.3431 137 12C137 13.6569 138.343 15 140 15Z" stroke="#292D32" stroke-width="1.5" stroke-linecap="round" stroke-linejoin="round"/>
<path d="M453 10C451.9 10 451 10.9 451 12C451 13.1 451.9 14 453 14C454.1 14 455 13.1 455 12C455 10.9 454.1 10 453 10Z" stroke="#292D32" stroke-width="1.5"/>
<path d="M467 10C465.9 10 465 10.9 465 12C465 13.1 465.9 14 467 14C468.1 14 469 13.1 469 12C469 10.9 468.1 10 467 10Z" stroke="#292D32" stroke-width="1.5"/>
<path d="M460 10C458.9 10 458 10.9 458 12C458 13.1 458.9 14 460 14C461.1 14 462 13.1 462 12C462 10.9 461.1 10 460 10Z" stroke="#292D32" stroke-width="1.5"/>
<path d="M204 15C205.657 15 207 13.6569 207 12C207 10.3431 205.657 9 204 9C202.343 9 201 10.3431 201 12C201 13.6569 202.343 15 204 15Z" stroke="#292D32" stroke-width="1.5" stroke-miterlimit="10" stroke-linecap="round" stroke-linejoin="round"/>
<path d="M194 12.88V11.12C194 10.08 194.85 9.22 195.9 9.22C197.71 9.22 198.45 7.94 197.54 6.37C197.02 5.47 197.33 4.3 198.24 3.78L199.97 2.79C200.76 2.32 201.78 2.6 202.25 3.39L202.36 3.58C203.26 5.15 204.74 5.15 205.65 3.58L205.76 3.39C206.23 2.6 207.25 2.32 208.04 2.79L209.77 3.78C210.68 4.3 210.99 5.47 210.47 6.37C209.56 7.94 210.3 9.22 212.11 9.22C213.15 9.22 214.01 10.07 214.01 11.12V12.88C214.01 13.92 213.16 14.78 212.11 14.78C210.3 14.78 209.56 16.06 210.47 17.63C210.99 18.54 210.68 19.7 209.77 20.22L208.04 21.21C207.25 21.68 206.23 21.4 205.76 20.61L205.65 20.42C204.75 18.85 203.27 18.85 202.36 20.42L202.25 20.61C201.78 21.4 200.76 21.68 199.97 21.21L198.24 20.22C197.33 19.7 197.02 18.53 197.54 17.63C198.45 16.06 197.71 14.78 195.9 14.78C194.85 14.78 194 13.92 194 12.88Z" stroke="#292D32" stroke-width="1.5" stroke-miterlimit="10" stroke-linecap="round" stroke-linejoin="round"/>
<path d="M265 22H271C276 22 278 20 278 15V9C278 4 276 2 271 2H265C260 2 258 4 258 9V15C258 20 260 22 265 22Z" stroke="#292D32" stroke-width="1.5" stroke-linecap="round" stroke-linejoin="round"/>
<path d="M271.57 18.5V14.6" stroke="#292D32" stroke-width="1.5" stroke-miterlimit="10" stroke-linecap="round" stroke-linejoin="round"/>
<path d="M271.57 7.45V5.5" stroke="#292D32" stroke-width="1.5" stroke-miterlimit="10" stroke-linecap="round" stroke-linejoin="round"/>
<path d="M271.57 12.65C273.006 12.65 274.17 11.486 274.17 10.05C274.17 8.61407 273.006 7.45001 271.57 7.45001C270.134 7.45001 268.97 8.61407 268.97 10.05C268.97 11.486 270.134 12.65 271.57 12.65Z" stroke="#292D32" stroke-width="1.5" stroke-miterlimit="10" stroke-linecap="round" stroke-linejoin="round"/>
<path d="M264.43 18.5V16.55" stroke="#292D32" stroke-width="1.5" stroke-miterlimit="10" stroke-linecap="round" stroke-linejoin="round"/>
<path d="M264.43 9.4V5.5" stroke="#292D32" stroke-width="1.5" stroke-miterlimit="10" stroke-linecap="round" stroke-linejoin="round"/>
<path d="M264.43 16.55C265.866 16.55 267.03 15.3859 267.03 13.95C267.03 12.514 265.866 11.35 264.43 11.35C262.994 11.35 261.83 12.514 261.83 13.95C261.83 15.3859 262.994 16.55 264.43 16.55Z" stroke="#292D32" stroke-width="1.5" stroke-miterlimit="10" stroke-linecap="round" stroke-linejoin="round"/>
<path d="M403 22V11" stroke="#292D32" stroke-width="1.5" stroke-miterlimit="10" stroke-linecap="round" stroke-linejoin="round"/>
<path d="M403 7V2" stroke="#292D32" stroke-width="1.5" stroke-miterlimit="10" stroke-linecap="round" stroke-linejoin="round"/>
<path d="M396 22V17" stroke="#292D32" stroke-width="1.5" stroke-miterlimit="10" stroke-linecap="round" stroke-linejoin="round"/>
<path d="M396 13V2" stroke="#292D32" stroke-width="1.5" stroke-miterlimit="10" stroke-linecap="round" stroke-linejoin="round"/>
<path d="M389 22V11" stroke="#292D32" stroke-width="1.5" stroke-miterlimit="10" stroke-linecap="round" stroke-linejoin="round"/>
<path d="M389 7V2" stroke="#292D32" stroke-width="1.5" stroke-miterlimit="10" stroke-linecap="round" stroke-linejoin="round"/>
<path d="M387 11H391" stroke="#292D32" stroke-width="1.5" stroke-miterlimit="10" stroke-linecap="round" stroke-linejoin="round"/>
<path d="M401 11H405" stroke="#292D32" stroke-width="1.5" stroke-miterlimit="10" stroke-linecap="round" stroke-linejoin="round"/>
<path d="M394 13H398" stroke="#292D32" stroke-width="1.5" stroke-miterlimit="10" stroke-linecap="round" stroke-linejoin="round"/>
<path d="M524 9.32C525.19 9.32 526.16 8.35 526.16 7.16C526.16 5.97 525.19 5 524 5C522.81 5 521.84 5.97 521.84 7.16C521.84 8.35 522.81 9.32 524 9.32Z" stroke="#292D32" stroke-width="1.5" stroke-linecap="round" stroke-linejoin="round"/>
<path d="M518.79 19C519.98 19 520.95 18.03 520.95 16.84C520.95 15.65 519.98 14.68 518.79 14.68C517.6 14.68 516.63 15.65 516.63 16.84C516.63 18.03 517.59 19 518.79 19Z" stroke="#292D32" stroke-width="1.5" stroke-linecap="round" stroke-linejoin="round"/>
<path d="M529.21 19C530.4 19 531.37 18.03 531.37 16.84C531.37 15.65 530.4 14.68 529.21 14.68C528.02 14.68 527.05 15.65 527.05 16.84C527.05 18.03 528.02 19 529.21 19Z" stroke="#292D32" stroke-width="1.5" stroke-linecap="round" stroke-linejoin="round"/>
<path d="M584.3 16H586.7C588.7 16 589.5 15.2 589.5 13.2V10.8C589.5 8.8 588.7 8 586.7 8H584.3C582.3 8 581.5 8.8 581.5 10.8V13.2C581.5 15.2 582.3 16 584.3 16Z" stroke="#292D32" stroke-width="1.5" stroke-linecap="round" stroke-linejoin="round"/>
<path d="M593 20H583C579 20 578 19 578 15V9C578 5 579 4 583 4H593C597 4 598 5 598 9V15C598 19 597 20 593 20Z" stroke="#292D32" stroke-width="1.5" stroke-linecap="round" stroke-linejoin="round"/>
<path d="M653.3 16H655.7C657.7 16 658.5 15.2 658.5 13.2V10.8C658.5 8.8 657.7 8 655.7 8H653.3C651.3 8 650.5 8.8 650.5 10.8V13.2C650.5 15.2 651.3 16 653.3 16Z" stroke="#292D32" stroke-width="1.5" stroke-linecap="round" stroke-linejoin="round"/>
<path d="M657 20H647C643 20 642 19 642 15V9C642 5 643 4 647 4H657C661 4 662 5 662 9V15C662 19 661 20 657 20Z" stroke="#292D32" stroke-width="1.5" stroke-linecap="round" stroke-linejoin="round"/>
<path d="M81 10H83C85 10 86 9 86 7V5C86 3 85 2 83 2H81C79 2 78 3 78 5V7C78 9 79 10 81 10Z" stroke="#292D32" stroke-width="1.5" stroke-miterlimit="10" stroke-linecap="round" stroke-linejoin="round"/>
<path d="M69 22H71C73 22 74 21 74 19V17C74 15 73 14 71 14H69C67 14 66 15 66 17V19C66 21 67 22 69 22Z" stroke="#292D32" stroke-width="1.5" stroke-miterlimit="10" stroke-linecap="round" stroke-linejoin="round"/>
<path d="M70 10C72.2091 10 74 8.20914 74 6C74 3.79086 72.2091 2 70 2C67.7909 2 66 3.79086 66 6C66 8.20914 67.7909 10 70 10Z" stroke="#292D32" stroke-width="1.5" stroke-miterlimit="10" stroke-linecap="round" stroke-linejoin="round"/>
<path d="M82 22C84.2091 22 86 20.2091 86 18C86 15.7909 84.2091 14 82 14C79.7909 14 78 15.7909 78 18C78 20.2091 79.7909 22 82 22Z" stroke="#292D32" stroke-width="1.5" stroke-miterlimit="10" stroke-linecap="round" stroke-linejoin="round"/>
<path d="M10 68H14C18.42 68 22 71.58 22 76C22 80.42 18.42 84 14 84H10C5.58 84 2 80.42 2 76C2 71.58 5.58 68 10 68Z" stroke="#292D32" stroke-width="1.5" stroke-linecap="round" stroke-linejoin="round"/>
<path d="M10 80C12.2091 80 14 78.2091 14 76C14 73.7909 12.2091 72 10 72C7.79086 72 6 73.7909 6 76C6 78.2091 7.79086 80 10 80Z" stroke="#292D32" stroke-width="1.5" stroke-linecap="round" stroke-linejoin="round"/>
<path d="M74 68H78C82.42 68 86 71.58 86 76C86 80.42 82.42 84 78 84H74C69.58 84 66 80.42 66 76C66 71.58 69.58 68 74 68Z" stroke="#292D32" stroke-width="1.5" stroke-linecap="round" stroke-linejoin="round"/>
<path d="M78 80C80.2091 80 82 78.2091 82 76C82 73.7909 80.2091 72 78 72C75.7909 72 74 73.7909 74 76C74 78.2091 75.7909 80 78 80Z" stroke="#292D32" stroke-width="1.5" stroke-linecap="round" stroke-linejoin="round"/>
</svg>
