<svg width="664" height="88" viewBox="0 0 664 88" fill="none" xmlns="http://www.w3.org/2000/svg">
<path d="M330.49 2.23006L325.5 4.10006C324.35 4.53006 323.41 5.89006 323.41 7.12006V14.5501C323.41 15.7301 324.19 17.2801 325.14 17.9901L329.44 21.2001C330.85 22.2601 333.17 22.2601 334.58 21.2001L338.88 17.9901C339.83 17.2801 340.61 15.7301 340.61 14.5501V7.12006C340.61 5.89006 339.67 4.53006 338.52 4.10006L333.53 2.23006C332.68 1.92006 331.32 1.92006 330.49 2.23006Z" stroke="#292D32" stroke-width="1.5" stroke-linecap="round" stroke-linejoin="round"/>
<path d="M332 15.5C334.209 15.5 336 13.7091 336 11.5C336 9.29086 334.209 7.5 332 7.5C329.791 7.5 328 9.29086 328 11.5C328 13.7091 329.791 15.5 332 15.5Z" stroke="#292D32" stroke-width="1.5" stroke-miterlimit="10" stroke-linecap="round" stroke-linejoin="round"/>
<path d="M332.25 10.25V11.18C332.25 11.53 332.07 11.86 331.76 12.04L331 12.5" stroke="#292D32" stroke-width="1.5" stroke-miterlimit="10" stroke-linecap="round" stroke-linejoin="round"/>
<path d="M392 2V5" stroke="#292D32" stroke-width="1.5" stroke-miterlimit="10" stroke-linecap="round" stroke-linejoin="round"/>
<path d="M400 2V5" stroke="#292D32" stroke-width="1.5" stroke-miterlimit="10" stroke-linecap="round" stroke-linejoin="round"/>
<path d="M387.5 9.09009H404.5" stroke="#292D32" stroke-width="1.5" stroke-miterlimit="10" stroke-linecap="round" stroke-linejoin="round"/>
<path d="M405 8.5V17C405 20 403.5 22 400 22H392C388.5 22 387 20 387 17V8.5C387 5.5 388.5 3.5 392 3.5H400C403.5 3.5 405 5.5 405 8.5Z" stroke="#292D32" stroke-width="1.5" stroke-miterlimit="10" stroke-linecap="round" stroke-linejoin="round"/>
<path d="M399.695 13.7H399.704" stroke="#292D32" stroke-width="2" stroke-linecap="round" stroke-linejoin="round"/>
<path d="M399.695 16.7H399.704" stroke="#292D32" stroke-width="2" stroke-linecap="round" stroke-linejoin="round"/>
<path d="M395.995 13.7H396.004" stroke="#292D32" stroke-width="2" stroke-linecap="round" stroke-linejoin="round"/>
<path d="M395.995 16.7H396.004" stroke="#292D32" stroke-width="2" stroke-linecap="round" stroke-linejoin="round"/>
<path d="M392.294 13.7H392.303" stroke="#292D32" stroke-width="2" stroke-linecap="round" stroke-linejoin="round"/>
<path d="M392.294 16.7H392.303" stroke="#292D32" stroke-width="2" stroke-linecap="round" stroke-linejoin="round"/>
<path d="M456 2V5" stroke="#292D32" stroke-width="1.5" stroke-miterlimit="10" stroke-linecap="round" stroke-linejoin="round"/>
<path d="M464 2V5" stroke="#292D32" stroke-width="1.5" stroke-miterlimit="10" stroke-linecap="round" stroke-linejoin="round"/>
<path d="M451.5 9.09009H468.5" stroke="#292D32" stroke-width="1.5" stroke-miterlimit="10" stroke-linecap="round" stroke-linejoin="round"/>
<path d="M470 19C470 19.75 469.79 20.46 469.42 21.06C468.73 22.22 467.46 23 466 23C464.99 23 464.07 22.63 463.37 22C463.06 21.74 462.79 21.42 462.58 21.06C462.21 20.46 462 19.75 462 19C462 16.79 463.79 15 466 15C467.2 15 468.27 15.53 469 16.36C469.62 17.07 470 17.99 470 19Z" stroke="#292D32" stroke-width="1.5" stroke-miterlimit="10" stroke-linecap="round" stroke-linejoin="round"/>
<path d="M464.44 19L465.43 19.99L467.56 18.02" stroke="#292D32" stroke-width="1.5" stroke-linecap="round" stroke-linejoin="round"/>
<path d="M469 8.5V16.36C468.27 15.53 467.2 15 466 15C463.79 15 462 16.79 462 19C462 19.75 462.21 20.46 462.58 21.06C462.79 21.42 463.06 21.74 463.37 22H456C452.5 22 451 20 451 17V8.5C451 5.5 452.5 3.5 456 3.5H464C467.5 3.5 469 5.5 469 8.5Z" stroke="#292D32" stroke-width="1.5" stroke-miterlimit="10" stroke-linecap="round" stroke-linejoin="round"/>
<path d="M459.995 13.7H460.004" stroke="#292D32" stroke-width="2" stroke-linecap="round" stroke-linejoin="round"/>
<path d="M456.294 13.7H456.303" stroke="#292D32" stroke-width="2" stroke-linecap="round" stroke-linejoin="round"/>
<path d="M456.294 16.7H456.303" stroke="#292D32" stroke-width="2" stroke-linecap="round" stroke-linejoin="round"/>
<path d="M520 2V5" stroke="#292D32" stroke-width="1.5" stroke-miterlimit="10" stroke-linecap="round" stroke-linejoin="round"/>
<path d="M528 2V5" stroke="#292D32" stroke-width="1.5" stroke-miterlimit="10" stroke-linecap="round" stroke-linejoin="round"/>
<path d="M530.2 21.4C531.967 21.4 533.4 19.9673 533.4 18.2C533.4 16.4327 531.967 15 530.2 15C528.433 15 527 16.4327 527 18.2C527 19.9673 528.433 21.4 530.2 21.4Z" stroke="#292D32" stroke-width="1.5" stroke-linecap="round" stroke-linejoin="round"/>
<path d="M534 22L533 21" stroke="#292D32" stroke-width="1.5" stroke-linecap="round" stroke-linejoin="round"/>
<path d="M515.5 9.09009H532.5" stroke="#292D32" stroke-width="1.5" stroke-miterlimit="10" stroke-linecap="round" stroke-linejoin="round"/>
<path d="M525.37 22H520C516.5 22 515 20 515 17V8.5C515 5.5 516.5 3.5 520 3.5H528C531.5 3.5 533 5.5 533 8.5V13" stroke="#292D32" stroke-width="1.5" stroke-miterlimit="10" stroke-linecap="round" stroke-linejoin="round"/>
<path d="M523.995 13.7H524.004" stroke="#292D32" stroke-width="2" stroke-linecap="round" stroke-linejoin="round"/>
<path d="M520.294 13.7H520.303" stroke="#292D32" stroke-width="2" stroke-linecap="round" stroke-linejoin="round"/>
<path d="M520.294 16.7H520.303" stroke="#292D32" stroke-width="2" stroke-linecap="round" stroke-linejoin="round"/>
<path d="M584 2V5" stroke="#292D32" stroke-width="1.5" stroke-miterlimit="10" stroke-linecap="round" stroke-linejoin="round"/>
<path d="M592 2V5" stroke="#292D32" stroke-width="1.5" stroke-miterlimit="10" stroke-linecap="round" stroke-linejoin="round"/>
<path d="M579.5 9.09009H596.5" stroke="#292D32" stroke-width="1.5" stroke-miterlimit="10" stroke-linecap="round" stroke-linejoin="round"/>
<path d="M594 23C596.209 23 598 21.2091 598 19C598 16.7909 596.209 15 594 15C591.791 15 590 16.7909 590 19C590 21.2091 591.791 23 594 23Z" stroke="#292D32" stroke-width="1.5" stroke-miterlimit="10" stroke-linecap="round" stroke-linejoin="round"/>
<path d="M595.069 20.11L592.949 18" stroke="#292D32" stroke-width="1.5" stroke-miterlimit="10" stroke-linecap="round" stroke-linejoin="round"/>
<path d="M595.05 18.02L592.93 20.14" stroke="#292D32" stroke-width="1.5" stroke-miterlimit="10" stroke-linecap="round" stroke-linejoin="round"/>
<path d="M597 8.5V16.36C596.27 15.53 595.2 15 594 15C591.79 15 590 16.79 590 19C590 19.75 590.21 20.46 590.58 21.06C590.79 21.42 591.06 21.74 591.37 22H584C580.5 22 579 20 579 17V8.5C579 5.5 580.5 3.5 584 3.5H592C595.5 3.5 597 5.5 597 8.5Z" stroke="#292D32" stroke-width="1.5" stroke-miterlimit="10" stroke-linecap="round" stroke-linejoin="round"/>
<path d="M587.995 13.7H588.004" stroke="#292D32" stroke-width="2" stroke-linecap="round" stroke-linejoin="round"/>
<path d="M584.294 13.7H584.303" stroke="#292D32" stroke-width="2" stroke-linecap="round" stroke-linejoin="round"/>
<path d="M584.294 16.7H584.303" stroke="#292D32" stroke-width="2" stroke-linecap="round" stroke-linejoin="round"/>
<path d="M648 2V5" stroke="#292D32" stroke-width="1.5" stroke-miterlimit="10" stroke-linecap="round" stroke-linejoin="round"/>
<path d="M656 2V5" stroke="#292D32" stroke-width="1.5" stroke-miterlimit="10" stroke-linecap="round" stroke-linejoin="round"/>
<path d="M643.5 9.09009H660.5" stroke="#292D32" stroke-width="1.5" stroke-miterlimit="10" stroke-linecap="round" stroke-linejoin="round"/>
<path d="M658 23C660.209 23 662 21.2091 662 19C662 16.7909 660.209 15 658 15C655.791 15 654 16.7909 654 19C654 21.2091 655.791 23 658 23Z" stroke="#292D32" stroke-width="1.5" stroke-miterlimit="10" stroke-linecap="round" stroke-linejoin="round"/>
<path d="M659.49 19.05H656.51" stroke="#292D32" stroke-width="1.5" stroke-miterlimit="10" stroke-linecap="round" stroke-linejoin="round"/>
<path d="M658 17.5901V20.5801" stroke="#292D32" stroke-width="1.5" stroke-miterlimit="10" stroke-linecap="round" stroke-linejoin="round"/>
<path d="M661 8.5V16.36C660.27 15.53 659.2 15 658 15C655.79 15 654 16.79 654 19C654 19.75 654.21 20.46 654.58 21.06C654.79 21.42 655.06 21.74 655.37 22H648C644.5 22 643 20 643 17V8.5C643 5.5 644.5 3.5 648 3.5H656C659.5 3.5 661 5.5 661 8.5Z" stroke="#292D32" stroke-width="1.5" stroke-miterlimit="10" stroke-linecap="round" stroke-linejoin="round"/>
<path d="M651.995 13.7H652.004" stroke="#292D32" stroke-width="2" stroke-linecap="round" stroke-linejoin="round"/>
<path d="M648.294 13.7H648.303" stroke="#292D32" stroke-width="2" stroke-linecap="round" stroke-linejoin="round"/>
<path d="M648.294 16.7H648.303" stroke="#292D32" stroke-width="2" stroke-linecap="round" stroke-linejoin="round"/>
<path d="M8 66V69" stroke="#292D32" stroke-width="1.5" stroke-miterlimit="10" stroke-linecap="round" stroke-linejoin="round"/>
<path d="M16 66V69" stroke="#292D32" stroke-width="1.5" stroke-miterlimit="10" stroke-linecap="round" stroke-linejoin="round"/>
<path d="M3.5 73.0901H20.5" stroke="#292D32" stroke-width="1.5" stroke-miterlimit="10" stroke-linecap="round" stroke-linejoin="round"/>
<path d="M19.21 79.77L15.6701 83.31C15.5301 83.45 15.4 83.71 15.37 83.9L15.18 85.25C15.11 85.74 15.45 86.0801 15.94 86.0101L17.29 85.82C17.48 85.79 17.75 85.66 17.88 85.52L21.4201 81.9801C22.0301 81.3701 22.3201 80.6601 21.4201 79.7601C20.5301 78.8701 19.82 79.16 19.21 79.77Z" stroke="#292D32" stroke-width="1.5" stroke-miterlimit="10" stroke-linecap="round" stroke-linejoin="round"/>
<path d="M18.7002 80.28C19.0002 81.36 19.8402 82.2 20.9202 82.5" stroke="#292D32" stroke-width="1.5" stroke-miterlimit="10" stroke-linecap="round" stroke-linejoin="round"/>
<path d="M12 86H8C4.5 86 3 84 3 81V72.5C3 69.5 4.5 67.5 8 67.5H16C19.5 67.5 21 69.5 21 72.5V76" stroke="#292D32" stroke-width="1.5" stroke-miterlimit="10" stroke-linecap="round" stroke-linejoin="round"/>
<path d="M11.9955 77.7H12.0045" stroke="#292D32" stroke-width="2" stroke-linecap="round" stroke-linejoin="round"/>
<path d="M8.29431 77.7H8.30329" stroke="#292D32" stroke-width="2" stroke-linecap="round" stroke-linejoin="round"/>
<path d="M8.29431 80.7H8.30329" stroke="#292D32" stroke-width="2" stroke-linecap="round" stroke-linejoin="round"/>
<path d="M72 66V69" stroke="#292D32" stroke-width="1.5" stroke-miterlimit="10" stroke-linecap="round" stroke-linejoin="round"/>
<path d="M80 66V69" stroke="#292D32" stroke-width="1.5" stroke-miterlimit="10" stroke-linecap="round" stroke-linejoin="round"/>
<path d="M67.5 73.0901H84.5" stroke="#292D32" stroke-width="1.5" stroke-miterlimit="10" stroke-linecap="round" stroke-linejoin="round"/>
<path d="M85 72.5V81C85 84 83.5 86 80 86H72C68.5 86 67 84 67 81V72.5C67 69.5 68.5 67.5 72 67.5H80C83.5 67.5 85 69.5 85 72.5Z" stroke="#292D32" stroke-width="1.5" stroke-miterlimit="10" stroke-linecap="round" stroke-linejoin="round"/>
<path d="M75.9955 77.7H76.0045" stroke="#292D32" stroke-width="2" stroke-linecap="round" stroke-linejoin="round"/>
<path d="M72.2943 77.7H72.3033" stroke="#292D32" stroke-width="2" stroke-linecap="round" stroke-linejoin="round"/>
<path d="M72.2943 80.7H72.3033" stroke="#292D32" stroke-width="2" stroke-linecap="round" stroke-linejoin="round"/>
<path d="M140 86C145.523 86 150 81.5228 150 76C150 70.4772 145.523 66 140 66C134.477 66 130 70.4772 130 76C130 81.5228 134.477 86 140 86Z" stroke="#292D32" stroke-width="1.5" stroke-miterlimit="10" stroke-linecap="round" stroke-linejoin="round"/>
<path d="M137.89 69.8301V71.8301" stroke="#292D32" stroke-width="1.5" stroke-miterlimit="10" stroke-linecap="round" stroke-linejoin="round"/>
<path d="M142.11 69.8301V71.8301" stroke="#292D32" stroke-width="1.5" stroke-miterlimit="10" stroke-linecap="round" stroke-linejoin="round"/>
<path d="M135.53 74.1401H144.47" stroke="#292D32" stroke-width="1.5" stroke-miterlimit="10" stroke-linecap="round" stroke-linejoin="round"/>
<path d="M141.5 81.6702H138.5C136 81.6702 134.5 79.8702 134.5 77.6702V74.6702C134.5 72.4702 136 70.6702 138.5 70.6702H141.5C144 70.6702 145.5 72.4702 145.5 74.6702V77.6702C145.5 79.8702 144 81.6702 141.5 81.6702Z" stroke="#292D32" stroke-width="1.5" stroke-miterlimit="10" stroke-linecap="round" stroke-linejoin="round"/>
<path d="M15.24 2H8.76004C5.00004 2 4.71004 5.38 6.74004 7.22L17.26 16.78C19.29 18.62 19 22 15.24 22H8.76004C5.00004 22 4.71004 18.62 6.74004 16.78L17.26 7.22C19.29 5.38 19 2 15.24 2Z" stroke="#292D32" stroke-width="1.5" stroke-linecap="round" stroke-linejoin="round"/>
<path d="M86 12C86 17.52 81.52 22 76 22C70.48 22 66 17.52 66 12C66 6.48 70.48 2 76 2C81.52 2 86 6.48 86 12Z" stroke="#292D32" stroke-width="1.5" stroke-linecap="round" stroke-linejoin="round"/>
<path d="M79.7099 15.18L76.6099 13.33C76.0699 13.01 75.6299 12.24 75.6299 11.61V7.51001" stroke="#292D32" stroke-width="1.5" stroke-linecap="round" stroke-linejoin="round"/>
<path d="M148.75 13.25C148.75 18.08 144.83 22 140 22C135.17 22 131.25 18.08 131.25 13.25C131.25 8.42 135.17 4.5 140 4.5C144.83 4.5 148.75 8.42 148.75 13.25Z" stroke="#292D32" stroke-width="1.5" stroke-linecap="round" stroke-linejoin="round"/>
<path d="M140 8V13" stroke="#292D32" stroke-width="1.5" stroke-linecap="round" stroke-linejoin="round"/>
<path d="M137 2H143" stroke="#292D32" stroke-width="1.5" stroke-miterlimit="10" stroke-linecap="round" stroke-linejoin="round"/>
<path d="M204 22C199.17 22 195.25 18.08 195.25 13.25C195.25 8.42 199.17 4.5 204 4.5C208.83 4.5 212.75 8.42 212.75 13.25" stroke="#292D32" stroke-width="1.5" stroke-linecap="round" stroke-linejoin="round"/>
<path d="M204 8V13" stroke="#292D32" stroke-width="1.5" stroke-linecap="round" stroke-linejoin="round"/>
<path d="M201 2H207" stroke="#292D32" stroke-width="1.5" stroke-miterlimit="10" stroke-linecap="round" stroke-linejoin="round"/>
<path d="M211 17V21" stroke="#292D32" stroke-width="1.5" stroke-linecap="round" stroke-linejoin="round"/>
<path d="M208 17V21" stroke="#292D32" stroke-width="1.5" stroke-linecap="round" stroke-linejoin="round"/>
<path d="M268 8V13" stroke="#292D32" stroke-width="1.5" stroke-linecap="round" stroke-linejoin="round"/>
<path d="M268 22C263.17 22 259.25 18.08 259.25 13.25C259.25 8.42 263.17 4.5 268 4.5C272.83 4.5 276.75 8.42 276.75 13.25" stroke="#292D32" stroke-width="1.5" stroke-linecap="round" stroke-linejoin="round"/>
<path d="M265 2H271" stroke="#292D32" stroke-width="1.5" stroke-miterlimit="10" stroke-linecap="round" stroke-linejoin="round"/>
<path d="M270.9 18.5V17.34C270.9 15.91 271.92 15.32 273.16 16.04L274.16 16.62L275.16 17.2C276.4 17.92 276.4 19.09 275.16 19.81L274.16 20.39L273.16 20.97C271.92 21.69 270.9 21.1 270.9 19.67V18.5Z" stroke="#292D32" stroke-width="1.5" stroke-miterlimit="10" stroke-linecap="round" stroke-linejoin="round"/>
<path d="M200 66V69" stroke="#292D32" stroke-width="1.5" stroke-miterlimit="10" stroke-linecap="round" stroke-linejoin="round"/>
<path d="M208 66V69" stroke="#292D32" stroke-width="1.5" stroke-miterlimit="10" stroke-linecap="round" stroke-linejoin="round"/>
<path d="M208 67.5C211.33 67.68 213 68.95 213 73.65V79.83C213 83.95 212 86.01 207 86.01H201C196 86.01 195 83.95 195 79.83V73.65C195 68.95 196.67 67.69 200 67.5H208Z" stroke="#292D32" stroke-width="1.5" stroke-miterlimit="10" stroke-linecap="round" stroke-linejoin="round"/>
<path d="M212.75 81.6001H195.25" stroke="#292D32" stroke-width="1.5" stroke-miterlimit="10" stroke-linecap="round" stroke-linejoin="round"/>
<path d="M204 72.25C202.77 72.25 201.73 72.92 201.73 74.22C201.73 74.84 202.02 75.31 202.46 75.61C201.85 75.97 201.5 76.55 201.5 77.23C201.5 78.47 202.45 79.24 204 79.24C205.54 79.24 206.5 78.47 206.5 77.23C206.5 76.55 206.15 75.96 205.53 75.61C205.98 75.3 206.26 74.84 206.26 74.22C206.26 72.92 205.23 72.25 204 72.25ZM204 75.09C203.48 75.09 203.1 74.78 203.1 74.29C203.1 73.79 203.48 73.5 204 73.5C204.52 73.5 204.9 73.79 204.9 74.29C204.9 74.78 204.52 75.09 204 75.09ZM204 78C203.34 78 202.86 77.67 202.86 77.07C202.86 76.47 203.34 76.15 204 76.15C204.66 76.15 205.14 76.48 205.14 77.07C205.14 77.67 204.66 78 204 78Z" fill="#292D32"/>
</svg>
