<svg width="20" height="21" viewBox="0 0 20 21" fill="none" xmlns="http://www.w3.org/2000/svg">
<path d="M14.0921 10.6524C14.1132 12.9224 16.0835 13.6778 16.1053 13.6874C16.0887 13.7406 15.7905 14.7639 15.0673 15.8208C14.4421 16.7346 13.7932 17.645 12.7711 17.6638C11.7667 17.6823 11.4437 17.0683 10.2954 17.0683C9.14751 17.0683 8.78868 17.645 7.83793 17.6824C6.85129 17.7197 6.09994 16.6943 5.46958 15.7838C4.18145 13.9215 3.19706 10.5214 4.51885 8.22631C5.17549 7.08654 6.34895 6.36479 7.62264 6.34628C8.5915 6.3278 9.50596 6.9981 10.0983 6.9981C10.6902 6.9981 11.8015 6.19201 12.9697 6.31039C13.4588 6.33075 14.8317 6.50795 15.7132 7.7983C15.6422 7.84233 14.0751 8.7546 14.0921 10.6524ZM12.2045 5.07833C12.7283 4.44427 13.0809 3.5616 12.9847 2.68335C12.2297 2.7137 11.3167 3.18649 10.7751 3.8202C10.2897 4.38138 9.86468 5.27958 9.97937 6.14045C10.8209 6.20556 11.6807 5.71279 12.2045 5.07833Z" fill="black"/>
</svg>
