<svg width="20" height="21" viewBox="0 0 20 21" fill="none" xmlns="http://www.w3.org/2000/svg">
<path d="M6.25 6.1001V3.8501C6.25 3.65119 6.32902 3.46042 6.46967 3.31977C6.61032 3.17912 6.80109 3.1001 7 3.1001H16C16.1989 3.1001 16.3897 3.17912 16.5303 3.31977C16.671 3.46042 16.75 3.65119 16.75 3.8501V14.3501C16.75 14.549 16.671 14.7398 16.5303 14.8804C16.3897 15.0211 16.1989 15.1001 16 15.1001H13.75V17.3501C13.75 17.7641 13.4125 18.1001 12.9948 18.1001H4.00525C3.90635 18.1007 3.8083 18.0817 3.71674 18.0443C3.62519 18.0069 3.54192 17.9518 3.47174 17.8821C3.40156 17.8124 3.34584 17.7295 3.30779 17.6382C3.26974 17.5469 3.2501 17.449 3.25 17.3501L3.25225 6.8501C3.25225 6.4361 3.58975 6.1001 4.0075 6.1001H6.25ZM4.75225 7.6001L4.75 16.6001H12.25V7.6001H4.75225ZM7.75 6.1001H13.75V13.6001H15.25V4.6001H7.75V6.1001Z" fill="white"/>
</svg>
