<svg width="1440" height="1133" viewBox="0 0 1440 1133" fill="none" xmlns="http://www.w3.org/2000/svg">
<rect width="1440" height="900" fill="#F6F8FA"/>
<rect x="80.5" y="96.5" width="1279" height="707" rx="15.5" fill="white"/>
<rect x="80.5" y="96.5" width="1279" height="707" rx="15.5" stroke="#D0D5DD"/>
<path d="M514.463 436H500.662V395.273H514.742C518.785 395.273 522.259 396.088 525.162 397.719C528.079 399.336 530.32 401.663 531.884 404.699C533.448 407.735 534.231 411.367 534.231 415.597C534.231 419.839 533.442 423.485 531.864 426.534C530.3 429.583 528.039 431.923 525.083 433.554C522.14 435.185 518.6 436 514.463 436ZM508.04 429.616H514.106C516.943 429.616 519.309 429.099 521.205 428.065C523.101 427.018 524.526 425.46 525.481 423.392C526.435 421.311 526.912 418.712 526.912 415.597C526.912 412.481 526.435 409.896 525.481 407.841C524.526 405.773 523.114 404.228 521.245 403.207C519.389 402.173 517.082 401.656 514.324 401.656H508.04V429.616ZM553.885 436.597C550.823 436.597 548.178 435.96 545.95 434.688C543.736 433.402 542.033 431.585 540.84 429.239C539.646 426.879 539.05 424.101 539.05 420.906C539.05 417.764 539.646 415.007 540.84 412.634C542.046 410.247 543.73 408.391 545.891 407.065C548.052 405.726 550.591 405.057 553.507 405.057C555.39 405.057 557.166 405.362 558.837 405.972C560.52 406.568 562.005 407.496 563.291 408.756C564.591 410.015 565.611 411.619 566.354 413.568C567.096 415.504 567.467 417.811 567.467 420.489V422.696H542.43V417.844H560.567C560.554 416.465 560.255 415.239 559.672 414.165C559.089 413.078 558.273 412.223 557.226 411.599C556.192 410.976 554.985 410.665 553.607 410.665C552.135 410.665 550.842 411.023 549.729 411.739C548.615 412.441 547.747 413.369 547.124 414.523C546.514 415.663 546.202 416.916 546.189 418.281V422.517C546.189 424.294 546.514 425.818 547.163 427.091C547.813 428.35 548.721 429.318 549.888 429.994C551.055 430.657 552.42 430.989 553.984 430.989C555.032 430.989 555.98 430.843 556.828 430.551C557.677 430.246 558.412 429.802 559.036 429.219C559.659 428.635 560.129 427.913 560.448 427.051L567.169 427.807C566.745 429.583 565.936 431.134 564.743 432.46C563.563 433.773 562.052 434.794 560.209 435.523C558.366 436.239 556.258 436.597 553.885 436.597ZM597.14 413.528L590.577 414.244C590.392 413.581 590.067 412.958 589.603 412.375C589.152 411.792 588.542 411.321 587.773 410.963C587.004 410.605 586.063 410.426 584.949 410.426C583.451 410.426 582.192 410.751 581.171 411.401C580.163 412.05 579.666 412.892 579.679 413.926C579.666 414.814 579.991 415.537 580.654 416.094C581.33 416.651 582.444 417.108 583.995 417.466L589.205 418.58C592.095 419.203 594.243 420.19 595.648 421.543C597.067 422.895 597.783 424.665 597.796 426.852C597.783 428.775 597.219 430.472 596.106 431.943C595.005 433.402 593.474 434.542 591.512 435.364C589.55 436.186 587.296 436.597 584.75 436.597C581.012 436.597 578.002 435.814 575.722 434.25C573.442 432.672 572.083 430.478 571.645 427.668L578.665 426.991C578.983 428.37 579.66 429.411 580.694 430.114C581.728 430.816 583.073 431.168 584.731 431.168C586.441 431.168 587.813 430.816 588.847 430.114C589.894 429.411 590.418 428.543 590.418 427.509C590.418 426.634 590.08 425.911 589.404 425.341C588.741 424.771 587.707 424.333 586.302 424.028L581.091 422.935C578.161 422.325 575.994 421.297 574.589 419.852C573.183 418.394 572.487 416.551 572.5 414.324C572.487 412.441 572.998 410.811 574.032 409.432C575.079 408.04 576.531 406.966 578.387 406.21C580.256 405.441 582.41 405.057 584.85 405.057C588.429 405.057 591.247 405.819 593.302 407.344C595.37 408.868 596.649 410.93 597.14 413.528ZM609.734 426.415L609.715 417.724H610.868L621.845 405.455H630.257L616.754 420.489H615.263L609.734 426.415ZM603.172 436V395.273H610.371V436H603.172ZM622.342 436L612.399 422.099L617.252 417.028L630.953 436H622.342ZM649.748 405.455V411.023H632.188V405.455H649.748ZM636.523 398.136H643.722V426.812C643.722 427.78 643.868 428.523 644.16 429.04C644.464 429.544 644.862 429.888 645.353 430.074C645.843 430.259 646.387 430.352 646.983 430.352C647.434 430.352 647.845 430.319 648.216 430.253C648.601 430.187 648.893 430.127 649.091 430.074L650.304 435.702C649.92 435.834 649.37 435.98 648.654 436.139C647.951 436.298 647.089 436.391 646.069 436.418C644.266 436.471 642.642 436.199 641.196 435.602C639.751 434.992 638.605 434.051 637.756 432.778C636.921 431.506 636.51 429.915 636.523 428.006V398.136ZM668.204 436.597C665.221 436.597 662.636 435.94 660.448 434.628C658.261 433.315 656.564 431.479 655.357 429.119C654.164 426.759 653.568 424.002 653.568 420.847C653.568 417.691 654.164 414.927 655.357 412.554C656.564 410.181 658.261 408.338 660.448 407.026C662.636 405.713 665.221 405.057 668.204 405.057C671.187 405.057 673.772 405.713 675.96 407.026C678.147 408.338 679.837 410.181 681.031 412.554C682.237 414.927 682.84 417.691 682.84 420.847C682.84 424.002 682.237 426.759 681.031 429.119C679.837 431.479 678.147 433.315 675.96 434.628C673.772 435.94 671.187 436.597 668.204 436.597ZM668.244 430.83C669.861 430.83 671.213 430.385 672.301 429.497C673.388 428.596 674.196 427.389 674.727 425.878C675.27 424.366 675.542 422.683 675.542 420.827C675.542 418.957 675.27 417.267 674.727 415.756C674.196 414.231 673.388 413.018 672.301 412.116C671.213 411.215 669.861 410.764 668.244 410.764C666.587 410.764 665.208 411.215 664.107 412.116C663.02 413.018 662.205 414.231 661.661 415.756C661.131 417.267 660.866 418.957 660.866 420.827C660.866 422.683 661.131 424.366 661.661 425.878C662.205 427.389 663.02 428.596 664.107 429.497C665.208 430.385 666.587 430.83 668.244 430.83ZM688.39 447.455V405.455H695.47V410.506H695.888C696.259 409.763 696.782 408.974 697.459 408.139C698.135 407.291 699.05 406.568 700.203 405.972C701.356 405.362 702.828 405.057 704.618 405.057C706.978 405.057 709.105 405.66 711.001 406.866C712.91 408.06 714.422 409.83 715.535 412.176C716.662 414.509 717.226 417.373 717.226 420.767C717.226 424.121 716.675 426.972 715.575 429.318C714.475 431.665 712.977 433.455 711.081 434.688C709.185 435.92 707.037 436.537 704.638 436.537C702.888 436.537 701.436 436.245 700.282 435.662C699.129 435.079 698.201 434.376 697.498 433.554C696.809 432.719 696.272 431.93 695.888 431.188H695.589V447.455H688.39ZM695.45 420.727C695.45 422.703 695.728 424.433 696.285 425.918C696.855 427.402 697.671 428.562 698.731 429.398C699.805 430.22 701.104 430.631 702.629 430.631C704.22 430.631 705.552 430.206 706.626 429.358C707.7 428.496 708.509 427.323 709.052 425.838C709.609 424.34 709.888 422.636 709.888 420.727C709.888 418.831 709.616 417.148 709.072 415.676C708.529 414.205 707.72 413.051 706.646 412.216C705.572 411.381 704.233 410.963 702.629 410.963C701.091 410.963 699.785 411.367 698.711 412.176C697.638 412.985 696.822 414.118 696.265 415.577C695.722 417.035 695.45 418.752 695.45 420.727ZM752.647 395.273V436H745.269V402.452H745.03L735.505 408.537V401.776L745.627 395.273H752.647ZM768.717 430.432L768.458 432.619C768.273 434.29 767.941 435.987 767.464 437.71C767 439.447 766.509 441.045 765.992 442.503C765.475 443.961 765.058 445.108 764.74 445.943H759.887C760.073 445.134 760.325 444.034 760.643 442.642C760.974 441.25 761.293 439.686 761.597 437.949C761.902 436.212 762.108 434.449 762.214 432.659L762.353 430.432H768.717ZM776.141 436V430.67L790.28 416.81C791.633 415.444 792.76 414.231 793.661 413.17C794.563 412.11 795.239 411.082 795.689 410.088C796.14 409.094 796.366 408.033 796.366 406.906C796.366 405.62 796.074 404.52 795.491 403.605C794.907 402.677 794.105 401.961 793.084 401.457C792.064 400.954 790.903 400.702 789.604 400.702C788.265 400.702 787.092 400.98 786.084 401.537C785.077 402.08 784.295 402.856 783.738 403.864C783.194 404.871 782.922 406.071 782.922 407.463H775.903C775.903 404.878 776.492 402.631 777.672 400.722C778.852 398.812 780.476 397.334 782.545 396.287C784.626 395.24 787.012 394.716 789.704 394.716C792.435 394.716 794.834 395.226 796.903 396.247C798.971 397.268 800.575 398.667 801.715 400.443C802.868 402.22 803.445 404.248 803.445 406.528C803.445 408.053 803.153 409.551 802.57 411.023C801.987 412.494 800.959 414.125 799.488 415.915C798.029 417.705 795.981 419.872 793.343 422.418L786.323 429.557V429.835H804.062V436H776.141ZM824.84 436.557C821.883 436.557 819.258 436.06 816.965 435.065C814.684 434.071 812.895 432.712 811.595 430.989C810.309 429.252 809.673 427.283 809.686 425.082C809.673 423.372 810.044 421.801 810.8 420.369C811.556 418.938 812.576 417.744 813.862 416.79C815.162 415.822 816.607 415.205 818.198 414.94V414.662C816.103 414.198 814.406 413.131 813.107 411.46C811.821 409.777 811.184 407.834 811.198 405.634C811.184 403.539 811.768 401.67 812.948 400.026C814.128 398.382 815.745 397.089 817.8 396.148C819.855 395.193 822.201 394.716 824.84 394.716C827.451 394.716 829.778 395.193 831.82 396.148C833.875 397.089 835.492 398.382 836.672 400.026C837.865 401.67 838.462 403.539 838.462 405.634C838.462 407.834 837.806 409.777 836.493 411.46C835.194 413.131 833.517 414.198 831.462 414.662V414.94C833.053 415.205 834.485 415.822 835.757 416.79C837.043 417.744 838.064 418.938 838.82 420.369C839.589 421.801 839.973 423.372 839.973 425.082C839.973 427.283 839.324 429.252 838.024 430.989C836.725 432.712 834.935 434.071 832.655 435.065C830.388 436.06 827.783 436.557 824.84 436.557ZM824.84 430.869C826.364 430.869 827.69 430.611 828.817 430.094C829.944 429.563 830.819 428.821 831.442 427.866C832.065 426.912 832.383 425.812 832.397 424.565C832.383 423.266 832.045 422.119 831.382 421.125C830.733 420.117 829.838 419.329 828.698 418.759C827.571 418.188 826.285 417.903 824.84 417.903C823.381 417.903 822.082 418.188 820.942 418.759C819.802 419.329 818.9 420.117 818.237 421.125C817.588 422.119 817.27 423.266 817.283 424.565C817.27 425.812 817.575 426.912 818.198 427.866C818.821 428.808 819.696 429.544 820.823 430.074C821.963 430.604 823.302 430.869 824.84 430.869ZM824.84 412.315C826.086 412.315 827.186 412.063 828.141 411.56C829.109 411.056 829.871 410.353 830.428 409.452C830.985 408.55 831.27 407.509 831.283 406.33C831.27 405.163 830.991 404.142 830.448 403.267C829.904 402.379 829.148 401.696 828.181 401.219C827.213 400.728 826.099 400.483 824.84 400.483C823.554 400.483 822.42 400.728 821.439 401.219C820.471 401.696 819.716 402.379 819.172 403.267C818.642 404.142 818.383 405.163 818.397 406.33C818.383 407.509 818.648 408.55 819.192 409.452C819.749 410.34 820.511 411.043 821.479 411.56C822.46 412.063 823.58 412.315 824.84 412.315ZM861.005 436.776C857.73 436.776 854.92 435.947 852.573 434.29C850.24 432.619 848.443 430.213 847.184 427.071C845.938 423.916 845.314 420.117 845.314 415.676C845.328 411.235 845.957 407.456 847.204 404.341C848.463 401.212 850.26 398.826 852.593 397.182C854.939 395.538 857.743 394.716 861.005 394.716C864.266 394.716 867.07 395.538 869.417 397.182C871.763 398.826 873.56 401.212 874.806 404.341C876.065 407.47 876.695 411.248 876.695 415.676C876.695 420.131 876.065 423.936 874.806 427.091C873.56 430.233 871.763 432.633 869.417 434.29C867.083 435.947 864.279 436.776 861.005 436.776ZM861.005 430.551C863.55 430.551 865.559 429.298 867.03 426.793C868.515 424.274 869.258 420.568 869.258 415.676C869.258 412.441 868.92 409.723 868.243 407.523C867.567 405.322 866.613 403.665 865.38 402.551C864.147 401.424 862.689 400.861 861.005 400.861C858.473 400.861 856.471 402.12 854.999 404.639C853.528 407.145 852.785 410.824 852.772 415.676C852.759 418.924 853.083 421.655 853.746 423.869C854.422 426.083 855.377 427.754 856.61 428.881C857.843 429.994 859.308 430.551 861.005 430.551ZM882.822 447.455V405.455H889.902V410.506H890.319C890.69 409.763 891.214 408.974 891.89 408.139C892.566 407.291 893.481 406.568 894.634 405.972C895.788 405.362 897.259 405.057 899.049 405.057C901.409 405.057 903.537 405.66 905.433 406.866C907.342 408.06 908.853 409.83 909.967 412.176C911.094 414.509 911.657 417.373 911.657 420.767C911.657 424.121 911.107 426.972 910.007 429.318C908.906 431.665 907.408 433.455 905.512 434.688C903.616 435.92 901.469 436.537 899.069 436.537C897.319 436.537 895.867 436.245 894.714 435.662C893.561 435.079 892.633 434.376 891.93 433.554C891.241 432.719 890.704 431.93 890.319 431.188H890.021V447.455H882.822ZM889.882 420.727C889.882 422.703 890.16 424.433 890.717 425.918C891.287 427.402 892.102 428.562 893.163 429.398C894.237 430.22 895.536 430.631 897.061 430.631C898.652 430.631 899.984 430.206 901.058 429.358C902.132 428.496 902.94 427.323 903.484 425.838C904.041 424.34 904.319 422.636 904.319 420.727C904.319 418.831 904.047 417.148 903.504 415.676C902.96 414.205 902.152 413.051 901.078 412.216C900.004 411.381 898.665 410.963 897.061 410.963C895.523 410.963 894.217 411.367 893.143 412.176C892.069 412.985 891.254 414.118 890.697 415.577C890.153 417.035 889.882 418.752 889.882 420.727ZM922 405.455L928.165 416.73L934.429 405.455H942.045L932.838 420.727L942.204 436H934.628L928.165 425.003L921.761 436H914.125L923.432 420.727L914.364 405.455H922Z" fill="#101828"/>
<g filter="url(#filter0_d_102_10311)">
<rect x="632" y="472" width="92" height="44" rx="8" fill="white"/>
<rect x="632.5" y="472.5" width="91" height="43" rx="7.5" stroke="#CDD0D5"/>
<path d="M651.307 494.761L658.619 487.455L665.926 494.761H662.256V500H654.983V494.761H651.307ZM654.67 493.466H656.608V498.705H660.625V493.466H662.562L658.619 489.523L654.67 493.466ZM678.976 491.273C678.908 490.697 678.631 490.25 678.146 489.932C677.661 489.614 677.067 489.455 676.362 489.455C675.847 489.455 675.396 489.538 675.01 489.705C674.627 489.871 674.328 490.1 674.112 490.392C673.9 490.684 673.794 491.015 673.794 491.386C673.794 491.697 673.868 491.964 674.016 492.188C674.167 492.407 674.36 492.591 674.595 492.739C674.83 492.883 675.076 493.002 675.334 493.097C675.591 493.187 675.828 493.261 676.044 493.318L677.226 493.636C677.529 493.716 677.866 493.826 678.237 493.966C678.612 494.106 678.97 494.297 679.311 494.54C679.656 494.778 679.94 495.085 680.163 495.46C680.387 495.835 680.499 496.295 680.499 496.841C680.499 497.47 680.334 498.038 680.004 498.545C679.679 499.053 679.201 499.456 678.572 499.756C677.947 500.055 677.188 500.205 676.294 500.205C675.461 500.205 674.739 500.07 674.129 499.801C673.523 499.532 673.046 499.157 672.697 498.676C672.353 498.195 672.158 497.636 672.112 497H673.567C673.605 497.439 673.752 497.803 674.01 498.091C674.271 498.375 674.601 498.587 674.999 498.727C675.4 498.864 675.832 498.932 676.294 498.932C676.832 498.932 677.315 498.845 677.743 498.67C678.171 498.492 678.51 498.246 678.76 497.932C679.01 497.614 679.135 497.242 679.135 496.818C679.135 496.432 679.027 496.117 678.811 495.875C678.595 495.633 678.311 495.436 677.959 495.284C677.607 495.133 677.226 495 676.817 494.886L675.385 494.477C674.476 494.216 673.756 493.843 673.226 493.358C672.696 492.873 672.43 492.239 672.43 491.455C672.43 490.803 672.607 490.235 672.959 489.75C673.315 489.261 673.792 488.883 674.391 488.614C674.993 488.341 675.665 488.205 676.408 488.205C677.158 488.205 677.824 488.339 678.408 488.608C678.991 488.873 679.453 489.237 679.794 489.699C680.139 490.161 680.321 490.686 680.339 491.273H678.976ZM683.798 494.75V500H682.458V488.364H683.798V492.636H683.912C684.117 492.186 684.423 491.828 684.833 491.562C685.245 491.294 685.795 491.159 686.48 491.159C687.075 491.159 687.596 491.278 688.043 491.517C688.49 491.752 688.836 492.114 689.083 492.602C689.333 493.087 689.458 493.705 689.458 494.455V500H688.117V494.545C688.117 493.852 687.937 493.316 687.577 492.938C687.221 492.555 686.726 492.364 686.094 492.364C685.654 492.364 685.261 492.456 684.912 492.642C684.567 492.828 684.295 493.098 684.094 493.455C683.897 493.811 683.798 494.242 683.798 494.75ZM691.735 500V491.273H693.076V500H691.735ZM692.416 489.818C692.155 489.818 691.93 489.729 691.74 489.551C691.555 489.373 691.462 489.159 691.462 488.909C691.462 488.659 691.555 488.445 691.74 488.267C691.93 488.089 692.155 488 692.416 488C692.678 488 692.901 488.089 693.087 488.267C693.276 488.445 693.371 488.659 693.371 488.909C693.371 489.159 693.276 489.373 693.087 489.551C692.901 489.729 692.678 489.818 692.416 489.818ZM699.242 491.273V492.409H694.537V491.273H699.242ZM695.946 500V490.068C695.946 489.568 696.064 489.152 696.299 488.818C696.534 488.485 696.838 488.235 697.213 488.068C697.588 487.902 697.984 487.818 698.401 487.818C698.731 487.818 698.999 487.845 699.208 487.898C699.416 487.951 699.571 488 699.674 488.045L699.287 489.205C699.219 489.182 699.124 489.153 699.003 489.119C698.886 489.085 698.731 489.068 698.537 489.068C698.094 489.068 697.774 489.18 697.577 489.403C697.384 489.627 697.287 489.955 697.287 490.386V500H695.946ZM704.741 491.273V492.409H700.218V491.273H704.741ZM701.536 489.182H702.877V497.5C702.877 497.879 702.932 498.163 703.042 498.352C703.155 498.538 703.299 498.663 703.474 498.727C703.652 498.788 703.839 498.818 704.036 498.818C704.184 498.818 704.305 498.811 704.4 498.795C704.494 498.777 704.57 498.761 704.627 498.75L704.9 499.955C704.809 499.989 704.682 500.023 704.519 500.057C704.356 500.095 704.15 500.114 703.9 500.114C703.521 500.114 703.15 500.032 702.786 499.869C702.426 499.706 702.127 499.458 701.888 499.125C701.653 498.792 701.536 498.371 701.536 497.864V489.182Z" fill="#31353F"/>
</g>
<path d="M741.216 500.105V491.668H742.648V500.105H741.216ZM737.713 496.602V495.17H746.151V496.602H737.713Z" fill="#31353F"/>
<g filter="url(#filter1_d_102_10311)">
<rect x="760" y="472" width="48" height="44" rx="8" fill="white"/>
<rect x="760.5" y="472.5" width="47" height="43" rx="7.5" stroke="#CDD0D5"/>
<path d="M787.364 492C787.239 491.617 787.074 491.275 786.869 490.972C786.669 490.665 786.428 490.403 786.148 490.188C785.871 489.972 785.557 489.807 785.205 489.693C784.852 489.58 784.466 489.523 784.045 489.523C783.356 489.523 782.729 489.701 782.165 490.057C781.6 490.413 781.152 490.938 780.818 491.631C780.485 492.324 780.318 493.174 780.318 494.182C780.318 495.189 780.487 496.04 780.824 496.733C781.161 497.426 781.617 497.951 782.193 498.307C782.769 498.663 783.417 498.841 784.136 498.841C784.803 498.841 785.39 498.699 785.898 498.415C786.409 498.127 786.807 497.722 787.091 497.199C787.379 496.672 787.523 496.053 787.523 495.341L787.955 495.432H784.455V494.182H788.886V495.432C788.886 496.39 788.682 497.223 788.273 497.932C787.867 498.64 787.307 499.189 786.591 499.58C785.879 499.966 785.061 500.159 784.136 500.159C783.106 500.159 782.201 499.917 781.42 499.432C780.644 498.947 780.038 498.258 779.602 497.364C779.17 496.47 778.955 495.409 778.955 494.182C778.955 493.261 779.078 492.434 779.324 491.699C779.574 490.96 779.926 490.331 780.381 489.812C780.835 489.294 781.373 488.896 781.994 488.619C782.616 488.343 783.299 488.205 784.045 488.205C784.659 488.205 785.231 488.297 785.761 488.483C786.295 488.665 786.771 488.924 787.188 489.261C787.608 489.595 787.958 489.994 788.239 490.46C788.519 490.922 788.712 491.436 788.818 492H787.364Z" fill="#31353F"/>
</g>
<path d="M87.1712 987V986.105L90.532 982.426C90.9264 981.995 91.2512 981.621 91.5064 981.303C91.7616 980.981 91.9505 980.679 92.0732 980.398C92.1991 980.113 92.2621 979.814 92.2621 979.503C92.2621 979.145 92.1759 978.835 92.0036 978.573C91.8345 978.311 91.6025 978.109 91.3076 977.967C91.0126 977.824 90.6811 977.753 90.3132 977.753C89.9221 977.753 89.5808 977.834 89.2891 977.996C89.0007 978.156 88.777 978.379 88.6179 978.668C88.4621 978.956 88.3843 979.294 88.3843 979.682H87.211C87.211 979.085 87.3485 978.562 87.6236 978.111C87.8987 977.66 88.2732 977.309 88.7472 977.057C89.2245 976.805 89.7597 976.679 90.353 976.679C90.9496 976.679 91.4782 976.805 91.9389 977.057C92.3996 977.309 92.7609 977.648 93.0228 978.076C93.2846 978.504 93.4155 978.979 93.4155 979.503C93.4155 979.877 93.3476 980.244 93.2117 980.602C93.0791 980.956 92.8471 981.352 92.5156 981.79C92.1875 982.224 91.7318 982.754 91.1485 983.381L88.8615 985.827V985.906H93.5945V987H87.1712ZM95.1064 984.912V983.898L99.5808 976.818H100.317V978.389H99.8194L96.4388 983.739V983.818H102.464V984.912H95.1064ZM99.899 987V984.604V984.131V976.818H101.072V987H99.899ZM104.263 989.864V979.364H105.397V980.577H105.536C105.622 980.444 105.742 980.275 105.894 980.07C106.05 979.861 106.272 979.675 106.56 979.513C106.852 979.347 107.246 979.264 107.743 979.264C108.386 979.264 108.953 979.425 109.444 979.746C109.934 980.068 110.317 980.524 110.592 981.114C110.867 981.704 111.005 982.4 111.005 983.202C111.005 984.01 110.867 984.711 110.592 985.305C110.317 985.895 109.936 986.352 109.449 986.677C108.961 986.998 108.4 987.159 107.763 987.159C107.273 987.159 106.88 987.078 106.585 986.915C106.29 986.75 106.063 986.562 105.904 986.354C105.745 986.142 105.622 985.966 105.536 985.827H105.437V989.864H104.263ZM105.417 983.182C105.417 983.759 105.501 984.267 105.67 984.708C105.839 985.146 106.086 985.489 106.411 985.737C106.736 985.982 107.134 986.105 107.604 986.105C108.095 986.105 108.504 985.976 108.832 985.717C109.164 985.455 109.412 985.104 109.578 984.663C109.747 984.219 109.831 983.725 109.831 983.182C109.831 982.645 109.749 982.161 109.583 981.73C109.421 981.296 109.174 980.953 108.842 980.701C108.514 980.446 108.101 980.318 107.604 980.318C107.127 980.318 106.726 980.439 106.401 980.681C106.076 980.92 105.831 981.254 105.665 981.685C105.5 982.113 105.417 982.612 105.417 983.182ZM113.271 979.364L115.101 982.486L116.93 979.364H118.282L115.817 983.182L118.282 987H116.93L115.101 984.037L113.271 987H111.919L114.345 983.182L111.919 979.364H113.271Z" fill="#3D42CE"/>
<path d="M114 956V964L114 972" stroke="#3D42CE"/>
<path d="M90 964H114" stroke="#3D42CE"/>
<path d="M90 956V964L90 972" stroke="#3D42CE"/>
<path d="M114 932L114 942L114 952" stroke="#3D42CE" stroke-linecap="round" stroke-linejoin="round" stroke-dasharray="0.1 3"/>
<path d="M90 932L90 942L90 952" stroke="#3D42CE" stroke-linecap="round" stroke-linejoin="round" stroke-dasharray="0.1 3"/>
<path d="M190.171 987V986.105L193.532 982.426C193.926 981.995 194.251 981.621 194.506 981.303C194.762 980.981 194.951 980.679 195.073 980.398C195.199 980.113 195.262 979.814 195.262 979.503C195.262 979.145 195.176 978.835 195.004 978.573C194.835 978.311 194.603 978.109 194.308 977.967C194.013 977.824 193.681 977.753 193.313 977.753C192.922 977.753 192.581 977.834 192.289 977.996C192.001 978.156 191.777 978.379 191.618 978.668C191.462 978.956 191.384 979.294 191.384 979.682H190.211C190.211 979.085 190.349 978.562 190.624 978.111C190.899 977.66 191.273 977.309 191.747 977.057C192.224 976.805 192.76 976.679 193.353 976.679C193.95 976.679 194.478 976.805 194.939 977.057C195.4 977.309 195.761 977.648 196.023 978.076C196.285 978.504 196.416 978.979 196.416 979.503C196.416 979.877 196.348 980.244 196.212 980.602C196.079 980.956 195.847 981.352 195.516 981.79C195.188 982.224 194.732 982.754 194.148 983.381L191.862 985.827V985.906H196.594V987H190.171ZM198.106 984.912V983.898L202.581 976.818H203.317V978.389H202.819L199.439 983.739V983.818H205.464V984.912H198.106ZM202.899 987V984.604V984.131V976.818H204.072V987H202.899ZM207.263 989.864V979.364H208.397V980.577H208.536C208.622 980.444 208.742 980.275 208.894 980.07C209.05 979.861 209.272 979.675 209.56 979.513C209.852 979.347 210.246 979.264 210.743 979.264C211.386 979.264 211.953 979.425 212.444 979.746C212.934 980.068 213.317 980.524 213.592 981.114C213.867 981.704 214.005 982.4 214.005 983.202C214.005 984.01 213.867 984.711 213.592 985.305C213.317 985.895 212.936 986.352 212.449 986.677C211.961 986.998 211.4 987.159 210.763 987.159C210.273 987.159 209.88 987.078 209.585 986.915C209.29 986.75 209.063 986.562 208.904 986.354C208.745 986.142 208.622 985.966 208.536 985.827H208.437V989.864H207.263ZM208.417 983.182C208.417 983.759 208.501 984.267 208.67 984.708C208.839 985.146 209.086 985.489 209.411 985.737C209.736 985.982 210.134 986.105 210.604 986.105C211.095 986.105 211.504 985.976 211.832 985.717C212.164 985.455 212.412 985.104 212.578 984.663C212.747 984.219 212.831 983.725 212.831 983.182C212.831 982.645 212.749 982.161 212.583 981.73C212.421 981.296 212.174 980.953 211.842 980.701C211.514 980.446 211.101 980.318 210.604 980.318C210.127 980.318 209.726 980.439 209.401 980.681C209.076 980.92 208.831 981.254 208.665 981.685C208.5 982.113 208.417 982.612 208.417 983.182ZM216.271 979.364L218.101 982.486L219.93 979.364H221.282L218.817 983.182L221.282 987H219.93L218.101 984.037L216.271 987H214.919L217.345 983.182L214.919 979.364H216.271Z" fill="#3D42CE"/>
<path d="M217 956V964L217 972" stroke="#3D42CE"/>
<path d="M193 964H217" stroke="#3D42CE"/>
<path d="M193 956V964L193 972" stroke="#3D42CE"/>
<path d="M217 932L217 942L217 952" stroke="#3D42CE" stroke-linecap="round" stroke-linejoin="round" stroke-dasharray="0.1 3"/>
<path d="M193 932L193 942L193 952" stroke="#3D42CE" stroke-linecap="round" stroke-linejoin="round" stroke-dasharray="0.1 3"/>
<path d="M293.171 987V986.105L296.532 982.426C296.926 981.995 297.251 981.621 297.506 981.303C297.762 980.981 297.951 980.679 298.073 980.398C298.199 980.113 298.262 979.814 298.262 979.503C298.262 979.145 298.176 978.835 298.004 978.573C297.835 978.311 297.603 978.109 297.308 977.967C297.013 977.824 296.681 977.753 296.313 977.753C295.922 977.753 295.581 977.834 295.289 977.996C295.001 978.156 294.777 978.379 294.618 978.668C294.462 978.956 294.384 979.294 294.384 979.682H293.211C293.211 979.085 293.349 978.562 293.624 978.111C293.899 977.66 294.273 977.309 294.747 977.057C295.224 976.805 295.76 976.679 296.353 976.679C296.95 976.679 297.478 976.805 297.939 977.057C298.4 977.309 298.761 977.648 299.023 978.076C299.285 978.504 299.416 978.979 299.416 979.503C299.416 979.877 299.348 980.244 299.212 980.602C299.079 980.956 298.847 981.352 298.516 981.79C298.188 982.224 297.732 982.754 297.148 983.381L294.862 985.827V985.906H299.594V987H293.171ZM301.106 984.912V983.898L305.581 976.818H306.317V978.389H305.819L302.439 983.739V983.818H308.464V984.912H301.106ZM305.899 987V984.604V984.131V976.818H307.072V987H305.899ZM310.263 989.864V979.364H311.397V980.577H311.536C311.622 980.444 311.742 980.275 311.894 980.07C312.05 979.861 312.272 979.675 312.56 979.513C312.852 979.347 313.246 979.264 313.743 979.264C314.386 979.264 314.953 979.425 315.444 979.746C315.934 980.068 316.317 980.524 316.592 981.114C316.867 981.704 317.005 982.4 317.005 983.202C317.005 984.01 316.867 984.711 316.592 985.305C316.317 985.895 315.936 986.352 315.449 986.677C314.961 986.998 314.4 987.159 313.763 987.159C313.273 987.159 312.88 987.078 312.585 986.915C312.29 986.75 312.063 986.562 311.904 986.354C311.745 986.142 311.622 985.966 311.536 985.827H311.437V989.864H310.263ZM311.417 983.182C311.417 983.759 311.501 984.267 311.67 984.708C311.839 985.146 312.086 985.489 312.411 985.737C312.736 985.982 313.134 986.105 313.604 986.105C314.095 986.105 314.504 985.976 314.832 985.717C315.164 985.455 315.412 985.104 315.578 984.663C315.747 984.219 315.831 983.725 315.831 983.182C315.831 982.645 315.749 982.161 315.583 981.73C315.421 981.296 315.174 980.953 314.842 980.701C314.514 980.446 314.101 980.318 313.604 980.318C313.127 980.318 312.726 980.439 312.401 980.681C312.076 980.92 311.831 981.254 311.665 981.685C311.5 982.113 311.417 982.612 311.417 983.182ZM319.271 979.364L321.101 982.486L322.93 979.364H324.282L321.817 983.182L324.282 987H322.93L321.101 984.037L319.271 987H317.919L320.345 983.182L317.919 979.364H319.271Z" fill="#3D42CE"/>
<path d="M320 956V964L320 972" stroke="#3D42CE"/>
<path d="M296 964H320" stroke="#3D42CE"/>
<path d="M296 956V964L296 972" stroke="#3D42CE"/>
<path d="M320 932L320 942L320 952" stroke="#3D42CE" stroke-linecap="round" stroke-linejoin="round" stroke-dasharray="0.1 3"/>
<path d="M296 932L296 942L296 952" stroke="#3D42CE" stroke-linecap="round" stroke-linejoin="round" stroke-dasharray="0.1 3"/>
<path d="M396.171 987V986.105L399.532 982.426C399.926 981.995 400.251 981.621 400.506 981.303C400.762 980.981 400.951 980.679 401.073 980.398C401.199 980.113 401.262 979.814 401.262 979.503C401.262 979.145 401.176 978.835 401.004 978.573C400.835 978.311 400.603 978.109 400.308 977.967C400.013 977.824 399.681 977.753 399.313 977.753C398.922 977.753 398.581 977.834 398.289 977.996C398.001 978.156 397.777 978.379 397.618 978.668C397.462 978.956 397.384 979.294 397.384 979.682H396.211C396.211 979.085 396.349 978.562 396.624 978.111C396.899 977.66 397.273 977.309 397.747 977.057C398.224 976.805 398.76 976.679 399.353 976.679C399.95 976.679 400.478 976.805 400.939 977.057C401.4 977.309 401.761 977.648 402.023 978.076C402.285 978.504 402.416 978.979 402.416 979.503C402.416 979.877 402.348 980.244 402.212 980.602C402.079 980.956 401.847 981.352 401.516 981.79C401.188 982.224 400.732 982.754 400.148 983.381L397.862 985.827V985.906H402.594V987H396.171ZM404.106 984.912V983.898L408.581 976.818H409.317V978.389H408.819L405.439 983.739V983.818H411.464V984.912H404.106ZM408.899 987V984.604V984.131V976.818H410.072V987H408.899ZM413.263 989.864V979.364H414.397V980.577H414.536C414.622 980.444 414.742 980.275 414.894 980.07C415.05 979.861 415.272 979.675 415.56 979.513C415.852 979.347 416.246 979.264 416.743 979.264C417.386 979.264 417.953 979.425 418.444 979.746C418.934 980.068 419.317 980.524 419.592 981.114C419.867 981.704 420.005 982.4 420.005 983.202C420.005 984.01 419.867 984.711 419.592 985.305C419.317 985.895 418.936 986.352 418.449 986.677C417.961 986.998 417.4 987.159 416.763 987.159C416.273 987.159 415.88 987.078 415.585 986.915C415.29 986.75 415.063 986.562 414.904 986.354C414.745 986.142 414.622 985.966 414.536 985.827H414.437V989.864H413.263ZM414.417 983.182C414.417 983.759 414.501 984.267 414.67 984.708C414.839 985.146 415.086 985.489 415.411 985.737C415.736 985.982 416.134 986.105 416.604 986.105C417.095 986.105 417.504 985.976 417.832 985.717C418.164 985.455 418.412 985.104 418.578 984.663C418.747 984.219 418.831 983.725 418.831 983.182C418.831 982.645 418.749 982.161 418.583 981.73C418.421 981.296 418.174 980.953 417.842 980.701C417.514 980.446 417.101 980.318 416.604 980.318C416.127 980.318 415.726 980.439 415.401 980.681C415.076 980.92 414.831 981.254 414.665 981.685C414.5 982.113 414.417 982.612 414.417 983.182ZM422.271 979.364L424.101 982.486L425.93 979.364H427.282L424.817 983.182L427.282 987H425.93L424.101 984.037L422.271 987H420.919L423.345 983.182L420.919 979.364H422.271Z" fill="#3D42CE"/>
<path d="M423 956V964L423 972" stroke="#3D42CE"/>
<path d="M399 964H423" stroke="#3D42CE"/>
<path d="M399 956V964L399 972" stroke="#3D42CE"/>
<path d="M423 932L423 942L423 952" stroke="#3D42CE" stroke-linecap="round" stroke-linejoin="round" stroke-dasharray="0.1 3"/>
<path d="M399 932L399 942L399 952" stroke="#3D42CE" stroke-linecap="round" stroke-linejoin="round" stroke-dasharray="0.1 3"/>
<path d="M499.171 987V986.105L502.532 982.426C502.926 981.995 503.251 981.621 503.506 981.303C503.762 980.981 503.951 980.679 504.073 980.398C504.199 980.113 504.262 979.814 504.262 979.503C504.262 979.145 504.176 978.835 504.004 978.573C503.835 978.311 503.603 978.109 503.308 977.967C503.013 977.824 502.681 977.753 502.313 977.753C501.922 977.753 501.581 977.834 501.289 977.996C501.001 978.156 500.777 978.379 500.618 978.668C500.462 978.956 500.384 979.294 500.384 979.682H499.211C499.211 979.085 499.349 978.562 499.624 978.111C499.899 977.66 500.273 977.309 500.747 977.057C501.224 976.805 501.76 976.679 502.353 976.679C502.95 976.679 503.478 976.805 503.939 977.057C504.4 977.309 504.761 977.648 505.023 978.076C505.285 978.504 505.416 978.979 505.416 979.503C505.416 979.877 505.348 980.244 505.212 980.602C505.079 980.956 504.847 981.352 504.516 981.79C504.188 982.224 503.732 982.754 503.148 983.381L500.862 985.827V985.906H505.594V987H499.171ZM507.106 984.912V983.898L511.581 976.818H512.317V978.389H511.819L508.439 983.739V983.818H514.464V984.912H507.106ZM511.899 987V984.604V984.131V976.818H513.072V987H511.899ZM516.263 989.864V979.364H517.397V980.577H517.536C517.622 980.444 517.742 980.275 517.894 980.07C518.05 979.861 518.272 979.675 518.56 979.513C518.852 979.347 519.246 979.264 519.743 979.264C520.386 979.264 520.953 979.425 521.444 979.746C521.934 980.068 522.317 980.524 522.592 981.114C522.867 981.704 523.005 982.4 523.005 983.202C523.005 984.01 522.867 984.711 522.592 985.305C522.317 985.895 521.936 986.352 521.449 986.677C520.961 986.998 520.4 987.159 519.763 987.159C519.273 987.159 518.88 987.078 518.585 986.915C518.29 986.75 518.063 986.562 517.904 986.354C517.745 986.142 517.622 985.966 517.536 985.827H517.437V989.864H516.263ZM517.417 983.182C517.417 983.759 517.501 984.267 517.67 984.708C517.839 985.146 518.086 985.489 518.411 985.737C518.736 985.982 519.134 986.105 519.604 986.105C520.095 986.105 520.504 985.976 520.832 985.717C521.164 985.455 521.412 985.104 521.578 984.663C521.747 984.219 521.831 983.725 521.831 983.182C521.831 982.645 521.749 982.161 521.583 981.73C521.421 981.296 521.174 980.953 520.842 980.701C520.514 980.446 520.101 980.318 519.604 980.318C519.127 980.318 518.726 980.439 518.401 980.681C518.076 980.92 517.831 981.254 517.665 981.685C517.5 982.113 517.417 982.612 517.417 983.182ZM525.271 979.364L527.101 982.486L528.93 979.364H530.282L527.817 983.182L530.282 987H528.93L527.101 984.037L525.271 987H523.919L526.345 983.182L523.919 979.364H525.271Z" fill="#3D42CE"/>
<path d="M526 956V964L526 972" stroke="#3D42CE"/>
<path d="M502 964H526" stroke="#3D42CE"/>
<path d="M502 956V964L502 972" stroke="#3D42CE"/>
<path d="M526 932L526 942L526 952" stroke="#3D42CE" stroke-linecap="round" stroke-linejoin="round" stroke-dasharray="0.1 3"/>
<path d="M502 932L502 942L502 952" stroke="#3D42CE" stroke-linecap="round" stroke-linejoin="round" stroke-dasharray="0.1 3"/>
<path d="M602.171 987V986.105L605.532 982.426C605.926 981.995 606.251 981.621 606.506 981.303C606.762 980.981 606.951 980.679 607.073 980.398C607.199 980.113 607.262 979.814 607.262 979.503C607.262 979.145 607.176 978.835 607.004 978.573C606.835 978.311 606.603 978.109 606.308 977.967C606.013 977.824 605.681 977.753 605.313 977.753C604.922 977.753 604.581 977.834 604.289 977.996C604.001 978.156 603.777 978.379 603.618 978.668C603.462 978.956 603.384 979.294 603.384 979.682H602.211C602.211 979.085 602.349 978.562 602.624 978.111C602.899 977.66 603.273 977.309 603.747 977.057C604.224 976.805 604.76 976.679 605.353 976.679C605.95 976.679 606.478 976.805 606.939 977.057C607.4 977.309 607.761 977.648 608.023 978.076C608.285 978.504 608.416 978.979 608.416 979.503C608.416 979.877 608.348 980.244 608.212 980.602C608.079 980.956 607.847 981.352 607.516 981.79C607.188 982.224 606.732 982.754 606.148 983.381L603.862 985.827V985.906H608.594V987H602.171ZM610.106 984.912V983.898L614.581 976.818H615.317V978.389H614.819L611.439 983.739V983.818H617.464V984.912H610.106ZM614.899 987V984.604V984.131V976.818H616.072V987H614.899ZM619.263 989.864V979.364H620.397V980.577H620.536C620.622 980.444 620.742 980.275 620.894 980.07C621.05 979.861 621.272 979.675 621.56 979.513C621.852 979.347 622.246 979.264 622.743 979.264C623.386 979.264 623.953 979.425 624.444 979.746C624.934 980.068 625.317 980.524 625.592 981.114C625.867 981.704 626.005 982.4 626.005 983.202C626.005 984.01 625.867 984.711 625.592 985.305C625.317 985.895 624.936 986.352 624.449 986.677C623.961 986.998 623.4 987.159 622.763 987.159C622.273 987.159 621.88 987.078 621.585 986.915C621.29 986.75 621.063 986.562 620.904 986.354C620.745 986.142 620.622 985.966 620.536 985.827H620.437V989.864H619.263ZM620.417 983.182C620.417 983.759 620.501 984.267 620.67 984.708C620.839 985.146 621.086 985.489 621.411 985.737C621.736 985.982 622.134 986.105 622.604 986.105C623.095 986.105 623.504 985.976 623.832 985.717C624.164 985.455 624.412 985.104 624.578 984.663C624.747 984.219 624.831 983.725 624.831 983.182C624.831 982.645 624.749 982.161 624.583 981.73C624.421 981.296 624.174 980.953 623.842 980.701C623.514 980.446 623.101 980.318 622.604 980.318C622.127 980.318 621.726 980.439 621.401 980.681C621.076 980.92 620.831 981.254 620.665 981.685C620.5 982.113 620.417 982.612 620.417 983.182ZM628.271 979.364L630.101 982.486L631.93 979.364H633.282L630.817 983.182L633.282 987H631.93L630.101 984.037L628.271 987H626.919L629.345 983.182L626.919 979.364H628.271Z" fill="#3D42CE"/>
<path d="M629 956V964L629 972" stroke="#3D42CE"/>
<path d="M605 964H629" stroke="#3D42CE"/>
<path d="M605 956V964L605 972" stroke="#3D42CE"/>
<path d="M629 932L629 942L629 952" stroke="#3D42CE" stroke-linecap="round" stroke-linejoin="round" stroke-dasharray="0.1 3"/>
<path d="M605 932L605 942L605 952" stroke="#3D42CE" stroke-linecap="round" stroke-linejoin="round" stroke-dasharray="0.1 3"/>
<path d="M705.171 987V986.105L708.532 982.426C708.926 981.995 709.251 981.621 709.506 981.303C709.762 980.981 709.951 980.679 710.073 980.398C710.199 980.113 710.262 979.814 710.262 979.503C710.262 979.145 710.176 978.835 710.004 978.573C709.835 978.311 709.603 978.109 709.308 977.967C709.013 977.824 708.681 977.753 708.313 977.753C707.922 977.753 707.581 977.834 707.289 977.996C707.001 978.156 706.777 978.379 706.618 978.668C706.462 978.956 706.384 979.294 706.384 979.682H705.211C705.211 979.085 705.349 978.562 705.624 978.111C705.899 977.66 706.273 977.309 706.747 977.057C707.224 976.805 707.76 976.679 708.353 976.679C708.95 976.679 709.478 976.805 709.939 977.057C710.4 977.309 710.761 977.648 711.023 978.076C711.285 978.504 711.416 978.979 711.416 979.503C711.416 979.877 711.348 980.244 711.212 980.602C711.079 980.956 710.847 981.352 710.516 981.79C710.188 982.224 709.732 982.754 709.148 983.381L706.862 985.827V985.906H711.594V987H705.171ZM713.106 984.912V983.898L717.581 976.818H718.317V978.389H717.819L714.439 983.739V983.818H720.464V984.912H713.106ZM717.899 987V984.604V984.131V976.818H719.072V987H717.899ZM722.263 989.864V979.364H723.397V980.577H723.536C723.622 980.444 723.742 980.275 723.894 980.07C724.05 979.861 724.272 979.675 724.56 979.513C724.852 979.347 725.246 979.264 725.743 979.264C726.386 979.264 726.953 979.425 727.444 979.746C727.934 980.068 728.317 980.524 728.592 981.114C728.867 981.704 729.005 982.4 729.005 983.202C729.005 984.01 728.867 984.711 728.592 985.305C728.317 985.895 727.936 986.352 727.449 986.677C726.961 986.998 726.4 987.159 725.763 987.159C725.273 987.159 724.88 987.078 724.585 986.915C724.29 986.75 724.063 986.562 723.904 986.354C723.745 986.142 723.622 985.966 723.536 985.827H723.437V989.864H722.263ZM723.417 983.182C723.417 983.759 723.501 984.267 723.67 984.708C723.839 985.146 724.086 985.489 724.411 985.737C724.736 985.982 725.134 986.105 725.604 986.105C726.095 986.105 726.504 985.976 726.832 985.717C727.164 985.455 727.412 985.104 727.578 984.663C727.747 984.219 727.831 983.725 727.831 983.182C727.831 982.645 727.749 982.161 727.583 981.73C727.421 981.296 727.174 980.953 726.842 980.701C726.514 980.446 726.101 980.318 725.604 980.318C725.127 980.318 724.726 980.439 724.401 980.681C724.076 980.92 723.831 981.254 723.665 981.685C723.5 982.113 723.417 982.612 723.417 983.182ZM731.271 979.364L733.101 982.486L734.93 979.364H736.282L733.817 983.182L736.282 987H734.93L733.101 984.037L731.271 987H729.919L732.345 983.182L729.919 979.364H731.271Z" fill="#3D42CE"/>
<path d="M732 956V964L732 972" stroke="#3D42CE"/>
<path d="M708 964H732" stroke="#3D42CE"/>
<path d="M708 956V964L708 972" stroke="#3D42CE"/>
<path d="M732 932L732 942L732 952" stroke="#3D42CE" stroke-linecap="round" stroke-linejoin="round" stroke-dasharray="0.1 3"/>
<path d="M708 932L708 942L708 952" stroke="#3D42CE" stroke-linecap="round" stroke-linejoin="round" stroke-dasharray="0.1 3"/>
<path d="M808.171 987V986.105L811.532 982.426C811.926 981.995 812.251 981.621 812.506 981.303C812.762 980.981 812.951 980.679 813.073 980.398C813.199 980.113 813.262 979.814 813.262 979.503C813.262 979.145 813.176 978.835 813.004 978.573C812.835 978.311 812.603 978.109 812.308 977.967C812.013 977.824 811.681 977.753 811.313 977.753C810.922 977.753 810.581 977.834 810.289 977.996C810.001 978.156 809.777 978.379 809.618 978.668C809.462 978.956 809.384 979.294 809.384 979.682H808.211C808.211 979.085 808.349 978.562 808.624 978.111C808.899 977.66 809.273 977.309 809.747 977.057C810.224 976.805 810.76 976.679 811.353 976.679C811.95 976.679 812.478 976.805 812.939 977.057C813.4 977.309 813.761 977.648 814.023 978.076C814.285 978.504 814.416 978.979 814.416 979.503C814.416 979.877 814.348 980.244 814.212 980.602C814.079 980.956 813.847 981.352 813.516 981.79C813.188 982.224 812.732 982.754 812.148 983.381L809.862 985.827V985.906H814.594V987H808.171ZM816.106 984.912V983.898L820.581 976.818H821.317V978.389H820.819L817.439 983.739V983.818H823.464V984.912H816.106ZM820.899 987V984.604V984.131V976.818H822.072V987H820.899ZM825.263 989.864V979.364H826.397V980.577H826.536C826.622 980.444 826.742 980.275 826.894 980.07C827.05 979.861 827.272 979.675 827.56 979.513C827.852 979.347 828.246 979.264 828.743 979.264C829.386 979.264 829.953 979.425 830.444 979.746C830.934 980.068 831.317 980.524 831.592 981.114C831.867 981.704 832.005 982.4 832.005 983.202C832.005 984.01 831.867 984.711 831.592 985.305C831.317 985.895 830.936 986.352 830.449 986.677C829.961 986.998 829.4 987.159 828.763 987.159C828.273 987.159 827.88 987.078 827.585 986.915C827.29 986.75 827.063 986.562 826.904 986.354C826.745 986.142 826.622 985.966 826.536 985.827H826.437V989.864H825.263ZM826.417 983.182C826.417 983.759 826.501 984.267 826.67 984.708C826.839 985.146 827.086 985.489 827.411 985.737C827.736 985.982 828.134 986.105 828.604 986.105C829.095 986.105 829.504 985.976 829.832 985.717C830.164 985.455 830.412 985.104 830.578 984.663C830.747 984.219 830.831 983.725 830.831 983.182C830.831 982.645 830.749 982.161 830.583 981.73C830.421 981.296 830.174 980.953 829.842 980.701C829.514 980.446 829.101 980.318 828.604 980.318C828.127 980.318 827.726 980.439 827.401 980.681C827.076 980.92 826.831 981.254 826.665 981.685C826.5 982.113 826.417 982.612 826.417 983.182ZM834.271 979.364L836.101 982.486L837.93 979.364H839.282L836.817 983.182L839.282 987H837.93L836.101 984.037L834.271 987H832.919L835.345 983.182L832.919 979.364H834.271Z" fill="#3D42CE"/>
<path d="M835 956V964L835 972" stroke="#3D42CE"/>
<path d="M811 964H835" stroke="#3D42CE"/>
<path d="M811 956V964L811 972" stroke="#3D42CE"/>
<path d="M835 932L835 942L835 952" stroke="#3D42CE" stroke-linecap="round" stroke-linejoin="round" stroke-dasharray="0.1 3"/>
<path d="M811 932L811 942L811 952" stroke="#3D42CE" stroke-linecap="round" stroke-linejoin="round" stroke-dasharray="0.1 3"/>
<path d="M911.171 987V986.105L914.532 982.426C914.926 981.995 915.251 981.621 915.506 981.303C915.762 980.981 915.951 980.679 916.073 980.398C916.199 980.113 916.262 979.814 916.262 979.503C916.262 979.145 916.176 978.835 916.004 978.573C915.835 978.311 915.603 978.109 915.308 977.967C915.013 977.824 914.681 977.753 914.313 977.753C913.922 977.753 913.581 977.834 913.289 977.996C913.001 978.156 912.777 978.379 912.618 978.668C912.462 978.956 912.384 979.294 912.384 979.682H911.211C911.211 979.085 911.349 978.562 911.624 978.111C911.899 977.66 912.273 977.309 912.747 977.057C913.224 976.805 913.76 976.679 914.353 976.679C914.95 976.679 915.478 976.805 915.939 977.057C916.4 977.309 916.761 977.648 917.023 978.076C917.285 978.504 917.416 978.979 917.416 979.503C917.416 979.877 917.348 980.244 917.212 980.602C917.079 980.956 916.847 981.352 916.516 981.79C916.188 982.224 915.732 982.754 915.148 983.381L912.862 985.827V985.906H917.594V987H911.171ZM919.106 984.912V983.898L923.581 976.818H924.317V978.389H923.819L920.439 983.739V983.818H926.464V984.912H919.106ZM923.899 987V984.604V984.131V976.818H925.072V987H923.899ZM928.263 989.864V979.364H929.397V980.577H929.536C929.622 980.444 929.742 980.275 929.894 980.07C930.05 979.861 930.272 979.675 930.56 979.513C930.852 979.347 931.246 979.264 931.743 979.264C932.386 979.264 932.953 979.425 933.444 979.746C933.934 980.068 934.317 980.524 934.592 981.114C934.867 981.704 935.005 982.4 935.005 983.202C935.005 984.01 934.867 984.711 934.592 985.305C934.317 985.895 933.936 986.352 933.449 986.677C932.961 986.998 932.4 987.159 931.763 987.159C931.273 987.159 930.88 987.078 930.585 986.915C930.29 986.75 930.063 986.562 929.904 986.354C929.745 986.142 929.622 985.966 929.536 985.827H929.437V989.864H928.263ZM929.417 983.182C929.417 983.759 929.501 984.267 929.67 984.708C929.839 985.146 930.086 985.489 930.411 985.737C930.736 985.982 931.134 986.105 931.604 986.105C932.095 986.105 932.504 985.976 932.832 985.717C933.164 985.455 933.412 985.104 933.578 984.663C933.747 984.219 933.831 983.725 933.831 983.182C933.831 982.645 933.749 982.161 933.583 981.73C933.421 981.296 933.174 980.953 932.842 980.701C932.514 980.446 932.101 980.318 931.604 980.318C931.127 980.318 930.726 980.439 930.401 980.681C930.076 980.92 929.831 981.254 929.665 981.685C929.5 982.113 929.417 982.612 929.417 983.182ZM937.271 979.364L939.101 982.486L940.93 979.364H942.282L939.817 983.182L942.282 987H940.93L939.101 984.037L937.271 987H935.919L938.345 983.182L935.919 979.364H937.271Z" fill="#3D42CE"/>
<path d="M938 956V964L938 972" stroke="#3D42CE"/>
<path d="M914 964H938" stroke="#3D42CE"/>
<path d="M914 956V964L914 972" stroke="#3D42CE"/>
<path d="M938 932L938 942L938 952" stroke="#3D42CE" stroke-linecap="round" stroke-linejoin="round" stroke-dasharray="0.1 3"/>
<path d="M914 932L914 942L914 952" stroke="#3D42CE" stroke-linecap="round" stroke-linejoin="round" stroke-dasharray="0.1 3"/>
<path d="M1014.17 987V986.105L1017.53 982.426C1017.93 981.995 1018.25 981.621 1018.51 981.303C1018.76 980.981 1018.95 980.679 1019.07 980.398C1019.2 980.113 1019.26 979.814 1019.26 979.503C1019.26 979.145 1019.18 978.835 1019 978.573C1018.83 978.311 1018.6 978.109 1018.31 977.967C1018.01 977.824 1017.68 977.753 1017.31 977.753C1016.92 977.753 1016.58 977.834 1016.29 977.996C1016 978.156 1015.78 978.379 1015.62 978.668C1015.46 978.956 1015.38 979.294 1015.38 979.682H1014.21C1014.21 979.085 1014.35 978.562 1014.62 978.111C1014.9 977.66 1015.27 977.309 1015.75 977.057C1016.22 976.805 1016.76 976.679 1017.35 976.679C1017.95 976.679 1018.48 976.805 1018.94 977.057C1019.4 977.309 1019.76 977.648 1020.02 978.076C1020.28 978.504 1020.42 978.979 1020.42 979.503C1020.42 979.877 1020.35 980.244 1020.21 980.602C1020.08 980.956 1019.85 981.352 1019.52 981.79C1019.19 982.224 1018.73 982.754 1018.15 983.381L1015.86 985.827V985.906H1020.59V987H1014.17ZM1022.11 984.912V983.898L1026.58 976.818H1027.32V978.389H1026.82L1023.44 983.739V983.818H1029.46V984.912H1022.11ZM1026.9 987V984.604V984.131V976.818H1028.07V987H1026.9ZM1031.26 989.864V979.364H1032.4V980.577H1032.54C1032.62 980.444 1032.74 980.275 1032.89 980.07C1033.05 979.861 1033.27 979.675 1033.56 979.513C1033.85 979.347 1034.25 979.264 1034.74 979.264C1035.39 979.264 1035.95 979.425 1036.44 979.746C1036.93 980.068 1037.32 980.524 1037.59 981.114C1037.87 981.704 1038 982.4 1038 983.202C1038 984.01 1037.87 984.711 1037.59 985.305C1037.32 985.895 1036.94 986.352 1036.45 986.677C1035.96 986.998 1035.4 987.159 1034.76 987.159C1034.27 987.159 1033.88 987.078 1033.59 986.915C1033.29 986.75 1033.06 986.562 1032.9 986.354C1032.74 986.142 1032.62 985.966 1032.54 985.827H1032.44V989.864H1031.26ZM1032.42 983.182C1032.42 983.759 1032.5 984.267 1032.67 984.708C1032.84 985.146 1033.09 985.489 1033.41 985.737C1033.74 985.982 1034.13 986.105 1034.6 986.105C1035.09 986.105 1035.5 985.976 1035.83 985.717C1036.16 985.455 1036.41 985.104 1036.58 984.663C1036.75 984.219 1036.83 983.725 1036.83 983.182C1036.83 982.645 1036.75 982.161 1036.58 981.73C1036.42 981.296 1036.17 980.953 1035.84 980.701C1035.51 980.446 1035.1 980.318 1034.6 980.318C1034.13 980.318 1033.73 980.439 1033.4 980.681C1033.08 980.92 1032.83 981.254 1032.67 981.685C1032.5 982.113 1032.42 982.612 1032.42 983.182ZM1040.27 979.364L1042.1 982.486L1043.93 979.364H1045.28L1042.82 983.182L1045.28 987H1043.93L1042.1 984.037L1040.27 987H1038.92L1041.34 983.182L1038.92 979.364H1040.27Z" fill="#3D42CE"/>
<path d="M1041 956V964L1041 972" stroke="#3D42CE"/>
<path d="M1017 964H1041" stroke="#3D42CE"/>
<path d="M1017 956V964L1017 972" stroke="#3D42CE"/>
<path d="M1041 932L1041 942L1041 952" stroke="#3D42CE" stroke-linecap="round" stroke-linejoin="round" stroke-dasharray="0.1 3"/>
<path d="M1017 932L1017 942L1017 952" stroke="#3D42CE" stroke-linecap="round" stroke-linejoin="round" stroke-dasharray="0.1 3"/>
<path d="M1117.17 987V986.105L1120.53 982.426C1120.93 981.995 1121.25 981.621 1121.51 981.303C1121.76 980.981 1121.95 980.679 1122.07 980.398C1122.2 980.113 1122.26 979.814 1122.26 979.503C1122.26 979.145 1122.18 978.835 1122 978.573C1121.83 978.311 1121.6 978.109 1121.31 977.967C1121.01 977.824 1120.68 977.753 1120.31 977.753C1119.92 977.753 1119.58 977.834 1119.29 977.996C1119 978.156 1118.78 978.379 1118.62 978.668C1118.46 978.956 1118.38 979.294 1118.38 979.682H1117.21C1117.21 979.085 1117.35 978.562 1117.62 978.111C1117.9 977.66 1118.27 977.309 1118.75 977.057C1119.22 976.805 1119.76 976.679 1120.35 976.679C1120.95 976.679 1121.48 976.805 1121.94 977.057C1122.4 977.309 1122.76 977.648 1123.02 978.076C1123.28 978.504 1123.42 978.979 1123.42 979.503C1123.42 979.877 1123.35 980.244 1123.21 980.602C1123.08 980.956 1122.85 981.352 1122.52 981.79C1122.19 982.224 1121.73 982.754 1121.15 983.381L1118.86 985.827V985.906H1123.59V987H1117.17ZM1125.11 984.912V983.898L1129.58 976.818H1130.32V978.389H1129.82L1126.44 983.739V983.818H1132.46V984.912H1125.11ZM1129.9 987V984.604V984.131V976.818H1131.07V987H1129.9ZM1134.26 989.864V979.364H1135.4V980.577H1135.54C1135.62 980.444 1135.74 980.275 1135.89 980.07C1136.05 979.861 1136.27 979.675 1136.56 979.513C1136.85 979.347 1137.25 979.264 1137.74 979.264C1138.39 979.264 1138.95 979.425 1139.44 979.746C1139.93 980.068 1140.32 980.524 1140.59 981.114C1140.87 981.704 1141 982.4 1141 983.202C1141 984.01 1140.87 984.711 1140.59 985.305C1140.32 985.895 1139.94 986.352 1139.45 986.677C1138.96 986.998 1138.4 987.159 1137.76 987.159C1137.27 987.159 1136.88 987.078 1136.59 986.915C1136.29 986.75 1136.06 986.562 1135.9 986.354C1135.74 986.142 1135.62 985.966 1135.54 985.827H1135.44V989.864H1134.26ZM1135.42 983.182C1135.42 983.759 1135.5 984.267 1135.67 984.708C1135.84 985.146 1136.09 985.489 1136.41 985.737C1136.74 985.982 1137.13 986.105 1137.6 986.105C1138.09 986.105 1138.5 985.976 1138.83 985.717C1139.16 985.455 1139.41 985.104 1139.58 984.663C1139.75 984.219 1139.83 983.725 1139.83 983.182C1139.83 982.645 1139.75 982.161 1139.58 981.73C1139.42 981.296 1139.17 980.953 1138.84 980.701C1138.51 980.446 1138.1 980.318 1137.6 980.318C1137.13 980.318 1136.73 980.439 1136.4 980.681C1136.08 980.92 1135.83 981.254 1135.67 981.685C1135.5 982.113 1135.42 982.612 1135.42 983.182ZM1143.27 979.364L1145.1 982.486L1146.93 979.364H1148.28L1145.82 983.182L1148.28 987H1146.93L1145.1 984.037L1143.27 987H1141.92L1144.34 983.182L1141.92 979.364H1143.27Z" fill="#3D42CE"/>
<path d="M1144 956V964L1144 972" stroke="#3D42CE"/>
<path d="M1120 964H1144" stroke="#3D42CE"/>
<path d="M1120 956V964L1120 972" stroke="#3D42CE"/>
<path d="M1144 932L1144 942L1144 952" stroke="#3D42CE" stroke-linecap="round" stroke-linejoin="round" stroke-dasharray="0.1 3"/>
<path d="M1120 932L1120 942L1120 952" stroke="#3D42CE" stroke-linecap="round" stroke-linejoin="round" stroke-dasharray="0.1 3"/>
<path d="M1220.17 987V986.105L1223.53 982.426C1223.93 981.995 1224.25 981.621 1224.51 981.303C1224.76 980.981 1224.95 980.679 1225.07 980.398C1225.2 980.113 1225.26 979.814 1225.26 979.503C1225.26 979.145 1225.18 978.835 1225 978.573C1224.83 978.311 1224.6 978.109 1224.31 977.967C1224.01 977.824 1223.68 977.753 1223.31 977.753C1222.92 977.753 1222.58 977.834 1222.29 977.996C1222 978.156 1221.78 978.379 1221.62 978.668C1221.46 978.956 1221.38 979.294 1221.38 979.682H1220.21C1220.21 979.085 1220.35 978.562 1220.62 978.111C1220.9 977.66 1221.27 977.309 1221.75 977.057C1222.22 976.805 1222.76 976.679 1223.35 976.679C1223.95 976.679 1224.48 976.805 1224.94 977.057C1225.4 977.309 1225.76 977.648 1226.02 978.076C1226.28 978.504 1226.42 978.979 1226.42 979.503C1226.42 979.877 1226.35 980.244 1226.21 980.602C1226.08 980.956 1225.85 981.352 1225.52 981.79C1225.19 982.224 1224.73 982.754 1224.15 983.381L1221.86 985.827V985.906H1226.59V987H1220.17ZM1228.11 984.912V983.898L1232.58 976.818H1233.32V978.389H1232.82L1229.44 983.739V983.818H1235.46V984.912H1228.11ZM1232.9 987V984.604V984.131V976.818H1234.07V987H1232.9ZM1237.26 989.864V979.364H1238.4V980.577H1238.54C1238.62 980.444 1238.74 980.275 1238.89 980.07C1239.05 979.861 1239.27 979.675 1239.56 979.513C1239.85 979.347 1240.25 979.264 1240.74 979.264C1241.39 979.264 1241.95 979.425 1242.44 979.746C1242.93 980.068 1243.32 980.524 1243.59 981.114C1243.87 981.704 1244 982.4 1244 983.202C1244 984.01 1243.87 984.711 1243.59 985.305C1243.32 985.895 1242.94 986.352 1242.45 986.677C1241.96 986.998 1241.4 987.159 1240.76 987.159C1240.27 987.159 1239.88 987.078 1239.59 986.915C1239.29 986.75 1239.06 986.562 1238.9 986.354C1238.74 986.142 1238.62 985.966 1238.54 985.827H1238.44V989.864H1237.26ZM1238.42 983.182C1238.42 983.759 1238.5 984.267 1238.67 984.708C1238.84 985.146 1239.09 985.489 1239.41 985.737C1239.74 985.982 1240.13 986.105 1240.6 986.105C1241.09 986.105 1241.5 985.976 1241.83 985.717C1242.16 985.455 1242.41 985.104 1242.58 984.663C1242.75 984.219 1242.83 983.725 1242.83 983.182C1242.83 982.645 1242.75 982.161 1242.58 981.73C1242.42 981.296 1242.17 980.953 1241.84 980.701C1241.51 980.446 1241.1 980.318 1240.6 980.318C1240.13 980.318 1239.73 980.439 1239.4 980.681C1239.08 980.92 1238.83 981.254 1238.67 981.685C1238.5 982.113 1238.42 982.612 1238.42 983.182ZM1246.27 979.364L1248.1 982.486L1249.93 979.364H1251.28L1248.82 983.182L1251.28 987H1249.93L1248.1 984.037L1246.27 987H1244.92L1247.34 983.182L1244.92 979.364H1246.27Z" fill="#3D42CE"/>
<path d="M1247 956V964L1247 972" stroke="#3D42CE"/>
<path d="M1223 964H1247" stroke="#3D42CE"/>
<path d="M1223 956V964L1223 972" stroke="#3D42CE"/>
<path d="M1247 932L1247 942L1247 952" stroke="#3D42CE" stroke-linecap="round" stroke-linejoin="round" stroke-dasharray="0.1 3"/>
<path d="M1223 932L1223 942L1223 952" stroke="#3D42CE" stroke-linecap="round" stroke-linejoin="round" stroke-dasharray="0.1 3"/>
<path d="M1327.17 987V986.105L1330.53 982.426C1330.93 981.995 1331.25 981.621 1331.51 981.303C1331.76 980.981 1331.95 980.679 1332.07 980.398C1332.2 980.113 1332.26 979.814 1332.26 979.503C1332.26 979.145 1332.18 978.835 1332 978.573C1331.83 978.311 1331.6 978.109 1331.31 977.967C1331.01 977.824 1330.68 977.753 1330.31 977.753C1329.92 977.753 1329.58 977.834 1329.29 977.996C1329 978.156 1328.78 978.379 1328.62 978.668C1328.46 978.956 1328.38 979.294 1328.38 979.682H1327.21C1327.21 979.085 1327.35 978.562 1327.62 978.111C1327.9 977.66 1328.27 977.309 1328.75 977.057C1329.22 976.805 1329.76 976.679 1330.35 976.679C1330.95 976.679 1331.48 976.805 1331.94 977.057C1332.4 977.309 1332.76 977.648 1333.02 978.076C1333.28 978.504 1333.42 978.979 1333.42 979.503C1333.42 979.877 1333.35 980.244 1333.21 980.602C1333.08 980.956 1332.85 981.352 1332.52 981.79C1332.19 982.224 1331.73 982.754 1331.15 983.381L1328.86 985.827V985.906H1333.59V987H1327.17ZM1335.11 984.912V983.898L1339.58 976.818H1340.32V978.389H1339.82L1336.44 983.739V983.818H1342.46V984.912H1335.11ZM1339.9 987V984.604V984.131V976.818H1341.07V987H1339.9ZM1344.26 989.864V979.364H1345.4V980.577H1345.54C1345.62 980.444 1345.74 980.275 1345.89 980.07C1346.05 979.861 1346.27 979.675 1346.56 979.513C1346.85 979.347 1347.25 979.264 1347.74 979.264C1348.39 979.264 1348.95 979.425 1349.44 979.746C1349.93 980.068 1350.32 980.524 1350.59 981.114C1350.87 981.704 1351 982.4 1351 983.202C1351 984.01 1350.87 984.711 1350.59 985.305C1350.32 985.895 1349.94 986.352 1349.45 986.677C1348.96 986.998 1348.4 987.159 1347.76 987.159C1347.27 987.159 1346.88 987.078 1346.59 986.915C1346.29 986.75 1346.06 986.562 1345.9 986.354C1345.74 986.142 1345.62 985.966 1345.54 985.827H1345.44V989.864H1344.26ZM1345.42 983.182C1345.42 983.759 1345.5 984.267 1345.67 984.708C1345.84 985.146 1346.09 985.489 1346.41 985.737C1346.74 985.982 1347.13 986.105 1347.6 986.105C1348.09 986.105 1348.5 985.976 1348.83 985.717C1349.16 985.455 1349.41 985.104 1349.58 984.663C1349.75 984.219 1349.83 983.725 1349.83 983.182C1349.83 982.645 1349.75 982.161 1349.58 981.73C1349.42 981.296 1349.17 980.953 1348.84 980.701C1348.51 980.446 1348.1 980.318 1347.6 980.318C1347.13 980.318 1346.73 980.439 1346.4 980.681C1346.08 980.92 1345.83 981.254 1345.67 981.685C1345.5 982.113 1345.42 982.612 1345.42 983.182ZM1353.27 979.364L1355.1 982.486L1356.93 979.364H1358.28L1355.82 983.182L1358.28 987H1356.93L1355.1 984.037L1353.27 987H1351.92L1354.34 983.182L1351.92 979.364H1353.27Z" fill="#3D42CE"/>
<path d="M1358 956V964L1358 972" stroke="#3D42CE"/>
<path d="M1326 964H1358" stroke="#3D42CE"/>
<path d="M1326 956V964L1326 972" stroke="#3D42CE"/>
<path d="M1358 932L1358 942L1358 952" stroke="#3D42CE" stroke-linecap="round" stroke-linejoin="round" stroke-dasharray="0.1 3"/>
<path d="M1326 932L1326 942L1326 952" stroke="#3D42CE" stroke-linecap="round" stroke-linejoin="round" stroke-dasharray="0.1 3"/>
<path d="M702.331 1049.27V1058H701.274V1050.38H701.223L699.092 1051.8V1050.72L701.274 1049.27H702.331ZM705.842 1056.81L705.774 1057.27C705.726 1057.59 705.652 1057.94 705.553 1058.31C705.456 1058.68 705.355 1059.02 705.25 1059.35C705.145 1059.68 705.058 1059.94 704.99 1060.13H704.223C704.26 1059.95 704.308 1059.71 704.368 1059.41C704.428 1059.11 704.487 1058.78 704.547 1058.41C704.609 1058.04 704.661 1057.67 704.7 1057.28L704.751 1056.81H705.842ZM707.689 1058V1057.23L710.569 1054.08C710.907 1053.71 711.186 1053.39 711.404 1053.12C711.623 1052.84 711.785 1052.58 711.89 1052.34C711.998 1052.1 712.052 1051.84 712.052 1051.57C712.052 1051.27 711.978 1051 711.831 1050.78C711.686 1050.55 711.487 1050.38 711.234 1050.26C710.981 1050.13 710.697 1050.07 710.382 1050.07C710.047 1050.07 709.754 1050.14 709.504 1050.28C709.257 1050.42 709.065 1050.61 708.929 1050.86C708.795 1051.11 708.728 1051.39 708.728 1051.73H707.723C707.723 1051.22 707.841 1050.77 708.076 1050.38C708.312 1049.99 708.633 1049.69 709.039 1049.48C709.449 1049.26 709.907 1049.15 710.416 1049.15C710.927 1049.15 711.38 1049.26 711.775 1049.48C712.17 1049.69 712.48 1049.98 712.704 1050.35C712.929 1050.72 713.041 1051.12 713.041 1051.57C713.041 1051.89 712.983 1052.21 712.866 1052.52C712.752 1052.82 712.554 1053.16 712.27 1053.53C711.988 1053.91 711.598 1054.36 711.098 1054.9L709.137 1056.99V1057.06H713.194V1058H707.689ZM718.022 1049.27V1058H716.966V1050.38H716.914L714.784 1051.8V1050.72L716.966 1049.27H718.022ZM723.43 1058.12C723.072 1058.11 722.714 1058.05 722.356 1057.91C721.998 1057.78 721.672 1057.56 721.376 1057.25C721.081 1056.94 720.843 1056.52 720.664 1055.99C720.485 1055.45 720.396 1054.78 720.396 1053.98C720.396 1053.2 720.468 1052.52 720.613 1051.92C720.758 1051.32 720.968 1050.82 721.244 1050.41C721.52 1050 721.852 1049.69 722.241 1049.47C722.633 1049.26 723.075 1049.15 723.566 1049.15C724.055 1049.15 724.49 1049.25 724.87 1049.45C725.254 1049.64 725.566 1049.91 725.808 1050.26C726.049 1050.6 726.206 1051 726.277 1051.45H725.237C725.14 1051.06 724.953 1050.74 724.674 1050.48C724.396 1050.22 724.027 1050.09 723.566 1050.09C722.89 1050.09 722.358 1050.38 721.968 1050.97C721.582 1051.56 721.387 1052.39 721.385 1053.45H721.453C721.612 1053.21 721.801 1053 722.02 1052.83C722.241 1052.66 722.485 1052.52 722.752 1052.43C723.02 1052.34 723.302 1052.29 723.6 1052.29C724.1 1052.29 724.558 1052.41 724.973 1052.66C725.387 1052.91 725.72 1053.25 725.97 1053.69C726.22 1054.13 726.345 1054.62 726.345 1055.19C726.345 1055.73 726.224 1056.22 725.983 1056.67C725.741 1057.12 725.402 1057.47 724.964 1057.74C724.529 1058 724.018 1058.12 723.43 1058.12ZM723.43 1057.18C723.788 1057.18 724.109 1057.09 724.393 1056.91C724.68 1056.73 724.906 1056.49 725.071 1056.19C725.238 1055.89 725.322 1055.56 725.322 1055.19C725.322 1054.83 725.241 1054.5 725.079 1054.2C724.92 1053.9 724.7 1053.67 724.419 1053.49C724.14 1053.32 723.822 1053.23 723.464 1053.23C723.194 1053.23 722.943 1053.28 722.71 1053.39C722.477 1053.49 722.272 1053.64 722.096 1053.82C721.923 1054.01 721.787 1054.22 721.687 1054.46C721.588 1054.69 721.538 1054.94 721.538 1055.2C721.538 1055.55 721.619 1055.87 721.781 1056.18C721.946 1056.48 722.17 1056.72 722.454 1056.9C722.741 1057.09 723.066 1057.18 723.43 1057.18ZM728.038 1060.45V1051.45H729.009V1052.49H729.129C729.202 1052.38 729.305 1052.24 729.435 1052.06C729.569 1051.88 729.759 1051.72 730.006 1051.58C730.256 1051.44 730.594 1051.37 731.021 1051.37C731.572 1051.37 732.058 1051.51 732.478 1051.78C732.898 1052.06 733.227 1052.45 733.462 1052.95C733.698 1053.46 733.816 1054.06 733.816 1054.74C733.816 1055.44 733.698 1056.04 733.462 1056.55C733.227 1057.05 732.9 1057.44 732.482 1057.72C732.065 1058 731.583 1058.14 731.038 1058.14C730.617 1058.14 730.281 1058.07 730.028 1057.93C729.775 1057.79 729.58 1057.62 729.444 1057.45C729.308 1057.26 729.202 1057.11 729.129 1056.99H729.043V1060.45H728.038ZM729.026 1054.73C729.026 1055.22 729.099 1055.66 729.244 1056.04C729.388 1056.41 729.6 1056.7 729.879 1056.92C730.157 1057.13 730.498 1057.23 730.901 1057.23C731.322 1057.23 731.673 1057.12 731.954 1056.9C732.238 1056.68 732.451 1056.37 732.593 1056C732.738 1055.62 732.81 1055.19 732.81 1054.73C732.81 1054.27 732.739 1053.85 732.597 1053.48C732.458 1053.11 732.246 1052.82 731.962 1052.6C731.681 1052.38 731.327 1052.27 730.901 1052.27C730.492 1052.27 730.148 1052.38 729.87 1052.58C729.592 1052.79 729.381 1053.08 729.239 1053.44C729.097 1053.81 729.026 1054.24 729.026 1054.73ZM735.831 1051.45L737.399 1054.13L738.967 1051.45H740.126L738.012 1054.73L740.126 1058H738.967L737.399 1055.46L735.831 1058H734.672L736.751 1054.73L734.672 1051.45H735.831Z" fill="#3D42CE"/>
<path d="M1328 1028V1036L1328 1044" stroke="#3D42CE"/>
<path d="M112 1036L1328 1036" stroke="#3D42CE"/>
<path d="M112 1028V1036L112 1044" stroke="#3D42CE"/>
<path d="M1328 1004L1328 1014L1328 1024" stroke="#3D42CE" stroke-linecap="round" stroke-linejoin="round" stroke-dasharray="0.1 3"/>
<path d="M112 1004L112 1014L112 1024" stroke="#3D42CE" stroke-linecap="round" stroke-linejoin="round" stroke-dasharray="0.1 3"/>
<path d="M701.417 1121.27V1130H700.36V1122.38H700.309L698.178 1123.8V1122.72L700.36 1121.27H701.417ZM704.928 1128.81L704.86 1129.27C704.812 1129.59 704.738 1129.94 704.638 1130.31C704.542 1130.68 704.441 1131.02 704.336 1131.35C704.231 1131.68 704.144 1131.94 704.076 1132.13H703.309C703.346 1131.95 703.394 1131.71 703.454 1131.41C703.513 1131.11 703.573 1130.78 703.633 1130.41C703.695 1130.04 703.746 1129.67 703.786 1129.28L703.837 1128.81H704.928ZM706.775 1130V1129.23L709.655 1126.08C709.993 1125.71 710.272 1125.39 710.49 1125.12C710.709 1124.84 710.871 1124.58 710.976 1124.34C711.084 1124.1 711.138 1123.84 711.138 1123.57C711.138 1123.27 711.064 1123 710.917 1122.78C710.772 1122.55 710.573 1122.38 710.32 1122.26C710.067 1122.13 709.783 1122.07 709.468 1122.07C709.132 1122.07 708.84 1122.14 708.59 1122.28C708.343 1122.42 708.151 1122.61 708.015 1122.86C707.881 1123.11 707.814 1123.39 707.814 1123.73H706.809C706.809 1123.22 706.926 1122.77 707.162 1122.38C707.398 1121.99 707.719 1121.69 708.125 1121.48C708.534 1121.26 708.993 1121.15 709.502 1121.15C710.013 1121.15 710.466 1121.26 710.861 1121.48C711.256 1121.69 711.566 1121.98 711.79 1122.35C712.015 1122.72 712.127 1123.12 712.127 1123.57C712.127 1123.89 712.069 1124.21 711.952 1124.52C711.838 1124.82 711.64 1125.16 711.355 1125.53C711.074 1125.91 710.684 1126.36 710.184 1126.9L708.223 1128.99V1129.06H712.28V1130H706.775ZM716.836 1130.12C716.25 1130.12 715.733 1130.02 715.284 1129.81C714.838 1129.6 714.49 1129.31 714.24 1128.94C713.99 1128.57 713.867 1128.15 713.87 1127.68C713.867 1127.31 713.939 1126.97 714.087 1126.66C714.235 1126.34 714.436 1126.08 714.692 1125.87C714.951 1125.66 715.239 1125.52 715.557 1125.47V1125.41C715.14 1125.31 714.807 1125.07 714.56 1124.71C714.313 1124.35 714.191 1123.93 714.194 1123.47C714.191 1123.03 714.303 1122.63 714.53 1122.28C714.757 1121.93 715.07 1121.66 715.468 1121.46C715.868 1121.25 716.324 1121.15 716.836 1121.15C717.341 1121.15 717.793 1121.25 718.191 1121.46C718.588 1121.66 718.901 1121.93 719.128 1122.28C719.358 1122.63 719.475 1123.03 719.478 1123.47C719.475 1123.93 719.348 1124.35 719.098 1124.71C718.851 1125.07 718.523 1125.31 718.114 1125.41V1125.47C718.429 1125.52 718.713 1125.66 718.966 1125.87C719.219 1126.08 719.421 1126.34 719.571 1126.66C719.722 1126.97 719.799 1127.31 719.801 1127.68C719.799 1128.15 719.671 1128.57 719.418 1128.94C719.168 1129.31 718.82 1129.6 718.374 1129.81C717.931 1130.02 717.418 1130.12 716.836 1130.12ZM716.836 1129.18C717.23 1129.18 717.571 1129.12 717.858 1128.99C718.145 1128.86 718.367 1128.68 718.523 1128.45C718.679 1128.22 718.759 1127.94 718.762 1127.63C718.759 1127.3 718.674 1127.01 718.506 1126.76C718.338 1126.5 718.11 1126.31 717.82 1126.16C717.533 1126.02 717.205 1125.94 716.836 1125.94C716.463 1125.94 716.131 1126.02 715.838 1126.16C715.549 1126.31 715.32 1126.5 715.152 1126.76C714.988 1127.01 714.907 1127.3 714.909 1127.63C714.907 1127.94 714.982 1128.22 715.135 1128.45C715.292 1128.68 715.515 1128.86 715.804 1128.99C716.094 1129.12 716.438 1129.18 716.836 1129.18ZM716.836 1125.04C717.148 1125.04 717.425 1124.98 717.667 1124.85C717.911 1124.73 718.103 1124.55 718.242 1124.33C718.381 1124.1 718.452 1123.84 718.455 1123.54C718.452 1123.24 718.382 1122.99 718.246 1122.77C718.11 1122.55 717.921 1122.38 717.679 1122.26C717.438 1122.13 717.157 1122.07 716.836 1122.07C716.509 1122.07 716.223 1122.13 715.979 1122.26C715.735 1122.38 715.546 1122.55 715.412 1122.77C715.279 1122.99 715.213 1123.24 715.216 1123.54C715.213 1123.84 715.28 1124.1 715.417 1124.33C715.556 1124.55 715.748 1124.73 715.992 1124.85C716.236 1124.98 716.517 1125.04 716.836 1125.04ZM724.281 1130.12C723.639 1130.12 723.092 1129.94 722.641 1129.6C722.189 1129.24 721.844 1128.73 721.605 1128.07C721.366 1127.39 721.247 1126.59 721.247 1125.64C721.247 1124.69 721.366 1123.89 721.605 1123.22C721.847 1122.55 722.193 1122.04 722.645 1121.69C723.099 1121.33 723.645 1121.15 724.281 1121.15C724.918 1121.15 725.462 1121.33 725.913 1121.69C726.368 1122.04 726.714 1122.55 726.953 1123.22C727.195 1123.89 727.315 1124.69 727.315 1125.64C727.315 1126.59 727.196 1127.39 726.957 1128.07C726.719 1128.73 726.374 1129.24 725.922 1129.6C725.47 1129.94 724.923 1130.12 724.281 1130.12ZM724.281 1129.18C724.918 1129.18 725.412 1128.87 725.764 1128.26C726.116 1127.65 726.293 1126.77 726.293 1125.64C726.293 1124.88 726.212 1124.24 726.05 1123.71C725.891 1123.17 725.661 1122.77 725.359 1122.49C725.061 1122.21 724.702 1122.07 724.281 1122.07C723.651 1122.07 723.158 1122.38 722.803 1123.01C722.447 1123.63 722.27 1124.5 722.27 1125.64C722.27 1126.39 722.349 1127.03 722.509 1127.56C722.668 1128.09 722.896 1128.49 723.195 1128.77C723.496 1129.04 723.858 1129.18 724.281 1129.18ZM728.952 1132.45V1123.45H729.923V1124.49H730.043C730.116 1124.38 730.219 1124.24 730.349 1124.06C730.483 1123.88 730.673 1123.72 730.92 1123.58C731.17 1123.44 731.509 1123.37 731.935 1123.37C732.486 1123.37 732.972 1123.51 733.392 1123.78C733.813 1124.06 734.141 1124.45 734.376 1124.95C734.612 1125.46 734.73 1126.06 734.73 1126.74C734.73 1127.44 734.612 1128.04 734.376 1128.55C734.141 1129.05 733.814 1129.44 733.396 1129.72C732.979 1130 732.497 1130.14 731.952 1130.14C731.531 1130.14 731.195 1130.07 730.942 1129.93C730.689 1129.79 730.494 1129.62 730.358 1129.45C730.222 1129.26 730.116 1129.11 730.043 1128.99H729.957V1132.45H728.952ZM729.94 1126.73C729.94 1127.22 730.013 1127.66 730.158 1128.04C730.303 1128.41 730.514 1128.7 730.793 1128.92C731.071 1129.13 731.412 1129.23 731.815 1129.23C732.236 1129.23 732.587 1129.12 732.868 1128.9C733.152 1128.68 733.365 1128.37 733.507 1128C733.652 1127.62 733.724 1127.19 733.724 1126.73C733.724 1126.27 733.653 1125.85 733.511 1125.48C733.372 1125.11 733.161 1124.82 732.876 1124.6C732.595 1124.38 732.241 1124.27 731.815 1124.27C731.406 1124.27 731.063 1124.38 730.784 1124.58C730.506 1124.79 730.295 1125.08 730.153 1125.44C730.011 1125.81 729.94 1126.24 729.94 1126.73ZM736.745 1123.45L738.313 1126.13L739.881 1123.45H741.04L738.926 1126.73L741.04 1130H739.881L738.313 1127.46L736.745 1130H735.586L737.665 1126.73L735.586 1123.45H736.745Z" fill="#3D42CE"/>
<path d="M1360 1100V1108L1360 1116" stroke="#3D42CE"/>
<path d="M80 1108L1360 1108" stroke="#3D42CE"/>
<path d="M80 1100V1108L80 1116" stroke="#3D42CE"/>
<path d="M1360 1076L1360 1086L1360 1096" stroke="#3D42CE" stroke-linecap="round" stroke-linejoin="round" stroke-dasharray="0.1 3"/>
<path d="M80 1076L80 1086L79.9999 1096" stroke="#3D42CE" stroke-linecap="round" stroke-linejoin="round" stroke-dasharray="0.1 3"/>
<defs>
<filter id="filter0_d_102_10311" x="630" y="471" width="96" height="48" filterUnits="userSpaceOnUse" color-interpolation-filters="sRGB">
<feFlood flood-opacity="0" result="BackgroundImageFix"/>
<feColorMatrix in="SourceAlpha" type="matrix" values="0 0 0 0 0 0 0 0 0 0 0 0 0 0 0 0 0 0 127 0" result="hardAlpha"/>
<feOffset dy="1"/>
<feGaussianBlur stdDeviation="1"/>
<feColorMatrix type="matrix" values="0 0 0 0 0.0627451 0 0 0 0 0.0941176 0 0 0 0 0.156863 0 0 0 0.05 0"/>
<feBlend mode="normal" in2="BackgroundImageFix" result="effect1_dropShadow_102_10311"/>
<feBlend mode="normal" in="SourceGraphic" in2="effect1_dropShadow_102_10311" result="shape"/>
</filter>
<filter id="filter1_d_102_10311" x="758" y="471" width="52" height="48" filterUnits="userSpaceOnUse" color-interpolation-filters="sRGB">
<feFlood flood-opacity="0" result="BackgroundImageFix"/>
<feColorMatrix in="SourceAlpha" type="matrix" values="0 0 0 0 0 0 0 0 0 0 0 0 0 0 0 0 0 0 127 0" result="hardAlpha"/>
<feOffset dy="1"/>
<feGaussianBlur stdDeviation="1"/>
<feColorMatrix type="matrix" values="0 0 0 0 0.0627451 0 0 0 0 0.0941176 0 0 0 0 0.156863 0 0 0 0.05 0"/>
<feBlend mode="normal" in2="BackgroundImageFix" result="effect1_dropShadow_102_10311"/>
<feBlend mode="normal" in="SourceGraphic" in2="effect1_dropShadow_102_10311" result="shape"/>
</filter>
</defs>
</svg>
