<svg width="20" height="21" viewBox="0 0 20 21" fill="none" xmlns="http://www.w3.org/2000/svg">
<path d="M10 3.1001C5.875 3.1001 2.5 6.49206 2.5 10.6378C2.5 14.3576 5.2525 17.4481 8.8 18.1001V12.7483H6.925V10.6378H8.8V8.9795C8.8 7.09507 10 6.0398 11.725 6.0398C12.25 6.0398 12.85 6.11517 13.375 6.19055V8.11266H12.4C11.5 8.11266 11.275 8.56492 11.275 9.16794V10.6378H13.2625L12.925 12.7483H11.275V18.0926C14.8187 17.4368 17.5 14.3576 17.5 10.6378C17.5 6.49206 14.125 3.1001 10 3.1001Z" fill="url(#paint0_linear_102_2221)"/>
<defs>
<linearGradient id="paint0_linear_102_2221" x1="10" y1="17.6516" x2="10" y2="3.1001" gradientUnits="userSpaceOnUse">
<stop stop-color="#0062E0"/>
<stop offset="1" stop-color="#19AFFF"/>
</linearGradient>
</defs>
</svg>
