<svg width="20" height="21" viewBox="0 0 20 21" fill="none" xmlns="http://www.w3.org/2000/svg">
<path d="M10.1531 9.23657V12.1411H14.2718C14.091 13.0752 13.5482 13.8662 12.7342 14.398L15.218 16.2867C16.6651 14.9776 17.5 13.0548 17.5 10.7707C17.5 10.2389 17.4513 9.72752 17.3609 9.23665L10.1531 9.23657Z" fill="#4285F4"/>
<path d="M3.32115 7.23877C2.79938 8.24782 2.50024 9.38648 2.50024 10.6001C2.50024 11.8137 2.79938 12.9524 3.32115 13.9614C3.32115 13.9682 5.86759 12.0251 5.86759 12.0251C5.71453 11.5751 5.62406 11.0978 5.62406 10.6C5.62406 10.1022 5.71453 9.62499 5.86759 9.17499L3.32115 7.23877Z" fill="#FBBC05"/>
<path d="M10.1529 6.08648C11.28 6.08648 12.2818 6.46829 13.0819 7.20466L15.2735 5.05695C13.9446 3.84333 12.2192 3.1001 10.1529 3.1001C7.16123 3.1001 4.58008 4.78419 3.3208 7.23876L5.86716 9.17514C6.47242 7.40238 8.16308 6.08648 10.1529 6.08648Z" fill="#EA4335"/>
<path d="M5.86387 12.0278L5.30368 12.4481L3.3208 13.9617C4.58008 16.4094 7.16107 18.1004 10.1527 18.1004C12.219 18.1004 13.9514 17.4322 15.2176 16.2867L12.7339 14.3981C12.052 14.8481 11.1824 15.1208 10.1527 15.1208C8.16292 15.1208 6.47233 13.8049 5.867 12.0322L5.86387 12.0278Z" fill="#34A853"/>
</svg>
