<svg width="24" height="25" viewBox="0 0 24 25" fill="none" xmlns="http://www.w3.org/2000/svg">
<path d="M20.2217 12.9358C20.3449 13.059 20.4086 13.2314 20.3989 13.4153C20.3893 13.5991 20.307 13.7792 20.1701 13.916L11.9158 22.1704C11.779 22.3072 11.5988 22.3895 11.415 22.3992C11.2312 22.4089 11.0587 22.3451 10.9356 22.222L2.57807 13.8645C2.45493 13.7413 2.39119 13.5689 2.40086 13.385C2.41054 13.2012 2.49284 13.0211 2.62966 12.8842L10.884 4.62991C11.0208 4.49308 11.201 4.41078 11.3848 4.40111C11.5686 4.39143 11.7411 4.45518 11.8642 4.57832L20.2217 12.9358ZM10.4197 13.4517L7.16955 10.2016L4.07417 13.297L7.32432 16.5471L10.4197 13.4517ZM14.5985 17.6305L11.3483 14.3803L8.25293 17.4757L11.5031 20.7259L14.5985 17.6305ZM14.5469 9.32456L11.2967 6.07442L8.20134 9.1698L11.4515 12.4199L14.5469 9.32456ZM18.7256 13.5033L15.4755 10.2532L12.3801 13.3486L15.6303 16.5987L18.7256 13.5033Z" fill="#525866"/>
</svg>
