<svg width="20" height="21" viewBox="0 0 20 21" fill="none" xmlns="http://www.w3.org/2000/svg">
<path fill-rule="evenodd" clip-rule="evenodd" d="M15.8333 3.1001H4.16667C3.24583 3.1001 2.5 3.84593 2.5 4.76676V16.4334C2.5 17.3543 3.24583 18.1001 4.16667 18.1001H15.8333C16.7542 18.1001 17.5 17.3543 17.5 16.4334V4.76676C17.5 3.84593 16.7542 3.1001 15.8333 3.1001ZM7.03542 16.0168H4.79792V8.79385H7.03542V16.0168ZM5.90625 7.84801C5.175 7.84801 4.58333 7.25218 4.58333 6.51468C4.58333 5.77718 5.175 5.18135 5.90625 5.18135C6.6375 5.18135 7.22917 5.77718 7.22917 6.51468C7.22917 7.25218 6.6375 7.84801 5.90625 7.84801ZM15.4167 16.0168H13.1917V12.2251C13.1917 11.1855 12.7958 10.6043 11.975 10.6043C11.0792 10.6043 10.6125 11.2084 10.6125 12.2251V16.0168H8.46667V8.79385H10.6125V9.76676C10.6125 9.76676 11.2583 8.57301 12.7896 8.57301C14.3208 8.57301 15.4187 9.50843 15.4187 11.4438V16.0168H15.4167Z" fill="white"/>
</svg>
