<svg width="386" height="1044" viewBox="0 0 386 1044" fill="none" xmlns="http://www.w3.org/2000/svg">
<rect width="375" height="812" transform="translate(6)" fill="#F6F8FA"/>
<rect x="6.5" y="56.5" width="374" height="723" rx="15.5" fill="white"/>
<rect x="6.5" y="56.5" width="374" height="723" rx="15.5" stroke="#CDD0D5"/>
<path d="M67.0499 399V377.182H72.1919V399H67.0499ZM69.6351 374.085C68.8207 374.085 68.1199 373.815 67.5328 373.276C66.9457 372.726 66.6521 372.068 66.6521 371.301C66.6521 370.525 66.9457 369.866 67.5328 369.327C68.1199 368.777 68.8207 368.503 69.6351 368.503C70.4589 368.503 71.1597 368.777 71.7374 369.327C72.3245 369.866 72.618 370.525 72.618 371.301C72.618 372.068 72.3245 372.726 71.7374 373.276C71.1597 373.815 70.4589 374.085 69.6351 374.085ZM77.3068 399V369.909H88.2159C90.4508 369.909 92.3258 370.326 93.8409 371.159C95.3655 371.992 96.5161 373.138 97.2926 374.597C98.0786 376.045 98.4716 377.693 98.4716 379.54C98.4716 381.405 98.0786 383.062 97.2926 384.511C96.5066 385.96 95.3466 387.101 93.8125 387.935C92.2784 388.759 90.3892 389.17 88.1449 389.17H80.9148V384.838H87.4347C88.7415 384.838 89.8115 384.611 90.6449 384.156C91.4782 383.702 92.0937 383.077 92.4915 382.281C92.8987 381.486 93.1023 380.572 93.1023 379.54C93.1023 378.508 92.8987 377.598 92.4915 376.812C92.0937 376.027 91.4735 375.416 90.6307 374.98C89.7973 374.535 88.7225 374.312 87.4062 374.312H82.5767V399H77.3068ZM107.564 386.216V399H102.422V369.909H107.45V380.889H107.706C108.217 379.658 109.008 378.687 110.078 377.977C111.158 377.258 112.531 376.898 114.197 376.898C115.712 376.898 117.033 377.215 118.16 377.849C119.287 378.484 120.158 379.412 120.774 380.634C121.399 381.855 121.712 383.347 121.712 385.108V399H116.569V385.903C116.569 384.436 116.191 383.295 115.433 382.48C114.685 381.656 113.634 381.244 112.28 381.244C111.371 381.244 110.556 381.443 109.837 381.841C109.126 382.229 108.568 382.793 108.16 383.531C107.763 384.27 107.564 385.165 107.564 386.216ZM136.07 399.426C133.939 399.426 132.093 398.957 130.53 398.02C128.968 397.082 127.756 395.771 126.894 394.085C126.042 392.4 125.615 390.43 125.615 388.176C125.615 385.922 126.042 383.948 126.894 382.253C127.756 380.558 128.968 379.241 130.53 378.304C132.093 377.366 133.939 376.898 136.07 376.898C138.201 376.898 140.047 377.366 141.61 378.304C143.172 379.241 144.38 380.558 145.232 382.253C146.094 383.948 146.525 385.922 146.525 388.176C146.525 390.43 146.094 392.4 145.232 394.085C144.38 395.771 143.172 397.082 141.61 398.02C140.047 398.957 138.201 399.426 136.07 399.426ZM136.098 395.307C137.254 395.307 138.22 394.99 138.996 394.355C139.773 393.711 140.35 392.849 140.729 391.77C141.117 390.69 141.311 389.488 141.311 388.162C141.311 386.827 141.117 385.619 140.729 384.54C140.35 383.451 139.773 382.584 138.996 381.94C138.22 381.296 137.254 380.974 136.098 380.974C134.915 380.974 133.93 381.296 133.144 381.94C132.367 382.584 131.785 383.451 131.397 384.54C131.018 385.619 130.829 386.827 130.829 388.162C130.829 389.488 131.018 390.69 131.397 391.77C131.785 392.849 132.367 393.711 133.144 394.355C133.93 394.99 134.915 395.307 136.098 395.307ZM155.631 386.216V399H150.489V377.182H155.404V380.889H155.659C156.161 379.668 156.961 378.697 158.06 377.977C159.168 377.258 160.536 376.898 162.165 376.898C163.671 376.898 164.982 377.22 166.1 377.864C167.227 378.508 168.098 379.44 168.713 380.662C169.338 381.884 169.646 383.366 169.637 385.108V399H164.495V385.903C164.495 384.445 164.116 383.304 163.358 382.48C162.61 381.656 161.573 381.244 160.247 381.244C159.348 381.244 158.548 381.443 157.847 381.841C157.156 382.229 156.611 382.793 156.213 383.531C155.825 384.27 155.631 385.165 155.631 386.216ZM184.123 399.426C181.936 399.426 180.046 398.972 178.455 398.062C176.874 397.144 175.657 395.847 174.805 394.17C173.953 392.485 173.526 390.501 173.526 388.219C173.526 385.974 173.953 384.005 174.805 382.31C175.667 380.605 176.869 379.279 178.413 378.332C179.956 377.376 181.77 376.898 183.853 376.898C185.198 376.898 186.467 377.116 187.66 377.551C188.863 377.977 189.923 378.64 190.842 379.54C191.77 380.439 192.499 381.585 193.029 382.977C193.56 384.36 193.825 386.008 193.825 387.92V389.497H175.941V386.031H188.896C188.886 385.046 188.673 384.17 188.257 383.403C187.84 382.627 187.257 382.016 186.509 381.571C185.771 381.126 184.909 380.903 183.924 380.903C182.873 380.903 181.95 381.159 181.154 381.67C180.359 382.172 179.739 382.835 179.293 383.659C178.858 384.473 178.635 385.368 178.626 386.344V389.369C178.626 390.638 178.858 391.727 179.322 392.636C179.786 393.536 180.435 394.227 181.268 394.71C182.101 395.184 183.077 395.42 184.194 395.42C184.942 395.42 185.619 395.316 186.225 395.108C186.831 394.89 187.357 394.573 187.802 394.156C188.247 393.74 188.583 393.223 188.811 392.608L193.612 393.148C193.309 394.417 192.731 395.525 191.879 396.472C191.036 397.409 189.956 398.138 188.64 398.659C187.324 399.17 185.818 399.426 184.123 399.426ZM206.785 391.088H212.112C212.178 391.902 212.453 392.603 212.936 393.19C213.419 393.768 214.053 394.213 214.839 394.526C215.625 394.829 216.501 394.98 217.467 394.98C218.49 394.98 219.404 394.805 220.209 394.455C221.014 394.095 221.643 393.583 222.098 392.92C222.562 392.248 222.794 391.434 222.794 390.477C222.794 389.597 222.571 388.796 222.126 388.077C221.691 387.348 221.023 386.77 220.123 386.344C219.224 385.908 218.073 385.69 216.672 385.69H213.788V381.898L220.521 374.511V374.312H208.22V369.909H227.169V373.716L219.356 382.125V382.352C220.796 382.466 222.065 382.769 223.163 383.261C224.271 383.754 225.199 384.384 225.947 385.151C226.695 385.918 227.259 386.779 227.638 387.736C228.016 388.692 228.206 389.696 228.206 390.747C228.206 392.452 227.737 393.953 226.8 395.25C225.872 396.547 224.593 397.565 222.964 398.304C221.345 399.033 219.498 399.398 217.425 399.398C215.436 399.398 213.651 399.057 212.069 398.375C210.497 397.693 209.243 396.732 208.305 395.491C207.368 394.241 206.861 392.774 206.785 391.088ZM233.765 399L246.137 374.511V374.312H231.776V369.909H251.591V374.412L239.233 399H233.765ZM265.499 399.398C263.605 399.398 261.91 399.043 260.414 398.332C258.917 397.613 257.729 396.628 256.848 395.378C255.977 394.128 255.513 392.698 255.456 391.088H260.57C260.665 392.281 261.181 393.257 262.118 394.014C263.056 394.762 264.183 395.136 265.499 395.136C266.531 395.136 267.45 394.9 268.255 394.426C269.059 393.953 269.694 393.295 270.158 392.452C270.622 391.609 270.849 390.648 270.84 389.568C270.849 388.47 270.617 387.494 270.144 386.642C269.67 385.79 269.022 385.122 268.198 384.639C267.374 384.147 266.427 383.901 265.357 383.901C264.486 383.891 263.629 384.052 262.786 384.384C261.943 384.715 261.275 385.151 260.783 385.69L256.024 384.909L257.544 369.909H274.419V374.312H261.905L261.067 382.026H261.237C261.777 381.391 262.54 380.866 263.524 380.449C264.509 380.023 265.589 379.81 266.763 379.81C268.524 379.81 270.096 380.226 271.479 381.06C272.862 381.884 273.951 383.02 274.746 384.469C275.541 385.918 275.939 387.575 275.939 389.44C275.939 391.363 275.494 393.077 274.604 394.582C273.723 396.079 272.497 397.258 270.925 398.119C269.362 398.972 267.554 399.398 265.499 399.398ZM280.355 407.182V377.182H285.411V380.79H285.71C285.975 380.259 286.349 379.696 286.832 379.099C287.315 378.493 287.968 377.977 288.792 377.551C289.616 377.116 290.667 376.898 291.945 376.898C293.631 376.898 295.151 377.329 296.505 378.19C297.869 379.043 298.948 380.307 299.744 381.983C300.549 383.65 300.951 385.695 300.951 388.119C300.951 390.515 300.558 392.551 299.772 394.227C298.986 395.903 297.916 397.182 296.562 398.062C295.208 398.943 293.674 399.384 291.96 399.384C290.71 399.384 289.673 399.175 288.849 398.759C288.025 398.342 287.362 397.84 286.86 397.253C286.368 396.656 285.984 396.093 285.71 395.562H285.497V407.182H280.355ZM285.397 388.091C285.397 389.502 285.596 390.738 285.994 391.798C286.401 392.859 286.983 393.687 287.741 394.284C288.508 394.871 289.436 395.165 290.525 395.165C291.661 395.165 292.613 394.862 293.38 394.256C294.147 393.64 294.725 392.802 295.113 391.741C295.511 390.671 295.71 389.455 295.71 388.091C295.71 386.737 295.516 385.534 295.127 384.483C294.739 383.432 294.161 382.608 293.394 382.011C292.627 381.415 291.671 381.116 290.525 381.116C289.427 381.116 288.494 381.405 287.727 381.983C286.96 382.561 286.377 383.37 285.98 384.412C285.591 385.454 285.397 386.68 285.397 388.091ZM308.339 377.182L312.742 385.236L317.217 377.182H322.657L316.08 388.091L322.771 399H317.359L312.742 391.145L308.168 399H302.714L309.362 388.091L302.884 377.182H308.339Z" fill="#161922"/>
<g filter="url(#filter0_d_102_10827)">
<rect x="106" y="432" width="92" height="44" rx="8" fill="white"/>
<rect x="106.5" y="432.5" width="91" height="43" rx="7.5" stroke="#CDD0D5"/>
<path d="M125.307 454.761L132.619 447.455L139.926 454.761H136.256V460H128.983V454.761H125.307ZM128.67 453.466H130.608V458.705H134.625V453.466H136.562L132.619 449.523L128.67 453.466ZM152.976 451.273C152.908 450.697 152.631 450.25 152.146 449.932C151.661 449.614 151.067 449.455 150.362 449.455C149.847 449.455 149.396 449.538 149.01 449.705C148.627 449.871 148.328 450.1 148.112 450.392C147.9 450.684 147.794 451.015 147.794 451.386C147.794 451.697 147.868 451.964 148.016 452.188C148.167 452.407 148.36 452.591 148.595 452.739C148.83 452.883 149.076 453.002 149.334 453.097C149.591 453.187 149.828 453.261 150.044 453.318L151.226 453.636C151.529 453.716 151.866 453.826 152.237 453.966C152.612 454.106 152.97 454.297 153.311 454.54C153.656 454.778 153.94 455.085 154.163 455.46C154.387 455.835 154.499 456.295 154.499 456.841C154.499 457.47 154.334 458.038 154.004 458.545C153.679 459.053 153.201 459.456 152.572 459.756C151.947 460.055 151.188 460.205 150.294 460.205C149.461 460.205 148.739 460.07 148.129 459.801C147.523 459.532 147.046 459.157 146.697 458.676C146.353 458.195 146.158 457.636 146.112 457H147.567C147.605 457.439 147.752 457.803 148.01 458.091C148.271 458.375 148.601 458.587 148.999 458.727C149.4 458.864 149.832 458.932 150.294 458.932C150.832 458.932 151.315 458.845 151.743 458.67C152.171 458.492 152.51 458.246 152.76 457.932C153.01 457.614 153.135 457.242 153.135 456.818C153.135 456.432 153.027 456.117 152.811 455.875C152.595 455.633 152.311 455.436 151.959 455.284C151.607 455.133 151.226 455 150.817 454.886L149.385 454.477C148.476 454.216 147.756 453.843 147.226 453.358C146.696 452.873 146.43 452.239 146.43 451.455C146.43 450.803 146.607 450.235 146.959 449.75C147.315 449.261 147.792 448.883 148.391 448.614C148.993 448.341 149.665 448.205 150.408 448.205C151.158 448.205 151.824 448.339 152.408 448.608C152.991 448.873 153.453 449.237 153.794 449.699C154.139 450.161 154.321 450.686 154.339 451.273H152.976ZM157.798 454.75V460H156.458V448.364H157.798V452.636H157.912C158.117 452.186 158.423 451.828 158.833 451.562C159.245 451.294 159.795 451.159 160.48 451.159C161.075 451.159 161.596 451.278 162.043 451.517C162.49 451.752 162.836 452.114 163.083 452.602C163.333 453.087 163.458 453.705 163.458 454.455V460H162.117V454.545C162.117 453.852 161.937 453.316 161.577 452.938C161.221 452.555 160.726 452.364 160.094 452.364C159.654 452.364 159.261 452.456 158.912 452.642C158.567 452.828 158.295 453.098 158.094 453.455C157.897 453.811 157.798 454.242 157.798 454.75ZM165.735 460V451.273H167.076V460H165.735ZM166.416 449.818C166.155 449.818 165.93 449.729 165.74 449.551C165.555 449.373 165.462 449.159 165.462 448.909C165.462 448.659 165.555 448.445 165.74 448.267C165.93 448.089 166.155 448 166.416 448C166.678 448 166.901 448.089 167.087 448.267C167.276 448.445 167.371 448.659 167.371 448.909C167.371 449.159 167.276 449.373 167.087 449.551C166.901 449.729 166.678 449.818 166.416 449.818ZM173.242 451.273V452.409H168.537V451.273H173.242ZM169.946 460V450.068C169.946 449.568 170.064 449.152 170.299 448.818C170.534 448.485 170.838 448.235 171.213 448.068C171.588 447.902 171.984 447.818 172.401 447.818C172.731 447.818 172.999 447.845 173.208 447.898C173.416 447.951 173.571 448 173.674 448.045L173.287 449.205C173.219 449.182 173.124 449.153 173.003 449.119C172.886 449.085 172.731 449.068 172.537 449.068C172.094 449.068 171.774 449.18 171.577 449.403C171.384 449.627 171.287 449.955 171.287 450.386V460H169.946ZM178.741 451.273V452.409H174.218V451.273H178.741ZM175.536 449.182H176.877V457.5C176.877 457.879 176.932 458.163 177.042 458.352C177.155 458.538 177.299 458.663 177.474 458.727C177.652 458.788 177.839 458.818 178.036 458.818C178.184 458.818 178.305 458.811 178.4 458.795C178.494 458.777 178.57 458.761 178.627 458.75L178.9 459.955C178.809 459.989 178.682 460.023 178.519 460.057C178.356 460.095 178.15 460.114 177.9 460.114C177.521 460.114 177.15 460.032 176.786 459.869C176.426 459.706 176.127 459.458 175.888 459.125C175.653 458.792 175.536 458.371 175.536 457.864V449.182Z" fill="#31353F"/>
</g>
<path d="M215.216 460.105V451.668H216.648V460.105H215.216ZM211.713 456.602V455.17H220.151V456.602H211.713Z" fill="#31353F"/>
<g filter="url(#filter1_d_102_10827)">
<rect x="234" y="432" width="48" height="44" rx="8" fill="white"/>
<rect x="234.5" y="432.5" width="47" height="43" rx="7.5" stroke="#CDD0D5"/>
<path d="M261.364 452C261.239 451.617 261.074 451.275 260.869 450.972C260.669 450.665 260.428 450.403 260.148 450.188C259.871 449.972 259.557 449.807 259.205 449.693C258.852 449.58 258.466 449.523 258.045 449.523C257.356 449.523 256.729 449.701 256.165 450.057C255.6 450.413 255.152 450.938 254.818 451.631C254.485 452.324 254.318 453.174 254.318 454.182C254.318 455.189 254.487 456.04 254.824 456.733C255.161 457.426 255.617 457.951 256.193 458.307C256.769 458.663 257.417 458.841 258.136 458.841C258.803 458.841 259.39 458.699 259.898 458.415C260.409 458.127 260.807 457.722 261.091 457.199C261.379 456.672 261.523 456.053 261.523 455.341L261.955 455.432H258.455V454.182H262.886V455.432C262.886 456.39 262.682 457.223 262.273 457.932C261.867 458.64 261.307 459.189 260.591 459.58C259.879 459.966 259.061 460.159 258.136 460.159C257.106 460.159 256.201 459.917 255.42 459.432C254.644 458.947 254.038 458.258 253.602 457.364C253.17 456.47 252.955 455.409 252.955 454.182C252.955 453.261 253.078 452.434 253.324 451.699C253.574 450.96 253.926 450.331 254.381 449.812C254.835 449.294 255.373 448.896 255.994 448.619C256.616 448.343 257.299 448.205 258.045 448.205C258.659 448.205 259.231 448.297 259.761 448.483C260.295 448.665 260.771 448.924 261.188 449.261C261.608 449.595 261.958 449.994 262.239 450.46C262.519 450.922 262.712 451.436 262.818 452H261.364Z" fill="#31353F"/>
</g>
<path d="M4.17667 889.273L4.17667 898H3.11985L3.11985 890.381H3.06871L0.938033 891.795V890.722L3.11985 889.273H4.17667ZM9.58434 898.119C9.22639 898.114 8.86843 898.045 8.51048 897.915C8.15252 897.784 7.82582 897.564 7.53036 897.254C7.23491 896.942 6.99769 896.52 6.81871 895.989C6.63974 895.455 6.55025 894.784 6.55025 893.977C6.55025 893.205 6.62269 892.52 6.76758 891.923C6.91246 891.324 7.12269 890.82 7.39826 890.411C7.67383 889.999 8.00621 889.686 8.39542 889.473C8.78746 889.26 9.22923 889.153 9.7207 889.153C10.2093 889.153 10.644 889.251 11.0247 889.447C11.4082 889.641 11.7207 889.911 11.9622 890.257C12.2037 890.604 12.3599 891.003 12.4309 891.455H11.3912C11.2946 891.062 11.1071 890.737 10.8287 890.479C10.5502 890.22 10.1809 890.091 9.7207 890.091C9.04457 890.091 8.5119 890.385 8.12269 890.973C7.73633 891.561 7.54173 892.386 7.53889 893.449H7.60707C7.76616 893.207 7.95508 893.001 8.17383 892.831C8.39542 892.658 8.63974 892.524 8.90678 892.43C9.17383 892.337 9.4565 892.29 9.75479 892.29C10.2548 892.29 10.7122 892.415 11.127 892.665C11.5417 892.912 11.8741 893.254 12.1241 893.692C12.3741 894.126 12.4991 894.625 12.4991 895.188C12.4991 895.727 12.3784 896.222 12.1369 896.67C11.8954 897.116 11.5559 897.472 11.1184 897.736C10.6838 897.997 10.1724 898.125 9.58434 898.119ZM9.58434 897.182C9.94229 897.182 10.2633 897.092 10.5474 896.913C10.8343 896.734 11.0602 896.494 11.225 896.193C11.3926 895.892 11.4764 895.557 11.4764 895.188C11.4764 894.827 11.3954 894.499 11.2335 894.203C11.0744 893.905 10.8542 893.668 10.573 893.491C10.2946 893.315 9.97638 893.227 9.61843 893.227C9.34854 893.227 9.09712 893.281 8.86417 893.389C8.63121 893.494 8.42667 893.639 8.25053 893.824C8.07724 894.009 7.94087 894.22 7.84144 894.459C7.74201 894.695 7.69229 894.943 7.69229 895.205C7.69229 895.551 7.77326 895.875 7.93519 896.176C8.09996 896.477 8.3244 896.72 8.60849 896.905C8.89542 897.089 9.2207 897.182 9.58434 897.182ZM14.1919 900.455V891.455H15.1635V892.494H15.2828C15.3567 892.381 15.459 892.236 15.5897 892.06C15.7232 891.881 15.9135 891.722 16.1607 891.582C16.4107 891.44 16.7488 891.369 17.1749 891.369C17.726 891.369 18.2118 891.507 18.6323 891.783C19.0527 892.058 19.3809 892.449 19.6167 892.955C19.8525 893.46 19.9703 894.057 19.9703 894.744C19.9703 895.438 19.8525 896.038 19.6167 896.547C19.3809 897.053 19.0542 897.445 18.6365 897.723C18.2189 897.999 17.7374 898.136 17.1919 898.136C16.7715 898.136 16.4348 898.067 16.182 897.928C15.9292 897.786 15.7346 897.625 15.5982 897.446C15.4618 897.264 15.3567 897.114 15.2828 896.994H15.1976V900.455H14.1919ZM15.1806 894.727C15.1806 895.222 15.253 895.658 15.3979 896.036C15.5428 896.411 15.7544 896.705 16.0328 896.918C16.3113 897.128 16.6522 897.233 17.0556 897.233C17.476 897.233 17.8269 897.122 18.1081 896.901C18.3922 896.676 18.6053 896.375 18.7473 895.997C18.8922 895.616 18.9647 895.193 18.9647 894.727C18.9647 894.267 18.8936 893.852 18.7516 893.483C18.6124 893.111 18.4007 892.817 18.1167 892.601C17.8354 892.382 17.4817 892.273 17.0556 892.273C16.6465 892.273 16.3027 892.376 16.0243 892.584C15.7459 892.788 15.5357 893.075 15.3936 893.445C15.2516 893.811 15.1806 894.239 15.1806 894.727ZM21.9849 891.455L23.5531 894.131L25.1213 891.455H26.2804L24.1667 894.727L26.2804 898H25.1213L23.5531 895.46L21.9849 898H20.8258L22.9054 894.727L20.8258 891.455H21.9849Z" fill="#3D42CE"/>
<path d="M22 868L22 876L22 884" stroke="#3D42CE"/>
<path d="M6 876H22" stroke="#3D42CE"/>
<path d="M6 868L6 876L6 884" stroke="#3D42CE"/>
<path d="M22 844L22 854L22 864" stroke="#3D42CE" stroke-linecap="round" stroke-linejoin="round" stroke-dasharray="0.1 3"/>
<path d="M6 844L6 854L6 864" stroke="#3D42CE" stroke-linecap="round" stroke-linejoin="round" stroke-dasharray="0.1 3"/>
<path d="M93.9267 889.273V898H92.8699V890.381H92.8187L90.688 891.795V890.722L92.8699 889.273H93.9267ZM99.3343 898.119C98.9764 898.114 98.6184 898.045 98.2605 897.915C97.9025 897.784 97.5758 897.564 97.2804 897.254C96.9849 896.942 96.7477 896.52 96.5687 895.989C96.3897 895.455 96.3002 894.784 96.3002 893.977C96.3002 893.205 96.3727 892.52 96.5176 891.923C96.6625 891.324 96.8727 890.82 97.1483 890.411C97.4238 889.999 97.7562 889.686 98.1454 889.473C98.5375 889.26 98.9792 889.153 99.4707 889.153C99.9593 889.153 100.394 889.251 100.775 889.447C101.158 889.641 101.471 889.911 101.712 890.257C101.954 890.604 102.11 891.003 102.181 891.455H101.141C101.045 891.062 100.857 890.737 100.579 890.479C100.3 890.22 99.9309 890.091 99.4707 890.091C98.7946 890.091 98.2619 890.385 97.8727 890.973C97.4863 891.561 97.2917 892.386 97.2889 893.449H97.3571C97.5162 893.207 97.7051 893.001 97.9238 892.831C98.1454 892.658 98.3897 892.524 98.6568 892.43C98.9238 892.337 99.2065 892.29 99.5048 892.29C100.005 892.29 100.462 892.415 100.877 892.665C101.292 892.912 101.624 893.254 101.874 893.692C102.124 894.126 102.249 894.625 102.249 895.188C102.249 895.727 102.128 896.222 101.887 896.67C101.645 897.116 101.306 897.472 100.868 897.736C100.434 897.997 99.9224 898.125 99.3343 898.119ZM99.3343 897.182C99.6923 897.182 100.013 897.092 100.297 896.913C100.584 896.734 100.81 896.494 100.975 896.193C101.143 895.892 101.226 895.557 101.226 895.188C101.226 894.827 101.145 894.499 100.983 894.203C100.824 893.905 100.604 893.668 100.323 893.491C100.045 893.315 99.7264 893.227 99.3684 893.227C99.0985 893.227 98.8471 893.281 98.6142 893.389C98.3812 893.494 98.1767 893.639 98.0005 893.824C97.8272 894.009 97.6909 894.22 97.5914 894.459C97.492 894.695 97.4423 894.943 97.4423 895.205C97.4423 895.551 97.5233 895.875 97.6852 896.176C97.85 896.477 98.0744 896.72 98.3585 896.905C98.6454 897.089 98.9707 897.182 99.3343 897.182ZM103.942 900.455V891.455H104.914V892.494H105.033C105.107 892.381 105.209 892.236 105.34 892.06C105.473 891.881 105.664 891.722 105.911 891.582C106.161 891.44 106.499 891.369 106.925 891.369C107.476 891.369 107.962 891.507 108.382 891.783C108.803 892.058 109.131 892.449 109.367 892.955C109.602 893.46 109.72 894.057 109.72 894.744C109.72 895.438 109.602 896.038 109.367 896.547C109.131 897.053 108.804 897.445 108.387 897.723C107.969 897.999 107.487 898.136 106.942 898.136C106.521 898.136 106.185 898.067 105.932 897.928C105.679 897.786 105.485 897.625 105.348 897.446C105.212 897.264 105.107 897.114 105.033 896.994H104.948V900.455H103.942ZM104.931 894.727C104.931 895.222 105.003 895.658 105.148 896.036C105.293 896.411 105.504 896.705 105.783 896.918C106.061 897.128 106.402 897.233 106.806 897.233C107.226 897.233 107.577 897.122 107.858 896.901C108.142 896.676 108.355 896.375 108.497 895.997C108.642 895.616 108.715 895.193 108.715 894.727C108.715 894.267 108.644 893.852 108.502 893.483C108.362 893.111 108.151 892.817 107.867 892.601C107.585 892.382 107.232 892.273 106.806 892.273C106.396 892.273 106.053 892.376 105.774 892.584C105.496 892.788 105.286 893.075 105.144 893.445C105.002 893.811 104.931 894.239 104.931 894.727ZM111.735 891.455L113.303 894.131L114.871 891.455H116.03L113.917 894.727L116.03 898H114.871L113.303 895.46L111.735 898H110.576L112.655 894.727L110.576 891.455H111.735Z" fill="#3D42CE"/>
<path d="M111.75 868V876L111.75 884" stroke="#3D42CE"/>
<path d="M95.75 876H111.75" stroke="#3D42CE"/>
<path d="M95.75 868V876L95.75 884" stroke="#3D42CE"/>
<path d="M111.75 844L111.75 854L111.75 864" stroke="#3D42CE" stroke-linecap="round" stroke-linejoin="round" stroke-dasharray="0.1 3"/>
<path d="M95.75 844L95.75 854L95.75 864" stroke="#3D42CE" stroke-linecap="round" stroke-linejoin="round" stroke-dasharray="0.1 3"/>
<path d="M183.677 889.273V898H182.62V890.381H182.569L180.438 891.795V890.722L182.62 889.273H183.677ZM189.084 898.119C188.726 898.114 188.368 898.045 188.01 897.915C187.653 897.784 187.326 897.564 187.03 897.254C186.735 896.942 186.498 896.52 186.319 895.989C186.14 895.455 186.05 894.784 186.05 893.977C186.05 893.205 186.123 892.52 186.268 891.923C186.412 891.324 186.623 890.82 186.898 890.411C187.174 889.999 187.506 889.686 187.895 889.473C188.287 889.26 188.729 889.153 189.221 889.153C189.709 889.153 190.144 889.251 190.525 889.447C190.908 889.641 191.221 889.911 191.462 890.257C191.704 890.604 191.86 891.003 191.931 891.455H190.891C190.795 891.062 190.607 890.737 190.329 890.479C190.05 890.22 189.681 890.091 189.221 890.091C188.545 890.091 188.012 890.385 187.623 890.973C187.236 891.561 187.042 892.386 187.039 893.449H187.107C187.266 893.207 187.455 893.001 187.674 892.831C187.895 892.658 188.14 892.524 188.407 892.43C188.674 892.337 188.956 892.29 189.255 892.29C189.755 892.29 190.212 892.415 190.627 892.665C191.042 892.912 191.374 893.254 191.624 893.692C191.874 894.126 191.999 894.625 191.999 895.188C191.999 895.727 191.878 896.222 191.637 896.67C191.395 897.116 191.056 897.472 190.618 897.736C190.184 897.997 189.672 898.125 189.084 898.119ZM189.084 897.182C189.442 897.182 189.763 897.092 190.047 896.913C190.334 896.734 190.56 896.494 190.725 896.193C190.893 895.892 190.976 895.557 190.976 895.188C190.976 894.827 190.895 894.499 190.733 894.203C190.574 893.905 190.354 893.668 190.073 893.491C189.795 893.315 189.476 893.227 189.118 893.227C188.849 893.227 188.597 893.281 188.364 893.389C188.131 893.494 187.927 893.639 187.751 893.824C187.577 894.009 187.441 894.22 187.341 894.459C187.242 894.695 187.192 894.943 187.192 895.205C187.192 895.551 187.273 895.875 187.435 896.176C187.6 896.477 187.824 896.72 188.108 896.905C188.395 897.089 188.721 897.182 189.084 897.182ZM193.692 900.455V891.455H194.664V892.494H194.783C194.857 892.381 194.959 892.236 195.09 892.06C195.223 891.881 195.414 891.722 195.661 891.582C195.911 891.44 196.249 891.369 196.675 891.369C197.226 891.369 197.712 891.507 198.132 891.783C198.553 892.058 198.881 892.449 199.117 892.955C199.352 893.46 199.47 894.057 199.47 894.744C199.47 895.438 199.352 896.038 199.117 896.547C198.881 897.053 198.554 897.445 198.137 897.723C197.719 897.999 197.237 898.136 196.692 898.136C196.271 898.136 195.935 898.067 195.682 897.928C195.429 897.786 195.235 897.625 195.098 897.446C194.962 897.264 194.857 897.114 194.783 896.994H194.698V900.455H193.692ZM194.681 894.727C194.681 895.222 194.753 895.658 194.898 896.036C195.043 896.411 195.254 896.705 195.533 896.918C195.811 897.128 196.152 897.233 196.556 897.233C196.976 897.233 197.327 897.122 197.608 896.901C197.892 896.676 198.105 896.375 198.247 895.997C198.392 895.616 198.465 895.193 198.465 894.727C198.465 894.267 198.394 893.852 198.252 893.483C198.112 893.111 197.901 892.817 197.617 892.601C197.335 892.382 196.982 892.273 196.556 892.273C196.146 892.273 195.803 892.376 195.524 892.584C195.246 892.788 195.036 893.075 194.894 893.445C194.752 893.811 194.681 894.239 194.681 894.727ZM201.485 891.455L203.053 894.131L204.621 891.455H205.78L203.667 894.727L205.78 898H204.621L203.053 895.46L201.485 898H200.326L202.405 894.727L200.326 891.455H201.485Z" fill="#3D42CE"/>
<path d="M201.5 868V876L201.5 884" stroke="#3D42CE"/>
<path d="M185.5 876H201.5" stroke="#3D42CE"/>
<path d="M185.5 868V876L185.5 884" stroke="#3D42CE"/>
<path d="M201.5 844L201.5 854L201.5 864" stroke="#3D42CE" stroke-linecap="round" stroke-linejoin="round" stroke-dasharray="0.1 3"/>
<path d="M185.5 844L185.5 854L185.5 864" stroke="#3D42CE" stroke-linecap="round" stroke-linejoin="round" stroke-dasharray="0.1 3"/>
<path d="M273.427 889.273V898H272.37V890.381H272.319L270.188 891.795V890.722L272.37 889.273H273.427ZM278.834 898.119C278.476 898.114 278.118 898.045 277.76 897.915C277.403 897.784 277.076 897.564 276.78 897.254C276.485 896.942 276.248 896.52 276.069 895.989C275.89 895.455 275.8 894.784 275.8 893.977C275.8 893.205 275.873 892.52 276.018 891.923C276.162 891.324 276.373 890.82 276.648 890.411C276.924 889.999 277.256 889.686 277.645 889.473C278.037 889.26 278.479 889.153 278.971 889.153C279.459 889.153 279.894 889.251 280.275 889.447C280.658 889.641 280.971 889.911 281.212 890.257C281.454 890.604 281.61 891.003 281.681 891.455H280.641C280.545 891.062 280.357 890.737 280.079 890.479C279.8 890.22 279.431 890.091 278.971 890.091C278.295 890.091 277.762 890.385 277.373 890.973C276.986 891.561 276.792 892.386 276.789 893.449H276.857C277.016 893.207 277.205 893.001 277.424 892.831C277.645 892.658 277.89 892.524 278.157 892.43C278.424 892.337 278.706 892.29 279.005 892.29C279.505 892.29 279.962 892.415 280.377 892.665C280.792 892.912 281.124 893.254 281.374 893.692C281.624 894.126 281.749 894.625 281.749 895.188C281.749 895.727 281.628 896.222 281.387 896.67C281.145 897.116 280.806 897.472 280.368 897.736C279.934 897.997 279.422 898.125 278.834 898.119ZM278.834 897.182C279.192 897.182 279.513 897.092 279.797 896.913C280.084 896.734 280.31 896.494 280.475 896.193C280.643 895.892 280.726 895.557 280.726 895.188C280.726 894.827 280.645 894.499 280.483 894.203C280.324 893.905 280.104 893.668 279.823 893.491C279.545 893.315 279.226 893.227 278.868 893.227C278.599 893.227 278.347 893.281 278.114 893.389C277.881 893.494 277.677 893.639 277.501 893.824C277.327 894.009 277.191 894.22 277.091 894.459C276.992 894.695 276.942 894.943 276.942 895.205C276.942 895.551 277.023 895.875 277.185 896.176C277.35 896.477 277.574 896.72 277.858 896.905C278.145 897.089 278.471 897.182 278.834 897.182ZM283.442 900.455V891.455H284.414V892.494H284.533C284.607 892.381 284.709 892.236 284.84 892.06C284.973 891.881 285.164 891.722 285.411 891.582C285.661 891.44 285.999 891.369 286.425 891.369C286.976 891.369 287.462 891.507 287.882 891.783C288.303 892.058 288.631 892.449 288.867 892.955C289.102 893.46 289.22 894.057 289.22 894.744C289.22 895.438 289.102 896.038 288.867 896.547C288.631 897.053 288.304 897.445 287.887 897.723C287.469 897.999 286.987 898.136 286.442 898.136C286.021 898.136 285.685 898.067 285.432 897.928C285.179 897.786 284.985 897.625 284.848 897.446C284.712 897.264 284.607 897.114 284.533 896.994H284.448V900.455H283.442ZM284.431 894.727C284.431 895.222 284.503 895.658 284.648 896.036C284.793 896.411 285.004 896.705 285.283 896.918C285.561 897.128 285.902 897.233 286.306 897.233C286.726 897.233 287.077 897.122 287.358 896.901C287.642 896.676 287.855 896.375 287.997 895.997C288.142 895.616 288.215 895.193 288.215 894.727C288.215 894.267 288.144 893.852 288.002 893.483C287.862 893.111 287.651 892.817 287.367 892.601C287.085 892.382 286.732 892.273 286.306 892.273C285.896 892.273 285.553 892.376 285.274 892.584C284.996 892.788 284.786 893.075 284.644 893.445C284.502 893.811 284.431 894.239 284.431 894.727ZM291.235 891.455L292.803 894.131L294.371 891.455H295.53L293.417 894.727L295.53 898H294.371L292.803 895.46L291.235 898H290.076L292.155 894.727L290.076 891.455H291.235Z" fill="#3D42CE"/>
<path d="M291.25 868V876L291.25 884" stroke="#3D42CE"/>
<path d="M275.25 876H291.25" stroke="#3D42CE"/>
<path d="M275.25 868V876L275.25 884" stroke="#3D42CE"/>
<path d="M291.25 844L291.25 854L291.25 864" stroke="#3D42CE" stroke-linecap="round" stroke-linejoin="round" stroke-dasharray="0.1 3"/>
<path d="M275.25 844L275.25 854L275.25 864" stroke="#3D42CE" stroke-linecap="round" stroke-linejoin="round" stroke-dasharray="0.1 3"/>
<path d="M363.177 889.273V898H362.12V890.381H362.069L359.938 891.795V890.722L362.12 889.273H363.177ZM368.584 898.119C368.226 898.114 367.868 898.045 367.51 897.915C367.153 897.784 366.826 897.564 366.53 897.254C366.235 896.942 365.998 896.52 365.819 895.989C365.64 895.455 365.55 894.784 365.55 893.977C365.55 893.205 365.623 892.52 365.768 891.923C365.912 891.324 366.123 890.82 366.398 890.411C366.674 889.999 367.006 889.686 367.395 889.473C367.787 889.26 368.229 889.153 368.721 889.153C369.209 889.153 369.644 889.251 370.025 889.447C370.408 889.641 370.721 889.911 370.962 890.257C371.204 890.604 371.36 891.003 371.431 891.455H370.391C370.295 891.062 370.107 890.737 369.829 890.479C369.55 890.22 369.181 890.091 368.721 890.091C368.045 890.091 367.512 890.385 367.123 890.973C366.736 891.561 366.542 892.386 366.539 893.449H366.607C366.766 893.207 366.955 893.001 367.174 892.831C367.395 892.658 367.64 892.524 367.907 892.43C368.174 892.337 368.456 892.29 368.755 892.29C369.255 892.29 369.712 892.415 370.127 892.665C370.542 892.912 370.874 893.254 371.124 893.692C371.374 894.126 371.499 894.625 371.499 895.188C371.499 895.727 371.378 896.222 371.137 896.67C370.895 897.116 370.556 897.472 370.118 897.736C369.684 897.997 369.172 898.125 368.584 898.119ZM368.584 897.182C368.942 897.182 369.263 897.092 369.547 896.913C369.834 896.734 370.06 896.494 370.225 896.193C370.393 895.892 370.476 895.557 370.476 895.188C370.476 894.827 370.395 894.499 370.233 894.203C370.074 893.905 369.854 893.668 369.573 893.491C369.295 893.315 368.976 893.227 368.618 893.227C368.349 893.227 368.097 893.281 367.864 893.389C367.631 893.494 367.427 893.639 367.251 893.824C367.077 894.009 366.941 894.22 366.841 894.459C366.742 894.695 366.692 894.943 366.692 895.205C366.692 895.551 366.773 895.875 366.935 896.176C367.1 896.477 367.324 896.72 367.608 896.905C367.895 897.089 368.221 897.182 368.584 897.182ZM373.192 900.455V891.455H374.164V892.494H374.283C374.357 892.381 374.459 892.236 374.59 892.06C374.723 891.881 374.914 891.722 375.161 891.582C375.411 891.44 375.749 891.369 376.175 891.369C376.726 891.369 377.212 891.507 377.632 891.783C378.053 892.058 378.381 892.449 378.617 892.955C378.852 893.46 378.97 894.057 378.97 894.744C378.97 895.438 378.852 896.038 378.617 896.547C378.381 897.053 378.054 897.445 377.637 897.723C377.219 897.999 376.737 898.136 376.192 898.136C375.771 898.136 375.435 898.067 375.182 897.928C374.929 897.786 374.735 897.625 374.598 897.446C374.462 897.264 374.357 897.114 374.283 896.994H374.198V900.455H373.192ZM374.181 894.727C374.181 895.222 374.253 895.658 374.398 896.036C374.543 896.411 374.754 896.705 375.033 896.918C375.311 897.128 375.652 897.233 376.056 897.233C376.476 897.233 376.827 897.122 377.108 896.901C377.392 896.676 377.605 896.375 377.747 895.997C377.892 895.616 377.965 895.193 377.965 894.727C377.965 894.267 377.894 893.852 377.752 893.483C377.612 893.111 377.401 892.817 377.117 892.601C376.835 892.382 376.482 892.273 376.056 892.273C375.646 892.273 375.303 892.376 375.024 892.584C374.746 892.788 374.536 893.075 374.394 893.445C374.252 893.811 374.181 894.239 374.181 894.727ZM380.985 891.455L382.553 894.131L384.121 891.455H385.28L383.167 894.727L385.28 898H384.121L382.553 895.46L380.985 898H379.826L381.905 894.727L379.826 891.455H380.985Z" fill="#3D42CE"/>
<path d="M381 868V876L381 884" stroke="#3D42CE"/>
<path d="M365 876H381" stroke="#3D42CE"/>
<path d="M365 868V876L365 884" stroke="#3D42CE"/>
<path d="M381 844L381 854L381 864" stroke="#3D42CE" stroke-linecap="round" stroke-linejoin="round" stroke-dasharray="0.1 3"/>
<path d="M365 844L365 854L365 864" stroke="#3D42CE" stroke-linecap="round" stroke-linejoin="round" stroke-dasharray="0.1 3"/>
<path d="M179.501 964.62H179.981C180.525 964.62 180.945 964.48 181.241 964.2C181.545 963.92 181.697 963.524 181.697 963.012C181.697 962.572 181.569 962.232 181.313 961.992C181.065 961.752 180.705 961.632 180.233 961.632C180.153 961.632 180.069 961.636 179.981 961.644C179.893 961.652 179.793 961.664 179.681 961.68L179.525 962.28C179.461 962.528 179.381 962.716 179.285 962.844C179.189 962.964 179.037 963.024 178.829 963.024C178.701 963.024 178.585 962.992 178.481 962.928C178.377 962.864 178.301 962.756 178.253 962.604C178.357 962.1 178.609 961.724 179.009 961.476C179.409 961.22 179.885 961.092 180.437 961.092C181.141 961.092 181.701 961.268 182.117 961.62C182.533 961.964 182.741 962.416 182.741 962.976C182.741 963.408 182.601 963.796 182.321 964.14C182.049 964.476 181.665 964.732 181.169 964.908C181.785 965.028 182.241 965.26 182.537 965.604C182.833 965.948 182.981 966.368 182.981 966.864C182.981 967.296 182.869 967.684 182.645 968.028C182.421 968.372 182.109 968.648 181.709 968.856C181.309 969.056 180.837 969.156 180.293 969.156C179.709 969.156 179.205 969.024 178.781 968.76C178.365 968.488 178.101 968.052 177.989 967.452C178.125 967.188 178.329 967.056 178.601 967.056C178.809 967.056 178.957 967.124 179.045 967.26C179.141 967.396 179.229 967.616 179.309 967.92L179.465 968.544C179.601 968.576 179.725 968.596 179.837 968.604C179.949 968.612 180.049 968.616 180.137 968.616C180.729 968.616 181.173 968.464 181.469 968.16C181.765 967.848 181.913 967.424 181.913 966.888C181.913 966.368 181.761 965.96 181.457 965.664C181.153 965.368 180.693 965.22 180.077 965.22H179.501V964.62ZM189.269 966.684H188.009V969H187.013V966.684H183.749V966.048L187.313 961.14H188.009V965.928H189.269V966.684ZM184.469 965.928H187.013V962.388L184.469 965.928ZM191.501 964.62H191.981C192.525 964.62 192.945 964.48 193.241 964.2C193.545 963.92 193.697 963.524 193.697 963.012C193.697 962.572 193.569 962.232 193.313 961.992C193.065 961.752 192.705 961.632 192.233 961.632C192.153 961.632 192.069 961.636 191.981 961.644C191.893 961.652 191.793 961.664 191.681 961.68L191.525 962.28C191.461 962.528 191.381 962.716 191.285 962.844C191.189 962.964 191.037 963.024 190.829 963.024C190.701 963.024 190.585 962.992 190.481 962.928C190.377 962.864 190.301 962.756 190.253 962.604C190.357 962.1 190.609 961.724 191.009 961.476C191.409 961.22 191.885 961.092 192.437 961.092C193.141 961.092 193.701 961.268 194.117 961.62C194.533 961.964 194.741 962.416 194.741 962.976C194.741 963.408 194.601 963.796 194.321 964.14C194.049 964.476 193.665 964.732 193.169 964.908C193.785 965.028 194.241 965.26 194.537 965.604C194.833 965.948 194.981 966.368 194.981 966.864C194.981 967.296 194.869 967.684 194.645 968.028C194.421 968.372 194.109 968.648 193.709 968.856C193.309 969.056 192.837 969.156 192.293 969.156C191.709 969.156 191.205 969.024 190.781 968.76C190.365 968.488 190.101 968.052 189.989 967.452C190.125 967.188 190.329 967.056 190.601 967.056C190.809 967.056 190.957 967.124 191.045 967.26C191.141 967.396 191.229 967.616 191.309 967.92L191.465 968.544C191.601 968.576 191.725 968.596 191.837 968.604C191.949 968.612 192.049 968.616 192.137 968.616C192.729 968.616 193.173 968.464 193.469 968.16C193.765 967.848 193.913 967.424 193.913 966.888C193.913 966.368 193.761 965.96 193.457 965.664C193.153 965.368 192.693 965.22 192.077 965.22H191.501V964.62ZM195.881 971.868V971.448L196.841 971.28C196.849 970.952 196.853 970.624 196.853 970.296C196.861 969.976 196.865 969.656 196.865 969.336V965.904C196.865 965.576 196.861 965.304 196.853 965.088C196.853 964.872 196.845 964.644 196.829 964.404L195.881 964.296V963.876L197.561 963.144L197.741 963.264L197.813 964.044C198.381 963.444 198.985 963.144 199.625 963.144C200.057 963.144 200.445 963.264 200.789 963.504C201.133 963.744 201.405 964.088 201.605 964.536C201.813 964.976 201.917 965.508 201.917 966.132C201.917 966.748 201.809 967.284 201.593 967.74C201.377 968.188 201.081 968.536 200.705 968.784C200.337 969.032 199.917 969.156 199.445 969.156C199.173 969.156 198.901 969.1 198.629 968.988C198.365 968.876 198.105 968.672 197.849 968.376V969.324C197.849 969.644 197.849 969.964 197.849 970.284C197.857 970.612 197.865 970.94 197.873 971.268L198.965 971.448V971.868H195.881ZM199.337 963.828C199.153 963.828 198.941 963.876 198.701 963.972C198.461 964.06 198.189 964.232 197.885 964.488V967.86C198.109 968.076 198.329 968.232 198.545 968.328C198.761 968.424 198.981 968.472 199.205 968.472C199.653 968.472 200.037 968.292 200.357 967.932C200.677 967.572 200.837 967.004 200.837 966.228C200.837 965.46 200.697 964.868 200.417 964.452C200.137 964.036 199.777 963.828 199.337 963.828ZM206.015 963.768V963.3H208.259V963.768L207.551 963.9L205.835 966.012L207.503 968.4L208.415 968.568V969H205.487V968.568L206.339 968.412L205.163 966.696L203.843 968.412L204.743 968.568V969H202.343V968.568L203.111 968.424L204.863 966.252L203.255 963.9L202.427 963.768V963.3H205.103V963.768L204.371 963.9L205.523 965.568L206.807 963.924L206.015 963.768Z" fill="#3D42CE"/>
<path d="M365 940V948L365 956" stroke="#3D42CE"/>
<path d="M22 948L365 948" stroke="#3D42CE"/>
<path d="M22 940V948L22 956" stroke="#3D42CE"/>
<path d="M365 916L365 926L365 936" stroke="#3D42CE" stroke-linecap="round" stroke-linejoin="round" stroke-dasharray="0.1 3"/>
<path d="M22 916L22 926L22 936" stroke="#3D42CE" stroke-linecap="round" stroke-linejoin="round" stroke-dasharray="0.1 3"/>
<path d="M179.501 1036.62H179.981C180.525 1036.62 180.945 1036.48 181.241 1036.2C181.545 1035.92 181.697 1035.52 181.697 1035.01C181.697 1034.57 181.569 1034.23 181.313 1033.99C181.065 1033.75 180.705 1033.63 180.233 1033.63C180.153 1033.63 180.069 1033.64 179.981 1033.64C179.893 1033.65 179.793 1033.66 179.681 1033.68L179.525 1034.28C179.461 1034.53 179.381 1034.72 179.285 1034.84C179.189 1034.96 179.037 1035.02 178.829 1035.02C178.701 1035.02 178.585 1034.99 178.481 1034.93C178.377 1034.86 178.301 1034.76 178.253 1034.6C178.357 1034.1 178.609 1033.72 179.009 1033.48C179.409 1033.22 179.885 1033.09 180.437 1033.09C181.141 1033.09 181.701 1033.27 182.117 1033.62C182.533 1033.96 182.741 1034.42 182.741 1034.98C182.741 1035.41 182.601 1035.8 182.321 1036.14C182.049 1036.48 181.665 1036.73 181.169 1036.91C181.785 1037.03 182.241 1037.26 182.537 1037.6C182.833 1037.95 182.981 1038.37 182.981 1038.86C182.981 1039.3 182.869 1039.68 182.645 1040.03C182.421 1040.37 182.109 1040.65 181.709 1040.86C181.309 1041.06 180.837 1041.16 180.293 1041.16C179.709 1041.16 179.205 1041.02 178.781 1040.76C178.365 1040.49 178.101 1040.05 177.989 1039.45C178.125 1039.19 178.329 1039.06 178.601 1039.06C178.809 1039.06 178.957 1039.12 179.045 1039.26C179.141 1039.4 179.229 1039.62 179.309 1039.92L179.465 1040.54C179.601 1040.58 179.725 1040.6 179.837 1040.6C179.949 1040.61 180.049 1040.62 180.137 1040.62C180.729 1040.62 181.173 1040.46 181.469 1040.16C181.765 1039.85 181.913 1039.42 181.913 1038.89C181.913 1038.37 181.761 1037.96 181.457 1037.66C181.153 1037.37 180.693 1037.22 180.077 1037.22H179.501V1036.62ZM185.057 1040.88L188.225 1034.23H184.073V1033.25H189.029V1033.86L186.173 1041H185.177L185.057 1040.88ZM194.957 1038.59C194.957 1039.1 194.841 1039.55 194.609 1039.93C194.377 1040.32 194.049 1040.62 193.625 1040.83C193.209 1041.05 192.721 1041.16 192.161 1041.16C190.921 1041.16 190.173 1040.59 189.917 1039.46C190.021 1039.19 190.225 1039.06 190.529 1039.06C190.713 1039.06 190.853 1039.11 190.949 1039.22C191.053 1039.34 191.145 1039.55 191.225 1039.87L191.393 1040.52C191.513 1040.55 191.629 1040.58 191.741 1040.59C191.861 1040.61 191.973 1040.62 192.077 1040.62C192.669 1040.62 193.117 1040.44 193.421 1040.1C193.725 1039.75 193.877 1039.28 193.877 1038.71C193.877 1038.11 193.709 1037.65 193.373 1037.34C193.037 1037.02 192.581 1036.86 192.005 1036.86C191.661 1036.86 191.293 1036.9 190.901 1036.99L190.565 1036.9L190.817 1033.25H194.741V1034.23H191.345L191.201 1036.27C191.561 1036.18 191.937 1036.13 192.329 1036.13C193.113 1036.13 193.745 1036.34 194.225 1036.76C194.713 1037.18 194.957 1037.79 194.957 1038.59ZM195.881 1043.87V1043.45L196.841 1043.28C196.849 1042.95 196.853 1042.62 196.853 1042.3C196.861 1041.98 196.865 1041.66 196.865 1041.34V1037.9C196.865 1037.58 196.861 1037.3 196.853 1037.09C196.853 1036.87 196.845 1036.64 196.829 1036.4L195.881 1036.3V1035.88L197.561 1035.14L197.741 1035.26L197.813 1036.04C198.381 1035.44 198.985 1035.14 199.625 1035.14C200.057 1035.14 200.445 1035.26 200.789 1035.5C201.133 1035.74 201.405 1036.09 201.605 1036.54C201.813 1036.98 201.917 1037.51 201.917 1038.13C201.917 1038.75 201.809 1039.28 201.593 1039.74C201.377 1040.19 201.081 1040.54 200.705 1040.78C200.337 1041.03 199.917 1041.16 199.445 1041.16C199.173 1041.16 198.901 1041.1 198.629 1040.99C198.365 1040.88 198.105 1040.67 197.849 1040.38V1041.32C197.849 1041.64 197.849 1041.96 197.849 1042.28C197.857 1042.61 197.865 1042.94 197.873 1043.27L198.965 1043.45V1043.87H195.881ZM199.337 1035.83C199.153 1035.83 198.941 1035.88 198.701 1035.97C198.461 1036.06 198.189 1036.23 197.885 1036.49V1039.86C198.109 1040.08 198.329 1040.23 198.545 1040.33C198.761 1040.42 198.981 1040.47 199.205 1040.47C199.653 1040.47 200.037 1040.29 200.357 1039.93C200.677 1039.57 200.837 1039 200.837 1038.23C200.837 1037.46 200.697 1036.87 200.417 1036.45C200.137 1036.04 199.777 1035.83 199.337 1035.83ZM206.015 1035.77V1035.3H208.259V1035.77L207.551 1035.9L205.835 1038.01L207.503 1040.4L208.415 1040.57V1041H205.487V1040.57L206.339 1040.41L205.163 1038.7L203.843 1040.41L204.743 1040.57V1041H202.343V1040.57L203.111 1040.42L204.863 1038.25L203.255 1035.9L202.427 1035.77V1035.3H205.103V1035.77L204.371 1035.9L205.523 1037.57L206.807 1035.92L206.015 1035.77Z" fill="#3D42CE"/>
<path d="M381 1012V1020L381 1028" stroke="#3D42CE"/>
<path d="M6 1020L381 1020" stroke="#3D42CE"/>
<path d="M6 1012L6 1020L6 1028" stroke="#3D42CE"/>
<path d="M381 988L381 998L381 1008" stroke="#3D42CE" stroke-linecap="round" stroke-linejoin="round" stroke-dasharray="0.1 3"/>
<path d="M6 988L5.99999 998L5.99997 1008" stroke="#3D42CE" stroke-linecap="round" stroke-linejoin="round" stroke-dasharray="0.1 3"/>
<defs>
<filter id="filter0_d_102_10827" x="104" y="431" width="96" height="48" filterUnits="userSpaceOnUse" color-interpolation-filters="sRGB">
<feFlood flood-opacity="0" result="BackgroundImageFix"/>
<feColorMatrix in="SourceAlpha" type="matrix" values="0 0 0 0 0 0 0 0 0 0 0 0 0 0 0 0 0 0 127 0" result="hardAlpha"/>
<feOffset dy="1"/>
<feGaussianBlur stdDeviation="1"/>
<feColorMatrix type="matrix" values="0 0 0 0 0.0627451 0 0 0 0 0.0941176 0 0 0 0 0.156863 0 0 0 0.05 0"/>
<feBlend mode="normal" in2="BackgroundImageFix" result="effect1_dropShadow_102_10827"/>
<feBlend mode="normal" in="SourceGraphic" in2="effect1_dropShadow_102_10827" result="shape"/>
</filter>
<filter id="filter1_d_102_10827" x="232" y="431" width="52" height="48" filterUnits="userSpaceOnUse" color-interpolation-filters="sRGB">
<feFlood flood-opacity="0" result="BackgroundImageFix"/>
<feColorMatrix in="SourceAlpha" type="matrix" values="0 0 0 0 0 0 0 0 0 0 0 0 0 0 0 0 0 0 127 0" result="hardAlpha"/>
<feOffset dy="1"/>
<feGaussianBlur stdDeviation="1"/>
<feColorMatrix type="matrix" values="0 0 0 0 0.0627451 0 0 0 0 0.0941176 0 0 0 0 0.156863 0 0 0 0.05 0"/>
<feBlend mode="normal" in2="BackgroundImageFix" result="effect1_dropShadow_102_10827"/>
<feBlend mode="normal" in="SourceGraphic" in2="effect1_dropShadow_102_10827" result="shape"/>
</filter>
</defs>
</svg>
