<svg width="43" height="16" viewBox="0 0 43 16" fill="none" xmlns="http://www.w3.org/2000/svg">
<path d="M0 8C0 3.58172 3.58172 0 8 0H35C39.4183 0 43 3.58172 43 8C43 12.4183 39.4183 16 35 16H8C3.58172 16 0 12.4183 0 8Z" fill="#ECECFA"/>
<path d="M13.1335 4.224V3.707H15.9055V4.224L14.9705 4.367V11.044H14.3215L10.1745 5.346V10.329L11.3845 10.483V11H8.6125V10.483L9.5475 10.351V4.477L9.4155 4.301L8.6455 4.224V3.707H10.7245L14.3435 8.679V4.367L13.1335 4.224ZM16.826 4.224V3.707H22.37L22.447 5.632H21.677L21.446 4.29H19.213C19.2056 4.752 19.1983 5.214 19.191 5.676C19.191 6.13067 19.191 6.55967 19.191 6.963H20.61L20.753 6.006H21.325V8.492H20.753L20.621 7.546H19.191C19.191 8.074 19.191 8.57267 19.191 9.042C19.1983 9.504 19.2056 9.96233 19.213 10.417H21.666L21.897 9.075H22.667L22.59 11H16.826V10.483L17.75 10.384C17.7646 9.92933 17.772 9.46733 17.772 8.998C17.772 8.52867 17.772 8.05933 17.772 7.59V7.117C17.772 6.655 17.772 6.193 17.772 5.731C17.772 5.26167 17.7646 4.79233 17.75 4.323L16.826 4.224ZM31.2788 4.224V3.707H33.6988V4.224L32.8078 4.367L30.9048 11.044H30.1458L28.4078 5.676L26.7468 11.044H25.9878L24.0078 4.312L23.2048 4.224V3.707H26.4058V4.224L25.4928 4.334L26.7358 9.097L28.2428 4.334L27.2858 4.224V3.707H30.4208V4.224L29.3868 4.345L30.8498 9.163L32.1808 4.356L31.2788 4.224Z" fill="#2B2E90"/>
</svg>
