<svg width="770" height="1426" viewBox="0 0 770 1426" fill="none" xmlns="http://www.w3.org/2000/svg">
<rect width="768" height="1194" transform="translate(1)" fill="#F6F8FA"/>
<rect x="1.5" y="96.5" width="767" height="1001" rx="15.5" fill="white"/>
<rect x="1.5" y="96.5" width="767" height="1001" rx="15.5" stroke="#CDD0D5"/>
<path d="M236.273 550.392V545.091H264.126V550.392H253.336V580H247.063V550.392H236.273ZM272.714 580.528C271.055 580.528 269.561 580.233 268.231 579.642C266.913 579.04 265.867 578.153 265.095 576.983C264.333 575.812 263.953 574.369 263.953 572.653C263.953 571.176 264.225 569.955 264.771 568.989C265.316 568.023 266.061 567.25 267.004 566.67C267.947 566.091 269.009 565.653 270.191 565.358C271.384 565.051 272.617 564.83 273.89 564.693C275.424 564.534 276.668 564.392 277.623 564.267C278.578 564.131 279.271 563.926 279.703 563.653C280.146 563.369 280.367 562.932 280.367 562.341V562.239C280.367 560.955 279.987 559.96 279.225 559.256C278.464 558.551 277.367 558.199 275.936 558.199C274.424 558.199 273.225 558.528 272.339 559.188C271.464 559.847 270.873 560.625 270.566 561.523L264.805 560.705C265.259 559.114 266.009 557.784 267.055 556.716C268.1 555.636 269.379 554.83 270.89 554.295C272.401 553.75 274.072 553.477 275.901 553.477C277.163 553.477 278.418 553.625 279.668 553.92C280.918 554.216 282.061 554.705 283.095 555.386C284.129 556.057 284.958 556.972 285.583 558.131C286.22 559.29 286.538 560.739 286.538 562.477V580H280.606V576.403H280.401C280.026 577.131 279.498 577.812 278.816 578.449C278.146 579.074 277.299 579.58 276.276 579.966C275.265 580.341 274.078 580.528 272.714 580.528ZM274.316 575.994C275.555 575.994 276.629 575.75 277.538 575.261C278.447 574.761 279.146 574.102 279.634 573.284C280.134 572.466 280.384 571.574 280.384 570.608V567.523C280.191 567.682 279.862 567.83 279.396 567.966C278.941 568.102 278.43 568.222 277.862 568.324C277.293 568.426 276.731 568.517 276.174 568.597C275.617 568.676 275.134 568.744 274.725 568.801C273.805 568.926 272.981 569.131 272.254 569.415C271.526 569.699 270.953 570.097 270.532 570.608C270.112 571.108 269.901 571.756 269.901 572.551C269.901 573.688 270.316 574.545 271.146 575.125C271.975 575.705 273.032 575.994 274.316 575.994ZM292.535 580V545.091H298.706V558.148H298.961C299.279 557.511 299.728 556.835 300.308 556.119C300.887 555.392 301.671 554.773 302.66 554.261C303.649 553.739 304.91 553.477 306.444 553.477C308.467 553.477 310.291 553.994 311.916 555.028C313.552 556.051 314.848 557.568 315.802 559.58C316.768 561.58 317.251 564.034 317.251 566.943C317.251 569.818 316.779 572.261 315.836 574.273C314.893 576.284 313.609 577.818 311.984 578.875C310.359 579.932 308.518 580.46 306.461 580.46C304.961 580.46 303.717 580.21 302.728 579.71C301.74 579.21 300.944 578.608 300.342 577.903C299.751 577.187 299.291 576.511 298.961 575.875H298.603V580H292.535ZM298.586 566.909C298.586 568.602 298.825 570.085 299.302 571.358C299.791 572.631 300.49 573.625 301.399 574.341C302.319 575.045 303.433 575.398 304.74 575.398C306.103 575.398 307.245 575.034 308.166 574.307C309.086 573.568 309.779 572.562 310.245 571.29C310.723 570.006 310.961 568.545 310.961 566.909C310.961 565.284 310.728 563.841 310.262 562.58C309.796 561.318 309.103 560.33 308.183 559.614C307.262 558.898 306.115 558.54 304.74 558.54C303.421 558.54 302.302 558.886 301.382 559.58C300.461 560.273 299.762 561.244 299.285 562.494C298.819 563.744 298.586 565.216 298.586 566.909ZM328.187 545.091V580H322.017V545.091H328.187ZM345.643 580.511C343.018 580.511 340.751 579.966 338.842 578.875C336.944 577.773 335.484 576.216 334.461 574.205C333.439 572.182 332.927 569.801 332.927 567.062C332.927 564.369 333.439 562.006 334.461 559.972C335.496 557.926 336.939 556.335 338.791 555.199C340.643 554.051 342.819 553.477 345.319 553.477C346.933 553.477 348.456 553.739 349.888 554.261C351.331 554.773 352.603 555.568 353.706 556.648C354.819 557.727 355.694 559.102 356.331 560.773C356.967 562.432 357.285 564.409 357.285 566.705V568.597H335.825V564.438H351.371C351.359 563.256 351.103 562.205 350.603 561.284C350.103 560.352 349.405 559.619 348.507 559.085C347.621 558.551 346.586 558.284 345.405 558.284C344.143 558.284 343.035 558.591 342.081 559.205C341.126 559.807 340.382 560.602 339.848 561.591C339.325 562.568 339.058 563.642 339.047 564.812V568.443C339.047 569.966 339.325 571.273 339.882 572.364C340.439 573.443 341.217 574.273 342.217 574.852C343.217 575.42 344.388 575.705 345.728 575.705C346.626 575.705 347.439 575.58 348.166 575.33C348.893 575.068 349.524 574.688 350.058 574.188C350.592 573.688 350.996 573.068 351.268 572.33L357.03 572.977C356.666 574.5 355.973 575.83 354.95 576.966C353.939 578.091 352.643 578.966 351.064 579.591C349.484 580.205 347.677 580.511 345.643 580.511ZM375.099 553.818V558.591H360.048V553.818H375.099ZM363.764 547.545H369.935V572.125C369.935 572.955 370.06 573.591 370.31 574.034C370.571 574.466 370.912 574.761 371.332 574.92C371.753 575.08 372.219 575.159 372.73 575.159C373.116 575.159 373.469 575.131 373.787 575.074C374.116 575.017 374.366 574.966 374.537 574.92L375.577 579.744C375.247 579.858 374.775 579.983 374.162 580.119C373.56 580.256 372.821 580.335 371.946 580.358C370.4 580.403 369.008 580.17 367.77 579.659C366.531 579.136 365.548 578.33 364.821 577.239C364.105 576.148 363.753 574.784 363.764 573.148V547.545ZM403.547 580.477C401.013 580.477 398.763 580.051 396.797 579.199C394.842 578.347 393.308 577.182 392.195 575.705C391.092 574.216 390.547 572.528 390.558 570.642C390.547 569.176 390.865 567.83 391.513 566.602C392.161 565.375 393.036 564.352 394.138 563.534C395.252 562.705 396.49 562.176 397.854 561.949V561.71C396.058 561.312 394.604 560.398 393.49 558.966C392.388 557.523 391.842 555.858 391.854 553.972C391.842 552.176 392.342 550.574 393.354 549.165C394.365 547.756 395.752 546.648 397.513 545.841C399.274 545.023 401.286 544.614 403.547 544.614C405.786 544.614 407.78 545.023 409.53 545.841C411.291 546.648 412.678 547.756 413.689 549.165C414.712 550.574 415.223 552.176 415.223 553.972C415.223 555.858 414.661 557.523 413.536 558.966C412.422 560.398 410.984 561.312 409.223 561.71V561.949C410.587 562.176 411.814 562.705 412.905 563.534C414.007 564.352 414.882 565.375 415.53 566.602C416.189 567.83 416.519 569.176 416.519 570.642C416.519 572.528 415.962 574.216 414.848 575.705C413.734 577.182 412.2 578.347 410.246 579.199C408.303 580.051 406.07 580.477 403.547 580.477ZM403.547 575.602C404.854 575.602 405.99 575.381 406.956 574.938C407.922 574.483 408.672 573.847 409.206 573.028C409.74 572.21 410.013 571.267 410.024 570.199C410.013 569.085 409.723 568.102 409.155 567.25C408.598 566.386 407.831 565.71 406.854 565.222C405.888 564.733 404.786 564.489 403.547 564.489C402.297 564.489 401.183 564.733 400.206 565.222C399.229 565.71 398.456 566.386 397.888 567.25C397.331 568.102 397.058 569.085 397.07 570.199C397.058 571.267 397.32 572.21 397.854 573.028C398.388 573.835 399.138 574.466 400.104 574.92C401.081 575.375 402.229 575.602 403.547 575.602ZM403.547 559.699C404.615 559.699 405.558 559.483 406.377 559.051C407.206 558.619 407.859 558.017 408.337 557.244C408.814 556.472 409.058 555.58 409.07 554.568C409.058 553.568 408.82 552.693 408.354 551.943C407.888 551.182 407.24 550.597 406.411 550.188C405.581 549.767 404.627 549.557 403.547 549.557C402.445 549.557 401.473 549.767 400.632 550.188C399.803 550.597 399.155 551.182 398.689 551.943C398.234 552.693 398.013 553.568 398.024 554.568C398.013 555.58 398.24 556.472 398.706 557.244C399.183 558.006 399.837 558.608 400.666 559.051C401.507 559.483 402.467 559.699 403.547 559.699ZM421.097 570.506H427.489C427.568 571.483 427.898 572.324 428.478 573.028C429.057 573.722 429.818 574.256 430.762 574.631C431.705 574.994 432.756 575.176 433.915 575.176C435.142 575.176 436.239 574.966 437.205 574.545C438.171 574.114 438.926 573.5 439.472 572.705C440.029 571.898 440.307 570.92 440.307 569.773C440.307 568.716 440.04 567.756 439.506 566.892C438.983 566.017 438.182 565.324 437.103 564.812C436.023 564.29 434.642 564.028 432.96 564.028H429.5V559.477L437.58 550.614V550.375H422.818V545.091H445.557V549.659L436.182 559.75V560.023C437.909 560.159 439.432 560.523 440.75 561.114C442.08 561.705 443.193 562.46 444.091 563.381C444.989 564.301 445.665 565.335 446.12 566.483C446.574 567.631 446.801 568.835 446.801 570.097C446.801 572.142 446.239 573.943 445.114 575.5C444 577.057 442.466 578.278 440.512 579.165C438.568 580.04 436.353 580.477 433.864 580.477C431.478 580.477 429.335 580.068 427.438 579.25C425.551 578.432 424.046 577.278 422.921 575.79C421.796 574.29 421.188 572.528 421.097 570.506ZM451.563 573.523V568.494L466.375 545.091H470.569V552.25H468.012L458.04 568.051V568.324H478.716V573.523H451.563ZM468.216 580V571.989L468.284 569.739V545.091H474.25V580H468.216ZM483.75 589.818V553.818H489.819V558.148H490.177C490.495 557.511 490.944 556.835 491.523 556.119C492.103 555.392 492.887 554.773 493.875 554.261C494.864 553.739 496.125 553.477 497.66 553.477C499.682 553.477 501.506 553.994 503.131 555.028C504.768 556.051 506.063 557.568 507.018 559.58C507.983 561.58 508.466 564.034 508.466 566.943C508.466 569.818 507.995 572.261 507.052 574.273C506.108 576.284 504.824 577.818 503.199 578.875C501.574 579.932 499.733 580.46 497.677 580.46C496.177 580.46 494.932 580.21 493.944 579.71C492.955 579.21 492.16 578.608 491.557 577.903C490.966 577.187 490.506 576.511 490.177 575.875H489.921V589.818H483.75ZM489.802 566.909C489.802 568.602 490.04 570.085 490.518 571.358C491.006 572.631 491.705 573.625 492.614 574.341C493.535 575.045 494.648 575.398 495.955 575.398C497.319 575.398 498.461 575.034 499.381 574.307C500.302 573.568 500.995 572.562 501.461 571.29C501.938 570.006 502.177 568.545 502.177 566.909C502.177 565.284 501.944 563.841 501.478 562.58C501.012 561.318 500.319 560.33 499.398 559.614C498.478 558.898 497.33 558.54 495.955 558.54C494.637 558.54 493.518 558.886 492.597 559.58C491.677 560.273 490.978 561.244 490.5 562.494C490.035 563.744 489.802 565.216 489.802 566.909ZM517.332 553.818L522.616 563.483L527.985 553.818H534.513L526.621 566.909L534.65 580H528.155L522.616 570.574L517.127 580H510.582L518.559 566.909L510.786 553.818H517.332Z" fill="#161922"/>
<g filter="url(#filter0_d_102_10195)">
<rect x="297" y="615" width="92" height="44" rx="8" fill="white"/>
<rect x="297.5" y="615.5" width="91" height="43" rx="7.5" stroke="#CDD0D5"/>
<path d="M316.307 637.761L323.619 630.455L330.926 637.761H327.256V643H319.983V637.761H316.307ZM319.67 636.466H321.608V641.705H325.625V636.466H327.562L323.619 632.523L319.67 636.466ZM343.976 634.273C343.908 633.697 343.631 633.25 343.146 632.932C342.661 632.614 342.067 632.455 341.362 632.455C340.847 632.455 340.396 632.538 340.01 632.705C339.627 632.871 339.328 633.1 339.112 633.392C338.9 633.684 338.794 634.015 338.794 634.386C338.794 634.697 338.868 634.964 339.016 635.188C339.167 635.407 339.36 635.591 339.595 635.739C339.83 635.883 340.076 636.002 340.334 636.097C340.591 636.187 340.828 636.261 341.044 636.318L342.226 636.636C342.529 636.716 342.866 636.826 343.237 636.966C343.612 637.106 343.97 637.297 344.311 637.54C344.656 637.778 344.94 638.085 345.163 638.46C345.387 638.835 345.499 639.295 345.499 639.841C345.499 640.47 345.334 641.038 345.004 641.545C344.679 642.053 344.201 642.456 343.572 642.756C342.947 643.055 342.188 643.205 341.294 643.205C340.461 643.205 339.739 643.07 339.129 642.801C338.523 642.532 338.046 642.157 337.697 641.676C337.353 641.195 337.158 640.636 337.112 640H338.567C338.605 640.439 338.752 640.803 339.01 641.091C339.271 641.375 339.601 641.587 339.999 641.727C340.4 641.864 340.832 641.932 341.294 641.932C341.832 641.932 342.315 641.845 342.743 641.67C343.171 641.492 343.51 641.246 343.76 640.932C344.01 640.614 344.135 640.242 344.135 639.818C344.135 639.432 344.027 639.117 343.811 638.875C343.595 638.633 343.311 638.436 342.959 638.284C342.607 638.133 342.226 638 341.817 637.886L340.385 637.477C339.476 637.216 338.756 636.843 338.226 636.358C337.696 635.873 337.43 635.239 337.43 634.455C337.43 633.803 337.607 633.235 337.959 632.75C338.315 632.261 338.792 631.883 339.391 631.614C339.993 631.341 340.665 631.205 341.408 631.205C342.158 631.205 342.824 631.339 343.408 631.608C343.991 631.873 344.453 632.237 344.794 632.699C345.139 633.161 345.321 633.686 345.339 634.273H343.976ZM348.798 637.75V643H347.458V631.364H348.798V635.636H348.912C349.117 635.186 349.423 634.828 349.833 634.562C350.245 634.294 350.795 634.159 351.48 634.159C352.075 634.159 352.596 634.278 353.043 634.517C353.49 634.752 353.836 635.114 354.083 635.602C354.333 636.087 354.458 636.705 354.458 637.455V643H353.117V637.545C353.117 636.852 352.937 636.316 352.577 635.938C352.221 635.555 351.726 635.364 351.094 635.364C350.654 635.364 350.261 635.456 349.912 635.642C349.567 635.828 349.295 636.098 349.094 636.455C348.897 636.811 348.798 637.242 348.798 637.75ZM356.735 643V634.273H358.076V643H356.735ZM357.416 632.818C357.155 632.818 356.93 632.729 356.74 632.551C356.555 632.373 356.462 632.159 356.462 631.909C356.462 631.659 356.555 631.445 356.74 631.267C356.93 631.089 357.155 631 357.416 631C357.678 631 357.901 631.089 358.087 631.267C358.276 631.445 358.371 631.659 358.371 631.909C358.371 632.159 358.276 632.373 358.087 632.551C357.901 632.729 357.678 632.818 357.416 632.818ZM364.242 634.273V635.409H359.537V634.273H364.242ZM360.946 643V633.068C360.946 632.568 361.064 632.152 361.299 631.818C361.534 631.485 361.838 631.235 362.213 631.068C362.588 630.902 362.984 630.818 363.401 630.818C363.731 630.818 363.999 630.845 364.208 630.898C364.416 630.951 364.571 631 364.674 631.045L364.287 632.205C364.219 632.182 364.124 632.153 364.003 632.119C363.886 632.085 363.731 632.068 363.537 632.068C363.094 632.068 362.774 632.18 362.577 632.403C362.384 632.627 362.287 632.955 362.287 633.386V643H360.946ZM369.741 634.273V635.409H365.218V634.273H369.741ZM366.536 632.182H367.877V640.5C367.877 640.879 367.932 641.163 368.042 641.352C368.155 641.538 368.299 641.663 368.474 641.727C368.652 641.788 368.839 641.818 369.036 641.818C369.184 641.818 369.305 641.811 369.4 641.795C369.494 641.777 369.57 641.761 369.627 641.75L369.9 642.955C369.809 642.989 369.682 643.023 369.519 643.057C369.356 643.095 369.15 643.114 368.9 643.114C368.521 643.114 368.15 643.032 367.786 642.869C367.426 642.706 367.127 642.458 366.888 642.125C366.653 641.792 366.536 641.371 366.536 640.864V632.182Z" fill="#31353F"/>
</g>
<path d="M406.216 643.105V634.668H407.648V643.105H406.216ZM402.713 639.602V638.17H411.151V639.602H402.713Z" fill="#31353F"/>
<g filter="url(#filter1_d_102_10195)">
<rect x="425" y="615" width="48" height="44" rx="8" fill="white"/>
<rect x="425.5" y="615.5" width="47" height="43" rx="7.5" stroke="#CDD0D5"/>
<path d="M452.364 635C452.239 634.617 452.074 634.275 451.869 633.972C451.669 633.665 451.428 633.403 451.148 633.188C450.871 632.972 450.557 632.807 450.205 632.693C449.852 632.58 449.466 632.523 449.045 632.523C448.356 632.523 447.729 632.701 447.165 633.057C446.6 633.413 446.152 633.938 445.818 634.631C445.485 635.324 445.318 636.174 445.318 637.182C445.318 638.189 445.487 639.04 445.824 639.733C446.161 640.426 446.617 640.951 447.193 641.307C447.769 641.663 448.417 641.841 449.136 641.841C449.803 641.841 450.39 641.699 450.898 641.415C451.409 641.127 451.807 640.722 452.091 640.199C452.379 639.672 452.523 639.053 452.523 638.341L452.955 638.432H449.455V637.182H453.886V638.432C453.886 639.39 453.682 640.223 453.273 640.932C452.867 641.64 452.307 642.189 451.591 642.58C450.879 642.966 450.061 643.159 449.136 643.159C448.106 643.159 447.201 642.917 446.42 642.432C445.644 641.947 445.038 641.258 444.602 640.364C444.17 639.47 443.955 638.409 443.955 637.182C443.955 636.261 444.078 635.434 444.324 634.699C444.574 633.96 444.926 633.331 445.381 632.812C445.835 632.294 446.373 631.896 446.994 631.619C447.616 631.343 448.299 631.205 449.045 631.205C449.659 631.205 450.231 631.297 450.761 631.483C451.295 631.665 451.771 631.924 452.188 632.261C452.608 632.595 452.958 632.994 453.239 633.46C453.519 633.922 453.712 634.436 453.818 635H452.364Z" fill="#31353F"/>
</g>
<path d="M1.99842 1278.45H3.25127C3.28772 1278.8 3.40539 1279.09 3.60425 1279.33C3.80643 1279.56 4.06826 1279.74 4.38976 1279.87C4.71126 1279.99 5.06755 1280.05 5.45865 1280.05C5.88289 1280.05 6.26405 1279.97 6.60212 1279.83C6.94019 1279.69 7.20865 1279.48 7.40752 1279.2C7.60638 1278.91 7.70581 1278.56 7.70581 1278.14C7.70581 1277.77 7.61964 1277.43 7.44729 1277.11C7.27494 1276.79 6.99819 1276.54 6.61703 1276.34C6.23588 1276.15 5.73043 1276.05 5.1007 1276.05H4.28536V1275.05L6.83081 1271.99V1271.91H2.49558L2.49558 1270.82H8.52115V1271.71L5.79672 1275.01V1275.09C6.23422 1275.11 6.64189 1275.2 7.01973 1275.36C7.40089 1275.52 7.73233 1275.74 8.01405 1276.01C8.29909 1276.28 8.52115 1276.6 8.68024 1276.96C8.83933 1277.32 8.91888 1277.71 8.91888 1278.14C8.91888 1278.72 8.76973 1279.23 8.47144 1279.69C8.17646 1280.14 7.76713 1280.49 7.24345 1280.75C6.72309 1281.01 6.12153 1281.14 5.43877 1281.14C4.83555 1281.14 4.28039 1281.03 3.77328 1280.82C3.26618 1280.61 2.85354 1280.3 2.53536 1279.9C2.21717 1279.5 2.0382 1279.02 1.99842 1278.45ZM10.8645 1281L10.8645 1280.11L14.2253 1276.43C14.6197 1276 14.9446 1275.62 15.1998 1275.3C15.455 1274.98 15.6439 1274.68 15.7665 1274.4C15.8925 1274.11 15.9554 1273.81 15.9554 1273.5C15.9554 1273.14 15.8693 1272.83 15.6969 1272.57C15.5279 1272.31 15.2959 1272.11 15.0009 1271.97C14.7059 1271.82 14.3745 1271.75 14.0066 1271.75C13.6155 1271.75 13.2741 1271.83 12.9824 1272C12.6941 1272.16 12.4704 1272.38 12.3113 1272.67C12.1555 1272.96 12.0776 1273.29 12.0776 1273.68H10.9043C10.9043 1273.09 11.0419 1272.56 11.3169 1272.11C11.592 1271.66 11.9666 1271.31 12.4405 1271.06C12.9178 1270.8 13.4531 1270.68 14.0463 1270.68C14.6429 1270.68 15.1716 1270.8 15.6323 1271.06C16.093 1271.31 16.4543 1271.65 16.7161 1272.08C16.9779 1272.5 17.1088 1272.98 17.1088 1273.5C17.1088 1273.88 17.0409 1274.24 16.905 1274.6C16.7724 1274.96 16.5404 1275.35 16.209 1275.79C15.8809 1276.22 15.4251 1276.75 14.8418 1277.38L12.5549 1279.83V1279.91H17.2878V1281H10.8645ZM19.277 1283.86V1273.36H20.4105V1274.58H20.5497C20.6359 1274.44 20.7552 1274.28 20.9077 1274.07C21.0634 1273.86 21.2855 1273.68 21.5739 1273.51C21.8655 1273.35 22.2599 1273.26 22.7571 1273.26C23.4001 1273.26 23.9668 1273.42 24.4574 1273.75C24.9479 1274.07 25.3307 1274.52 25.6058 1275.11C25.8809 1275.7 26.0185 1276.4 26.0185 1277.2C26.0185 1278.01 25.8809 1278.71 25.6058 1279.3C25.3307 1279.89 24.9496 1280.35 24.4624 1280.68C23.9751 1281 23.4133 1281.16 22.777 1281.16C22.2865 1281.16 21.8937 1281.08 21.5987 1280.92C21.3037 1280.75 21.0767 1280.56 20.9176 1280.35C20.7585 1280.14 20.6359 1279.97 20.5497 1279.83H20.4503V1283.86H19.277ZM20.4304 1277.18C20.4304 1277.76 20.5149 1278.27 20.6839 1278.71C20.853 1279.15 21.0999 1279.49 21.4247 1279.74C21.7495 1279.98 22.1472 1280.11 22.6179 1280.11C23.1084 1280.11 23.5177 1279.98 23.8459 1279.72C24.1773 1279.46 24.4259 1279.1 24.5916 1278.66C24.7606 1278.22 24.8452 1277.73 24.8452 1277.18C24.8452 1276.64 24.7623 1276.16 24.5966 1275.73C24.4342 1275.3 24.1873 1274.95 23.8558 1274.7C23.5277 1274.45 23.115 1274.32 22.6179 1274.32C22.1406 1274.32 21.7396 1274.44 21.4148 1274.68C21.09 1274.92 20.8447 1275.25 20.679 1275.69C20.5132 1276.11 20.4304 1276.61 20.4304 1277.18ZM28.2848 1273.36L30.1143 1276.49L31.9439 1273.36H33.2961L30.8302 1277.18L33.2961 1281H31.9439L30.1143 1278.04L28.2848 1281H26.9325L29.3586 1277.18L26.9325 1273.36H28.2848Z" fill="#3D42CE"/>
<path d="M33 1250V1258L33 1266" stroke="#3D42CE"/>
<path d="M1 1258H33" stroke="#3D42CE"/>
<path d="M1 1250L1 1258L1 1266" stroke="#3D42CE"/>
<path d="M33 1226L33 1236L33 1246" stroke="#3D42CE" stroke-linecap="round" stroke-linejoin="round" stroke-dasharray="0.1 3"/>
<path d="M1 1226L0.999999 1236L0.999998 1246" stroke="#3D42CE" stroke-linecap="round" stroke-linejoin="round" stroke-dasharray="0.1 3"/>
<path d="M127.505 1281V1280.11L130.865 1276.43C131.26 1276 131.585 1275.62 131.84 1275.3C132.095 1274.98 132.284 1274.68 132.407 1274.4C132.533 1274.11 132.596 1273.81 132.596 1273.5C132.596 1273.14 132.509 1272.83 132.337 1272.57C132.168 1272.31 131.936 1272.11 131.641 1271.97C131.346 1271.82 131.015 1271.75 130.647 1271.75C130.256 1271.75 129.914 1271.83 129.623 1272C129.334 1272.16 129.111 1272.38 128.951 1272.67C128.796 1272.96 128.718 1273.29 128.718 1273.68H127.544C127.544 1273.09 127.682 1272.56 127.957 1272.11C128.232 1271.66 128.607 1271.31 129.081 1271.06C129.558 1270.8 130.093 1270.68 130.687 1270.68C131.283 1270.68 131.812 1270.8 132.272 1271.06C132.733 1271.31 133.094 1271.65 133.356 1272.08C133.618 1272.5 133.749 1272.98 133.749 1273.5C133.749 1273.88 133.681 1274.24 133.545 1274.6C133.413 1274.96 133.181 1275.35 132.849 1275.79C132.521 1276.22 132.065 1276.75 131.482 1277.38L129.195 1279.83V1279.91H133.928V1281H127.505ZM135.44 1278.91V1277.9L139.914 1270.82H140.65V1272.39H140.153L136.772 1277.74V1277.82H142.798V1278.91H135.44ZM140.232 1281V1278.6V1278.13V1270.82H141.406V1281H140.232ZM144.597 1283.86V1273.36H145.73V1274.58H145.87C145.956 1274.44 146.075 1274.28 146.227 1274.07C146.383 1273.86 146.605 1273.68 146.894 1273.51C147.185 1273.35 147.58 1273.26 148.077 1273.26C148.72 1273.26 149.287 1273.42 149.777 1273.75C150.268 1274.07 150.651 1274.52 150.926 1275.11C151.201 1275.7 151.338 1276.4 151.338 1277.2C151.338 1278.01 151.201 1278.71 150.926 1279.3C150.651 1279.89 150.269 1280.35 149.782 1280.68C149.295 1281 148.733 1281.16 148.097 1281.16C147.606 1281.16 147.214 1281.08 146.919 1280.92C146.624 1280.75 146.397 1280.56 146.237 1280.35C146.078 1280.14 145.956 1279.97 145.87 1279.83H145.77V1283.86H144.597ZM145.75 1277.18C145.75 1277.76 145.835 1278.27 146.004 1278.71C146.173 1279.15 146.42 1279.49 146.745 1279.74C147.069 1279.98 147.467 1280.11 147.938 1280.11C148.428 1280.11 148.838 1279.98 149.166 1279.72C149.497 1279.46 149.746 1279.1 149.911 1278.66C150.08 1278.22 150.165 1277.73 150.165 1277.18C150.165 1276.64 150.082 1276.16 149.916 1275.73C149.754 1275.3 149.507 1274.95 149.176 1274.7C148.848 1274.45 148.435 1274.32 147.938 1274.32C147.46 1274.32 147.059 1274.44 146.735 1274.68C146.41 1274.92 146.165 1275.25 145.999 1275.69C145.833 1276.11 145.75 1276.61 145.75 1277.18ZM153.605 1273.36L155.434 1276.49L157.264 1273.36H158.616L156.15 1277.18L158.616 1281H157.264L155.434 1278.04L153.605 1281H152.252L154.678 1277.18L152.252 1273.36H153.605Z" fill="#3D42CE"/>
<path d="M154.333 1250V1258L154.333 1266" stroke="#3D42CE"/>
<path d="M130.333 1258H154.333" stroke="#3D42CE"/>
<path d="M130.333 1250V1258L130.333 1266" stroke="#3D42CE"/>
<path d="M154.333 1226L154.333 1236L154.333 1246" stroke="#3D42CE" stroke-linecap="round" stroke-linejoin="round" stroke-dasharray="0.1 3"/>
<path d="M130.333 1226L130.333 1236L130.333 1246" stroke="#3D42CE" stroke-linecap="round" stroke-linejoin="round" stroke-dasharray="0.1 3"/>
<path d="M248.838 1281V1280.11L252.198 1276.43C252.593 1276 252.918 1275.62 253.173 1275.3C253.428 1274.98 253.617 1274.68 253.74 1274.4C253.866 1274.11 253.929 1273.81 253.929 1273.5C253.929 1273.14 253.842 1272.83 253.67 1272.57C253.501 1272.31 253.269 1272.11 252.974 1271.97C252.679 1271.82 252.348 1271.75 251.98 1271.75C251.589 1271.75 251.247 1271.83 250.956 1272C250.667 1272.16 250.444 1272.38 250.284 1272.67C250.129 1272.96 250.051 1273.29 250.051 1273.68H248.877C248.877 1273.09 249.015 1272.56 249.29 1272.11C249.565 1271.66 249.94 1271.31 250.414 1271.06C250.891 1270.8 251.426 1270.68 252.02 1270.68C252.616 1270.68 253.145 1270.8 253.605 1271.06C254.066 1271.31 254.427 1271.65 254.689 1272.08C254.951 1272.5 255.082 1272.98 255.082 1273.5C255.082 1273.88 255.014 1274.24 254.878 1274.6C254.746 1274.96 254.514 1275.35 254.182 1275.79C253.854 1276.22 253.398 1276.75 252.815 1277.38L250.528 1279.83V1279.91H255.261V1281H248.838ZM256.773 1278.91V1277.9L261.247 1270.82H261.983V1272.39H261.486L258.105 1277.74V1277.82H264.131V1278.91H256.773ZM261.565 1281V1278.6V1278.13V1270.82H262.739V1281H261.565ZM265.93 1283.86V1273.36H267.063V1274.58H267.203C267.289 1274.44 267.408 1274.28 267.56 1274.07C267.716 1273.86 267.938 1273.68 268.227 1273.51C268.518 1273.35 268.913 1273.26 269.41 1273.26C270.053 1273.26 270.62 1273.42 271.11 1273.75C271.601 1274.07 271.984 1274.52 272.259 1275.11C272.534 1275.7 272.671 1276.4 272.671 1277.2C272.671 1278.01 272.534 1278.71 272.259 1279.3C271.984 1279.89 271.602 1280.35 271.115 1280.68C270.628 1281 270.066 1281.16 269.43 1281.16C268.939 1281.16 268.547 1281.08 268.252 1280.92C267.957 1280.75 267.73 1280.56 267.57 1280.35C267.411 1280.14 267.289 1279.97 267.203 1279.83H267.103V1283.86H265.93ZM267.083 1277.18C267.083 1277.76 267.168 1278.27 267.337 1278.71C267.506 1279.15 267.753 1279.49 268.078 1279.74C268.402 1279.98 268.8 1280.11 269.271 1280.11C269.761 1280.11 270.171 1279.98 270.499 1279.72C270.83 1279.46 271.079 1279.1 271.244 1278.66C271.413 1278.22 271.498 1277.73 271.498 1277.18C271.498 1276.64 271.415 1276.16 271.249 1275.73C271.087 1275.3 270.84 1274.95 270.509 1274.7C270.181 1274.45 269.768 1274.32 269.271 1274.32C268.793 1274.32 268.392 1274.44 268.068 1274.68C267.743 1274.92 267.498 1275.25 267.332 1275.69C267.166 1276.11 267.083 1276.61 267.083 1277.18ZM274.938 1273.36L276.767 1276.49L278.597 1273.36H279.949L277.483 1277.18L279.949 1281H278.597L276.767 1278.04L274.938 1281H273.585L276.011 1277.18L273.585 1273.36H274.938Z" fill="#3D42CE"/>
<path d="M275.667 1250V1258L275.667 1266" stroke="#3D42CE"/>
<path d="M251.667 1258H275.667" stroke="#3D42CE"/>
<path d="M251.667 1250V1258L251.667 1266" stroke="#3D42CE"/>
<path d="M275.667 1226L275.667 1236L275.667 1246" stroke="#3D42CE" stroke-linecap="round" stroke-linejoin="round" stroke-dasharray="0.1 3"/>
<path d="M251.667 1226L251.667 1236L251.667 1246" stroke="#3D42CE" stroke-linecap="round" stroke-linejoin="round" stroke-dasharray="0.1 3"/>
<path d="M370.171 1281V1280.11L373.532 1276.43C373.926 1276 374.251 1275.62 374.506 1275.3C374.762 1274.98 374.951 1274.68 375.073 1274.4C375.199 1274.11 375.262 1273.81 375.262 1273.5C375.262 1273.14 375.176 1272.83 375.004 1272.57C374.835 1272.31 374.603 1272.11 374.308 1271.97C374.013 1271.82 373.681 1271.75 373.313 1271.75C372.922 1271.75 372.581 1271.83 372.289 1272C372.001 1272.16 371.777 1272.38 371.618 1272.67C371.462 1272.96 371.384 1273.29 371.384 1273.68H370.211C370.211 1273.09 370.349 1272.56 370.624 1272.11C370.899 1271.66 371.273 1271.31 371.747 1271.06C372.224 1270.8 372.76 1270.68 373.353 1270.68C373.95 1270.68 374.478 1270.8 374.939 1271.06C375.4 1271.31 375.761 1271.65 376.023 1272.08C376.285 1272.5 376.416 1272.98 376.416 1273.5C376.416 1273.88 376.348 1274.24 376.212 1274.6C376.079 1274.96 375.847 1275.35 375.516 1275.79C375.188 1276.22 374.732 1276.75 374.148 1277.38L371.862 1279.83V1279.91H376.594V1281H370.171ZM378.106 1278.91V1277.9L382.581 1270.82H383.317V1272.39H382.819L379.439 1277.74V1277.82H385.464V1278.91H378.106ZM382.899 1281V1278.6V1278.13V1270.82H384.072V1281H382.899ZM387.263 1283.86V1273.36H388.397V1274.58H388.536C388.622 1274.44 388.742 1274.28 388.894 1274.07C389.05 1273.86 389.272 1273.68 389.56 1273.51C389.852 1273.35 390.246 1273.26 390.743 1273.26C391.386 1273.26 391.953 1273.42 392.444 1273.75C392.934 1274.07 393.317 1274.52 393.592 1275.11C393.867 1275.7 394.005 1276.4 394.005 1277.2C394.005 1278.01 393.867 1278.71 393.592 1279.3C393.317 1279.89 392.936 1280.35 392.449 1280.68C391.961 1281 391.4 1281.16 390.763 1281.16C390.273 1281.16 389.88 1281.08 389.585 1280.92C389.29 1280.75 389.063 1280.56 388.904 1280.35C388.745 1280.14 388.622 1279.97 388.536 1279.83H388.437V1283.86H387.263ZM388.417 1277.18C388.417 1277.76 388.501 1278.27 388.67 1278.71C388.839 1279.15 389.086 1279.49 389.411 1279.74C389.736 1279.98 390.134 1280.11 390.604 1280.11C391.095 1280.11 391.504 1279.98 391.832 1279.72C392.164 1279.46 392.412 1279.1 392.578 1278.66C392.747 1278.22 392.831 1277.73 392.831 1277.18C392.831 1276.64 392.749 1276.16 392.583 1275.73C392.421 1275.3 392.174 1274.95 391.842 1274.7C391.514 1274.45 391.101 1274.32 390.604 1274.32C390.127 1274.32 389.726 1274.44 389.401 1274.68C389.076 1274.92 388.831 1275.25 388.665 1275.69C388.5 1276.11 388.417 1276.61 388.417 1277.18ZM396.271 1273.36L398.101 1276.49L399.93 1273.36H401.282L398.817 1277.18L401.282 1281H399.93L398.101 1278.04L396.271 1281H394.919L397.345 1277.18L394.919 1273.36H396.271Z" fill="#3D42CE"/>
<path d="M397 1250V1258L397 1266" stroke="#3D42CE"/>
<path d="M373 1258H397" stroke="#3D42CE"/>
<path d="M373 1250V1258L373 1266" stroke="#3D42CE"/>
<path d="M397 1226L397 1236L397 1246" stroke="#3D42CE" stroke-linecap="round" stroke-linejoin="round" stroke-dasharray="0.1 3"/>
<path d="M373 1226L373 1236L373 1246" stroke="#3D42CE" stroke-linecap="round" stroke-linejoin="round" stroke-dasharray="0.1 3"/>
<path d="M491.505 1281V1280.11L494.865 1276.43C495.26 1276 495.585 1275.62 495.84 1275.3C496.095 1274.98 496.284 1274.68 496.407 1274.4C496.533 1274.11 496.596 1273.81 496.596 1273.5C496.596 1273.14 496.509 1272.83 496.337 1272.57C496.168 1272.31 495.936 1272.11 495.641 1271.97C495.346 1271.82 495.015 1271.75 494.647 1271.75C494.256 1271.75 493.914 1271.83 493.623 1272C493.334 1272.16 493.111 1272.38 492.951 1272.67C492.796 1272.96 492.718 1273.29 492.718 1273.68H491.544C491.544 1273.09 491.682 1272.56 491.957 1272.11C492.232 1271.66 492.607 1271.31 493.081 1271.06C493.558 1270.8 494.093 1270.68 494.687 1270.68C495.283 1270.68 495.812 1270.8 496.272 1271.06C496.733 1271.31 497.094 1271.65 497.356 1272.08C497.618 1272.5 497.749 1272.98 497.749 1273.5C497.749 1273.88 497.681 1274.24 497.545 1274.6C497.413 1274.96 497.181 1275.35 496.849 1275.79C496.521 1276.22 496.065 1276.75 495.482 1277.38L493.195 1279.83V1279.91H497.928V1281H491.505ZM499.44 1278.91V1277.9L503.914 1270.82H504.65V1272.39H504.153L500.772 1277.74V1277.82H506.798V1278.91H499.44ZM504.232 1281V1278.6V1278.13V1270.82H505.406V1281H504.232ZM508.597 1283.86V1273.36H509.73V1274.58H509.87C509.956 1274.44 510.075 1274.28 510.227 1274.07C510.383 1273.86 510.605 1273.68 510.894 1273.51C511.185 1273.35 511.58 1273.26 512.077 1273.26C512.72 1273.26 513.287 1273.42 513.777 1273.75C514.268 1274.07 514.651 1274.52 514.926 1275.11C515.201 1275.7 515.338 1276.4 515.338 1277.2C515.338 1278.01 515.201 1278.71 514.926 1279.3C514.651 1279.89 514.269 1280.35 513.782 1280.68C513.295 1281 512.733 1281.16 512.097 1281.16C511.606 1281.16 511.214 1281.08 510.919 1280.92C510.624 1280.75 510.397 1280.56 510.237 1280.35C510.078 1280.14 509.956 1279.97 509.87 1279.83H509.77V1283.86H508.597ZM509.75 1277.18C509.75 1277.76 509.835 1278.27 510.004 1278.71C510.173 1279.15 510.42 1279.49 510.745 1279.74C511.069 1279.98 511.467 1280.11 511.938 1280.11C512.428 1280.11 512.838 1279.98 513.166 1279.72C513.497 1279.46 513.746 1279.1 513.911 1278.66C514.08 1278.22 514.165 1277.73 514.165 1277.18C514.165 1276.64 514.082 1276.16 513.916 1275.73C513.754 1275.3 513.507 1274.95 513.176 1274.7C512.848 1274.45 512.435 1274.32 511.938 1274.32C511.46 1274.32 511.059 1274.44 510.735 1274.68C510.41 1274.92 510.165 1275.25 509.999 1275.69C509.833 1276.11 509.75 1276.61 509.75 1277.18ZM517.605 1273.36L519.434 1276.49L521.264 1273.36H522.616L520.15 1277.18L522.616 1281H521.264L519.434 1278.04L517.605 1281H516.252L518.678 1277.18L516.252 1273.36H517.605Z" fill="#3D42CE"/>
<path d="M518.333 1250V1258L518.333 1266" stroke="#3D42CE"/>
<path d="M494.333 1258H518.333" stroke="#3D42CE"/>
<path d="M494.333 1250V1258L494.333 1266" stroke="#3D42CE"/>
<path d="M518.333 1226L518.333 1236L518.333 1246" stroke="#3D42CE" stroke-linecap="round" stroke-linejoin="round" stroke-dasharray="0.1 3"/>
<path d="M494.333 1226L494.333 1236L494.333 1246" stroke="#3D42CE" stroke-linecap="round" stroke-linejoin="round" stroke-dasharray="0.1 3"/>
<path d="M612.838 1281V1280.11L616.198 1276.43C616.593 1276 616.918 1275.62 617.173 1275.3C617.428 1274.98 617.617 1274.68 617.74 1274.4C617.866 1274.11 617.929 1273.81 617.929 1273.5C617.929 1273.14 617.842 1272.83 617.67 1272.57C617.501 1272.31 617.269 1272.11 616.974 1271.97C616.679 1271.82 616.348 1271.75 615.98 1271.75C615.589 1271.75 615.247 1271.83 614.956 1272C614.667 1272.16 614.444 1272.38 614.284 1272.67C614.129 1272.96 614.051 1273.29 614.051 1273.68H612.877C612.877 1273.09 613.015 1272.56 613.29 1272.11C613.565 1271.66 613.94 1271.31 614.414 1271.06C614.891 1270.8 615.426 1270.68 616.02 1270.68C616.616 1270.68 617.145 1270.8 617.605 1271.06C618.066 1271.31 618.427 1271.65 618.689 1272.08C618.951 1272.5 619.082 1272.98 619.082 1273.5C619.082 1273.88 619.014 1274.24 618.878 1274.6C618.746 1274.96 618.514 1275.35 618.182 1275.79C617.854 1276.22 617.398 1276.75 616.815 1277.38L614.528 1279.83V1279.91H619.261V1281H612.838ZM620.773 1278.91V1277.9L625.247 1270.82H625.983V1272.39H625.486L622.105 1277.74V1277.82H628.131V1278.91H620.773ZM625.565 1281V1278.6V1278.13V1270.82H626.739V1281H625.565ZM629.93 1283.86V1273.36H631.063V1274.58H631.203C631.289 1274.44 631.408 1274.28 631.56 1274.07C631.716 1273.86 631.938 1273.68 632.227 1273.51C632.518 1273.35 632.913 1273.26 633.41 1273.26C634.053 1273.26 634.62 1273.42 635.11 1273.75C635.601 1274.07 635.984 1274.52 636.259 1275.11C636.534 1275.7 636.671 1276.4 636.671 1277.2C636.671 1278.01 636.534 1278.71 636.259 1279.3C635.984 1279.89 635.602 1280.35 635.115 1280.68C634.628 1281 634.066 1281.16 633.43 1281.16C632.939 1281.16 632.547 1281.08 632.252 1280.92C631.957 1280.75 631.73 1280.56 631.57 1280.35C631.411 1280.14 631.289 1279.97 631.203 1279.83H631.103V1283.86H629.93ZM631.083 1277.18C631.083 1277.76 631.168 1278.27 631.337 1278.71C631.506 1279.15 631.753 1279.49 632.078 1279.74C632.402 1279.98 632.8 1280.11 633.271 1280.11C633.761 1280.11 634.171 1279.98 634.499 1279.72C634.83 1279.46 635.079 1279.1 635.244 1278.66C635.413 1278.22 635.498 1277.73 635.498 1277.18C635.498 1276.64 635.415 1276.16 635.249 1275.73C635.087 1275.3 634.84 1274.95 634.509 1274.7C634.181 1274.45 633.768 1274.32 633.271 1274.32C632.793 1274.32 632.392 1274.44 632.068 1274.68C631.743 1274.92 631.498 1275.25 631.332 1275.69C631.166 1276.11 631.083 1276.61 631.083 1277.18ZM638.938 1273.36L640.767 1276.49L642.597 1273.36H643.949L641.483 1277.18L643.949 1281H642.597L640.767 1278.04L638.938 1281H637.585L640.011 1277.18L637.585 1273.36H638.938Z" fill="#3D42CE"/>
<path d="M639.667 1250V1258L639.667 1266" stroke="#3D42CE"/>
<path d="M615.667 1258H639.667" stroke="#3D42CE"/>
<path d="M615.667 1250V1258L615.667 1266" stroke="#3D42CE"/>
<path d="M639.667 1226L639.667 1236L639.667 1246" stroke="#3D42CE" stroke-linecap="round" stroke-linejoin="round" stroke-dasharray="0.1 3"/>
<path d="M615.667 1226L615.667 1236L615.667 1246" stroke="#3D42CE" stroke-linecap="round" stroke-linejoin="round" stroke-dasharray="0.1 3"/>
<path d="M737.998 1278.45H739.251C739.288 1278.8 739.405 1279.09 739.604 1279.33C739.806 1279.56 740.068 1279.74 740.39 1279.87C740.711 1279.99 741.068 1280.05 741.459 1280.05C741.883 1280.05 742.264 1279.97 742.602 1279.83C742.94 1279.69 743.209 1279.48 743.408 1279.2C743.606 1278.91 743.706 1278.56 743.706 1278.14C743.706 1277.77 743.62 1277.43 743.447 1277.11C743.275 1276.79 742.998 1276.54 742.617 1276.34C742.236 1276.15 741.73 1276.05 741.101 1276.05H740.285V1275.05L742.831 1271.99V1271.91H738.496V1270.82H744.521V1271.71L741.797 1275.01V1275.09C742.234 1275.11 742.642 1275.2 743.02 1275.36C743.401 1275.52 743.732 1275.74 744.014 1276.01C744.299 1276.28 744.521 1276.6 744.68 1276.96C744.839 1277.32 744.919 1277.71 744.919 1278.14C744.919 1278.72 744.77 1279.23 744.471 1279.69C744.176 1280.14 743.767 1280.49 743.243 1280.75C742.723 1281.01 742.122 1281.14 741.439 1281.14C740.836 1281.14 740.28 1281.03 739.773 1280.82C739.266 1280.61 738.854 1280.3 738.535 1279.9C738.217 1279.5 738.038 1279.02 737.998 1278.45ZM746.865 1281V1280.11L750.225 1276.43C750.62 1276 750.945 1275.62 751.2 1275.3C751.455 1274.98 751.644 1274.68 751.767 1274.4C751.892 1274.11 751.955 1273.81 751.955 1273.5C751.955 1273.14 751.869 1272.83 751.697 1272.57C751.528 1272.31 751.296 1272.11 751.001 1271.97C750.706 1271.82 750.374 1271.75 750.007 1271.75C749.615 1271.75 749.274 1271.83 748.982 1272C748.694 1272.16 748.47 1272.38 748.311 1272.67C748.155 1272.96 748.078 1273.29 748.078 1273.68H746.904C746.904 1273.09 747.042 1272.56 747.317 1272.11C747.592 1271.66 747.967 1271.31 748.441 1271.06C748.918 1270.8 749.453 1270.68 750.046 1270.68C750.643 1270.68 751.172 1270.8 751.632 1271.06C752.093 1271.31 752.454 1271.65 752.716 1272.08C752.978 1272.5 753.109 1272.98 753.109 1273.5C753.109 1273.88 753.041 1274.24 752.905 1274.6C752.772 1274.96 752.54 1275.35 752.209 1275.79C751.881 1276.22 751.425 1276.75 750.842 1277.38L748.555 1279.83V1279.91H753.288V1281H746.865ZM755.277 1283.86V1273.36H756.411V1274.58H756.55C756.636 1274.44 756.755 1274.28 756.908 1274.07C757.063 1273.86 757.286 1273.68 757.574 1273.51C757.866 1273.35 758.26 1273.26 758.757 1273.26C759.4 1273.26 759.967 1273.42 760.457 1273.75C760.948 1274.07 761.331 1274.52 761.606 1275.11C761.881 1275.7 762.018 1276.4 762.018 1277.2C762.018 1278.01 761.881 1278.71 761.606 1279.3C761.331 1279.89 760.95 1280.35 760.462 1280.68C759.975 1281 759.413 1281.16 758.777 1281.16C758.286 1281.16 757.894 1281.08 757.599 1280.92C757.304 1280.75 757.077 1280.56 756.918 1280.35C756.759 1280.14 756.636 1279.97 756.55 1279.83H756.45V1283.86H755.277ZM756.43 1277.18C756.43 1277.76 756.515 1278.27 756.684 1278.71C756.853 1279.15 757.1 1279.49 757.425 1279.74C757.75 1279.98 758.147 1280.11 758.618 1280.11C759.108 1280.11 759.518 1279.98 759.846 1279.72C760.177 1279.46 760.426 1279.1 760.592 1278.66C760.761 1278.22 760.845 1277.73 760.845 1277.18C760.845 1276.64 760.762 1276.16 760.597 1275.73C760.434 1275.3 760.187 1274.95 759.856 1274.7C759.528 1274.45 759.115 1274.32 758.618 1274.32C758.141 1274.32 757.74 1274.44 757.415 1274.68C757.09 1274.92 756.845 1275.25 756.679 1275.69C756.513 1276.11 756.43 1276.61 756.43 1277.18ZM764.285 1273.36L766.114 1276.49L767.944 1273.36H769.296L766.83 1277.18L769.296 1281H767.944L766.114 1278.04L764.285 1281H762.933L765.359 1277.18L762.933 1273.36H764.285Z" fill="#3D42CE"/>
<path d="M769 1250V1258L769 1266" stroke="#3D42CE"/>
<path d="M737 1258H769" stroke="#3D42CE"/>
<path d="M737 1250V1258L737 1266" stroke="#3D42CE"/>
<path d="M769 1226L769 1236L769 1246" stroke="#3D42CE" stroke-linecap="round" stroke-linejoin="round" stroke-dasharray="0.1 3"/>
<path d="M737 1226L737 1236L737 1246" stroke="#3D42CE" stroke-linecap="round" stroke-linejoin="round" stroke-dasharray="0.1 3"/>
<path d="M370.057 1350.88L373.225 1344.23H369.073V1343.25H374.029V1343.86L371.173 1351H370.177L370.057 1350.88ZM376.057 1347.14C376.057 1348.06 376.121 1348.78 376.249 1349.28C376.385 1349.79 376.561 1350.14 376.777 1350.33C376.993 1350.52 377.225 1350.62 377.473 1350.62C377.713 1350.62 377.937 1350.52 378.145 1350.33C378.361 1350.13 378.533 1349.78 378.661 1349.27C378.797 1348.77 378.865 1348.06 378.865 1347.14C378.865 1346.2 378.797 1345.48 378.661 1344.98C378.533 1344.47 378.361 1344.12 378.145 1343.93C377.937 1343.73 377.713 1343.63 377.473 1343.63C377.289 1343.63 377.109 1343.68 376.933 1343.79C376.765 1343.89 376.613 1344.07 376.477 1344.33C376.349 1344.58 376.245 1344.94 376.165 1345.4C376.093 1345.85 376.057 1346.43 376.057 1347.14ZM377.473 1343.09C377.897 1343.09 378.297 1343.22 378.673 1343.49C379.057 1343.74 379.369 1344.17 379.609 1344.76C379.857 1345.35 379.981 1346.14 379.981 1347.14C379.981 1348.12 379.857 1348.91 379.609 1349.5C379.369 1350.08 379.057 1350.51 378.673 1350.77C378.297 1351.03 377.897 1351.16 377.473 1351.16C377.049 1351.16 376.641 1351.03 376.249 1350.77C375.865 1350.51 375.553 1350.08 375.313 1349.5C375.073 1348.91 374.953 1348.12 374.953 1347.14C374.953 1346.14 375.073 1345.35 375.313 1344.76C375.553 1344.17 375.865 1343.74 376.249 1343.49C376.641 1343.22 377.049 1343.09 377.473 1343.09ZM386.269 1348.68H385.009V1351H384.013V1348.68H380.749V1348.05L384.313 1343.14H385.009V1347.93H386.269V1348.68ZM381.469 1347.93H384.013V1344.39L381.469 1347.93ZM386.881 1353.87V1353.45L387.841 1353.28C387.849 1352.95 387.853 1352.62 387.853 1352.3C387.861 1351.98 387.865 1351.66 387.865 1351.34V1347.9C387.865 1347.58 387.861 1347.3 387.853 1347.09C387.853 1346.87 387.845 1346.64 387.829 1346.4L386.881 1346.3V1345.88L388.561 1345.14L388.741 1345.26L388.813 1346.04C389.381 1345.44 389.985 1345.14 390.625 1345.14C391.057 1345.14 391.445 1345.26 391.789 1345.5C392.133 1345.74 392.405 1346.09 392.605 1346.54C392.813 1346.98 392.917 1347.51 392.917 1348.13C392.917 1348.75 392.809 1349.28 392.593 1349.74C392.377 1350.19 392.081 1350.54 391.705 1350.78C391.337 1351.03 390.917 1351.16 390.445 1351.16C390.173 1351.16 389.901 1351.1 389.629 1350.99C389.365 1350.88 389.105 1350.67 388.849 1350.38V1351.32C388.849 1351.64 388.849 1351.96 388.849 1352.28C388.857 1352.61 388.865 1352.94 388.873 1353.27L389.965 1353.45V1353.87H386.881ZM390.337 1345.83C390.153 1345.83 389.941 1345.88 389.701 1345.97C389.461 1346.06 389.189 1346.23 388.885 1346.49V1349.86C389.109 1350.08 389.329 1350.23 389.545 1350.33C389.761 1350.42 389.981 1350.47 390.205 1350.47C390.653 1350.47 391.037 1350.29 391.357 1349.93C391.677 1349.57 391.837 1349 391.837 1348.23C391.837 1347.46 391.697 1346.87 391.417 1346.45C391.137 1346.04 390.777 1345.83 390.337 1345.83ZM397.015 1345.77V1345.3H399.259V1345.77L398.551 1345.9L396.835 1348.01L398.503 1350.4L399.415 1350.57V1351H396.487V1350.57L397.339 1350.41L396.163 1348.7L394.843 1350.41L395.743 1350.57V1351H393.343V1350.57L394.111 1350.42L395.863 1348.25L394.255 1345.9L393.427 1345.77V1345.3H396.103V1345.77L395.371 1345.9L396.523 1347.57L397.807 1345.92L397.015 1345.77Z" fill="#3D42CE"/>
<path d="M737 1322V1330L737 1338" stroke="#3D42CE"/>
<path d="M33 1330L737 1330" stroke="#3D42CE"/>
<path d="M33 1322V1330L33 1338" stroke="#3D42CE"/>
<path d="M737 1298L737 1308L737 1318" stroke="#3D42CE" stroke-linecap="round" stroke-linejoin="round" stroke-dasharray="0.1 3"/>
<path d="M33 1298L33 1308L32.9999 1318" stroke="#3D42CE" stroke-linecap="round" stroke-linejoin="round" stroke-dasharray="0.1 3"/>
<path d="M370.057 1422.88L373.225 1416.23H369.073V1415.25H374.029V1415.86L371.173 1423H370.177L370.057 1422.88ZM377.509 1422.62C377.909 1422.62 378.237 1422.44 378.493 1422.1C378.749 1421.75 378.877 1421.26 378.877 1420.64C378.877 1420.08 378.749 1419.66 378.493 1419.39C378.245 1419.11 377.913 1418.97 377.497 1418.97C377.257 1418.97 377.013 1419.01 376.765 1419.09C376.525 1419.17 376.289 1419.3 376.057 1419.5C376.049 1419.58 376.041 1419.66 376.033 1419.75C376.033 1419.83 376.033 1419.91 376.033 1420C376.033 1420.91 376.169 1421.58 376.441 1421.99C376.713 1422.41 377.069 1422.62 377.509 1422.62ZM379.945 1420.61C379.945 1421.12 379.829 1421.56 379.597 1421.94C379.365 1422.33 379.065 1422.63 378.697 1422.84C378.329 1423.05 377.941 1423.16 377.533 1423.16C376.733 1423.16 376.101 1422.86 375.637 1422.28C375.173 1421.69 374.941 1420.88 374.941 1419.86C374.941 1419.06 375.117 1418.32 375.469 1417.64C375.829 1416.96 376.353 1416.39 377.041 1415.94C377.729 1415.49 378.561 1415.2 379.537 1415.09L379.609 1415.48C378.521 1415.76 377.701 1416.2 377.149 1416.81C376.597 1417.42 376.253 1418.14 376.117 1418.98C376.629 1418.48 377.209 1418.24 377.857 1418.24C378.297 1418.24 378.669 1418.34 378.973 1418.55C379.285 1418.76 379.525 1419.04 379.693 1419.4C379.861 1419.75 379.945 1420.16 379.945 1420.61ZM382.201 1416.83C382.201 1417.14 382.301 1417.44 382.501 1417.73C382.701 1418.02 383.097 1418.32 383.689 1418.62C384.049 1418.34 384.301 1418.08 384.445 1417.83C384.589 1417.58 384.661 1417.29 384.661 1416.96C384.661 1416.6 384.557 1416.29 384.349 1416.03C384.141 1415.76 383.849 1415.63 383.473 1415.63C383.129 1415.63 382.829 1415.74 382.573 1415.96C382.325 1416.17 382.201 1416.46 382.201 1416.83ZM380.989 1421.21C380.989 1420.78 381.133 1420.4 381.421 1420.08C381.709 1419.76 382.129 1419.47 382.681 1419.2C382.177 1418.92 381.813 1418.6 381.589 1418.25C381.365 1417.9 381.253 1417.51 381.253 1417.1C381.253 1416.67 381.353 1416.31 381.553 1416.02C381.753 1415.72 382.021 1415.49 382.357 1415.33C382.701 1415.17 383.081 1415.09 383.497 1415.09C384.129 1415.09 384.629 1415.26 384.997 1415.61C385.373 1415.95 385.561 1416.4 385.561 1416.94C385.561 1417.22 385.461 1417.53 385.261 1417.86C385.061 1418.19 384.689 1418.52 384.145 1418.84C384.737 1419.13 385.181 1419.45 385.477 1419.8C385.773 1420.14 385.921 1420.58 385.921 1421.1C385.921 1421.5 385.813 1421.86 385.597 1422.17C385.381 1422.48 385.089 1422.73 384.721 1422.9C384.353 1423.07 383.937 1423.16 383.473 1423.16C382.745 1423.16 382.149 1422.99 381.685 1422.66C381.221 1422.34 380.989 1421.85 380.989 1421.21ZM381.985 1421.14C381.985 1421.56 382.125 1421.92 382.405 1422.21C382.693 1422.49 383.057 1422.63 383.497 1422.63C383.921 1422.63 384.261 1422.49 384.517 1422.21C384.781 1421.93 384.913 1421.59 384.913 1421.19C384.913 1420.84 384.781 1420.53 384.517 1420.28C384.261 1420.02 383.797 1419.74 383.125 1419.42C382.749 1419.66 382.465 1419.9 382.273 1420.16C382.081 1420.41 381.985 1420.74 381.985 1421.14ZM386.881 1425.87V1425.45L387.841 1425.28C387.849 1424.95 387.853 1424.62 387.853 1424.3C387.861 1423.98 387.865 1423.66 387.865 1423.34V1419.9C387.865 1419.58 387.861 1419.3 387.853 1419.09C387.853 1418.87 387.845 1418.64 387.829 1418.4L386.881 1418.3V1417.88L388.561 1417.14L388.741 1417.26L388.813 1418.04C389.381 1417.44 389.985 1417.14 390.625 1417.14C391.057 1417.14 391.445 1417.26 391.789 1417.5C392.133 1417.74 392.405 1418.09 392.605 1418.54C392.813 1418.98 392.917 1419.51 392.917 1420.13C392.917 1420.75 392.809 1421.28 392.593 1421.74C392.377 1422.19 392.081 1422.54 391.705 1422.78C391.337 1423.03 390.917 1423.16 390.445 1423.16C390.173 1423.16 389.901 1423.1 389.629 1422.99C389.365 1422.88 389.105 1422.67 388.849 1422.38V1423.32C388.849 1423.64 388.849 1423.96 388.849 1424.28C388.857 1424.61 388.865 1424.94 388.873 1425.27L389.965 1425.45V1425.87H386.881ZM390.337 1417.83C390.153 1417.83 389.941 1417.88 389.701 1417.97C389.461 1418.06 389.189 1418.23 388.885 1418.49V1421.86C389.109 1422.08 389.329 1422.23 389.545 1422.33C389.761 1422.42 389.981 1422.47 390.205 1422.47C390.653 1422.47 391.037 1422.29 391.357 1421.93C391.677 1421.57 391.837 1421 391.837 1420.23C391.837 1419.46 391.697 1418.87 391.417 1418.45C391.137 1418.04 390.777 1417.83 390.337 1417.83ZM397.015 1417.77V1417.3H399.259V1417.77L398.551 1417.9L396.835 1420.01L398.503 1422.4L399.415 1422.57V1423H396.487V1422.57L397.339 1422.41L396.163 1420.7L394.843 1422.41L395.743 1422.57V1423H393.343V1422.57L394.111 1422.42L395.863 1420.25L394.255 1417.9L393.427 1417.77V1417.3H396.103V1417.77L395.371 1417.9L396.523 1419.57L397.807 1417.92L397.015 1417.77Z" fill="#3D42CE"/>
<path d="M769 1394V1402L769 1410" stroke="#3D42CE"/>
<path d="M1 1402L769 1402" stroke="#3D42CE"/>
<path d="M1 1394L1 1402L1 1410" stroke="#3D42CE"/>
<path d="M769 1370L769 1380L769 1390" stroke="#3D42CE" stroke-linecap="round" stroke-linejoin="round" stroke-dasharray="0.1 3"/>
<path d="M1 1370L0.999971 1380L0.999941 1390" stroke="#3D42CE" stroke-linecap="round" stroke-linejoin="round" stroke-dasharray="0.1 3"/>
<defs>
<filter id="filter0_d_102_10195" x="295" y="614" width="96" height="48" filterUnits="userSpaceOnUse" color-interpolation-filters="sRGB">
<feFlood flood-opacity="0" result="BackgroundImageFix"/>
<feColorMatrix in="SourceAlpha" type="matrix" values="0 0 0 0 0 0 0 0 0 0 0 0 0 0 0 0 0 0 127 0" result="hardAlpha"/>
<feOffset dy="1"/>
<feGaussianBlur stdDeviation="1"/>
<feColorMatrix type="matrix" values="0 0 0 0 0.0627451 0 0 0 0 0.0941176 0 0 0 0 0.156863 0 0 0 0.05 0"/>
<feBlend mode="normal" in2="BackgroundImageFix" result="effect1_dropShadow_102_10195"/>
<feBlend mode="normal" in="SourceGraphic" in2="effect1_dropShadow_102_10195" result="shape"/>
</filter>
<filter id="filter1_d_102_10195" x="423" y="614" width="52" height="48" filterUnits="userSpaceOnUse" color-interpolation-filters="sRGB">
<feFlood flood-opacity="0" result="BackgroundImageFix"/>
<feColorMatrix in="SourceAlpha" type="matrix" values="0 0 0 0 0 0 0 0 0 0 0 0 0 0 0 0 0 0 127 0" result="hardAlpha"/>
<feOffset dy="1"/>
<feGaussianBlur stdDeviation="1"/>
<feColorMatrix type="matrix" values="0 0 0 0 0.0627451 0 0 0 0 0.0941176 0 0 0 0 0.156863 0 0 0 0.05 0"/>
<feBlend mode="normal" in2="BackgroundImageFix" result="effect1_dropShadow_102_10195"/>
<feBlend mode="normal" in="SourceGraphic" in2="effect1_dropShadow_102_10195" result="shape"/>
</filter>
</defs>
</svg>
